<?xml version="1.0" encoding="UTF-8" standalone="no"?>
<!-- Created with Inkscape (http://www.inkscape.org/) -->

<svg
   version="1.1"
   id="svg1"
   width="100%"
   height="100%"
   viewBox="0 0 280.79999 104.66667"
   xmlns="http://www.w3.org/2000/svg"
   xmlns:svg="http://www.w3.org/2000/svg">
  <defs
     id="defs1" />
  <g
     id="g1">
    <path
       id="path2"
       d="m 224.08399,31.733338 c 0.82134,2.092667 1.232,4.612 1.232,7.559867 l -0.0973,3.908933 c -0.0707,1.4052 -0.14,3.034267 -0.20933,4.885867 -0.1,1.886933 -0.188,3.996933 -0.25734,6.3276 l -0.104,8.177066 0.0547,5.5052 c 0.0347,1.749067 0.136,3.635466 0.30667,5.658933 l -2.36667,-0.205733 h -4.524 l -2.31467,0.205733 0.72,-10.648533 0.35867,-22.322799 -0.564,-4.938134 c -0.412,-1.5432 -1.03067,-2.8812 -1.852,-4.012933 -0.85733,-1.132266 -1.98933,-2.022933 -3.39467,-2.674 -1.40666,-0.685866 -3.172,-1.0292 -5.3,-1.0292 -2.536,0 -4.696,0.497467 -6.47999,1.491734 -1.75067,0.993733 -3.12134,2.160399 -4.116,3.498399 l -1.336,2.314667 -0.72,3.496267 -0.36,6.637066 -0.10534,11.776 0.15467,8.233333 0.36133,8.178133 -4.57866,-0.205733 -4.576,0.205733 0.66666,-11.781333 0.15334,-11.830666 -0.0493,-7.714533 -0.25866,-4.421467 -0.564,-2.674933 -0.97734,-2.316667 c -0.78933,-1.334933 -2.00666,-2.483866 -3.65066,-3.4464 -1.64667,-0.959333 -3.34534,-1.4396 -5.092,-1.4396 -2.30134,0 -4.288,0.377067 -5.96934,1.1292 -1.71333,0.7584 -3.12133,1.889067 -4.21733,3.398933 -2.16,3.017734 -3.24,7.2672 -3.24,12.754267 v 8.95 l 0.152,9.977999 0.724,9.4152 -4.732,-0.205733 -4.78667,0.205733 0.72,-9.4152 0.15467,-9.977999 v -10.9532 l -0.15467,-9.9292 -0.72,-9.771866 4.78667,0.5652 1.79867,-0.206267 2.36266,-0.358933 -0.30533,8.434399 h 0.20667 c 1.852,-3.155199 4.09866,-5.520266 6.73333,-7.098933 2.61067,-1.576533 5.596,-2.3656 8.952,-2.3656 1.752,0 3.46667,0.2568 5.14533,0.770267 1.64534,0.548933 3.15467,1.270267 4.528,2.163067 1.36934,0.922933 2.55467,2.039066 3.54667,3.342666 0.96133,1.303067 1.632,2.692133 2.00533,4.166133 h 0.20667 c 1.68,-3.396799 3.98,-5.985333 6.89467,-7.766666 2.91466,-1.784933 6.27466,-2.675467 10.07999,-2.675467 2.332,0 4.49067,0.308267 6.47867,0.926534 1.95467,0.649466 3.656,1.6432 5.096,2.9812 1.44133,1.339066 2.57067,3.054266 3.39333,5.146399 z m 56.71467,31.9636 v -0.188667 l -0.49333,-0.2984 -3.24134,2.986 -3.96133,2.3656 -4.268,1.540667 -4.31733,0.6208 c -6.00267,0 -10.54934,-1.8516 -13.63467,-5.5584 -1.54267,-1.850534 -2.692,-4.131734 -3.444,-6.838534 -0.78933,-2.743733 -1.18533,-5.916666 -1.18533,-9.518133 0,-3.2568 0.34266,-6.256799 1.028,-8.999066 0.65333,-2.7796 1.7,-5.197333 3.14,-7.255733 1.43866,-2.021333 3.308,-3.617067 5.60533,-4.781733 2.26533,-1.166667 4.97467,-1.748934 8.128,-1.748934 1.71333,0 3.27467,0.273467 4.68,0.8224 l 3.808,2.005734 3.036,2.623999 2.004,2.778534 h 0.82267 l 0.97733,-3.650933 1.316,-3.242267 v -0.06973 c -1.33867,-1.1932 -3.52667,-2.2672 -6.56133,-3.221867 -3.05334,-0.924533 -6.51734,-1.389067 -10.39067,-1.389067 -3.36133,0 -6.65333,0.515067 -9.876,1.545334 -3.22267,0.9916 -6.08933,2.570266 -8.59333,4.730666 -2.5,2.126 -4.52267,4.8328 -6.06667,8.126 -1.544,3.326667 -2.316,7.269867 -2.316,11.8308 l 0.56533,6.583333 c 0.38,2.023467 0.94534,3.857733 1.7,5.5036 1.50534,3.327066 3.49467,6.018266 5.96534,8.077066 2.43333,2.055734 5.19333,3.532267 8.28266,4.424533 3.052,0.890667 6.08667,1.338 9.10534,1.338 3.35866,0 6.59866,-0.601066 9.72,-1.803066 3.12,-1.198 5.744,-2.638133 7.86933,-4.317733 z m -155.33613,-39.987599 4.73067,0.5652 4.7348,-0.5652 -0.668,9.771866 -0.208,9.9292 v 10.9532 l 0.208,9.977999 0.668,9.4152 -4.7348,-0.205733 -4.73067,0.205733 0.66867,-9.4152 0.15266,-9.977999 v -10.9532 l -0.15266,-9.9292 -0.66867,-9.771866 v 0"
       style="fill:#231f20;fill-opacity:1;fill-rule:evenodd;stroke:none;stroke-width:0.133333" />
    <path
       id="path3"
       d="m 124.7948,5.3964058 c 0,-1.4750666 0.53066,-2.7422666 1.5912,-3.8047999 1.06506,-1.06399996 2.3328,-1.59519995 3.8072,-1.59519995 1.4756,0 2.72613,0.53119999 3.7548,1.59519995 1.06266,1.0625333 1.59333,2.3297333 1.59333,3.8047999 0,1.4738666 -0.53067,2.7426666 -1.59333,3.8071999 -1.02867,1.0270663 -2.2792,1.5396003 -3.7548,1.5396003 -1.4744,0 -2.74214,-0.512534 -3.8072,-1.5396003 -1.06054,-1.0645333 -1.5912,-2.3333333 -1.5912,-3.8071999 v 0"
       style="fill:#3cabb4;fill-opacity:1;fill-rule:evenodd;stroke:none;stroke-width:0.133333" />
    <path
       id="path4"
       d="m 125.01306,85.18907 c -0.0125,-0.453066 -0.0324,-0.909866 -0.0604,-1.365599 0.11867,0.01293 0.24787,0.0244 0.38947,0.0348 0.14227,0.01053 0.29907,0.01573 0.47347,0.01573 0.17706,0 0.33746,-0.0052 0.47653,-0.01573 0.14013,-0.0104 0.27187,-0.02187 0.39013,-0.0348 -0.0281,0.455733 -0.0479,0.912533 -0.0625,1.365599 -0.0156,0.453067 -0.0208,0.974 -0.0208,1.556267 v 1.435867 c 0,0.586 0.005,1.104266 0.0208,1.557333 0.0147,0.454667 0.0344,0.895867 0.0625,1.334933 -0.11826,-0.01467 -0.25,-0.024 -0.39013,-0.024 h -0.95 c -0.1416,0 -0.2708,0.0093 -0.38947,0.024 0.028,-0.439066 0.0479,-0.880266 0.0604,-1.334933 0.0156,-0.453067 0.0229,-0.971333 0.0229,-1.557333 v -1.435867 c 0,-0.582267 -0.007,-1.1032 -0.0229,-1.556267 v 0"
       style="fill:#231f20;fill-opacity:1;fill-rule:nonzero;stroke:none;stroke-width:0.133333" />
    <path
       id="path5"
       d="m 129.70266,84.696937 c -0.0167,-0.328133 -0.0261,-0.6224 -0.0333,-0.873466 0.19733,0.03387 0.35413,0.05053 0.476,0.05053 0.11867,0 0.27493,-0.01667 0.47347,-0.05053 0.7672,0.849999 1.52493,1.685866 2.2744,2.511466 0.74946,0.821867 1.51746,1.657733 2.30546,2.512 v -1.941733 c 0,-0.3464 -0.003,-0.684934 -0.004,-1.0192 -0.004,-0.334934 -0.008,-0.6448 -0.012,-0.926134 -0.004,-0.2812 -0.009,-0.523466 -0.0187,-0.726533 -0.0107,-0.205733 -0.024,-0.3412 -0.0387,-0.409866 0.19733,0.03387 0.35467,0.05053 0.476,0.05053 0.11867,0 0.27867,-0.01667 0.47333,-0.05053 -0.036,0.639066 -0.064,1.218666 -0.0827,1.735333 -0.02,0.5172 -0.0373,1.004266 -0.0533,1.460933 -0.016,0.457333 -0.0227,0.911467 -0.0253,1.3568 -0.005,0.448 -0.008,0.924533 -0.008,1.431333 v 1.2656 c -0.14,-0.01467 -0.284,-0.024 -0.43067,-0.024 -0.15733,0 -0.29466,0.0093 -0.412,0.024 -1.45066,-1.690666 -2.9872,-3.387066 -4.61266,-5.0964 -0.009,0.2016 -0.014,0.407334 -0.0161,0.6104 -0.003,0.205734 -0.005,0.4104 -0.005,0.6224 v 1.224 c 0,0.421867 0.001,0.778667 0.005,1.076534 0.002,0.297466 0.007,0.545866 0.0161,0.7516 0.006,0.200533 0.014,0.3708 0.0219,0.5 0.008,0.130133 0.0125,0.233333 0.0203,0.311466 -0.0833,-0.01467 -0.1692,-0.024 -0.25307,-0.024 h -0.24066 c -0.16507,0 -0.32707,0.0093 -0.48587,0.024 0.0125,-0.05467 0.0292,-0.257866 0.05,-0.602133 0.0235,-0.3448 0.0459,-0.766667 0.0703,-1.2588 0.0235,-0.497467 0.0469,-1.036533 0.0641,-1.6172 0.0156,-0.581733 0.0249,-1.138 0.0249,-1.671867 0,-0.487066 -0.007,-0.8932 -0.0192,-1.226533 v 0"
       style="fill:#231f20;fill-opacity:1;fill-rule:nonzero;stroke:none;stroke-width:0.133333" />
    <path
       id="path6"
       d="m 138.93466,85.18907 c -0.0133,-0.453066 -0.0333,-0.909866 -0.0613,-1.365599 0.11867,0.01293 0.248,0.0244 0.39067,0.0348 0.14,0.01053 0.29733,0.01573 0.47333,0.01573 0.232,0 0.492,-0.0079 0.78133,-0.02613 0.288,-0.01667 0.664,-0.0244 1.128,-0.0244 0.60534,0 1.15867,0.05307 1.65334,0.162533 0.49733,0.109333 0.92533,0.2932 1.284,0.554667 0.356,0.260399 0.63333,0.610933 0.83333,1.049466 0.196,0.440133 0.29333,0.9948 0.29333,1.661467 0,0.5848 -0.096,1.112 -0.288,1.585866 -0.19466,0.471334 -0.45866,0.8724 -0.792,1.205734 -0.33466,0.336 -0.72266,0.5896 -1.16133,0.7672 -0.44133,0.174533 -0.90933,0.263066 -1.408,0.263066 -0.52933,0 -0.98,-0.0052 -1.35333,-0.01307 -0.372,-0.0057 -0.69734,-0.01093 -0.97067,-0.01093 H 139.264 c -0.14267,0 -0.272,0.0093 -0.39067,0.024 0.028,-0.439066 0.048,-0.880266 0.0613,-1.334933 0.016,-0.453067 0.024,-0.971333 0.024,-1.557333 v -1.435867 c 0,-0.582267 -0.008,-1.1032 -0.024,-1.556267 z m 1.584,3.763067 v 0.6328 c 0,0.204667 0.003,0.3896 0.005,0.559867 0.004,0.168266 0.007,0.278666 0.007,0.326533 0.10534,0.0068 0.23067,0.01467 0.38,0.0224 0.14667,0.0052 0.33067,0.0093 0.54667,0.0093 0.79467,0 1.424,-0.269733 1.89067,-0.811466 0.464,-0.542667 0.696,-1.361867 0.696,-2.460934 0,-0.435866 -0.0573,-0.826533 -0.17467,-1.1692 -0.11333,-0.347466 -0.27867,-0.640666 -0.492,-0.8812 -0.21067,-0.243866 -0.46133,-0.4324 -0.75867,-0.559999 -0.29333,-0.129067 -0.62533,-0.1968 -0.99066,-0.1968 -0.256,0 -0.46134,0.0052 -0.61734,0.0156 -0.15866,0.0104 -0.316,0.02347 -0.48,0.038 0,0.04947 -0.003,0.157333 -0.007,0.326533 -0.003,0.170933 -0.005,0.3584 -0.005,0.5704 v 3.578133 0"
       style="fill:#231f20;fill-opacity:1;fill-rule:nonzero;stroke:none;stroke-width:0.133333" />
    <path
       id="path7"
       d="m 150.24533,91.06827 c -0.39067,-0.09533 -0.73067,-0.252666 -1.02133,-0.476666 -0.28667,-0.220267 -0.51334,-0.506667 -0.67867,-0.853067 -0.16533,-0.350533 -0.248,-0.7724 -0.248,-1.2708 0,-0.285467 0.003,-0.535467 0.005,-0.7552 0.003,-0.224 0.004,-0.429733 0.004,-0.6172 0,-0.190133 0.003,-0.375067 0.005,-0.549467 0.005,-0.177066 0.005,-0.359466 0.005,-0.548 0,-0.571866 -0.003,-1.031733 -0.0107,-1.382799 -0.007,-0.351467 -0.016,-0.616134 -0.0293,-0.7916 0.14,0.01293 0.28267,0.0244 0.43333,0.0348 0.148,0.01053 0.28934,0.01573 0.432,0.01573 0.14134,0 0.284,-0.0052 0.43334,-0.01573 0.148,-0.0104 0.288,-0.02187 0.432,-0.0348 -0.0707,0.681733 -0.11467,1.314533 -0.128,1.904666 -0.016,0.588533 -0.02,1.182267 -0.02,1.789067 0,0.6396 0.0467,1.157733 0.13733,1.549466 0.088,0.3932 0.228,0.697867 0.40933,0.914 0.17734,0.2136 0.39734,0.355734 0.656,0.4272 0.25867,0.07027 0.56534,0.105734 0.90934,0.105734 0.42133,0 0.752,-0.105734 0.992,-0.3152 0.23733,-0.210934 0.41733,-0.493734 0.54133,-0.845334 0.12533,-0.351466 0.2,-0.7552 0.22933,-1.206666 0.0267,-0.457334 0.0387,-0.931334 0.0387,-1.420934 0,-0.488 -0.005,-0.9724 -0.0187,-1.451466 -0.0147,-0.483334 -0.036,-0.966133 -0.064,-1.450533 0.0973,0.01293 0.192,0.0244 0.28267,0.0348 0.092,0.01053 0.176,0.01573 0.25467,0.01573 0.092,0 0.18,-0.0052 0.264,-0.01573 0.0867,-0.0104 0.17466,-0.02187 0.264,-0.0348 -0.0147,0.156266 -0.0267,0.3604 -0.0413,0.6208 -0.0133,0.261999 -0.028,0.560933 -0.0413,0.903599 -0.0147,0.3412 -0.028,0.717734 -0.0387,1.1276 -0.009,0.414134 -0.0147,0.8464 -0.0147,1.3048 0,1.223867 -0.26267,2.101467 -0.792,2.6328 -0.528,0.5312 -1.30267,0.7968 -2.32267,0.7968 -0.44933,0 -0.86933,-0.04787 -1.26,-0.1416 v 0"
       style="fill:#231f20;fill-opacity:1;fill-rule:nonzero;stroke:none;stroke-width:0.133333" />
    <path
       id="path8"
       d="m 159.45333,84.337471 c -0.32,0 -0.588,0.0964 -0.79467,0.286533 -0.20266,0.19 -0.30133,0.412933 -0.30133,0.6656 0,0.2588 0.0773,0.4724 0.23867,0.639066 0.156,0.164 0.35333,0.312534 0.592,0.449467 0.23866,0.133867 0.49866,0.259867 0.772,0.3812 0.27333,0.1276 0.532,0.2776 0.77066,0.455733 0.23867,0.179734 0.43867,0.398534 0.59467,0.653734 0.15867,0.259333 0.23733,0.585866 0.23733,0.986933 0,0.3516 -0.064,0.674533 -0.19866,0.966133 -0.13467,0.291734 -0.32534,0.541734 -0.568,0.75 -0.25067,0.2084 -0.54267,0.364534 -0.88134,0.474 -0.344,0.109334 -0.72666,0.164 -1.148,0.164 -0.37733,0 -0.71866,-0.03907 -1.01733,-0.121333 -0.30133,-0.0792 -0.52533,-0.181733 -0.67867,-0.3016 0.068,-0.2448 0.12667,-0.470267 0.17734,-0.676 0.048,-0.203067 0.0907,-0.424533 0.12666,-0.664 h 0.20134 c 0.0267,0.1552 0.0813,0.302 0.15733,0.439067 0.076,0.1364 0.176,0.2588 0.296,0.3656 0.12,0.104133 0.264,0.187466 0.43067,0.247333 0.17066,0.05733 0.36,0.08747 0.572,0.08747 0.42133,0 0.732,-0.104134 0.932,-0.315067 0.20133,-0.209867 0.30266,-0.463467 0.30266,-0.760933 0,-0.2692 -0.0773,-0.485467 -0.23333,-0.654667 -0.15333,-0.167733 -0.34667,-0.317733 -0.58,-0.445333 -0.232,-0.1312 -0.484,-0.2588 -0.75867,-0.3812 -0.276,-0.125067 -0.52933,-0.274 -0.76266,-0.449467 -0.23067,-0.177067 -0.424,-0.390667 -0.57734,-0.651067 -0.15733,-0.2552 -0.23466,-0.584933 -0.23466,-0.9844 0,-0.3672 0.0653,-0.689066 0.19466,-0.969733 0.12934,-0.283867 0.30534,-0.519866 0.52267,-0.710933 0.22,-0.189067 0.47067,-0.333333 0.75867,-0.429733 0.28266,-0.09787 0.58533,-0.1484 0.89866,-0.1484 0.38134,0 0.71334,0.0452 1,0.138 0.284,0.09213 0.52667,0.219733 0.732,0.376 -0.064,0.164133 -0.11866,0.321866 -0.16133,0.473999 -0.0493,0.151067 -0.10667,0.341067 -0.17733,0.572934 h -0.15734 C 160.50533,84.64214 160.08,84.337474 159.45333,84.337474 v 0"
       style="fill:#231f20;fill-opacity:1;fill-rule:nonzero;stroke:none;stroke-width:0.133333" />
    <path
       id="path9"
       d="m 165.25066,84.984937 c 0,-0.170933 -0.0107,-0.293333 -0.024,-0.369866 -0.10666,0 -0.236,0.0011 -0.39066,0.0089 -0.15334,0.0067 -0.32267,0.0156 -0.49467,0.02493 -0.176,0.01413 -0.356,0.026 -0.54133,0.04267 -0.18134,0.01933 -0.352,0.03653 -0.50667,0.06 0.016,-0.07813 0.028,-0.154667 0.0413,-0.2344 0.007,-0.0756 0.012,-0.1536 0.012,-0.231733 0,-0.07667 -0.005,-0.153734 -0.012,-0.231867 -0.0133,-0.07387 -0.0253,-0.1536 -0.0413,-0.230133 0.23733,0.0063 0.45733,0.01293 0.652,0.0192 0.192,0.0095 0.39067,0.01467 0.588,0.0156 0.20267,0.0043 0.42,0.0079 0.65467,0.01053 0.23866,0.0025 0.52,0.0052 0.85066,0.0052 0.33334,0 0.61467,-0.0027 0.852,-0.0052 0.232,-0.0027 0.448,-0.0063 0.64667,-0.01053 0.19733,-9.34e-4 0.38933,-0.0061 0.576,-0.0156 0.18667,-0.0063 0.38933,-0.01293 0.60667,-0.0192 -0.0147,0.07653 -0.0253,0.156266 -0.0347,0.230133 -0.0147,0.07813 -0.0187,0.1552 -0.0187,0.231867 0,0.07813 0.004,0.156133 0.0187,0.231733 0.009,0.07973 0.02,0.156266 0.0347,0.2344 -0.14134,-0.02347 -0.29867,-0.04067 -0.47467,-0.06 -0.176,-0.01667 -0.34933,-0.02853 -0.52267,-0.04267 -0.17066,-0.0093 -0.33733,-0.01827 -0.488,-0.02493 -0.156,-0.0079 -0.28666,-0.0089 -0.396,-0.0089 -0.007,0.03227 -0.009,0.08187 -0.0107,0.145333 -0.009,0.06413 -0.009,0.136933 -0.009,0.224533 v 3.196267 c 0,0.586 0.009,1.104266 0.02,1.557333 0.016,0.454667 0.0387,0.895867 0.068,1.334933 -0.12266,-0.01467 -0.252,-0.024 -0.38933,-0.024 h -0.95467 c -0.14133,0 -0.268,0.0093 -0.38933,0.024 0.028,-0.439066 0.048,-0.880266 0.064,-1.334933 0.0133,-0.453067 0.0227,-0.971333 0.0227,-1.557333 v -2.639067 c 0,-0.204667 -0.004,-0.390533 -0.009,-0.5572 v 0"
       style="fill:#231f20;fill-opacity:1;fill-rule:nonzero;stroke:none;stroke-width:0.133333" />
    <path
       id="path10"
       d="m 172.56266,87.74787 v 0.433334 c 0,0.586 0.008,1.104266 0.0213,1.557333 0.009,0.454667 0.0347,0.895867 0.0613,1.334933 -0.11867,-0.01467 -0.24667,-0.024 -0.38933,-0.024 h -0.95067 c -0.13867,0 -0.27067,0.0093 -0.388,0.024 0.0253,-0.439066 0.0467,-0.880266 0.0587,-1.334933 0.016,-0.453067 0.0253,-0.971333 0.0253,-1.557333 v -1.435867 c 0,-0.582267 -0.009,-1.1032 -0.0253,-1.556267 -0.012,-0.453066 -0.0333,-0.909866 -0.0587,-1.365599 0.11733,0.01293 0.24933,0.0244 0.388,0.0348 0.14,0.01053 0.3,0.01573 0.47867,0.01573 0.188,0 0.404,-0.0079 0.644,-0.02613 0.244,-0.01667 0.544,-0.0244 0.904,-0.0244 0.26933,0 0.49466,0.0063 0.688,0.0192 0.188,0.01467 0.35066,0.038 0.48933,0.06413 0.136,0.0296 0.25867,0.06773 0.35733,0.107733 0.10267,0.04947 0.2,0.1016 0.292,0.166667 0.21067,0.153733 0.37734,0.3464 0.50267,0.574 0.12,0.2308 0.18267,0.503066 0.18267,0.818266 0,0.515067 -0.14134,0.933334 -0.42267,1.257734 -0.28133,0.324 -0.68667,0.5532 -1.21333,0.686 0.33733,0.5964 0.704,1.192666 1.088,1.789066 0.38666,0.591067 0.77466,1.182267 1.16,1.7672 -0.16267,-0.01467 -0.32134,-0.024 -0.47467,-0.024 H 175.028 c -0.16134,0 -0.31867,0.0093 -0.48267,0.024 l -1.888,-3.3256 z m 1.57334,-2.6796 c -0.0627,-0.183866 -0.164,-0.321866 -0.29067,-0.419333 -0.132,-0.09267 -0.3,-0.152533 -0.50667,-0.1812 -0.208,-0.03133 -0.45733,-0.04427 -0.74666,-0.04427 -0.0213,0.958266 -0.0293,1.911466 -0.0293,2.869733 0.04,0.0095 0.0827,0.01307 0.12134,0.01827 0.0373,0.0041 0.0733,0.0052 0.10933,0.0052 0.46533,0 0.82133,-0.1276 1.06667,-0.375066 0.244,-0.25 0.36933,-0.6276 0.36933,-1.136934 0,-0.305733 -0.0333,-0.555733 -0.0933,-0.7364 v 0"
       style="fill:#231f20;fill-opacity:1;fill-rule:nonzero;stroke:none;stroke-width:0.133333" />
    <path
       id="path11"
       d="m 178.588,85.18907 c -0.0147,-0.453066 -0.0347,-0.909866 -0.0613,-1.365599 0.116,0.01293 0.24667,0.0244 0.38934,0.0348 0.14133,0.01053 0.29733,0.01573 0.476,0.01573 0.17333,0 0.332,-0.0052 0.472,-0.01573 0.14266,-0.0104 0.26933,-0.02187 0.392,-0.0348 -0.028,0.455733 -0.0507,0.912533 -0.0653,1.365599 -0.009,0.453067 -0.0187,0.974 -0.0187,1.556267 v 1.435867 c 0,0.586 0.009,1.104266 0.0187,1.557333 0.0147,0.454667 0.0373,0.895867 0.0653,1.334933 -0.12267,-0.01467 -0.24934,-0.024 -0.392,-0.024 h -0.948 c -0.14267,0 -0.27334,0.0093 -0.38934,0.024 0.0267,-0.439066 0.0467,-0.880266 0.0613,-1.334933 0.016,-0.453067 0.0213,-0.971333 0.0213,-1.557333 v -1.435867 c 0,-0.582267 -0.005,-1.1032 -0.0213,-1.556267 v 0"
       style="fill:#231f20;fill-opacity:1;fill-rule:nonzero;stroke:none;stroke-width:0.133333" />
    <path
       id="path12"
       d="m 189.15466,91.07347 c -0.16933,-0.01467 -0.33333,-0.024 -0.48133,-0.024 H 187.776 c -0.152,0 -0.30134,0.0093 -0.448,0.024 -0.11467,-0.345333 -0.22934,-0.696933 -0.35067,-1.056266 -0.116,-0.3568 -0.24267,-0.716134 -0.38133,-1.078134 -0.22267,-0.0052 -0.448,-0.0104 -0.672,-0.01413 -0.228,-0.0015 -0.452,-0.0052 -0.676,-0.0052 -0.18134,0 -0.364,0.0037 -0.55067,0.0052 -0.18,0.0037 -0.364,0.0089 -0.54933,0.01413 -0.13867,0.362 -0.27067,0.721334 -0.38667,1.078134 -0.12,0.359333 -0.23067,0.710933 -0.32667,1.056266 -0.0853,-0.01467 -0.17066,-0.024 -0.248,-0.024 h -0.504 c -0.0827,0 -0.17466,0.0093 -0.27333,0.024 0.0827,-0.181333 0.19733,-0.439066 0.34,-0.7604 0.13867,-0.324533 0.292,-0.689066 0.46267,-1.100533 0.16666,-0.406267 0.35066,-0.8448 0.54,-1.309867 0.19866,-0.4688 0.388,-0.9428 0.584,-1.422 0.19333,-0.476533 0.384,-0.947866 0.56666,-1.4124 0.18934,-0.463599 0.35734,-0.897466 0.51467,-1.298533 0.0693,0.01307 0.13733,0.02453 0.20133,0.03813 0.06,0.0088 0.12934,0.0156 0.19867,0.0156 0.068,0 0.13867,-0.0068 0.20133,-0.0156 0.0653,-0.0136 0.12934,-0.02507 0.20134,-0.03813 0.22533,0.599067 0.46533,1.235467 0.724,1.919333 0.25333,0.684934 0.512,1.354134 0.77466,2.013067 0.25734,0.656133 0.51067,1.2812 0.75867,1.8724 0.24667,0.59 0.47067,1.09 0.67733,1.498933 z m -3.73733,-5.2688 c -0.18267,0.426 -0.356,0.841734 -0.52,1.254134 -0.16,0.408933 -0.31733,0.8292 -0.47333,1.259466 h 1.93066 c -0.15466,-0.430266 -0.30533,-0.850533 -0.45733,-1.259466 -0.152,-0.4124 -0.312,-0.828134 -0.48,-1.254134 v 0"
       style="fill:#231f20;fill-opacity:1;fill-rule:nonzero;stroke:none;stroke-width:0.133333" />
    <path
       id="path13"
       d="m 191.336,85.18907 c -0.0107,-0.453066 -0.0333,-0.909866 -0.0613,-1.365599 0.12,0.01293 0.248,0.0244 0.38934,0.0348 0.14133,0.01053 0.3,0.01573 0.47466,0.01573 0.176,0 0.33734,-0.0052 0.47734,-0.01573 0.13733,-0.0104 0.26933,-0.02187 0.39066,-0.0348 -0.0293,0.455733 -0.0507,0.912533 -0.064,1.365599 -0.0133,0.453067 -0.0227,0.974 -0.0227,1.556267 v 1.435867 c 0,0.402666 0.004,0.786533 0.007,1.161466 0.005,0.369867 0.005,0.695334 0.016,0.9704 0.39867,0 0.80267,-0.0095 1.20134,-0.0328 0.40133,-0.01827 0.80666,-0.0548 1.21333,-0.105333 -0.0133,0.07813 -0.024,0.1496 -0.0293,0.212 -0.009,0.06253 -0.0107,0.15 -0.0107,0.263067 0,0.114533 0.001,0.200533 0.0107,0.263066 0.005,0.064 0.016,0.1172 0.0293,0.1604 -0.19067,-0.0079 -0.424,-0.01307 -0.70267,-0.0188 -0.27466,-0.0011 -0.656,-0.0052 -1.144,-0.0052 h -1.675 c -0.156,0 -0.27467,0.0041 -0.35734,0.0052 -0.0787,0.0057 -0.148,0.01093 -0.204,0.0188 0.028,-0.439066 0.0507,-0.880266 0.0613,-1.334933 0.0173,-0.453067 0.0253,-0.971333 0.0253,-1.557333 v -1.435867 c 0,-0.582267 -0.008,-1.1032 -0.0253,-1.556267 v 0"
       style="fill:#231f20;fill-opacity:1;fill-rule:nonzero;stroke:none;stroke-width:0.133333" />
    <path
       id="path14"
       d="m 202.39866,88.707337 c -0.0573,0.789067 -0.112,1.575467 -0.17067,2.366133 -0.0853,-0.01467 -0.168,-0.024 -0.252,-0.024 h -0.492 c -0.0787,0 -0.16,0.0093 -0.24666,0.024 0.22533,-1.210933 0.42533,-2.413066 0.6,-3.609466 0.17733,-1.1968 0.34133,-2.4104 0.488,-3.640533 0.0733,0.01293 0.14666,0.0244 0.21466,0.0348 0.0693,0.01053 0.14267,0.01573 0.21734,0.01573 0.0627,0 0.13066,-0.0052 0.20133,-0.01573 0.0693,-0.0104 0.144,-0.02187 0.22267,-0.0348 0.18933,0.420266 0.38933,0.849999 0.59466,1.287466 0.20534,0.434933 0.41467,0.8672 0.62134,1.302133 0.208,0.433867 0.41733,0.859334 0.62133,1.2708 0.20933,0.415067 0.408,0.809867 0.59867,1.182267 0.42,-0.7864 0.84266,-1.609333 1.26266,-2.474 0.41867,-0.862933 0.81467,-1.718667 1.19734,-2.568666 0.17333,0.03387 0.32666,0.05053 0.452,0.05053 0.124,0 0.268,-0.01667 0.444,-0.05053 0.0707,0.602533 0.14666,1.253599 0.22666,1.948933 0.08,0.697866 0.16134,1.380266 0.24,2.046933 0.076,0.664 0.15334,1.283733 0.22934,1.861867 0.0773,0.5756 0.14533,1.040133 0.20933,1.392266 -0.13733,-0.01467 -0.28,-0.024 -0.42533,-0.024 h -0.86134 c -0.144,0 -0.29466,0.0093 -0.44133,0.024 -0.036,-0.724533 -0.0907,-1.509466 -0.17333,-2.3532 -0.084,-0.846266 -0.16534,-1.682266 -0.248,-2.512933 h -0.0213 c -0.40133,0.830667 -0.796,1.645733 -1.18133,2.447867 -0.38667,0.802133 -0.77333,1.6084 -1.152,2.418266 -0.036,-0.0079 -0.0653,-0.01307 -0.0987,-0.01467 -0.0307,-0.0052 -0.068,-0.0093 -0.10133,-0.0093 -0.036,0 -0.0707,0.0041 -0.0987,0.0093 -0.032,0.0016 -0.0667,0.0068 -0.104,0.01467 -0.37866,-0.790666 -0.756,-1.577066 -1.13333,-2.366133 -0.37333,-0.7876 -0.76533,-1.586 -1.164,-2.393333 h -0.024 c -0.11067,0.807333 -0.19333,1.605733 -0.252,2.393333 v 0"
       style="fill:#231f20;fill-opacity:1;fill-rule:nonzero;stroke:none;stroke-width:0.133333" />
    <path
       id="path15"
       d="m 212.02799,85.99787 c 0.19334,-0.459866 0.46934,-0.859866 0.81867,-1.2036 0.35333,-0.344799 0.77867,-0.615599 1.27733,-0.814533 0.49867,-0.196933 1.056,-0.294266 1.66667,-0.294266 0.56133,0 1.08933,0.07813 1.57333,0.231733 0.48534,0.154667 0.908,0.389067 1.26534,0.697867 0.36266,0.308399 0.644,0.700533 0.84933,1.172933 0.212,0.4776 0.312,1.031333 0.312,1.664133 0,0.528533 -0.0987,1.0192 -0.30133,1.478133 -0.19867,0.456667 -0.47734,0.8552 -0.83067,1.198934 -0.356,0.338533 -0.78133,0.605733 -1.276,0.794266 -0.488,0.190134 -1.03067,0.2864 -1.62267,0.2864 -0.556,0 -1.07733,-0.06773 -1.56666,-0.205733 -0.49067,-0.135333 -0.91467,-0.359333 -1.27734,-0.664 -0.36266,-0.307333 -0.648,-0.698 -0.86133,-1.172933 -0.208,-0.474 -0.31467,-1.0432 -0.31467,-1.7032 0,-0.5224 0.0973,-1.011867 0.288,-1.466134 z m 5.86267,0.0037 c -0.112,-0.362 -0.268,-0.6704 -0.46933,-0.924534 -0.2,-0.252533 -0.44267,-0.447866 -0.72667,-0.584399 -0.28533,-0.136934 -0.59867,-0.2072 -0.93467,-0.2072 -0.356,0 -0.68133,0.08853 -0.96533,0.2604 -0.28667,0.171866 -0.52667,0.405199 -0.72267,0.700533 -0.19733,0.295733 -0.348,0.6432 -0.44933,1.039066 -0.10267,0.3984 -0.152,0.8244 -0.152,1.2724 0,0.560934 0.0573,1.039067 0.17867,1.425467 0.11866,0.388 0.28,0.698933 0.48533,0.933867 0.20533,0.2344 0.43867,0.407333 0.70667,0.513066 0.26666,0.102534 0.54933,0.156134 0.84666,0.156134 0.31467,0 0.61734,-0.06507 0.904,-0.199467 0.29334,-0.133867 0.54134,-0.338533 0.756,-0.612933 0.216,-0.273467 0.388,-0.624 0.51734,-1.043334 0.132,-0.4228 0.19333,-0.921866 0.19333,-1.5 0,-0.455733 -0.0547,-0.867066 -0.168,-1.229066 v 0"
       style="fill:#231f20;fill-opacity:1;fill-rule:nonzero;stroke:none;stroke-width:0.133333" />
    <path
       id="path16"
       d="m 222.29333,84.696937 c -0.0133,-0.328133 -0.0253,-0.6224 -0.0347,-0.873466 0.20267,0.03387 0.35733,0.05053 0.47733,0.05053 0.12,0 0.27867,-0.01667 0.472,-0.05053 0.768,0.849999 1.52934,1.685866 2.276,2.511466 0.75334,0.821867 1.52134,1.657733 2.308,2.512 v -1.941733 c 0,-0.3464 -10e-4,-0.684934 -0.005,-1.0192 -0.004,-0.334934 -0.007,-0.6448 -0.0107,-0.926134 -0.004,-0.2812 -0.009,-0.523466 -0.0213,-0.726533 -0.012,-0.205733 -0.0213,-0.3412 -0.0373,-0.409866 0.2,0.03387 0.356,0.05053 0.476,0.05053 0.11733,0 0.27866,-0.01667 0.476,-0.05053 -0.0347,0.639066 -0.064,1.218666 -0.0853,1.735333 -0.0213,0.5172 -0.0373,1.004266 -0.056,1.460933 -0.009,0.457333 -0.0173,0.911467 -0.0227,1.3568 -0.003,0.448 -0.005,0.924533 -0.005,1.431333 v 1.2656 c -0.14,-0.01467 -0.284,-0.024 -0.43466,-0.024 -0.15334,0 -0.28934,0.0093 -0.40934,0.024 -1.45333,-1.690666 -2.988,-3.387066 -4.61466,-5.0964 -0.005,0.2016 -0.0107,0.407334 -0.0133,0.6104 -0.004,0.205734 -0.004,0.4104 -0.004,0.6224 v 1.224 c 0,0.421867 0,0.778667 0.004,1.076534 0.003,0.297466 0.008,0.545866 0.0133,0.7516 0.008,0.200533 0.0133,0.3708 0.0213,0.5 0.008,0.130133 0.0173,0.233333 0.0227,0.311466 -0.0827,-0.01467 -0.16934,-0.024 -0.25467,-0.024 h -0.24267 c -0.16133,0 -0.324,0.0093 -0.484,0.024 0.0133,-0.05467 0.0293,-0.257866 0.052,-0.602133 0.024,-0.3448 0.0453,-0.766667 0.0693,-1.2588 0.0227,-0.497467 0.048,-1.036533 0.0627,-1.6172 0.0173,-0.581733 0.0267,-1.138 0.0267,-1.671867 0,-0.487066 -0.007,-0.8932 -0.0213,-1.226533 v 0"
       style="fill:#231f20;fill-opacity:1;fill-rule:nonzero;stroke:none;stroke-width:0.133333" />
    <path
       id="path17"
       d="m 231.57333,85.18907 c -0.016,-0.453066 -0.0373,-0.909866 -0.064,-1.365599 0.11866,0.01293 0.248,0.0244 0.39066,0.0348 0.13734,0.01053 0.29734,0.01573 0.472,0.01573 0.17734,0 0.33467,-0.0052 0.47734,-0.01573 0.13866,-0.0104 0.268,-0.02187 0.38933,-0.0348 -0.028,0.455733 -0.048,0.912533 -0.0653,1.365599 -0.012,0.453067 -0.0187,0.974 -0.0187,1.556267 v 1.435867 c 0,0.586 0.007,1.104266 0.0187,1.557333 0.0173,0.454667 0.0373,0.895867 0.0653,1.334933 -0.12133,-0.01467 -0.25067,-0.024 -0.38933,-0.024 h -0.94934 c -0.14266,0 -0.272,0.0093 -0.39066,0.024 0.0267,-0.439066 0.048,-0.880266 0.064,-1.334933 0.012,-0.453067 0.0173,-0.971333 0.0173,-1.557333 v -1.435867 c 0,-0.582267 -0.005,-1.1032 -0.0173,-1.556267 v 0"
       style="fill:#231f20;fill-opacity:1;fill-rule:nonzero;stroke:none;stroke-width:0.133333" />
    <path
       id="path18"
       d="m 237.42133,84.984937 c -0.004,-0.170933 -0.009,-0.293333 -0.0253,-0.369866 -0.10533,0 -0.23466,0.0011 -0.39066,0.0089 -0.156,0.0067 -0.31734,0.0156 -0.49467,0.02493 -0.17467,0.01413 -0.35733,0.026 -0.53867,0.04267 -0.18266,0.01933 -0.352,0.03653 -0.50533,0.06 0.0107,-0.07813 0.0267,-0.154667 0.036,-0.2344 0.012,-0.0756 0.016,-0.1536 0.016,-0.231733 0,-0.07667 -0.004,-0.153734 -0.016,-0.231867 -0.009,-0.07387 -0.0253,-0.1536 -0.036,-0.230133 0.23867,0.0063 0.45467,0.01293 0.64667,0.0192 0.192,0.0095 0.39333,0.01467 0.592,0.0156 0.20266,0.0043 0.42,0.0079 0.65466,0.01053 0.236,0.0025 0.52,0.0052 0.848,0.0052 0.33067,0 0.616,-0.0027 0.84934,-0.0052 0.23466,-0.0027 0.45333,-0.0063 0.648,-0.01053 0.20266,-9.34e-4 0.38933,-0.0061 0.57733,-0.0156 0.188,-0.0063 0.38933,-0.01293 0.60667,-0.0192 -0.0147,0.07653 -0.0253,0.156266 -0.0373,0.230133 -0.009,0.07813 -0.016,0.1552 -0.016,0.231867 0,0.07813 0.007,0.156133 0.016,0.231733 0.012,0.07973 0.0227,0.156266 0.0373,0.2344 -0.13867,-0.02347 -0.30134,-0.04067 -0.47334,-0.06 -0.17866,-0.01667 -0.35066,-0.02853 -0.52266,-0.04267 -0.176,-0.0093 -0.33867,-0.01827 -0.492,-0.02493 -0.15334,-0.0079 -0.284,-0.0089 -0.39067,-0.0089 -0.008,0.03227 -0.012,0.08187 -0.016,0.145333 -0.001,0.06413 -0.005,0.136933 -0.005,0.224533 v 3.196267 c 0,0.586 0.009,1.104266 0.0213,1.557333 0.0133,0.454667 0.0333,0.895867 0.0627,1.334933 -0.11734,-0.01467 -0.24934,-0.024 -0.38667,-0.024 h -0.952 c -0.14267,0 -0.27067,0.0093 -0.39067,0.024 0.028,-0.439066 0.0493,-0.880266 0.0627,-1.334933 0.0133,-0.453067 0.0213,-0.971333 0.0213,-1.557333 v -2.639067 c 0,-0.204667 -0.004,-0.390533 -0.007,-0.5572 v 0"
       style="fill:#231f20;fill-opacity:1;fill-rule:nonzero;stroke:none;stroke-width:0.133333" />
    <path
       id="path19"
       d="m 242.49999,85.99787 c 0.19467,-0.459866 0.46667,-0.859866 0.81867,-1.2036 0.352,-0.344799 0.77733,-0.615599 1.276,-0.814533 0.49867,-0.196933 1.056,-0.294266 1.66533,-0.294266 0.56534,0 1.09067,0.07813 1.57334,0.231733 0.48666,0.154667 0.908,0.389067 1.268,0.697867 0.35866,0.308399 0.64266,0.700533 0.85066,1.172933 0.20667,0.4776 0.31067,1.031333 0.31067,1.664133 0,0.528533 -0.10133,1.0192 -0.3,1.478133 -0.204,0.456667 -0.48267,0.8552 -0.836,1.198934 -0.35467,0.338533 -0.77867,0.605733 -1.26933,0.794266 -0.49334,0.190134 -1.03734,0.2864 -1.62534,0.2864 -0.556,0 -1.08133,-0.06773 -1.56933,-0.205733 -0.48533,-0.135333 -0.91067,-0.359333 -1.276,-0.664 -0.36,-0.307333 -0.648,-0.698 -0.86,-1.172933 -0.212,-0.474 -0.31867,-1.0432 -0.31867,-1.7032 0,-0.5224 0.0987,-1.011867 0.292,-1.466134 z m 5.864,0.0037 c -0.11466,-0.362 -0.26933,-0.6704 -0.472,-0.924534 -0.19866,-0.252533 -0.44133,-0.447866 -0.728,-0.584399 -0.284,-0.136934 -0.596,-0.2072 -0.932,-0.2072 -0.36,0 -0.68266,0.08853 -0.96933,0.2604 -0.284,0.171866 -0.52267,0.405199 -0.72267,0.700533 -0.196,0.295733 -0.34666,0.6432 -0.444,1.039066 -0.104,0.3984 -0.156,0.8244 -0.156,1.2724 0,0.560934 0.0587,1.039067 0.18,1.425467 0.12134,0.388 0.27867,0.698933 0.484,0.933867 0.20534,0.2344 0.43734,0.407333 0.708,0.513066 0.26934,0.102534 0.54934,0.156134 0.84534,0.156134 0.316,0 0.61866,-0.06507 0.908,-0.199467 0.28933,-0.133867 0.53733,-0.338533 0.752,-0.612933 0.21333,-0.273467 0.39066,-0.624 0.51866,-1.043334 0.132,-0.4228 0.196,-0.921866 0.196,-1.5 0,-0.455733 -0.056,-0.867066 -0.168,-1.229066 v 0"
       style="fill:#231f20;fill-opacity:1;fill-rule:nonzero;stroke:none;stroke-width:0.133333" />
    <path
       id="path20"
       d="m 254.25199,87.74787 v 0.433334 c 0,0.586 0.005,1.104266 0.0213,1.557333 0.0133,0.454667 0.0333,0.895867 0.064,1.334933 -0.12134,-0.01467 -0.252,-0.024 -0.39334,-0.024 h -0.94666 c -0.14,0 -0.27334,0.0093 -0.39067,0.024 0.0267,-0.439066 0.0467,-0.880266 0.06,-1.334933 0.016,-0.453067 0.0227,-0.971333 0.0227,-1.557333 v -1.435867 c 0,-0.582267 -0.007,-1.1032 -0.0227,-1.556267 -0.0133,-0.453066 -0.0333,-0.909866 -0.06,-1.365599 0.11733,0.01293 0.25067,0.0244 0.39067,0.0348 0.13866,0.01053 0.29733,0.01573 0.47466,0.01573 0.188,0 0.40534,-0.0079 0.65067,-0.02613 0.23867,-0.01667 0.54133,-0.0244 0.89867,-0.0244 0.268,0 0.49733,0.0063 0.68666,0.0192 0.19067,0.01467 0.35467,0.038 0.48934,0.06413 0.13866,0.0296 0.25866,0.06773 0.36266,0.107733 0.1,0.04947 0.19467,0.1016 0.28934,0.166667 0.21066,0.153733 0.37866,0.3464 0.5,0.574 0.124,0.2308 0.18533,0.503066 0.18533,0.818266 0,0.515067 -0.14,0.933334 -0.42133,1.257734 -0.284,0.324 -0.68667,0.5532 -1.21467,0.686 0.336,0.5964 0.69733,1.192666 1.08533,1.789066 0.38534,0.591067 0.776,1.182267 1.16134,1.7672 -0.16,-0.01467 -0.31734,-0.024 -0.476,-0.024 h -0.95467 c -0.15467,0 -0.31733,0.0093 -0.48,0.024 l -1.888,-3.3256 z m 1.57334,-2.6796 c -0.064,-0.183866 -0.16134,-0.321866 -0.29334,-0.419333 -0.128,-0.09267 -0.296,-0.152533 -0.504,-0.1812 -0.208,-0.03133 -0.45733,-0.04427 -0.744,-0.04427 -0.0213,0.958266 -0.032,1.911466 -0.032,2.869733 0.04,0.0095 0.084,0.01307 0.11867,0.01827 0.044,0.0041 0.0773,0.0052 0.11333,0.0052 0.464,0 0.82134,-0.1276 1.06534,-0.375066 0.248,-0.25 0.37066,-0.6276 0.37066,-1.136934 0,-0.305733 -0.0347,-0.555733 -0.0947,-0.7364 v 0"
       style="fill:#231f20;fill-opacity:1;fill-rule:nonzero;stroke:none;stroke-width:0.133333" />
    <path
       id="path21"
       d="m 260.27599,85.18907 c -0.0107,-0.453066 -0.0307,-0.909866 -0.0613,-1.365599 0.11867,0.01293 0.24933,0.0244 0.38933,0.0348 0.14267,0.01053 0.3,0.01573 0.476,0.01573 0.17867,0 0.33467,-0.0052 0.472,-0.01573 0.14267,-0.0104 0.276,-0.02187 0.396,-0.0348 -0.0333,0.455733 -0.052,0.912533 -0.064,1.365599 -0.016,0.453067 -0.024,0.974 -0.024,1.556267 v 1.435867 c 0,0.586 0.008,1.104266 0.024,1.557333 0.012,0.454667 0.0307,0.895867 0.064,1.334933 -0.12,-0.01467 -0.25333,-0.024 -0.396,-0.024 h -0.948 c -0.14,0 -0.27066,0.0093 -0.38933,0.024 0.0307,-0.439066 0.0507,-0.880266 0.0613,-1.334933 0.016,-0.453067 0.0253,-0.971333 0.0253,-1.557333 v -1.435867 c 0,-0.582267 -0.009,-1.1032 -0.0253,-1.556267 v 0"
       style="fill:#231f20;fill-opacity:1;fill-rule:nonzero;stroke:none;stroke-width:0.133333" />
    <path
       id="path22"
       d="m 264.96666,84.696937 c -0.016,-0.328133 -0.0267,-0.6224 -0.0333,-0.873466 0.19466,0.03387 0.35333,0.05053 0.47333,0.05053 0.12267,0 0.27867,-0.01667 0.476,-0.05053 0.76667,0.849999 1.52533,1.685866 2.276,2.511466 0.74667,0.821867 1.516,1.657733 2.30533,2.512 v -1.941733 c 0,-0.3464 -0.004,-0.684934 -0.005,-1.0192 -0.005,-0.334934 -0.009,-0.6448 -0.0107,-0.926134 -0.005,-0.2812 -0.012,-0.523466 -0.0227,-0.726533 -0.008,-0.205733 -0.02,-0.3412 -0.0347,-0.409866 0.19467,0.03387 0.35333,0.05053 0.476,0.05053 0.11733,0 0.276,-0.01667 0.472,-0.05053 -0.0347,0.639066 -0.0627,1.218666 -0.084,1.735333 -0.0227,0.5172 -0.036,1.004266 -0.052,1.460933 -0.0147,0.457333 -0.024,0.911467 -0.028,1.3568 -0.003,0.448 -0.005,0.924533 -0.005,1.431333 v 1.2656 c -0.14134,-0.01467 -0.284,-0.024 -0.432,-0.024 -0.15334,0 -0.292,0.0093 -0.41067,0.024 -1.44933,-1.690666 -2.988,-3.387066 -4.61333,-5.0964 -0.008,0.2016 -0.0133,0.407334 -0.016,0.6104 -0.003,0.205734 -0.007,0.4104 -0.007,0.6224 v 1.224 c 0,0.421867 0.004,0.778667 0.007,1.076534 0.003,0.297466 0.008,0.545866 0.016,0.7516 0.008,0.200533 0.016,0.3708 0.0213,0.5 0.008,0.130133 0.0147,0.233333 0.02,0.311466 -0.0813,-0.01467 -0.168,-0.024 -0.252,-0.024 h -0.24267 c -0.16133,0 -0.32533,0.0093 -0.48666,0.024 0.016,-0.05467 0.0333,-0.257866 0.052,-0.602133 0.0213,-0.3448 0.0467,-0.766667 0.068,-1.2588 0.0253,-0.497467 0.0467,-1.036533 0.0667,-1.6172 0.016,-0.581733 0.0227,-1.138 0.0227,-1.671867 0,-0.487066 -0.005,-0.8932 -0.016,-1.226533 v 0"
       style="fill:#231f20;fill-opacity:1;fill-rule:nonzero;stroke:none;stroke-width:0.133333" />
    <path
       id="path23"
       d="m 279.40266,84.629204 c -0.34,-0.1928 -0.75067,-0.291733 -1.23333,-0.291733 -0.324,0 -0.64534,0.0704 -0.968,0.2084 -0.32134,0.137999 -0.604,0.342133 -0.852,0.616133 -0.25067,0.2744 -0.456,0.6172 -0.60667,1.0296 -0.15867,0.411466 -0.23467,0.895866 -0.23467,1.448 0,0.4244 0.0573,0.815066 0.17467,1.173466 0.11733,0.3604 0.284,0.672934 0.5,0.935867 0.21867,0.263067 0.48667,0.4688 0.804,0.6172 0.31733,0.147467 0.67867,0.220267 1.08533,0.220267 0.092,0 0.196,-0.0041 0.312,-0.01453 0.11734,-0.0104 0.228,-0.0224 0.33734,-0.03907 0.10933,-0.01147 0.20933,-0.0312 0.304,-0.05733 0.0893,-0.02333 0.156,-0.05053 0.19866,-0.07653 0.0133,-0.08587 0.0213,-0.1916 0.0267,-0.317733 0.004,-0.126534 0.004,-0.2672 0.004,-0.4208 0,-0.570267 -0.0107,-0.9932 -0.0307,-1.263067 -0.024,-0.2692 -0.036,-0.454133 -0.0427,-0.5536 0.0693,0.012 0.16133,0.02507 0.28,0.03547 0.116,0.01293 0.28133,0.01813 0.50266,0.01813 0.252,0 0.44,-0.0052 0.56267,-0.01813 0.10933,-0.0089 0.20267,-0.02093 0.272,-0.03133 v 0.1016 c -0.007,0.04693 -0.0147,0.1032 -0.0187,0.168267 -0.012,0.126 -0.02,0.273467 -0.0253,0.438533 -0.005,0.164 -0.012,0.341067 -0.016,0.526 -0.004,0.187467 -0.007,0.364667 -0.007,0.533867 v 0.348933 c 0,0.176134 0.003,0.3412 0.007,0.4912 0.004,0.152 0.012,0.256267 0.0253,0.320267 -0.464,0.135467 -0.93333,0.242267 -1.40666,0.3172 -0.47734,0.07813 -0.94667,0.116133 -1.412,0.116133 -0.60134,0 -1.16267,-0.07813 -1.67067,-0.236933 -0.512,-0.157333 -0.94933,-0.390667 -1.32,-0.6964 -0.37067,-0.306267 -0.66,-0.6776 -0.86667,-1.109333 -0.208,-0.433867 -0.312,-0.918267 -0.312,-1.4636 0,-0.6656 0.112,-1.251467 0.33334,-1.754134 0.22133,-0.5052 0.52666,-0.922933 0.91866,-1.257866 0.39067,-0.333333 0.85334,-0.584267 1.38934,-0.7536 0.532,-0.168267 1.11066,-0.252533 1.728,-0.252533 0.53466,0 0.99733,0.05467 1.388,0.1624 0.38933,0.110933 0.77733,0.2672 1.15733,0.4688 -0.0573,0.184933 -0.11067,0.361999 -0.164,0.541599 -0.052,0.172 -0.096,0.352667 -0.13067,0.536534 h -0.148 c -0.22666,-0.317734 -0.508,-0.570267 -0.84533,-0.7656 v 0"
       style="fill:#231f20;fill-opacity:1;fill-rule:nonzero;stroke:none;stroke-width:0.133333" />
    <path
       id="path24"
       d="m 131.54066,104.53021 c -0.16986,-0.0156 -0.32973,-0.0208 -0.4808,-0.0208 h -0.8968 c -0.15266,0 -0.30106,0.005 -0.44853,0.0208 -0.114,-0.34479 -0.23173,-0.69791 -0.34947,-1.05469 -0.11973,-0.35937 -0.24626,-0.71874 -0.37906,-1.07552 -0.22347,-0.0104 -0.4516,-0.0156 -0.67454,-0.0193 -0.22546,-0.002 -0.45106,-0.004 -0.67706,-0.004 -0.18134,0 -0.3672,0.003 -0.54947,0.004 -0.18133,0.004 -0.3652,0.009 -0.5464,0.0193 -0.14267,0.35678 -0.27133,0.71615 -0.39267,1.07552 -0.11986,0.35678 -0.2292,0.7099 -0.32653,1.05469 -0.0844,-0.0156 -0.16773,-0.0208 -0.2496,-0.0208 h -0.4984 c -0.0853,0 -0.17653,0.005 -0.27653,0.0208 0.0859,-0.18229 0.19733,-0.43646 0.34013,-0.76041 0.13853,-0.32553 0.29373,-0.6901 0.464,-1.09792 0.16933,-0.40833 0.34893,-0.8448 0.54173,-1.31354 0.19534,-0.46875 0.38587,-0.93855 0.57907,-1.421883 0.19533,-0.47656 0.38653,-0.946347 0.57293,-1.412494 0.1844,-0.463546 0.3568,-0.897399 0.512,-1.298439 0.0693,0.01303 0.136,0.02604 0.2,0.03803 0.0636,0.01145 0.12974,0.01667 0.19947,0.01667 0.0709,0 0.1376,-0.0052 0.20053,-0.01667 0.0641,-0.01199 0.12974,-0.025 0.2,-0.03803 0.226,0.59896 0.4656,1.236973 0.724,1.921879 0.25734,0.682294 0.51507,1.351557 0.776,2.010417 0.26094,0.65625 0.51414,1.28125 0.75987,1.875 0.24587,0.58854 0.4704,1.08854 0.67613,1.49739 z m -3.736,-5.268233 c -0.1828,0.42448 -0.3568,0.840103 -0.5172,1.251573 -0.16146,0.41145 -0.3208,0.83176 -0.476,1.26145 h 1.93067 c -0.1552,-0.42969 -0.30667,-0.85 -0.45827,-1.26145 -0.14946,-0.41147 -0.31253,-0.827093 -0.4792,-1.251573 v 0"
       style="fill:#231f20;fill-opacity:1;fill-rule:nonzero;stroke:none;stroke-width:0.133333" />
    <path
       id="path25"
       d="m 141.29066,98.156777 c -0.012,-0.332293 -0.0253,-0.62656 -0.0307,-0.87656 0.19733,0.03281 0.356,0.05208 0.47733,0.05208 0.116,0 0.276,-0.01927 0.47333,-0.05208 0.768,0.85052 1.52534,1.685933 2.27467,2.509373 0.74933,0.82291 1.51867,1.66249 2.30533,2.51301 v -1.94166 c 0,-0.34635 -0.003,-0.684897 -0.004,-1.01927 -0.005,-0.334893 -0.009,-0.640627 -0.0107,-0.92188 -0.005,-0.28176 -0.0107,-0.525 -0.0227,-0.72916 -0.0107,-0.20208 -0.024,-0.338546 -0.036,-0.410413 0.19733,0.03281 0.35467,0.05208 0.476,0.05208 0.11867,0 0.27733,-0.01927 0.47333,-0.05208 -0.0347,0.638013 -0.064,1.217706 -0.0827,1.734373 -0.0213,0.517187 -0.0413,1.00416 -0.0547,1.46093 -0.0133,0.45834 -0.0213,0.91251 -0.024,1.35678 -0.005,0.44792 -0.008,0.92448 -0.008,1.43125 v 1.26666 c -0.14267,-0.0156 -0.284,-0.0234 -0.43067,-0.0234 -0.15733,0 -0.29466,0.008 -0.41333,0.0234 -1.44933,-1.6901 -2.98533,-3.38646 -4.612,-5.098953 -0.005,0.20468 -0.0107,0.408853 -0.0147,0.611973 -0.003,0.20573 -0.007,0.41303 -0.007,0.6224 v 1.22656 c 0,0.42084 0.004,0.77969 0.007,1.07812 0.004,0.29324 0.009,0.54428 0.0147,0.74584 0.007,0.20573 0.016,0.37239 0.02,0.50156 0.007,0.13021 0.016,0.23438 0.0227,0.3125 -0.084,-0.0156 -0.16934,-0.0234 -0.25334,-0.0234 h -0.244 c -0.16133,0 -0.324,0.008 -0.48666,0.0234 0.016,-0.0547 0.0347,-0.25521 0.0533,-0.60156 0.024,-0.34635 0.0467,-0.76406 0.068,-1.26042 0.0267,-0.4974 0.0467,-1.03645 0.0653,-1.61719 0.0173,-0.58073 0.0267,-1.13645 0.0267,-1.671877 0,-0.486973 -0.008,-0.893226 -0.0227,-1.222386 v 0"
       style="fill:#231f20;fill-opacity:1;fill-rule:nonzero;stroke:none;stroke-width:0.133333" />
    <path
       id="path26"
       d="m 158,98.646363 c -0.016,-0.454693 -0.0347,-0.911466 -0.064,-1.366146 0.12133,0.01301 0.24933,0.02343 0.39066,0.03385 0.14267,0.01041 0.29867,0.01823 0.47334,0.01823 0.232,0 0.49466,-0.0089 0.784,-0.02865 0.28666,-0.01561 0.66533,-0.02343 1.128,-0.02343 0.60533,0 1.156,0.05208 1.65066,0.161453 0.49867,0.109374 0.92534,0.293227 1.28134,0.554694 0.36133,0.260413 0.63733,0.610933 0.83466,1.049466 0.19867,0.441667 0.29734,0.9948 0.29734,1.66407 0,0.58073 -0.0987,1.10937 -0.292,1.58333 -0.192,0.47136 -0.45734,0.87396 -0.78934,1.20834 -0.33466,0.33333 -0.72266,0.58697 -1.16133,0.76406 -0.44,0.17604 -0.91067,0.26458 -1.41067,0.26458 -0.528,0 -0.97866,-0.004 -1.34933,-0.0104 -0.372,-0.008 -0.69733,-0.0104 -0.97333,-0.0104 h -0.47334 c -0.14133,0 -0.26933,0.005 -0.39066,0.0208 0.0293,-0.43646 0.048,-0.88281 0.064,-1.33594 0.016,-0.45312 0.0187,-0.97291 0.0187,-1.55624 v -1.43595 c 0,-0.58333 -0.003,-1.101557 -0.0187,-1.555717 z m 1.584,3.763017 v 0.63385 c 0,0.20208 0,0.38907 0.004,0.55729 0.005,0.16928 0.005,0.27865 0.005,0.32813 0.10533,0.005 0.23333,0.0146 0.37867,0.0208 0.148,0.008 0.33066,0.0104 0.55066,0.0104 0.79467,0 1.424,-0.27083 1.88934,-0.8125 0.464,-0.5427 0.69466,-1.36198 0.69466,-2.46094 0,-0.43594 -0.056,-0.826563 -0.17333,-1.16927 -0.116,-0.34636 -0.28133,-0.639067 -0.49067,-0.881253 -0.21066,-0.243747 -0.464,-0.42864 -0.76,-0.561454 -0.29333,-0.127599 -0.62533,-0.195319 -0.992,-0.195319 -0.252,0 -0.45733,0.0052 -0.61466,0.01563 -0.16134,0.01043 -0.32134,0.02344 -0.48267,0.03907 0,0.04688 0,0.158853 -0.005,0.32656 -0.004,0.17084 -0.004,0.358333 -0.004,0.568226 v 3.58074 0"
       style="fill:#231f20;fill-opacity:1;fill-rule:nonzero;stroke:none;stroke-width:0.133333" />
    <path
       id="path27"
       d="m 186.148,103.78438 c -0.044,0.15208 -0.0707,0.30052 -0.0827,0.44792 -0.57333,0.28906 -1.28933,0.43333 -2.156,0.43333 -0.61067,0 -1.15733,-0.0859 -1.64133,-0.25781 -0.47867,-0.17188 -0.888,-0.41146 -1.22267,-0.72657 -0.33467,-0.3151 -0.592,-0.68594 -0.76667,-1.11458 -0.17466,-0.42708 -0.26133,-0.89479 -0.26133,-1.39323 0,-0.73177 0.11067,-1.35261 0.34267,-1.861983 0.22666,-0.513014 0.532,-0.92708 0.916,-1.245827 0.38266,-0.319266 0.83066,-0.553653 1.33466,-0.703133 0.50667,-0.146347 1.04,-0.220307 1.596,-0.220307 0.18134,0 0.37734,0.01303 0.58,0.04011 0.20534,0.0276 0.4,0.06667 0.59067,0.113533 0.19067,0.04428 0.37067,0.09896 0.544,0.160427 0.172,0.06353 0.31867,0.13124 0.44,0.20416 -0.0733,0.17448 -0.12533,0.35156 -0.16667,0.531253 -0.0387,0.179693 -0.0653,0.361973 -0.0773,0.544267 H 185.968 c -0.26667,-0.338534 -0.54267,-0.57916 -0.82134,-0.72396 -0.284,-0.145827 -0.61333,-0.216147 -0.99333,-0.216147 -0.28133,0 -0.56533,0.06407 -0.848,0.190107 -0.284,0.127613 -0.54533,0.32032 -0.77733,0.582293 -0.23067,0.258853 -0.42,0.592187 -0.564,0.993227 -0.14534,0.404693 -0.216,0.89324 -0.216,1.45573 0,0.54167 0.072,1.0026 0.22,1.38437 0.14933,0.38386 0.33866,0.69896 0.57333,0.94115 0.23733,0.24219 0.504,0.41927 0.80533,0.53281 0.29867,0.11198 0.6,0.17032 0.90267,0.17032 0.168,0 0.34,-0.0208 0.516,-0.0599 0.17733,-0.0391 0.34667,-0.0911 0.51867,-0.15885 0.16666,-0.0651 0.32666,-0.14844 0.47733,-0.2474 0.15333,-0.0964 0.284,-0.20677 0.39733,-0.32553 l 0.14,0.0833 c -0.0587,0.14844 -0.108,0.29844 -0.15066,0.44688 v 0"
       style="fill:#231f20;fill-opacity:1;fill-rule:nonzero;stroke:none;stroke-width:0.133333" />
    <path
       id="path28"
       d="m 195.93866,99.452083 c 0.192,-0.456773 0.464,-0.858333 0.81734,-1.20156 0.35066,-0.345306 0.77466,-0.614586 1.27733,-0.814066 0.49867,-0.197907 1.052,-0.294267 1.66667,-0.294267 0.56266,0 1.08666,0.07708 1.57333,0.230734 0.484,0.15468 0.90666,0.387493 1.26266,0.696346 0.36,0.309893 0.64534,0.702093 0.852,1.178653 0.208,0.47344 0.30934,1.028637 0.30934,1.662497 0,0.52604 -0.096,1.02084 -0.29734,1.47552 -0.20266,0.45937 -0.48,0.85937 -0.83466,1.19896 -0.356,0.34375 -0.78134,0.60833 -1.272,0.79687 -0.49334,0.19167 -1.03334,0.28386 -1.62667,0.28386 -0.55466,0 -1.08,-0.0677 -1.56533,-0.20417 -0.48667,-0.13698 -0.91467,-0.36094 -1.27733,-0.66562 -0.36,-0.30573 -0.65067,-0.69532 -0.86,-1.17188 -0.212,-0.4724 -0.31867,-1.04426 -0.31867,-1.70417 0,-0.51979 0.0987,-1.010413 0.29333,-1.467707 z m 5.86133,0.0052 c -0.11066,-0.360414 -0.26933,-0.669267 -0.46933,-0.92292 -0.19867,-0.25416 -0.44267,-0.44688 -0.72933,-0.585933 -0.284,-0.136987 -0.596,-0.204694 -0.93467,-0.204694 -0.35733,0 -0.68,0.08595 -0.96666,0.257813 -0.28267,0.17188 -0.524,0.406254 -0.71867,0.70052 -0.2,0.29688 -0.348,0.643227 -0.45067,1.043227 -0.10133,0.394284 -0.15466,0.821364 -0.15466,1.271884 0,0.56145 0.0613,1.03541 0.18133,1.42188 0.11733,0.38957 0.28133,0.69896 0.48667,0.93489 0.20266,0.23698 0.43733,0.40625 0.70666,0.51198 0.268,0.1026 0.54934,0.1599 0.84267,0.1599 0.31733,0 0.61733,-0.0677 0.908,-0.20313 0.288,-0.13281 0.54,-0.3375 0.75333,-0.61041 0.21733,-0.27604 0.39067,-0.6224 0.51867,-1.04584 0.13066,-0.42187 0.19733,-0.92187 0.19733,-1.5 0,-0.45572 -0.056,-0.865634 -0.17067,-1.229167 v 0"
       style="fill:#231f20;fill-opacity:1;fill-rule:nonzero;stroke:none;stroke-width:0.133333" />
    <path
       id="path29"
       d="m 213.67333,98.156777 c -0.0173,-0.332293 -0.024,-0.62656 -0.0307,-0.87656 0.19867,0.03281 0.35467,0.05208 0.47333,0.05208 0.12134,0 0.28267,-0.01927 0.476,-0.05208 0.768,0.85052 1.52534,1.685933 2.272,2.509373 0.75067,0.82291 1.52134,1.66249 2.308,2.51301 v -1.94166 c 0,-0.34635 -0.003,-0.684897 -0.005,-1.01927 -0.005,-0.334893 -0.008,-0.640627 -0.0107,-0.92188 -0.003,-0.28176 -0.009,-0.525 -0.0227,-0.72916 -0.007,-0.20208 -0.0187,-0.338546 -0.0347,-0.410413 0.19733,0.03281 0.356,0.05208 0.47333,0.05208 0.12,0 0.27867,-0.01927 0.47734,-0.05208 -0.036,0.638013 -0.0653,1.217706 -0.084,1.734373 -0.0227,0.517187 -0.0413,1.00416 -0.056,1.46093 -0.012,0.45834 -0.02,0.91251 -0.024,1.35678 -0.004,0.44792 -0.005,0.92448 -0.005,1.43125 v 1.26666 c -0.14266,-0.0156 -0.284,-0.0234 -0.432,-0.0234 -0.15733,0 -0.29466,0.008 -0.412,0.0234 -1.452,-1.6901 -2.98666,-3.38646 -4.61333,-5.098953 -0.008,0.20468 -0.0133,0.408853 -0.0147,0.611973 -0.005,0.20573 -0.005,0.41303 -0.005,0.6224 v 1.22656 c 0,0.42084 0,0.77969 0.005,1.07812 0.001,0.29324 0.007,0.54428 0.0147,0.74584 0.007,0.20573 0.0147,0.37239 0.0227,0.50156 0.005,0.13021 0.012,0.23438 0.0213,0.3125 -0.088,-0.0156 -0.17067,-0.0234 -0.25333,-0.0234 h -0.244 c -0.16267,0 -0.324,0.008 -0.484,0.0234 0.009,-0.0547 0.0293,-0.25521 0.048,-0.60156 0.0267,-0.34635 0.0453,-0.76406 0.0693,-1.26042 0.028,-0.4974 0.0467,-1.03645 0.064,-1.61719 0.02,-0.58073 0.028,-1.13645 0.028,-1.671877 0,-0.486973 -0.005,-0.893226 -0.0213,-1.222386 v 0"
       style="fill:#231f20;fill-opacity:1;fill-rule:nonzero;stroke:none;stroke-width:0.133333" />
    <path
       id="path30"
       d="m 230.86266,98.44063 c -0.004,-0.17084 -0.0133,-0.290627 -0.024,-0.37136 -0.108,0 -0.24,0.0052 -0.396,0.01459 -0.152,0.0036 -0.32,0.01407 -0.49467,0.02448 -0.17466,0.01041 -0.356,0.0224 -0.536,0.04167 -0.18266,0.01823 -0.352,0.03645 -0.50666,0.05729 0.012,-0.07656 0.024,-0.156254 0.0347,-0.230213 0.008,-0.07812 0.0133,-0.157814 0.0133,-0.233334 0,-0.07812 -0.005,-0.156253 -0.0133,-0.234373 -0.0107,-0.07552 -0.0227,-0.15364 -0.0347,-0.22916 0.23733,0.0078 0.45466,0.01301 0.648,0.01823 0.192,0.0094 0.38933,0.01459 0.58933,0.01563 0.2,0.0042 0.41867,0.0094 0.65733,0.01041 0.23334,0.0078 0.51734,0.0078 0.848,0.0078 0.32934,0 0.612,0 0.84934,-0.0078 0.23466,-10e-4 0.452,-0.0063 0.648,-0.01041 0.19733,-0.001 0.38933,-0.0063 0.576,-0.01563 0.18666,-0.0052 0.388,-0.01041 0.60666,-0.01823 -0.016,0.07552 -0.0253,0.15364 -0.036,0.22916 -0.012,0.07812 -0.0173,0.156253 -0.0173,0.234373 0,0.07552 0.005,0.155214 0.0173,0.233334 0.0107,0.07396 0.02,0.153653 0.036,0.230213 -0.14133,-0.02084 -0.3,-0.03907 -0.47333,-0.05729 -0.17733,-0.01927 -0.352,-0.03125 -0.524,-0.04167 -0.17467,-0.01041 -0.336,-0.02084 -0.48933,-0.02448 -0.15467,-0.0094 -0.28667,-0.01459 -0.39334,-0.01459 -0.005,0.03647 -0.0107,0.08751 -0.0133,0.14844 -0.003,0.06251 -0.003,0.139587 -0.003,0.22292 v 3.1974 c 0,0.58333 0.003,1.10312 0.016,1.55624 0.016,0.45313 0.0347,0.89948 0.0627,1.33594 -0.11733,-0.0156 -0.248,-0.0234 -0.38667,-0.0234 h -0.95066 c -0.14267,0 -0.27334,0.008 -0.392,0.0234 0.028,-0.43646 0.048,-0.88281 0.064,-1.33594 0.016,-0.45312 0.0227,-0.97291 0.0227,-1.55624 v -2.639067 c 0,-0.205733 -0.004,-0.390626 -0.005,-0.558333 v 0"
       style="fill:#231f20;fill-opacity:1;fill-rule:nonzero;stroke:none;stroke-width:0.133333" />
    <path
       id="path31"
       d="m 245.64266,101.20208 v 0.43595 c 0,0.58333 0.005,1.10312 0.0213,1.55624 0.012,0.45313 0.0333,0.89948 0.064,1.33594 -0.12,-0.0156 -0.252,-0.0234 -0.392,-0.0234 h -0.948 c -0.14,0 -0.27333,0.008 -0.39466,0.0234 0.032,-0.43646 0.0507,-0.88281 0.0667,-1.33594 0.0133,-0.45312 0.0213,-0.97291 0.0213,-1.55624 v -1.43595 c 0,-0.58333 -0.008,-1.101557 -0.0213,-1.555717 -0.016,-0.454693 -0.0347,-0.911466 -0.0667,-1.366146 0.12133,0.01301 0.25466,0.02343 0.39466,0.03385 0.13867,0.01041 0.29734,0.01823 0.47334,0.01823 0.18933,0 0.40666,-0.0089 0.652,-0.02865 0.23733,-0.01561 0.54,-0.02343 0.9,-0.02343 0.268,0 0.496,0.0078 0.68533,0.01823 0.188,0.01459 0.35467,0.03801 0.48933,0.06405 0.13867,0.02709 0.25867,0.06615 0.36267,0.111987 0.0987,0.04531 0.19867,0.10156 0.288,0.162493 0.212,0.156253 0.37867,0.34636 0.50267,0.57552 0.12133,0.229173 0.18533,0.501573 0.18533,0.81772 0,0.515613 -0.14133,0.93228 -0.424,1.256763 -0.28267,0.32396 -0.68667,0.55313 -1.216,0.68594 0.34133,0.59635 0.70267,1.19687 1.09067,1.78906 0.388,0.59532 0.77466,1.18229 1.15866,1.76823 -0.16133,-0.0156 -0.31866,-0.0234 -0.472,-0.0234 h -0.95733 c -0.156,0 -0.31733,0.008 -0.47867,0.0234 l -1.89066,-3.32813 z m 1.57067,-2.678117 c -0.0627,-0.183853 -0.15867,-0.32188 -0.28934,-0.415626 -0.12666,-0.09636 -0.29733,-0.156253 -0.50533,-0.184893 -0.208,-0.02865 -0.45733,-0.04428 -0.74267,-0.04428 -0.0227,0.958333 -0.0333,1.915626 -0.0333,2.869796 0.04,0.008 0.0853,0.013 0.11867,0.0198 0.044,0.003 0.0773,0.004 0.116,0.004 0.46133,0 0.81733,-0.12604 1.06266,-0.375 0.248,-0.25 0.36934,-0.62761 0.36934,-1.135423 0,-0.30728 -0.0333,-0.55572 -0.096,-0.738014 v 0"
       style="fill:#231f20;fill-opacity:1;fill-rule:nonzero;stroke:none;stroke-width:0.133333" />
    <path
       id="path32"
       d="m 258.84266,99.452083 c 0.19067,-0.456773 0.46267,-0.858333 0.816,-1.20156 0.352,-0.345306 0.77467,-0.614586 1.27733,-0.814066 0.49867,-0.197907 1.052,-0.294267 1.668,-0.294267 0.56134,0 1.088,0.07708 1.57467,0.230734 0.48267,0.15468 0.90667,0.387493 1.264,0.696346 0.36133,0.309893 0.64267,0.702093 0.84933,1.178653 0.20534,0.47344 0.312,1.028637 0.312,1.662497 0,0.52604 -0.10133,1.02084 -0.3,1.47552 -0.20266,0.45937 -0.48266,0.85937 -0.83733,1.19896 -0.35467,0.34375 -0.77733,0.60833 -1.268,0.79687 -0.49733,0.19167 -1.036,0.28386 -1.62533,0.28386 -0.55734,0 -1.08134,-0.0677 -1.568,-0.20417 -0.48934,-0.13698 -0.91467,-0.36094 -1.276,-0.66562 -0.36534,-0.30573 -0.65334,-0.69532 -0.864,-1.17188 -0.21067,-0.4724 -0.312,-1.04426 -0.312,-1.70417 0,-0.51979 0.092,-1.010413 0.28933,-1.467707 z m 5.86133,0.0052 c -0.11333,-0.360414 -0.26933,-0.669267 -0.46933,-0.92292 -0.20133,-0.25416 -0.44267,-0.44688 -0.732,-0.585933 -0.28267,-0.136987 -0.59333,-0.204694 -0.92933,-0.204694 -0.36134,0 -0.68267,0.08595 -0.96667,0.257813 -0.284,0.17188 -0.52667,0.406254 -0.72133,0.70052 -0.2,0.29688 -0.34934,0.643227 -0.452,1.043227 -0.1,0.394284 -0.152,0.821364 -0.152,1.271884 0,0.56145 0.0587,1.03541 0.18266,1.42188 0.11734,0.38957 0.27867,0.69896 0.48267,0.93489 0.204,0.23698 0.43733,0.40625 0.704,0.51198 0.268,0.1026 0.55067,0.1599 0.84933,0.1599 0.31467,0 0.616,-0.0677 0.90534,-0.20313 0.288,-0.13281 0.54133,-0.3375 0.756,-0.61041 0.212,-0.27604 0.38533,-0.6224 0.51733,-1.04584 0.128,-0.42187 0.19333,-0.92187 0.19333,-1.5 0,-0.45572 -0.0547,-0.865634 -0.168,-1.229167 v 0"
       style="fill:#231f20;fill-opacity:1;fill-rule:nonzero;stroke:none;stroke-width:0.133333" />
    <path
       id="path33"
       d="m 276.48133,98.646363 c -0.012,-0.454693 -0.0333,-0.911466 -0.064,-1.366146 0.12,0.01301 0.24933,0.02343 0.39333,0.03385 0.13867,0.01041 0.29733,0.01823 0.47333,0.01823 0.17734,0 0.336,-0.0078 0.476,-0.01823 0.14134,-0.01043 0.268,-0.02084 0.388,-0.03385 -0.0267,0.45468 -0.0467,0.911453 -0.0627,1.366146 -0.0133,0.45416 -0.02,0.972387 -0.02,1.555717 v 1.43595 c 0,0.4 10e-4,0.78697 0.003,1.16041 0.008,0.37239 0.0133,0.69688 0.0173,0.97136 0.40133,0 0.80266,-0.0104 1.20266,-0.0313 0.40267,-0.0224 0.80534,-0.0573 1.21734,-0.10677 -0.016,0.0781 -0.0253,0.14844 -0.0333,0.21094 -0.007,0.0625 -0.0107,0.15365 -0.0107,0.26302 0,0.11563 0.004,0.20052 0.0107,0.26719 0.008,0.0635 0.0173,0.11302 0.0333,0.15729 -0.19467,-0.009 -0.424,-0.0146 -0.70267,-0.0182 -0.27867,-0.003 -0.66,-0.005 -1.14933,-0.005 h -1.66934 c -0.15866,0 -0.27866,0.003 -0.36,0.005 -0.0813,0.004 -0.15066,0.009 -0.20666,0.0182 0.0307,-0.43646 0.052,-0.88281 0.064,-1.33594 0.0147,-0.45312 0.0213,-0.97291 0.0213,-1.55624 v -1.43595 c 0,-0.58333 -0.007,-1.101557 -0.0213,-1.555717 v 0"
       style="fill:#231f20;fill-opacity:1;fill-rule:nonzero;stroke:none;stroke-width:0.133333" />
    <path
       id="path34"
       d="m 52.335465,77.643737 c 13.978533,0 25.310933,-11.332266 25.310933,-25.311466 0,-13.980133 -11.3324,-25.312532 -25.310933,-25.312532 -13.980266,0 -25.311999,11.332399 -25.311999,25.312532 v 25.311466 z m 0,-77.64733105 c 28.9036,0 52.334265,23.43066605 52.334265,52.33586505 0,28.903733 -23.430665,52.334919 -52.334265,52.334919 H 9.2812531 C 4.1557332,104.66719 0,100.51198 0,95.385937 v -9.2802 h 52.335465 c 18.652,0 33.773333,-15.122399 33.773333,-33.773466 0,-18.653599 -15.121333,-33.773999 -33.773333,-33.773999 -18.653199,0 -33.773465,15.1204 -33.773465,33.773999 V 77.643737 H 0 V 52.332271 C 0,23.427072 23.430666,-0.00359405 52.335465,-0.00359405 v 0"
       style="fill:#3cabb4;fill-opacity:1;fill-rule:evenodd;stroke:none;stroke-width:0.133333" />
    <path
       id="path35"
       d="M 73.753598,38.840138 C 66.778132,59.194271 48.861999,74.465071 27.023466,77.639604 V 52.332271 c 0,-13.980133 11.331733,-25.312532 25.311999,-25.312532 9.018667,0 16.935333,4.717733 21.418133,11.820399 z M 52.335465,-0.00359405 c 8.1208,0 15.8104,1.85053325 22.6692,5.15146655 1.231733,4.7187999 1.889066,9.6687995 1.889066,14.7734665 0,2.915066 -0.213466,5.780266 -0.626533,8.580266 -6.116133,-6.141733 -14.579733,-9.943333 -23.931733,-9.943333 -18.653199,0 -33.773465,15.1204 -33.773465,33.773999 V 77.643737 H 0 V 52.332271 C 0,23.427072 23.430666,-0.00359405 52.335465,-0.00359405 v 0"
       style="fill:#7cc4c7;fill-opacity:1;fill-rule:evenodd;stroke:none;stroke-width:0.133333" />
  </g>
</svg>
