<?xml version="1.0" encoding="UTF-8"?>
<svg id="_Слой_4" data-name="Слой 4" xmlns="http://www.w3.org/2000/svg" viewBox="0 0 198.43 198.43">
  <defs>
    <style>
      .cls-1 {
        fill: #3c3c3b;
      }
    </style>
  </defs>
  <g>
    <path class="cls-1" d="M42.96,152.64h2.96v1.87h-5.1v-7.84h5.02v1.87h-2.87v1.15h2.58v1.77h-2.58v1.18Z"/>
    <path class="cls-1" d="M53.19,154.51h-2.45l-1.51-2.55v2.55h-2.08v-8.23h2.08v4.56l1.43-2.37h2.34l-1.88,2.88,2.07,3.17Z"/>
    <path class="cls-1" d="M58.34,148.45h1.54v6.04h-1.6l-.18-.43c-.52,.43-1.13,.64-1.82,.64-.61,0-1.16-.14-1.64-.41-.48-.28-.86-.66-1.13-1.15-.27-.49-.41-1.05-.41-1.67,0-.93,.3-1.7,.9-2.3,.6-.6,1.36-.9,2.28-.9,.7,0,1.32,.22,1.85,.65l.21-.47Zm-2.75,4.02c.25,.26,.58,.39,.97,.39s.71-.13,.97-.39c.25-.26,.38-.59,.38-.99s-.13-.72-.38-.99c-.25-.26-.57-.39-.96-.39s-.72,.13-.97,.39c-.25,.26-.38,.59-.38,.99s.13,.72,.38,.99Z"/>
    <path class="cls-1" d="M64.47,152.68h.81v1.82h-1.43c-.67,0-1.2-.19-1.58-.58-.38-.38-.57-.91-.57-1.58v-2.28h-1.11v-.48l2.71-2.89h.42v1.77h1.52v1.6h-1.47v1.93c0,.22,.06,.39,.18,.51,.12,.12,.29,.19,.51,.19Z"/>
    <path class="cls-1" d="M72.42,151.43c0,.17-.02,.35-.04,.55h-4.49c.07,.34,.21,.6,.42,.78,.21,.18,.48,.27,.81,.27,.16,0,.32-.02,.46-.07s.27-.11,.38-.2c.11-.09,.2-.19,.26-.31h2.07c-.21,.69-.6,1.24-1.17,1.65-.57,.4-1.24,.6-2,.6-.94,0-1.72-.31-2.34-.92-.62-.62-.94-1.38-.94-2.3,0-.61,.14-1.16,.43-1.66,.28-.49,.68-.88,1.18-1.15s1.06-.41,1.68-.41,1.21,.14,1.72,.42c.5,.28,.89,.66,1.17,1.14,.28,.48,.42,1.02,.42,1.61Zm-3.3-1.53c-.3,0-.55,.08-.76,.24s-.35,.39-.44,.69h2.45c-.19-.62-.6-.93-1.25-.93Z"/>
    <path class="cls-1" d="M76.75,148.43h.55v1.91h-.81c-.37,0-.63,.09-.79,.26-.17,.17-.25,.45-.25,.83v3.08h-2.08v-6.04h1.39l.32,.67c.4-.47,.96-.71,1.67-.71Z"/>
    <path class="cls-1" d="M78.1,154.51v-6.04h2.08v6.04h-2.08Zm.01-6.81v-1.76h2.05v1.76h-2.05Z"/>
    <path class="cls-1" d="M85.14,148.29c.7,0,1.26,.23,1.68,.69,.42,.46,.63,1.08,.63,1.85v3.68h-2.08v-3.4c0-.7-.26-1.05-.78-1.05-.22,0-.4,.05-.55,.15s-.27,.24-.35,.42c-.08,.18-.12,.4-.12,.67v3.22h-2.08v-6.04h1.46l.29,.63c.48-.54,1.11-.81,1.9-.81Z"/>
    <path class="cls-1" d="M92.27,148.27c.93,0,1.69,.3,2.28,.9,.59,.6,.89,1.37,.89,2.31s-.3,1.71-.89,2.32c-.59,.6-1.35,.91-2.28,.91-.7,0-1.31-.22-1.82-.65l-.2,.45h-1.53v-8.23h2.05v2.41c.46-.28,.96-.41,1.51-.41Zm-.28,4.59c.39,0,.71-.13,.97-.39,.26-.26,.39-.59,.39-.99s-.13-.72-.39-.99c-.26-.26-.58-.39-.97-.39s-.71,.13-.97,.39c-.26,.26-.39,.59-.39,.99,0,.26,.06,.5,.17,.71,.12,.21,.28,.37,.48,.49,.21,.12,.44,.18,.7,.18Z"/>
    <path class="cls-1" d="M99.3,154.71c-.9,0-1.62-.25-2.16-.77-.54-.51-.82-1.19-.82-2.03v-3.45h2.08v3.36c0,.32,.08,.57,.24,.75,.16,.18,.38,.27,.65,.27s.5-.09,.66-.27c.16-.18,.24-.43,.24-.74v-3.36h2.08v3.45c0,.56-.12,1.05-.37,1.47s-.6,.75-1.05,.98-.97,.35-1.56,.35Z"/>
    <path class="cls-1" d="M106.89,148.43h.55v1.91h-.81c-.37,0-.63,.09-.79,.26-.17,.17-.25,.45-.25,.83v3.08h-2.08v-6.04h1.39l.32,.67c.4-.47,.96-.71,1.67-.71Z"/>
    <path class="cls-1" d="M112.99,148.46h1.41v5.37c0,.95-.29,1.7-.87,2.25-.58,.55-1.37,.83-2.36,.83-.58,0-1.09-.09-1.53-.27-.45-.18-.81-.45-1.1-.79-.28-.35-.47-.76-.57-1.23h2.02c.07,.19,.21,.34,.43,.45s.46,.16,.73,.16c.36,0,.66-.11,.9-.32,.24-.21,.36-.49,.36-.84v-.18c-.48,.31-1,.46-1.58,.46-.87,0-1.59-.29-2.16-.87s-.86-1.3-.86-2.18,.29-1.58,.87-2.16,1.3-.87,2.15-.87c.72,0,1.36,.23,1.92,.69l.26-.5Zm-1.82,4.18c.37,0,.68-.12,.92-.38,.24-.25,.36-.57,.36-.96s-.12-.69-.36-.94c-.24-.25-.55-.37-.92-.37s-.68,.12-.92,.37-.36,.56-.36,.94,.12,.71,.36,.96,.55,.38,.92,.38Z"/>
    <path class="cls-1" d="M115.72,156.47v-1.03c.29-.03,.51-.13,.67-.3,.15-.17,.23-.38,.23-.63h-.97v-1.94h2.03v1.77c0,.6-.18,1.1-.53,1.48s-.83,.6-1.42,.65Z"/>
    <path class="cls-1" d="M125.65,154.51l-1.28-2.4h-.77v2.4h-2.16v-7.84h3.39c.56,0,1.06,.12,1.5,.35,.44,.23,.79,.56,1.04,.99,.25,.43,.38,.91,.38,1.44,0,.31-.05,.61-.15,.89-.1,.28-.24,.53-.43,.76s-.41,.41-.67,.56l1.56,2.85h-2.41Zm-2.05-5.92v1.7h.98c.29,0,.52-.08,.69-.24,.17-.16,.26-.36,.26-.62,0-.16-.04-.31-.11-.44s-.18-.23-.33-.3-.32-.11-.51-.11h-.98Z"/>
    <path class="cls-1" d="M131.74,154.71c-.9,0-1.62-.25-2.16-.77-.54-.51-.82-1.19-.82-2.03v-3.45h2.08v3.36c0,.32,.08,.57,.24,.75,.16,.18,.38,.27,.65,.27s.5-.09,.66-.27c.16-.18,.24-.43,.24-.74v-3.36h2.08v3.45c0,.56-.12,1.05-.37,1.47s-.6,.75-1.05,.98-.97,.35-1.56,.35Z"/>
    <path class="cls-1" d="M138.28,154.71c-.82,0-1.47-.2-1.94-.59-.47-.4-.71-.93-.72-1.59h2c0,.21,.06,.37,.19,.48s.29,.17,.5,.17c.1,0,.2-.02,.29-.05,.09-.03,.16-.09,.22-.16,.06-.07,.08-.16,.08-.26,0-.11-.05-.21-.15-.28s-.21-.13-.34-.16c-.13-.03-.31-.07-.54-.11s-.43-.07-.59-.11c-.16-.04-.35-.1-.57-.2-.22-.09-.39-.2-.53-.33-.13-.13-.25-.3-.35-.51-.1-.22-.15-.47-.15-.75,0-.6,.23-1.09,.71-1.45,.47-.36,1.09-.54,1.87-.54s1.39,.19,1.85,.56,.7,.87,.71,1.49h-1.95c0-.13-.03-.23-.08-.32-.06-.09-.13-.15-.22-.19-.09-.04-.2-.06-.33-.06-.17,0-.31,.04-.41,.12s-.15,.19-.15,.32c0,.06,.01,.11,.03,.16s.06,.08,.12,.12c.06,.03,.11,.06,.15,.08,.04,.02,.12,.04,.22,.07s.18,.04,.24,.05c.06,.01,.15,.03,.28,.05,.16,.03,.27,.05,.33,.06,.06,.01,.17,.04,.33,.07,.16,.04,.27,.07,.35,.09,.07,.03,.18,.07,.31,.13s.23,.12,.3,.18c.07,.06,.15,.14,.24,.23,.09,.09,.16,.19,.21,.3s.08,.23,.12,.38c.03,.15,.05,.3,.05,.46,0,.63-.24,1.14-.73,1.52-.49,.38-1.14,.57-1.94,.57Z"/>
    <path class="cls-1" d="M144.25,154.71c-.82,0-1.47-.2-1.94-.59-.47-.4-.71-.93-.72-1.59h2c0,.21,.06,.37,.19,.48s.29,.17,.5,.17c.1,0,.2-.02,.29-.05,.09-.03,.16-.09,.22-.16,.06-.07,.08-.16,.08-.26,0-.11-.05-.21-.15-.28s-.21-.13-.34-.16c-.13-.03-.31-.07-.54-.11s-.43-.07-.59-.11c-.16-.04-.35-.1-.57-.2-.22-.09-.39-.2-.53-.33-.13-.13-.25-.3-.35-.51-.1-.22-.15-.47-.15-.75,0-.6,.23-1.09,.71-1.45,.47-.36,1.09-.54,1.87-.54s1.39,.19,1.85,.56,.7,.87,.71,1.49h-1.95c0-.13-.03-.23-.08-.32-.06-.09-.13-.15-.22-.19-.09-.04-.2-.06-.33-.06-.17,0-.31,.04-.41,.12s-.15,.19-.15,.32c0,.06,.01,.11,.03,.16s.06,.08,.12,.12c.06,.03,.11,.06,.15,.08,.04,.02,.12,.04,.22,.07s.18,.04,.24,.05c.06,.01,.15,.03,.28,.05,.16,.03,.27,.05,.33,.06,.06,.01,.17,.04,.33,.07,.16,.04,.27,.07,.35,.09,.07,.03,.18,.07,.31,.13s.23,.12,.3,.18c.07,.06,.15,.14,.24,.23,.09,.09,.16,.19,.21,.3s.08,.23,.12,.38c.03,.15,.05,.3,.05,.46,0,.63-.24,1.14-.73,1.52-.49,.38-1.14,.57-1.94,.57Z"/>
    <path class="cls-1" d="M147.9,154.51v-6.04h2.08v6.04h-2.08Zm.01-6.81v-1.76h2.05v1.76h-2.05Z"/>
    <path class="cls-1" d="M156.18,148.45h1.54v6.04h-1.6l-.18-.43c-.52,.43-1.13,.64-1.82,.64-.61,0-1.16-.14-1.64-.41-.48-.28-.86-.66-1.13-1.15-.27-.49-.41-1.05-.41-1.67,0-.93,.3-1.7,.9-2.3,.6-.6,1.36-.9,2.28-.9,.7,0,1.32,.22,1.85,.65l.21-.47Zm-2.75,4.02c.25,.26,.58,.39,.97,.39s.71-.13,.97-.39c.25-.26,.38-.59,.38-.99s-.13-.72-.38-.99c-.25-.26-.57-.39-.96-.39s-.72,.13-.97,.39c-.25,.26-.38,.59-.38,.99s.13,.72,.38,.99Z"/>
    <path class="cls-1" d="M72.38,165.05c-.64,0-1.17-.19-1.58-.58s-.61-.88-.61-1.49v-.22h1.55v.14c0,.21,.06,.38,.17,.51,.12,.13,.27,.19,.46,.19s.34-.06,.45-.19c.11-.13,.17-.3,.17-.51v-3.6h1.55v3.68c0,.61-.2,1.1-.6,1.49-.4,.38-.92,.58-1.58,.58Z"/>
    <path class="cls-1" d="M77.53,165.05c-.64,0-1.15-.18-1.54-.55-.39-.37-.58-.85-.58-1.45v-2.46h1.49v2.4c0,.23,.06,.41,.17,.54,.11,.13,.27,.19,.47,.19s.36-.07,.47-.2c.11-.13,.17-.31,.17-.53v-2.4h1.49v2.46c0,.4-.09,.75-.26,1.05-.18,.3-.42,.53-.75,.7-.32,.17-.69,.25-1.12,.25Z"/>
    <path class="cls-1" d="M80.53,164.9v-5.88h1.49v5.88h-1.49Z"/>
    <path class="cls-1" d="M85.87,160.59h1.6l-1.81,4.12c-.3,.67-.61,1.14-.93,1.4-.32,.26-.75,.4-1.3,.4h-.51v-1.28h.41c.28,0,.48-.05,.61-.14,.12-.09,.23-.28,.34-.55l-1.78-3.96h1.62l.91,2.37,.86-2.37Z"/>
    <path class="cls-1" d="M91.7,161.31c.35,0,.66,.07,.93,.22s.49,.35,.64,.62c.15,.27,.23,.57,.23,.9,0,.38-.09,.72-.26,1.02-.18,.3-.42,.53-.74,.7s-.68,.25-1.1,.25c-.63,0-1.14-.18-1.53-.54-.39-.36-.59-.83-.59-1.42,0-.54,.2-1.15,.61-1.83l.98-1.65h1.54c-.12,.21-.3,.52-.54,.91s-.41,.68-.51,.85c.11-.02,.23-.03,.35-.03Zm-.31,2.49c.22,0,.4-.07,.54-.21,.14-.14,.21-.32,.21-.54s-.07-.41-.21-.54-.32-.21-.54-.21-.39,.07-.53,.21c-.14,.14-.21,.32-.21,.54,0,.15,.03,.28,.1,.39,.06,.11,.15,.2,.27,.26,.12,.06,.24,.1,.38,.1Z"/>
    <path class="cls-1" d="M94.09,163.37v-1.35h2.93v1.35h-2.93Z"/>
    <path class="cls-1" d="M97.44,159.59h2.21v5.32h-1.43v-4.11h-.78v-1.21Z"/>
    <path class="cls-1" d="M102.86,165.05c-.47,0-.88-.11-1.23-.34-.35-.23-.62-.55-.81-.98-.19-.42-.28-.91-.28-1.48,0-.85,.21-1.52,.63-2.03,.42-.51,.99-.76,1.7-.76s1.27,.25,1.7,.76c.42,.51,.63,1.18,.63,2.03s-.21,1.53-.64,2.04c-.42,.51-.99,.76-1.69,.76Zm-.65-1.67c.15,.26,.36,.4,.64,.4s.5-.13,.65-.39c.15-.26,.23-.64,.23-1.13s-.08-.87-.23-1.14-.37-.4-.64-.4-.5,.13-.65,.4c-.15,.26-.22,.64-.22,1.13s.08,.87,.22,1.13Z"/>
    <path class="cls-1" d="M105.84,166.3v-.74c.21-.02,.37-.09,.48-.21,.11-.12,.16-.27,.16-.45h-.7v-1.38h1.45v1.26c0,.43-.13,.78-.38,1.06-.25,.27-.59,.43-1.01,.46Z"/>
    <path class="cls-1" d="M112.08,163.64h1.48v1.26h-3.96v-.32c.75-.89,1.29-1.53,1.6-1.93,.32-.4,.53-.7,.65-.91s.18-.39,.18-.55c0-.14-.04-.26-.13-.35s-.19-.13-.33-.13c-.06,0-.12,0-.17,.02-.05,.01-.09,.04-.13,.07-.04,.03-.07,.07-.1,.11s-.05,.09-.06,.14c-.02,.06-.02,.12-.02,.18v.1h-1.4v-.1c0-.54,.17-.97,.5-1.3,.33-.32,.79-.49,1.36-.49s1.02,.16,1.38,.47,.53,.72,.53,1.22c0,.34-.09,.68-.28,1.02-.18,.34-.55,.83-1.11,1.47Z"/>
    <path class="cls-1" d="M116.54,165.05c-.47,0-.88-.11-1.23-.34-.35-.23-.62-.55-.81-.98-.19-.42-.28-.91-.28-1.48,0-.85,.21-1.52,.63-2.03,.42-.51,.99-.76,1.7-.76s1.27,.25,1.7,.76c.42,.51,.63,1.18,.63,2.03s-.21,1.53-.64,2.04c-.42,.51-.99,.76-1.69,.76Zm-.65-1.67c.15,.26,.36,.4,.64,.4s.5-.13,.65-.39c.15-.26,.23-.64,.23-1.13s-.08-.87-.23-1.14-.37-.4-.64-.4-.5,.13-.65,.4c-.15,.26-.22,.64-.22,1.13s.08,.87,.22,1.13Z"/>
    <path class="cls-1" d="M121.87,163.64h1.48v1.26h-3.96v-.32c.75-.89,1.29-1.53,1.6-1.93,.32-.4,.53-.7,.65-.91s.18-.39,.18-.55c0-.14-.04-.26-.13-.35s-.19-.13-.33-.13c-.06,0-.12,0-.17,.02-.05,.01-.09,.04-.13,.07-.04,.03-.07,.07-.1,.11s-.05,.09-.06,.14c-.02,.06-.02,.12-.02,.18v.1h-1.4v-.1c0-.54,.17-.97,.5-1.3,.33-.32,.79-.49,1.36-.49s1.02,.16,1.38,.47,.53,.72,.53,1.22c0,.34-.09,.68-.28,1.02-.18,.34-.55,.83-1.11,1.47Z"/>
    <path class="cls-1" d="M126.4,161.31c.35,0,.66,.07,.93,.22s.49,.35,.64,.62c.15,.27,.23,.57,.23,.9,0,.38-.09,.72-.26,1.02-.18,.3-.42,.53-.74,.7s-.68,.25-1.1,.25c-.63,0-1.14-.18-1.53-.54-.39-.36-.59-.83-.59-1.42,0-.54,.2-1.15,.61-1.83l.98-1.65h1.54c-.12,.21-.3,.52-.54,.91s-.41,.68-.51,.85c.11-.02,.23-.03,.35-.03Zm-.31,2.49c.22,0,.4-.07,.54-.21,.14-.14,.21-.32,.21-.54s-.07-.41-.21-.54-.32-.21-.54-.21-.39,.07-.53,.21c-.14,.14-.21,.32-.21,.54,0,.15,.03,.28,.1,.39,.06,.11,.15,.2,.27,.26,.12,.06,.24,.1,.38,.1Z"/>
  </g>
  <g>
    <path class="cls-1" d="M150.69,44.93l-12.86-5.98h-.01l-12.86-5.98-12.87-5.98-12.87-5.98-32.26,14.99s-.01,.02-.01,.03v-.03l-31.78,14.77v59.53l12.81,5.95h0s24.72,11.49,24.72,11.49l.9,.42,.9,.42,11.91,5.54,12.8,5.95c5.29-2.46,53.9-25.05,57.61-26.77h0s6.44-3,6.44-3V50.77l-12.57-5.84Zm-38.42-4.92v-.31l6.22-2.87c-.23,2.94,.05,7.95,.79,13.71l-6.43,2.99c-.02-.18-.04-.36-.05-.55-.03-.28-.05-.57-.08-.85v-.12c-.05-.52-.09-1.03-.13-1.52l-.06-.93-.02-.19v-.15s-.01-.1-.01-.1c-.02-.26-.03-.52-.05-.77v-.23s-.02-.19-.02-.19c-.02-.38-.04-.74-.06-1.09v-.11c-.01-.2-.02-.39-.03-.6v-.18c-.02-.36-.03-.72-.04-1.07v-.28s-.01-.08-.01-.08c-.01-.2-.01-.38-.02-.59v-.3c0-.12-.01-.23-.01-.36-.02-1.48-.01-2.58,.01-3.26Zm-.12,35.35s.05,.08,.08,.12l-.08,.04v-.16Zm-16.37-12.56c4.53,0,9.96,4.39,15.34,12.37l-16.79,7.81v-.2h-7.18c-.11-.52-.21-1.03-.29-1.53,1.16-.55,2.23-1.25,3.22-2.12,2.65-2.32,4.26-5.36,4.8-9.07l.25-1.71h-7.49c.28-.59,.61-1.15,1-1.67h6.44l-.28-1.73c-.11-.69-.25-1.35-.44-1.99,.47-.11,.94-.16,1.42-.16Zm-25.04-4.67c2.59-2.56,5.81-3.85,9.68-3.85,3.35,0,6.21,1.01,8.58,3.03,1.72,1.47,2.95,3.25,3.69,5.36,.08,.23,.16,.47,.23,.71,.17,.58,.3,1.18,.4,1.8h-7.11c-.29-.87-.72-1.63-1.27-2.27-.56-.65-1.23-1.15-2.01-1.52-.78-.36-1.6-.54-2.48-.54-1.82,0-3.32,.65-4.5,1.95-1.18,1.3-1.77,2.94-1.77,4.94,0,1.28,.27,2.44,.81,3.48,.53,1.03,1.28,1.84,2.24,2.42,.96,.58,2.03,.87,3.22,.87,.93,0,1.78-.19,2.57-.58s1.46-.93,2.01-1.64c.54-.7,.94-1.52,1.18-2.44h7.18c-.48,3.35-1.92,6.07-4.3,8.15-.77,.67-1.6,1.23-2.48,1.69-.23,.12-.47,.23-.71,.33-.03,.02-.06,.03-.1,.04-1.62,.7-3.42,1.05-5.38,1.05-3.87,0-7.09-1.27-9.68-3.83-2.59-2.55-3.88-5.73-3.88-9.54s1.29-7.05,3.88-9.61Zm-26.96-3.19h11.05c1.82,0,3.45,.38,4.88,1.13,.86,.45,1.61,1.01,2.24,1.69,.43,.45,.8,.96,1.13,1.52,.82,1.38,1.23,2.95,1.23,4.7,0,1.02-.16,1.99-.48,2.9-.31,.91-.78,1.73-1.38,2.46-.61,.73-1.34,1.34-2.19,1.82l5.07,9.3h-7.84l-3.6-6.74-.56-1.06h-2.51v7.8h-7.04v-25.52Zm22.69,52.39c-1.87,1.64-4.06,2.63-6.57,2.97-.68,.1-1.38,.15-2.1,.15-3.86,0-7.09-1.28-9.68-3.83-2.26-2.22-3.53-4.93-3.82-8.12-.04-.46-.06-.94-.06-1.43,0-3.84,1.29-7.04,3.88-9.6,2.59-2.57,5.82-3.85,9.68-3.85,3.35,0,6.21,1.01,8.58,3.03,2.37,2.02,3.81,4.64,4.32,7.87h-7.11c-.29-.87-.71-1.63-1.27-2.28-.56-.64-1.23-1.15-2.01-1.51-.77-.36-1.6-.55-2.47-.55-1.83,0-3.33,.65-4.51,1.95-1.17,1.3-1.76,2.95-1.76,4.94,0,1.29,.26,2.45,.8,3.48,.53,1.04,1.28,1.84,2.24,2.43,.96,.58,2.03,.87,3.23,.87,.92,0,1.78-.19,2.56-.58,.79-.39,1.46-.94,2.01-1.64,.55-.71,.94-1.52,1.18-2.44h7.19c-.49,3.35-1.92,6.07-4.31,8.14Zm19.4-16.71v19.17h-7.04v-19.17h-6.92v-6.34h20.92v6.34h-6.96Zm8.46,11.43l-.13-.26c-.05-.1-.11-.21-.17-.34-.05-.1-.1-.21-.16-.34l-.04-.08-.05-.1-.04-.07c-.13-.27-.26-.55-.39-.82-.15-.31-.29-.63-.44-.94-.32-.69-.65-1.41-.97-2.14-.22-.49-.43-.98-.65-1.48l-.1-.26c-.11-.24-.21-.49-.31-.74-.35-.83-.66-1.61-.94-2.36h4.39v-7.49l17.62-8.19c3.33,5.31,7.01,14.36,8.22,17.8l.71-.25,.71-.25c-2.52-7.33-5.57-19.89-6.94-27.32-.7-3.73-1.25-7.54-1.65-11.31l6.49-3.02c1.5,10.52,5.48,26.75,11.01,39.12l-33.77,15.7c-.1-.21-.24-.5-.38-.79-.26-.55-.52-1.1-.56-1.17l-.09-.18-.1-.19-.06-.12-.13-.25-.18-.35-.21-.43-.38-.74-.23-.46-.08-.18Zm53.3,14.69c-14.58,6.78-42.18,19.6-48.07,22.34-.22-.44-.43-.88-.62-1.31-.1-.21-.19-.42-.28-.63-2.72-6.14-4.1-12.39-4.1-18.56,0-4.4,.75-6.13,1.62-8.13,.27-.62,.54-1.26,.81-2.01l34.13-15.87c5.66,12.01,12.26,15.69,23.87,20.75l-7.36,3.42Z"/>
    <path class="cls-1" d="M56.29,65.95c.56-.51,.83-1.18,.83-2.01,0-.53-.12-1-.36-1.42-.24-.41-.6-.74-1.07-.98-.48-.24-1.03-.37-1.66-.37h-3.21v5.54h3.21c.94,0,1.7-.25,2.26-.76Z"/>
  </g>
</svg>