<?xml version="1.0" encoding="UTF-8"?>
<svg id="_Слой_4" data-name="Слой 4" xmlns="http://www.w3.org/2000/svg" viewBox="0 0 841.89 198.43">
  <defs>
    <style>
      .cls-1 {
        fill: #fff;
      }

      .cls-2 {
        fill: #3c3c3b;
      }

      .cls-3 {
        fill: none;
        stroke: #3c3c3b;
        stroke-linecap: round;
        stroke-linejoin: round;
        stroke-width: 2px;
      }

      .cls-4 {
        fill: #1d1d1b;
      }
    </style>
  </defs>
  <g id="_Цвет" data-name="Цвет">
    <path class="cls-3" d="M74.22,43.51s.04,0,.08,0c.04,0,.1,0,.16,.01,.02,0,.05,0,.07,0,.03,0,.07,0,.12,0,.13,.01,.3,.02,.49,.03,.08,0,.16,.01,.25,.02,.1,0,.2,.02,.31,.02,.08,0,.16,.01,.24,.02,.02,0,.05,0,.08,0,.06,0,.12,0,.18,.02,.09,0,.18,.01,.28,.02,.09,0,.18,.01,.27,.02,.13,0,.26,.02,.4,.03,.28,.02,.56,.04,.87,.06,.3,.02,.62,.05,.95,.07,.16,.01,.33,.02,.5,.03,.68,.05,1.41,.1,2.17,.16,0,0,.01,0,.02,0,.18,.02,.37,.03,.56,.04,.19,.02,.39,.03,.59,.04,.2,.02,.4,.03,.6,.04,.46,.03,.92,.07,1.39,.1,.15,.01,.31,.02,.46,.03,.44,.03,.88,.07,1.33,.1,.19,.01,.37,.03,.56,.04,.63,.05,1.28,.09,1.91,.14,.12,0,.23,.02,.35,.02,.41,.03,.82,.06,1.23,.09,.31,.02,.62,.05,.93,.07,1.24,.09,2.45,.17,3.57,.26,.15,.01,.29,.02,.44,.03,.04,0,.08,0,.11,.01,.28,.02,.54,.04,.81,.05,.18,.02,.35,.03,.51,.04,.17,.01,.33,.02,.5,.04,.16,.01,.32,.02,.48,.03,.19,.01,.38,.03,.56,.04,.16,.01,.33,.02,.49,.03,.46,.04,.88,.07,1.26,.09,.07,0,.13,0,.19,.01,.93,.07,1.51,.11,1.61,.12,1.1,.08,2.19,.16,3.28,.24,1.11,.08,2.22,.16,3.32,.24,.72,.05,1.44,.1,2.16,.16,.64,.05,1.27,.09,1.9,.14,.35,.02,.69,.05,1.03,.07,.3,.02,.61,.04,.91,.07,.6,.04,1.2,.09,1.79,.13,.3,.02,.59,.04,.88,.06,.6,.04,1.19,.09,1.78,.13s1.16,.08,1.73,.12c.57,.04,1.13,.08,1.68,.12,.87,.06,1.72,.12,2.53,.18,.38,.03,.76,.06,1.12,.08,.51,.04,1,.07,1.48,.11,.32,.02,.64,.04,.95,.07,.46,.03,.91,.07,1.35,.1,.02,0,.04-.02,.08-.04,0,0,0,0,.01,0,.02,0,.04-.02,.05-.02,.01,0,.03-.01,.04-.02,0,0,0,0,0,0l10.72-4.99-1.09,.54,15.12,7.9,16.04,7.51,15.65,7.33,8.05-3.74-15.72-7.3-16.09-7.48h0l-16.09-7.48-16.1-7.48-16.1-7.48-40.34,18.75Z"/>
    <g>
      <line class="cls-3" x1="82.53" y1="158.77" x2="82.53" y2="158.78"/>
      <path class="cls-3" d="M34.47,61.99v51.05s.06-.05,.09-.07c.02-.02,.05-.04,.07-.06,1.22-1.01,21.02-17.99,25.86-25.68,10.35-16.41,13.7-43.6,13.71-43.64,0-.01,0-.02,0-.04,0-.02,0-.03,0-.04l-39.75,18.47Z"/>
    </g>
    <path class="cls-3" d="M34.47,113.04l32.04,24.25,16.02,12.12,.45,.34,15.57,11.79,16.02,12.13c-.42-.82-.82-1.65-1.2-2.49-.12-.26-.24-.53-.35-.79-3.28-7.42-5.2-15.46-5.2-23.6,0-7.67,1.84-9.25,3.21-13.35h0c-.07-.14-.14-.27-.21-.41-.08-.15-1.28-2.69-1.37-2.85-.08-.15-.16-.31-.24-.47-.08-.15-.16-.31-.24-.46-3.1-5.98-6.03-12.28-8.18-18.79-.09-.27-.19-.55-.27-.82-.25-.75-.49-1.52-.72-2.28,0-.01,0-.02,0-.03-1.63-5.44-2.66-10.95-2.42-15.86,0,0,0-.02,0-.02,.19-6.29,3.21-12.76,9.58-14.76,8.26-2.99,17.16,6.01,23.78,16.06,.03,.05,.07,.1,.1,.15,4.35,6.64,9.23,18.64,10.82,23.14-3.27-9.54-7.04-25.26-8.72-34.31-1-5.42-1.68-10.45-2.13-14.88-.02-.23-.05-.47-.07-.7-.04-.44-.09-.87-.12-1.3-.04-.42-.07-.82-.11-1.23-.05-.65-.1-1.29-.15-1.91-.03-.4-.05-.8-.08-1.18,0-.14-.02-.28-.03-.42-.02-.37-.05-.74-.07-1.09v-.02c0-.18-.02-.35-.03-.51-.03-.53-.05-1.03-.08-1.52,0-.25-.02-.49-.03-.73,0-.08,0-.16,0-.23-.02-.47-.04-.92-.05-1.35,0-.14,0-.27-.01-.4,0-.26-.02-.52-.02-.77,0-.12,0-.25,0-.37,0-.16,0-.32,0-.48-.03-1.85-.02-3.24,0-4.1,0-.07,0-.14,0-.21,0-.13,0-.25,.01-.35,0-.3,.02-.45,.02-.45-.44-.03-.89-.06-1.35-.1-.31-.02-.63-.04-.95-.07-.48-.04-.98-.07-1.48-.11-.37-.02-.74-.05-1.12-.08-.82-.06-1.66-.12-2.53-.18-.55-.04-1.11-.08-1.68-.12-.57-.04-1.15-.08-1.73-.12s-1.18-.09-1.78-.13c-.29-.02-.58-.04-.88-.06-.59-.04-1.19-.09-1.79-.13-.3-.02-.61-.04-.91-.07-.34-.02-.68-.05-1.03-.07-.63-.05-1.26-.09-1.9-.14-.72-.05-1.44-.1-2.16-.16-1.1-.08-2.21-.16-3.32-.24-1.09-.08-2.18-.16-3.28-.24-.1,0-.68-.05-1.61-.12-.06,0-.13,0-.19-.01-.37-.03-.79-.06-1.26-.09-.17-.01-.33-.02-.49-.03-.18-.01-.37-.03-.56-.04-.16-.01-.32-.02-.48-.03-.16-.01-.33-.02-.5-.04-.17-.01-.34-.02-.51-.04-.26-.02-.53-.04-.81-.05-.03,0-.07,0-.11-.01-.15-.01-.29-.02-.44-.03-1.12-.08-2.33-.17-3.57-.26-.31-.02-.62-.04-.93-.07-.41-.03-.82-.06-1.23-.09-.12,0-.23-.02-.35-.02-.64-.05-1.28-.09-1.91-.14-.19-.01-.37-.03-.56-.04-.45-.03-.89-.07-1.33-.1-.15,0-.31-.02-.46-.03-.47-.04-.93-.07-1.39-.1-.2-.02-.4-.03-.6-.04-.2-.02-.4-.03-.59-.04-.19-.01-.37-.03-.56-.04,0,0-.02,0-.02,0-.76-.05-1.49-.11-2.17-.16-.17-.01-.34-.02-.5-.03-.33-.02-.65-.05-.95-.07-.3-.02-.59-.04-.87-.06-.14,0-.27-.02-.4-.03-.09,0-.18-.01-.27-.02-.1,0-.19-.02-.28-.02-.09,0-.17-.01-.25-.02-.08,0-.16,0-.24-.02-.11,0-.21-.02-.31-.02-.09,0-.17-.01-.25-.02-.19-.01-.36-.02-.49-.03-.04,0-.08,0-.12,0-.02,0-.05,0-.07,0-.07,0-.12-.01-.16-.01-.04,0-.07,0-.08,0,0,.02,0,.03-.01,.04,0,.01,0,.02,0,.04,0,.03-3.36,27.23-13.71,43.64-4.85,7.69-24.64,24.67-25.86,25.68-.02,.02-.05,.04-.07,.06-.03,.02-.06,.05-.09,.07Z"/>
    <polygon class="cls-3" points="186.62 65.73 186.62 140.18 194.67 136.44 194.67 61.99 186.62 65.73"/>
    <path class="cls-3" d="M140.68,62.26c1.85,14.04,7.13,35.17,14.24,50.77,7.44,16.3,16.04,20.41,31.69,27.16h0V65.73s-15.65-7.33-15.65-7.33l-16.04-7.51-15.12-7.9c-.56,2.94-.33,10.1,.88,19.27Z"/>
    <g>
      <path class="cls-3" d="M129.95,52.63c0,.16,0,.32,0,.48,0,.12,0,.25,0,.37,0,.25,.01,.51,.02,.77,0,.13,0,.27,.01,.4,.01,.43,.03,.89,.05,1.35,0,.07,0,.15,0,.23,.01,.24,.02,.48,.03,.73,.02,.49,.05,1,.08,1.52,0,.17,.02,.34,.03,.51v.02c.02,.35,.04,.72,.07,1.09,0,.14,.02,.28,.03,.42,.03,.39,.05,.78,.08,1.18,.05,.62,.1,1.26,.15,1.91,.04,.4,.07,.81,.11,1.23,.03,.43,.08,.86,.12,1.3,.02,.23,.05,.47,.07,.7l9.87-4.59c-1.21-9.17-1.44-16.32-.88-19.27l-9.63,4.45s0,0,0,0c-.01,0-.03,.01-.04,.02-.02,0-.04,.02-.05,.02,0,0,0,0-.01,0-.04,.02-.06,.03-.08,.04,0,0,0,.16-.02,.45,0,.1,0,.21-.01,.35,0,.07,0,.14,0,.21-.02,.86-.03,2.25,0,4.1Z"/>
      <path class="cls-3" d="M107.81,146.79c0,8.14,1.92,16.18,5.2,23.6,.12,.26,.23,.53,.35,.79,.38,.84,.78,1.66,1.2,2.49,6.61-3.07,67.41-31.33,72.04-33.48-15.65-6.75-24.25-10.86-31.69-27.16l-43.9,20.41h0c-1.38,4.11-3.21,5.68-3.21,13.36Z"/>
      <path class="cls-3" d="M99.82,107.31c.22,.78,.46,1.55,.7,2.33,.09,.28,.18,.55,.27,.82,.16,.46,.32,.92,.48,1.37,.04,.1,.07,.2,.11,.3,.12,.34,.25,.68,.37,1.01,.49,1.31,1,2.61,1.52,3.87,.17,.42,.35,.84,.53,1.26,.27,.63,.54,1.26,.81,1.87,.41,.92,.82,1.82,1.22,2.7,.19,.39,.37,.78,.55,1.17,.18,.39,.37,.76,.54,1.13,.04,.08,.07,.16,.11,.23,.07,.15,.14,.3,.21,.44,.07,.14,.14,.28,.21,.42,.09,.18,.17,.35,.26,.53,.1,.2,.19,.4,.29,.59,.16,.32,.32,.63,.47,.94,.17,.33,.33,.65,.49,.96,.08,.16,.16,.31,.24,.46,.08,.16,.16,.32,.24,.47,.08,.16,1.29,2.7,1.37,2.85,.07,.14,.14,.27,.21,.4l43.9-20.41c-7.12-15.59-12.39-36.73-14.24-50.77l-9.87,4.59c.45,4.43,1.13,9.46,2.13,14.88,1.68,9.05,5.44,24.77,8.72,34.31-1.58-4.5-6.46-16.51-10.82-23.14l-.1,.05-30.92,14.37Z"/>
      <path class="cls-3" d="M97.4,93.29c.23,4.74,1.1,9.43,2.42,14.02l30.92-14.37v-.2c-6.62-10.05-15.52-19.05-23.78-16.06-6.37,2-9.39,8.47-9.58,14.76,0,0,0,.02,0,.02-.02,.61,0,1.23,.03,1.83Z"/>
    </g>
    <path class="cls-3" d="M34.47,113.04v23.4s16.02,7.44,16.02,7.44h0s32.04,14.89,32.04,14.89l16.02,7.45,16.02,7.44-16.02-12.13-15.57-11.79c-.15-.11-.3-.22-.45-.33h0s-16.02-12.13-16.02-12.13l-32.04-24.25Z"/>
    <g>
      <g>
        <path class="cls-1" d="M62.38,100.11c-.37,0-.71-.2-.88-.53l-4.91-9.23h-1.55v8.76c0,.55-.45,1-1,1h-8.8c-.55,0-1-.45-1-1v-31.91c0-.55,.45-1,1-1h13.81c2.43,0,4.64,.51,6.57,1.53,1.95,1.03,3.5,2.5,4.61,4.39,1.11,1.88,1.67,4.03,1.67,6.39,0,1.38-.22,2.71-.65,3.95-.43,1.25-1.07,2.39-1.91,3.39-.63,.75-1.36,1.42-2.18,1.99l5.89,10.8c.17,.31,.16,.69-.02,.99s-.51,.49-.86,.49h-9.8Zm-4.33-19.19c.94,0,1.64-.23,2.15-.7,.49-.45,.72-1.01,.72-1.77,0-.49-.1-.91-.32-1.27-.21-.35-.51-.63-.94-.85-.45-.23-.99-.35-1.62-.35h-3.01v4.93h3.01Z"/>
        <path class="cls-2" d="M59.06,67.2c2.28,0,4.32,.47,6.11,1.41,1.79,.94,3.2,2.28,4.22,4.01,1.02,1.73,1.53,3.69,1.53,5.88,0,1.28-.2,2.48-.59,3.62-.4,1.14-.97,2.17-1.73,3.08-.76,.91-1.67,1.67-2.74,2.28l6.34,11.62h-9.8l-5.2-9.76h-3.15v9.76h-8.8v-31.91h13.81m-5.01,14.72h4.01c1.19,0,2.13-.32,2.83-.96,.7-.64,1.05-1.47,1.05-2.51,0-.67-.15-1.26-.46-1.78-.3-.52-.75-.93-1.34-1.23-.59-.3-1.28-.46-2.07-.46h-4.01v6.93m5.01-16.72h-13.81c-1.1,0-2,.9-2,2v31.91c0,1.1,.9,2,2,2h8.8c1.1,0,2-.9,2-2v-7.65l4.58,8.59c.35,.65,1.03,1.06,1.77,1.06h9.8c.71,0,1.36-.37,1.72-.98,.36-.61,.37-1.36,.04-1.98l-5.47-10.04c.6-.49,1.16-1.03,1.65-1.63,.91-1.1,1.61-2.34,2.09-3.7,.47-1.35,.7-2.79,.7-4.28,0-2.54-.61-4.86-1.8-6.89-1.21-2.05-2.89-3.65-5.01-4.77-2.08-1.09-4.44-1.64-7.04-1.64h0Zm-3.01,11.8h2.01c.47,0,.86,.08,1.17,.24,.33,.17,.46,.35,.53,.46,.12,.21,.18,.46,.18,.76,0,.59-.2,.85-.4,1.03-.12,.11-.48,.44-1.48,.44h-2.01v-2.93h0Z"/>
      </g>
      <g>
        <path class="cls-1" d="M91.06,100.93c-5.08,0-9.39-1.71-12.81-5.08-3.42-3.37-5.15-7.63-5.15-12.66s1.73-9.34,5.15-12.72c3.42-3.38,7.73-5.1,12.81-5.1,4.42,0,8.25,1.35,11.38,4.02,3.14,2.67,5.07,6.19,5.74,10.45,.05,.29-.04,.58-.23,.81s-.47,.35-.76,.35h-8.89c-.43,0-.81-.28-.95-.68-.32-.96-.79-1.81-1.4-2.51-.6-.7-1.34-1.25-2.18-1.64-.84-.39-1.74-.59-2.67-.59-2,0-3.6,.69-4.89,2.11-1.31,1.45-1.95,3.25-1.95,5.5,0,1.44,.3,2.75,.89,3.89,.59,1.14,1.38,2,2.43,2.64,1.05,.64,2.2,.95,3.52,.95,1,0,1.93-.21,2.77-.63,.86-.42,1.57-1,2.16-1.77,.6-.77,1.04-1.68,1.3-2.7,.12-.44,.51-.75,.97-.75h8.98c.29,0,.57,.13,.76,.35s.27,.51,.23,.8c-.64,4.42-2.56,8.05-5.71,10.8-3.15,2.75-7.02,4.14-11.51,4.14Z"/>
        <path class="cls-2" d="M91.06,66.38c4.19,0,7.77,1.26,10.74,3.78,2.96,2.52,4.76,5.81,5.4,9.85h-8.89c-.36-1.09-.9-2.04-1.6-2.85-.7-.81-1.54-1.44-2.51-1.89-.97-.45-2.01-.68-3.1-.68-2.28,0-4.16,.81-5.63,2.44-1.47,1.63-2.21,3.69-2.21,6.18,0,1.61,.33,3.06,1,4.35,.67,1.29,1.6,2.3,2.8,3.03,1.2,.73,2.55,1.09,4.03,1.09,1.15,0,2.23-.24,3.21-.73,.99-.49,1.82-1.17,2.51-2.05,.68-.88,1.18-1.9,1.48-3.05h8.98c-.61,4.19-2.4,7.59-5.38,10.19-2.98,2.6-6.6,3.9-10.85,3.9-4.83,0-8.87-1.6-12.1-4.79-3.24-3.19-4.85-7.17-4.85-11.94s1.62-8.81,4.85-12.01,7.27-4.81,12.1-4.81m0-2c-5.36,0-9.9,1.81-13.51,5.39-3.61,3.58-5.45,8.1-5.45,13.43s1.83,9.8,5.45,13.37c3.61,3.56,8.15,5.36,13.51,5.36,4.73,0,8.82-1.48,12.16-4.39,3.33-2.91,5.37-6.75,6.04-11.41,.08-.57-.09-1.16-.47-1.6-.38-.44-.93-.69-1.51-.69h-8.98c-.91,0-1.7,.61-1.93,1.49-.24,.9-.61,1.66-1.13,2.34-.5,.64-1.09,1.13-1.81,1.48-.72,.35-1.48,.52-2.33,.52-1.13,0-2.11-.26-3-.8-.89-.54-1.57-1.27-2.07-2.24-.53-1.01-.78-2.14-.78-3.43,0-2,.55-3.58,1.69-4.83,1.09-1.2,2.44-1.78,4.15-1.78,.8,0,1.54,.16,2.25,.49,.72,.34,1.33,.79,1.85,1.39,.53,.61,.92,1.32,1.21,2.17,.27,.82,1.04,1.37,1.9,1.37h8.89c.58,0,1.14-.26,1.52-.7,.38-.44,.55-1.03,.45-1.61-.71-4.51-2.76-8.23-6.08-11.06-3.32-2.83-7.37-4.26-12.03-4.26h0Z"/>
      </g>
      <g>
        <path class="cls-1" d="M62.77,137.63c-5.08,0-9.39-1.71-12.81-5.08-3.42-3.37-5.15-7.63-5.15-12.65s1.73-9.34,5.15-12.72c3.42-3.38,7.73-5.1,12.81-5.1,4.42,0,8.25,1.35,11.38,4.02,3.14,2.67,5.07,6.19,5.74,10.45,.05,.29-.04,.58-.23,.81s-.47,.35-.76,.35h-8.89c-.43,0-.81-.28-.95-.68-.32-.96-.79-1.81-1.4-2.51-.6-.7-1.34-1.25-2.18-1.64-.83-.39-1.73-.59-2.67-.59-2,0-3.6,.69-4.89,2.11-1.31,1.45-1.95,3.25-1.95,5.51,0,1.44,.3,2.75,.89,3.89,.59,1.13,1.38,2,2.44,2.64,1.05,.64,2.2,.95,3.52,.95,1,0,1.93-.21,2.77-.63,.86-.42,1.57-1,2.16-1.77,.6-.77,1.04-1.68,1.3-2.7,.12-.44,.51-.75,.97-.75h8.98c.29,0,.57,.13,.76,.35s.27,.51,.23,.8c-.64,4.42-2.56,8.05-5.71,10.8-3.15,2.75-7.03,4.14-11.51,4.14Z"/>
        <path class="cls-2" d="M62.77,103.07c4.19,0,7.77,1.26,10.74,3.78,2.96,2.52,4.76,5.81,5.4,9.85h-8.89c-.36-1.09-.9-2.04-1.6-2.85-.7-.81-1.54-1.44-2.51-1.89-.97-.45-2.01-.68-3.1-.68-2.28,0-4.16,.81-5.63,2.44-1.47,1.63-2.21,3.69-2.21,6.18,0,1.61,.33,3.06,1,4.35,.67,1.29,1.6,2.3,2.8,3.03,1.2,.73,2.55,1.09,4.03,1.09,1.15,0,2.23-.24,3.21-.73,.99-.49,1.82-1.17,2.51-2.05,.68-.88,1.18-1.9,1.48-3.05h8.98c-.61,4.19-2.4,7.59-5.38,10.19-2.98,2.6-6.6,3.9-10.85,3.9-4.83,0-8.87-1.6-12.1-4.79-3.24-3.19-4.85-7.17-4.85-11.94s1.62-8.81,4.85-12.01c3.24-3.21,7.27-4.81,12.1-4.81m0-2c-5.36,0-9.9,1.81-13.51,5.39-3.61,3.58-5.45,8.1-5.45,13.43s1.83,9.8,5.45,13.37c3.61,3.56,8.15,5.36,13.51,5.36,4.73,0,8.82-1.48,12.16-4.39,3.33-2.91,5.37-6.75,6.04-11.41,.08-.57-.09-1.16-.47-1.6-.38-.44-.93-.69-1.51-.69h-8.98c-.91,0-1.7,.61-1.93,1.49-.24,.9-.61,1.66-1.13,2.34-.5,.64-1.09,1.13-1.81,1.48-.72,.35-1.48,.52-2.33,.52-1.13,0-2.11-.26-3-.8-.89-.54-1.57-1.27-2.07-2.24-.53-1.01-.78-2.14-.78-3.43,0-2,.55-3.58,1.69-4.83,1.09-1.2,2.44-1.78,4.15-1.78,.8,0,1.54,.16,2.25,.49,.72,.34,1.33,.79,1.85,1.39,.53,.61,.92,1.32,1.21,2.17,.27,.82,1.04,1.37,1.9,1.37h8.89c.58,0,1.14-.26,1.52-.7,.38-.44,.55-1.03,.45-1.61-.71-4.51-2.76-8.23-6.08-11.06-3.32-2.83-7.37-4.26-12.03-4.26h0Z"/>
      </g>
      <g>
        <path class="cls-1" d="M89.08,136.8c-.55,0-1-.45-1-1v-22.98h-7.66c-.55,0-1-.45-1-1v-7.93c0-.55,.45-1,1-1h26.17c.55,0,1,.45,1,1v7.93c0,.55-.45,1-1,1h-7.71v22.98c0,.55-.45,1-1,1h-8.8Z"/>
        <path class="cls-2" d="M106.58,103.89v7.93h-8.71v23.98h-8.8v-23.98h-8.66v-7.93h26.17m0-2h-26.17c-1.1,0-2,.9-2,2v7.93c0,1.1,.9,2,2,2h6.66v21.98c0,1.1,.9,2,2,2h8.8c1.1,0,2-.9,2-2v-21.98h6.71c1.1,0,2-.9,2-2v-7.93c0-1.1-.9-2-2-2h0Z"/>
      </g>
    </g>
  </g>
  <g>
    <path class="cls-4" d="M218.69,77.15v-19.6h5.46v19.6h-5.46Z"/>
    <path class="cls-4" d="M240.2,57.55h5.24v19.6h-4.45l-7.78-10.64v10.64h-5.24v-19.6h4.7l7.53,10.28v-10.28Z"/>
    <path class="cls-4" d="M263.94,57.55v4.87h-5.35v14.73h-5.4v-14.73h-5.32v-4.87h16.07Z"/>
    <path class="cls-4" d="M271.73,72.48h7.39v4.68h-12.77v-19.6h12.54v4.68h-7.17v2.88h6.44v4.42h-6.44v2.94Z"/>
    <path class="cls-4" d="M292.75,77.15l-3.19-5.99h-1.93v5.99h-5.4v-19.6h8.48c1.4,0,2.65,.29,3.75,.87,1.1,.58,1.96,1.4,2.59,2.46,.62,1.06,.94,2.27,.94,3.61,0,.78-.12,1.53-.36,2.23-.24,.7-.6,1.33-1.06,1.89-.47,.56-1.03,1.03-1.68,1.4l3.89,7.14h-6.02Zm-5.12-14.81v4.26h2.46c.73,0,1.31-.2,1.74-.59,.43-.39,.64-.91,.64-1.54,0-.41-.09-.77-.28-1.09-.19-.32-.46-.57-.83-.76-.36-.19-.79-.28-1.27-.28h-2.46Z"/>
    <path class="cls-4" d="M313.39,57.55h5.24v19.6h-4.45l-7.78-10.64v10.64h-5.24v-19.6h4.7l7.53,10.28v-10.28Z"/>
    <path class="cls-4" d="M335.43,77.15l-1.09-3.19h-6.94l-1.09,3.19h-5.77l7.7-19.6h5.26l7.87,19.6h-5.94Zm-2.41-7.42l-2.16-6.08-2.16,6.08h4.31Z"/>
    <path class="cls-4" d="M355.98,57.55v4.87h-5.35v14.73h-5.4v-14.73h-5.32v-4.87h16.07Z"/>
    <path class="cls-4" d="M358.38,77.15v-19.6h5.46v19.6h-5.46Z"/>
    <path class="cls-4" d="M377.42,77.66c-3.15,0-5.74-.97-7.77-2.9-2.03-1.93-3.04-4.4-3.04-7.41s1.01-5.47,3.04-7.41,4.62-2.9,7.77-2.9,5.71,.97,7.73,2.9c2.02,1.93,3.02,4.4,3.02,7.41s-1.01,5.47-3.02,7.41c-2.02,1.93-4.59,2.9-7.73,2.9Zm-3.71-6.52c.98,.99,2.22,1.48,3.71,1.48s2.72-.49,3.68-1.48c.96-.99,1.44-2.25,1.44-3.78s-.48-2.79-1.44-3.78c-.96-.99-2.19-1.48-3.68-1.48s-2.73,.5-3.71,1.48c-.98,.99-1.47,2.25-1.47,3.78s.49,2.79,1.47,3.78Z"/>
    <path class="cls-4" d="M403.18,57.55h5.24v19.6h-4.45l-7.78-10.64v10.64h-5.24v-19.6h4.7l7.53,10.28v-10.28Z"/>
    <path class="cls-4" d="M425.22,77.15l-1.09-3.19h-6.94l-1.09,3.19h-5.77l7.7-19.6h5.26l7.87,19.6h-5.94Zm-2.41-7.42l-2.16-6.08-2.16,6.08h4.31Z"/>
    <path class="cls-4" d="M438.52,72.2h6.97v4.96h-12.43v-19.6h5.46v14.64Z"/>
    <path class="cls-4" d="M462.63,77.66c-2.97,0-5.45-.98-7.43-2.94-1.99-1.96-2.98-4.41-2.98-7.34s.99-5.41,2.98-7.38c1.99-1.97,4.47-2.95,7.43-2.95,2.58,0,4.77,.77,6.59,2.32,1.82,1.55,2.93,3.57,3.32,6.05h-5.46c-.22-.67-.55-1.25-.98-1.75-.43-.49-.94-.88-1.54-1.16-.6-.28-1.23-.42-1.9-.42-1.4,0-2.55,.5-3.46,1.5-.91,1-1.36,2.26-1.36,3.79,0,.99,.21,1.88,.62,2.67,.41,.79,.98,1.41,1.72,1.86,.74,.45,1.56,.67,2.48,.67,.71,0,1.37-.15,1.97-.45,.61-.3,1.12-.72,1.54-1.26,.42-.54,.72-1.17,.91-1.88h5.52c-.37,2.58-1.47,4.66-3.3,6.26-1.83,1.6-4.05,2.39-6.66,2.39Z"/>
    <path class="cls-4" d="M484.97,77.66c-3.15,0-5.74-.97-7.77-2.9-2.03-1.93-3.04-4.4-3.04-7.41s1.01-5.47,3.04-7.41,4.62-2.9,7.77-2.9,5.71,.97,7.73,2.9c2.02,1.93,3.02,4.4,3.02,7.41s-1.01,5.47-3.02,7.41c-2.02,1.93-4.59,2.9-7.73,2.9Zm-3.71-6.52c.98,.99,2.22,1.48,3.71,1.48s2.72-.49,3.68-1.48c.96-.99,1.44-2.25,1.44-3.78s-.48-2.79-1.44-3.78c-.96-.99-2.19-1.48-3.68-1.48s-2.73,.5-3.71,1.48c-.98,.99-1.47,2.25-1.47,3.78s.49,2.79,1.47,3.78Z"/>
    <path class="cls-4" d="M510.73,57.55h5.24v19.6h-4.45l-7.78-10.64v10.64h-5.24v-19.6h4.7l7.53,10.28v-10.28Z"/>
    <path class="cls-4" d="M532.24,62.43h-7.03v3.14h6.3v4.73h-6.3v6.86h-5.43v-19.6h12.46v4.87Z"/>
    <path class="cls-4" d="M540.5,72.48h7.39v4.68h-12.77v-19.6h12.54v4.68h-7.17v2.88h6.44v4.42h-6.44v2.94Z"/>
    <path class="cls-4" d="M561.52,77.15l-3.19-5.99h-1.93v5.99h-5.4v-19.6h8.48c1.4,0,2.65,.29,3.75,.87,1.1,.58,1.96,1.4,2.59,2.46,.62,1.06,.94,2.27,.94,3.61,0,.78-.12,1.53-.36,2.23-.24,.7-.6,1.33-1.06,1.89-.47,.56-1.03,1.03-1.68,1.4l3.89,7.14h-6.02Zm-5.12-14.81v4.26h2.46c.73,0,1.31-.2,1.74-.59,.43-.39,.64-.91,.64-1.54,0-.41-.09-.77-.28-1.09-.19-.32-.46-.57-.83-.76-.36-.19-.79-.28-1.27-.28h-2.46Z"/>
    <path class="cls-4" d="M575.3,72.48h7.39v4.68h-12.77v-19.6h12.54v4.68h-7.17v2.88h6.44v4.42h-6.44v2.94Z"/>
    <path class="cls-4" d="M598.04,57.55h5.24v19.6h-4.45l-7.78-10.64v10.64h-5.24v-19.6h4.7l7.53,10.28v-10.28Z"/>
    <path class="cls-4" d="M616.46,77.66c-2.97,0-5.45-.98-7.43-2.94-1.99-1.96-2.98-4.41-2.98-7.34s.99-5.41,2.98-7.38c1.99-1.97,4.47-2.95,7.43-2.95,2.58,0,4.77,.77,6.59,2.32,1.82,1.55,2.93,3.57,3.32,6.05h-5.46c-.22-.67-.55-1.25-.98-1.75-.43-.49-.94-.88-1.54-1.16-.6-.28-1.23-.42-1.9-.42-1.4,0-2.55,.5-3.46,1.5-.91,1-1.36,2.26-1.36,3.79,0,.99,.21,1.88,.62,2.67,.41,.79,.98,1.41,1.72,1.86,.74,.45,1.56,.67,2.48,.67,.71,0,1.37-.15,1.97-.45,.61-.3,1.12-.72,1.54-1.26,.42-.54,.72-1.17,.91-1.88h5.52c-.37,2.58-1.47,4.66-3.3,6.26-1.83,1.6-4.05,2.39-6.66,2.39Z"/>
    <path class="cls-4" d="M634.41,72.48h7.39v4.68h-12.77v-19.6h12.54v4.68h-7.17v2.88h6.44v4.42h-6.44v2.94Z"/>
    <path class="cls-4" d="M660.76,77.66c-3.15,0-5.74-.97-7.77-2.9-2.03-1.93-3.04-4.4-3.04-7.41s1.01-5.47,3.04-7.41,4.62-2.9,7.77-2.9,5.71,.97,7.73,2.9c2.02,1.93,3.02,4.4,3.02,7.41s-1.01,5.47-3.02,7.41c-2.02,1.93-4.59,2.9-7.73,2.9Zm-3.71-6.52c.98,.99,2.22,1.48,3.71,1.48s2.72-.49,3.68-1.48c.96-.99,1.44-2.25,1.44-3.78s-.48-2.79-1.44-3.78c-.96-.99-2.19-1.48-3.68-1.48s-2.73,.5-3.71,1.48c-.98,.99-1.47,2.25-1.47,3.78s.49,2.79,1.47,3.78Z"/>
    <path class="cls-4" d="M686.52,57.55h5.24v19.6h-4.45l-7.78-10.64v10.64h-5.24v-19.6h4.7l7.53,10.28v-10.28Z"/>
    <path class="cls-4" d="M228.07,102.66c-2.97,0-5.45-.98-7.43-2.94-1.99-1.96-2.98-4.41-2.98-7.34s.99-5.41,2.98-7.38c1.99-1.97,4.47-2.95,7.43-2.95,2.58,0,4.77,.77,6.59,2.32,1.82,1.55,2.93,3.57,3.32,6.05h-5.46c-.22-.67-.55-1.25-.98-1.75-.43-.49-.94-.88-1.54-1.16-.6-.28-1.23-.42-1.9-.42-1.4,0-2.55,.5-3.46,1.5-.91,1-1.36,2.26-1.36,3.79,0,.99,.21,1.88,.62,2.67,.41,.79,.98,1.41,1.72,1.86,.74,.45,1.56,.67,2.48,.67,.71,0,1.37-.15,1.97-.45,.61-.3,1.12-.72,1.54-1.26,.42-.54,.72-1.17,.91-1.88h5.52c-.37,2.58-1.47,4.66-3.3,6.26-1.83,1.6-4.05,2.39-6.66,2.39Z"/>
    <path class="cls-4" d="M251.96,82.55h5.46v19.6h-5.46v-7.53h-5.88v7.53h-5.43v-19.6h5.43v7.08h5.88v-7.08Z"/>
    <path class="cls-4" d="M266.57,97.48h7.39v4.68h-12.77v-19.6h12.54v4.68h-7.17v2.88h6.44v4.42h-6.44v2.94Z"/>
    <path class="cls-4" d="M301.88,102.15h-5.43l-1.54-11.28-5.18,11.31h-1.6l-5.21-11.31-1.51,11.28h-5.46l2.97-19.6h5.38l4.62,10.67,4.65-10.67h5.4l2.91,19.6Z"/>
    <path class="cls-4" d="M304.57,102.15v-19.6h5.46v19.6h-5.46Z"/>
    <path class="cls-4" d="M323.22,102.66c-2.97,0-5.45-.98-7.43-2.94-1.99-1.96-2.98-4.41-2.98-7.34s.99-5.41,2.98-7.38c1.99-1.97,4.47-2.95,7.43-2.95,2.58,0,4.77,.77,6.59,2.32,1.82,1.55,2.93,3.57,3.32,6.05h-5.46c-.22-.67-.55-1.25-.98-1.75-.43-.49-.94-.88-1.54-1.16-.6-.28-1.23-.42-1.9-.42-1.4,0-2.55,.5-3.46,1.5-.91,1-1.36,2.26-1.36,3.79,0,.99,.21,1.88,.62,2.67,.41,.79,.98,1.41,1.72,1.86,.74,.45,1.56,.67,2.48,.67,.71,0,1.37-.15,1.97-.45,.61-.3,1.12-.72,1.54-1.26,.42-.54,.72-1.17,.91-1.88h5.52c-.37,2.58-1.47,4.66-3.3,6.26-1.83,1.6-4.05,2.39-6.66,2.39Z"/>
    <path class="cls-4" d="M348,102.15l-1.09-3.19h-6.94l-1.09,3.19h-5.77l7.7-19.6h5.26l7.87,19.6h-5.94Zm-2.41-7.42l-2.16-6.08-2.16,6.08h4.31Z"/>
    <path class="cls-4" d="M361.3,97.2h6.97v4.96h-12.43v-19.6h5.46v14.64Z"/>
    <path class="cls-4" d="M389.97,82.55v4.87h-5.35v14.73h-5.4v-14.73h-5.32v-4.87h16.07Z"/>
    <path class="cls-4" d="M403.69,82.55h5.46v19.6h-5.46v-7.53h-5.88v7.53h-5.43v-19.6h5.43v7.08h5.88v-7.08Z"/>
    <path class="cls-4" d="M418.31,97.48h7.39v4.68h-12.77v-19.6h12.54v4.68h-7.17v2.88h6.44v4.42h-6.44v2.94Z"/>
    <path class="cls-4" d="M439.33,102.15l-3.19-5.99h-1.93v5.99h-5.4v-19.6h8.48c1.4,0,2.65,.29,3.75,.87,1.1,.58,1.96,1.4,2.59,2.46,.62,1.06,.94,2.27,.94,3.61,0,.78-.12,1.53-.36,2.23-.24,.7-.6,1.33-1.06,1.89-.47,.56-1.03,1.03-1.68,1.4l3.89,7.14h-6.02Zm-5.12-14.81v4.26h2.46c.73,0,1.31-.2,1.74-.59,.43-.39,.64-.91,.64-1.54,0-.41-.09-.77-.28-1.09-.19-.32-.46-.57-.83-.76-.36-.19-.79-.28-1.27-.28h-2.46Z"/>
    <path class="cls-4" d="M472.54,102.15h-5.43l-1.54-11.28-5.18,11.31h-1.6l-5.21-11.31-1.51,11.28h-5.46l2.97-19.6h5.38l4.62,10.67,4.65-10.67h5.4l2.91,19.6Z"/>
    <path class="cls-4" d="M484.8,102.66c-3.15,0-5.74-.97-7.77-2.9-2.03-1.93-3.04-4.4-3.04-7.41s1.01-5.47,3.04-7.41,4.62-2.9,7.77-2.9,5.71,.97,7.73,2.9c2.02,1.93,3.02,4.4,3.02,7.41s-1.01,5.47-3.02,7.41c-2.02,1.93-4.59,2.9-7.73,2.9Zm-3.71-6.52c.98,.99,2.22,1.48,3.71,1.48s2.72-.49,3.68-1.48c.96-.99,1.44-2.25,1.44-3.78s-.48-2.79-1.44-3.78c-.96-.99-2.19-1.48-3.68-1.48s-2.73,.5-3.71,1.48c-.98,.99-1.47,2.25-1.47,3.78s.49,2.79,1.47,3.78Z"/>
    <path class="cls-4" d="M506.25,82.55c2.97,0,5.39,.91,7.28,2.74,1.88,1.83,2.83,4.18,2.83,7.04s-.95,5.22-2.84,7.06-4.32,2.76-7.27,2.76h-7.92v-19.6h7.92Zm-.25,14.64c1.44,0,2.6-.45,3.5-1.34,.9-.9,1.34-2.07,1.34-3.53s-.44-2.6-1.33-3.49c-.89-.89-2.06-1.33-3.51-1.33h-2.27v9.69h2.27Z"/>
    <path class="cls-4" d="M534.95,82.55l-6.86,11.93v7.67h-5.49v-7.67l-6.8-11.93h5.99l3.58,7.08,3.58-7.08h5.99Z"/>
    <path class="cls-4" d="M549.29,82.55h5.24v19.6h-4.45l-7.78-10.64v10.64h-5.24v-19.6h4.7l7.53,10.28v-10.28Z"/>
    <path class="cls-4" d="M571.32,102.15l-1.09-3.19h-6.94l-1.09,3.19h-5.77l7.7-19.6h5.26l7.87,19.6h-5.94Zm-2.41-7.42l-2.16-6.08-2.16,6.08h4.31Z"/>
    <path class="cls-4" d="M603.97,102.15h-5.43l-1.54-11.28-5.18,11.31h-1.6l-5.21-11.31-1.51,11.28h-5.46l2.97-19.6h5.38l4.62,10.67,4.65-10.67h5.4l2.91,19.6Z"/>
    <path class="cls-4" d="M606.66,102.15v-19.6h5.46v19.6h-5.46Z"/>
    <path class="cls-4" d="M625.31,102.66c-2.97,0-5.45-.98-7.43-2.94-1.99-1.96-2.98-4.41-2.98-7.34s.99-5.41,2.98-7.38c1.99-1.97,4.47-2.95,7.43-2.95,2.58,0,4.77,.77,6.59,2.32,1.82,1.55,2.93,3.57,3.32,6.05h-5.46c-.22-.67-.55-1.25-.98-1.75-.43-.49-.94-.88-1.54-1.16-.6-.28-1.23-.42-1.9-.42-1.4,0-2.55,.5-3.46,1.5-.91,1-1.36,2.26-1.36,3.79,0,.99,.21,1.88,.62,2.67,.41,.79,.98,1.41,1.72,1.86,.74,.45,1.56,.67,2.48,.67,.71,0,1.37-.15,1.97-.45,.61-.3,1.12-.72,1.54-1.26,.42-.54,.72-1.17,.91-1.88h5.52c-.37,2.58-1.47,4.66-3.3,6.26-1.83,1.6-4.05,2.39-6.66,2.39Z"/>
    <path class="cls-4" d="M644.82,102.63c-2.43,0-4.35-.6-5.77-1.81-1.42-1.2-2.13-2.87-2.13-5h5.57c0,.67,.22,1.19,.66,1.54s.98,.53,1.64,.53c.6,0,1.12-.15,1.55-.45,.44-.3,.66-.7,.66-1.2,0-.17-.02-.31-.06-.43-.04-.12-.11-.24-.21-.35-.1-.11-.2-.21-.29-.29s-.24-.17-.43-.25-.36-.15-.49-.2-.33-.11-.6-.18c-.27-.07-.48-.13-.62-.17-.14-.04-.37-.09-.69-.17-.56-.15-.98-.26-1.26-.34-.28-.07-.69-.21-1.23-.39-.54-.19-.96-.37-1.26-.55-.3-.18-.64-.42-1.04-.74-.39-.32-.69-.65-.9-1.01-.21-.35-.38-.79-.53-1.32s-.22-1.09-.22-1.71c0-1.9,.66-3.39,1.97-4.47,1.32-1.07,3.14-1.61,5.47-1.61s4.15,.57,5.45,1.71c1.3,1.14,1.95,2.71,1.95,4.7h-5.4c0-.6-.2-1.05-.59-1.36-.39-.31-.88-.46-1.46-.46-.52,0-.97,.11-1.34,.34-.37,.22-.56,.56-.56,1.01,0,.17,.04,.33,.11,.48s.2,.29,.36,.41,.33,.22,.49,.31c.16,.08,.39,.18,.7,.28,.31,.1,.56,.18,.76,.24,.2,.06,.5,.13,.91,.22,.56,.15,.99,.27,1.29,.35,.3,.08,.72,.22,1.27,.42,.55,.2,.98,.39,1.29,.57,.31,.19,.67,.44,1.08,.76,.41,.32,.72,.66,.94,1.04,.21,.37,.4,.82,.56,1.34,.16,.52,.24,1.09,.24,1.71,0,2.07-.72,3.67-2.16,4.8-1.44,1.13-3.33,1.69-5.68,1.69Z"/>
    <path class="cls-4" d="M661.57,102.15v-19.6h5.46v19.6h-5.46Z"/>
    <path class="cls-4" d="M683.07,82.55h5.24v19.6h-4.45l-7.78-10.64v10.64h-5.24v-19.6h4.7l7.53,10.28v-10.28Z"/>
    <path class="cls-4" d="M708.72,102.15l-3.19-5.99h-1.93v5.99h-5.4v-19.6h8.48c1.4,0,2.65,.29,3.75,.87,1.1,.58,1.96,1.4,2.59,2.46,.62,1.06,.94,2.27,.94,3.61,0,.78-.12,1.53-.36,2.23-.24,.7-.6,1.33-1.06,1.89-.47,.56-1.03,1.03-1.68,1.4l3.89,7.14h-6.02Zm-5.12-14.81v4.26h2.46c.73,0,1.31-.2,1.74-.59,.43-.39,.64-.91,.64-1.54,0-.41-.09-.77-.28-1.09-.19-.32-.46-.57-.83-.76-.36-.19-.79-.28-1.27-.28h-2.46Z"/>
    <path class="cls-4" d="M731.61,100.42c-1.6,1.49-3.65,2.24-6.16,2.24s-4.56-.75-6.16-2.24c-1.6-1.49-2.39-3.44-2.39-5.85v-12.01h5.52v11.93c0,.95,.28,1.71,.84,2.28,.56,.57,1.29,.85,2.2,.85s1.64-.28,2.2-.85c.56-.57,.84-1.33,.84-2.28v-11.93h5.52v12.01c0,2.41-.8,4.36-2.39,5.85Z"/>
    <path class="cls-4" d="M744.56,102.63c-2.43,0-4.35-.6-5.77-1.81-1.42-1.2-2.13-2.87-2.13-5h5.57c0,.67,.22,1.19,.66,1.54s.98,.53,1.64,.53c.6,0,1.12-.15,1.55-.45,.44-.3,.66-.7,.66-1.2,0-.17-.02-.31-.06-.43-.04-.12-.11-.24-.21-.35-.1-.11-.2-.21-.29-.29s-.24-.17-.43-.25-.36-.15-.49-.2-.33-.11-.6-.18c-.27-.07-.48-.13-.62-.17-.14-.04-.37-.09-.69-.17-.56-.15-.98-.26-1.26-.34-.28-.07-.69-.21-1.23-.39-.54-.19-.96-.37-1.26-.55-.3-.18-.64-.42-1.04-.74-.39-.32-.69-.65-.9-1.01-.21-.35-.38-.79-.53-1.32s-.22-1.09-.22-1.71c0-1.9,.66-3.39,1.97-4.47,1.32-1.07,3.14-1.61,5.47-1.61s4.15,.57,5.45,1.71c1.3,1.14,1.95,2.71,1.95,4.7h-5.4c0-.6-.2-1.05-.59-1.36-.39-.31-.88-.46-1.46-.46-.52,0-.97,.11-1.34,.34-.37,.22-.56,.56-.56,1.01,0,.17,.04,.33,.11,.48s.2,.29,.36,.41,.33,.22,.49,.31c.16,.08,.39,.18,.7,.28,.31,.1,.56,.18,.76,.24,.2,.06,.5,.13,.91,.22,.56,.15,.99,.27,1.29,.35,.3,.08,.72,.22,1.27,.42,.55,.2,.98,.39,1.29,.57,.31,.19,.67,.44,1.08,.76,.41,.32,.72,.66,.94,1.04,.21,.37,.4,.82,.56,1.34,.16,.52,.24,1.09,.24,1.71,0,2.07-.72,3.67-2.16,4.8-1.44,1.13-3.33,1.69-5.68,1.69Z"/>
    <path class="cls-4" d="M762.17,102.63c-2.43,0-4.35-.6-5.77-1.81-1.42-1.2-2.13-2.87-2.13-5h5.57c0,.67,.22,1.19,.66,1.54s.98,.53,1.64,.53c.6,0,1.12-.15,1.55-.45,.44-.3,.66-.7,.66-1.2,0-.17-.02-.31-.06-.43-.04-.12-.11-.24-.21-.35-.1-.11-.2-.21-.29-.29s-.24-.17-.43-.25-.36-.15-.49-.2-.33-.11-.6-.18c-.27-.07-.48-.13-.62-.17-.14-.04-.37-.09-.69-.17-.56-.15-.98-.26-1.26-.34-.28-.07-.69-.21-1.23-.39-.54-.19-.96-.37-1.26-.55-.3-.18-.64-.42-1.04-.74-.39-.32-.69-.65-.9-1.01-.21-.35-.38-.79-.53-1.32s-.22-1.09-.22-1.71c0-1.9,.66-3.39,1.97-4.47,1.32-1.07,3.14-1.61,5.47-1.61s4.15,.57,5.45,1.71c1.3,1.14,1.95,2.71,1.95,4.7h-5.4c0-.6-.2-1.05-.59-1.36-.39-.31-.88-.46-1.46-.46-.52,0-.97,.11-1.34,.34-.37,.22-.56,.56-.56,1.01,0,.17,.04,.33,.11,.48s.2,.29,.36,.41,.33,.22,.49,.31c.16,.08,.39,.18,.7,.28,.31,.1,.56,.18,.76,.24,.2,.06,.5,.13,.91,.22,.56,.15,.99,.27,1.29,.35,.3,.08,.72,.22,1.27,.42,.55,.2,.98,.39,1.29,.57,.31,.19,.67,.44,1.08,.76,.41,.32,.72,.66,.94,1.04,.21,.37,.4,.82,.56,1.34,.16,.52,.24,1.09,.24,1.71,0,2.07-.72,3.67-2.16,4.8-1.44,1.13-3.33,1.69-5.68,1.69Z"/>
    <path class="cls-4" d="M772.84,102.15v-19.6h5.46v19.6h-5.46Z"/>
    <path class="cls-4" d="M795.1,102.15l-1.09-3.19h-6.94l-1.09,3.19h-5.77l7.7-19.6h5.26l7.87,19.6h-5.94Zm-2.41-7.42l-2.16-6.08-2.16,6.08h4.31Z"/>
    <path class="cls-4" d="M221.33,126.44c-1.27,0-2.3-.38-3.09-1.13-.8-.75-1.19-1.73-1.19-2.92v-.44h3.05v.28c0,.42,.11,.75,.34,1,.23,.25,.53,.38,.9,.38s.66-.13,.89-.38c.22-.25,.34-.59,.34-1v-7.06h3.05v7.22c0,1.19-.39,2.17-1.18,2.92s-1.82,1.13-3.09,1.13Z"/>
    <path class="cls-4" d="M231.42,126.44c-1.26,0-2.27-.36-3.03-1.08s-1.15-1.67-1.15-2.85v-4.83h2.92v4.71c0,.45,.11,.8,.33,1.05s.53,.38,.92,.38,.7-.13,.93-.38c.22-.26,.34-.6,.34-1.04v-4.71h2.92v4.83c0,.78-.17,1.47-.52,2.06-.35,.59-.83,1.05-1.47,1.37s-1.36,.49-2.19,.49Z"/>
    <path class="cls-4" d="M237.32,126.15v-11.54h2.92v11.54h-2.92Z"/>
    <path class="cls-4" d="M247.79,117.68h3.14l-3.55,8.1c-.59,1.32-1.19,2.24-1.82,2.75-.63,.52-1.48,.78-2.56,.78h-1v-2.51h.8c.55,0,.95-.09,1.19-.27,.24-.18,.46-.54,.66-1.08l-3.5-7.77h3.17l1.79,4.66,1.68-4.66Z"/>
    <path class="cls-4" d="M259.25,119.11c.68,0,1.29,.14,1.83,.43,.54,.29,.96,.69,1.26,1.22,.3,.52,.45,1.12,.45,1.77,0,.75-.17,1.42-.52,2.01-.34,.59-.83,1.04-1.46,1.37s-1.35,.49-2.15,.49c-1.23,0-2.24-.36-3.01-1.07s-1.15-1.64-1.15-2.78c0-1.07,.4-2.27,1.19-3.59l1.92-3.23h3.01c-.24,.42-.59,1.02-1.06,1.79-.47,.77-.8,1.33-1,1.66,.22-.04,.45-.06,.69-.06Zm-.61,4.9c.43,0,.78-.14,1.05-.41s.41-.63,.41-1.07-.14-.79-.41-1.07-.62-.41-1.05-.41-.77,.14-1.04,.41-.42,.63-.42,1.07c0,.29,.06,.55,.19,.77,.13,.22,.3,.39,.53,.52,.22,.12,.47,.19,.75,.19Z"/>
    <path class="cls-4" d="M263.94,123.14v-2.65h5.76v2.65h-5.76Z"/>
    <path class="cls-4" d="M270.52,115.71h4.35v10.44h-2.81v-8.07h-1.54v-2.37Z"/>
    <path class="cls-4" d="M281.15,126.44c-.92,0-1.73-.22-2.42-.67-.69-.45-1.22-1.09-1.59-1.92-.37-.83-.56-1.79-.56-2.9,0-1.66,.41-2.99,1.24-3.99,.83-.99,1.94-1.49,3.33-1.49s2.5,.5,3.33,1.49c.83,1,1.24,2.32,1.24,3.99s-.42,3.01-1.25,4-1.94,1.49-3.32,1.49Zm-1.27-3.27c.29,.52,.71,.78,1.26,.78s.97-.26,1.27-.77c.3-.51,.45-1.25,.45-2.21s-.15-1.71-.45-2.23c-.3-.52-.72-.79-1.26-.79s-.98,.26-1.27,.78c-.29,.52-.44,1.26-.44,2.22s.15,1.7,.44,2.22Z"/>
    <path class="cls-4" d="M287,128.9v-1.44c.41-.04,.72-.18,.93-.42,.21-.24,.32-.53,.32-.89h-1.37v-2.72h2.84v2.48c0,.85-.25,1.54-.75,2.07-.5,.53-1.16,.84-1.99,.91Z"/>
    <path class="cls-4" d="M299.25,123.67h2.9v2.48h-7.77v-.63c1.48-1.75,2.52-3.01,3.15-3.79,.62-.78,1.05-1.37,1.28-1.78s.35-.77,.35-1.08c0-.28-.08-.51-.25-.68-.17-.17-.38-.26-.64-.26-.12,0-.24,.01-.34,.04-.1,.03-.19,.07-.26,.13-.07,.06-.14,.13-.19,.21-.05,.08-.09,.17-.13,.28-.03,.11-.05,.23-.05,.35v.2h-2.75v-.2c0-1.06,.33-1.9,.98-2.54,.65-.64,1.55-.96,2.68-.96s2.01,.31,2.71,.93c.7,.62,1.04,1.42,1.04,2.4,0,.67-.18,1.34-.54,2.01-.36,.67-1.08,1.63-2.17,2.89Z"/>
    <path class="cls-4" d="M308.01,126.44c-.92,0-1.73-.22-2.42-.67-.69-.45-1.22-1.09-1.59-1.92-.37-.83-.56-1.79-.56-2.9,0-1.66,.41-2.99,1.24-3.99,.83-.99,1.94-1.49,3.33-1.49s2.5,.5,3.33,1.49c.83,1,1.24,2.32,1.24,3.99s-.42,3.01-1.25,4-1.94,1.49-3.32,1.49Zm-1.27-3.27c.29,.52,.71,.78,1.26,.78s.97-.26,1.27-.77c.3-.51,.45-1.25,.45-2.21s-.15-1.71-.45-2.23c-.3-.52-.72-.79-1.26-.79s-.98,.26-1.27,.78c-.29,.52-.44,1.26-.44,2.22s.15,1.7,.44,2.22Z"/>
    <path class="cls-4" d="M318.48,123.67h2.9v2.48h-7.77v-.63c1.48-1.75,2.52-3.01,3.15-3.79,.62-.78,1.05-1.37,1.28-1.78s.35-.77,.35-1.08c0-.28-.08-.51-.25-.68-.17-.17-.38-.26-.64-.26-.12,0-.24,.01-.34,.04-.1,.03-.19,.07-.26,.13-.07,.06-.14,.13-.19,.21-.05,.08-.09,.17-.13,.28-.03,.11-.05,.23-.05,.35v.2h-2.75v-.2c0-1.06,.33-1.9,.98-2.54,.65-.64,1.55-.96,2.68-.96s2.01,.31,2.71,.93c.7,.62,1.04,1.42,1.04,2.4,0,.67-.18,1.34-.54,2.01-.36,.67-1.08,1.63-2.17,2.89Z"/>
    <path class="cls-4" d="M327.36,119.11c.68,0,1.29,.14,1.83,.43,.54,.29,.96,.69,1.26,1.22,.3,.52,.45,1.12,.45,1.77,0,.75-.17,1.42-.52,2.01-.34,.59-.83,1.04-1.46,1.37s-1.35,.49-2.15,.49c-1.23,0-2.24-.36-3.01-1.07s-1.15-1.64-1.15-2.78c0-1.07,.4-2.27,1.19-3.59l1.92-3.23h3.01c-.24,.42-.59,1.02-1.06,1.79-.47,.77-.8,1.33-1,1.66,.22-.04,.45-.06,.69-.06Zm-.61,4.9c.43,0,.78-.14,1.05-.41s.41-.63,.41-1.07-.14-.79-.41-1.07-.62-.41-1.05-.41-.77,.14-1.04,.41-.42,.63-.42,1.07c0,.29,.06,.55,.19,.77,.13,.22,.3,.39,.53,.52,.22,.12,.47,.19,.75,.19Z"/>
    <path class="cls-4" d="M220.87,139.23h4.14v2.62h-7.16v-10.99h7.03v2.62h-4.02v1.62h3.61v2.48h-3.61v1.65Z"/>
    <path class="cls-4" d="M235.22,141.85h-3.44l-2.12-3.58v3.58h-2.92v-11.54h2.92v6.39l2.01-3.33h3.28l-2.64,4.03,2.9,4.44Z"/>
    <path class="cls-4" d="M242.44,133.36h2.17v8.48h-2.25l-.25-.6c-.73,.6-1.58,.89-2.56,.89-.86,0-1.62-.19-2.3-.58-.67-.39-1.2-.93-1.58-1.62-.38-.69-.57-1.47-.57-2.34,0-1.31,.42-2.38,1.26-3.23,.84-.84,1.9-1.26,3.2-1.26,.98,0,1.85,.3,2.59,.91l.3-.66Zm-3.86,5.63c.36,.37,.81,.55,1.36,.55s1-.18,1.36-.55c.36-.37,.53-.83,.53-1.38s-.18-1.01-.53-1.38c-.36-.37-.81-.55-1.35-.55s-1.01,.18-1.37,.55c-.36,.37-.53,.83-.53,1.38s.18,1.01,.53,1.38Z"/>
    <path class="cls-4" d="M251.04,139.29h1.13v2.56h-2.01c-.94,0-1.68-.27-2.21-.81-.53-.54-.8-1.28-.8-2.22v-3.2h-1.55v-.67l3.8-4.05h.6v2.48h2.13v2.24h-2.06v2.7c0,.3,.09,.54,.26,.71,.17,.17,.41,.26,.71,.26Z"/>
    <path class="cls-4" d="M262.19,137.53c0,.24-.02,.5-.06,.77h-6.29c.09,.48,.29,.85,.59,1.1,.3,.25,.68,.38,1.14,.38,.23,0,.44-.03,.64-.09,.2-.06,.37-.15,.53-.28,.15-.12,.28-.26,.37-.43h2.9c-.29,.97-.84,1.74-1.64,2.31-.8,.57-1.73,.85-2.8,.85-1.32,0-2.42-.43-3.29-1.29s-1.31-1.94-1.31-3.23c0-.86,.2-1.63,.6-2.32,.4-.69,.95-1.23,1.65-1.62,.7-.39,1.49-.58,2.35-.58s1.7,.2,2.41,.59c.71,.39,1.25,.93,1.64,1.6,.39,.67,.58,1.43,.58,2.25Zm-4.63-2.15c-.42,0-.77,.11-1.06,.34-.29,.22-.5,.55-.62,.96h3.44c-.26-.87-.85-1.3-1.76-1.3Z"/>
    <path class="cls-4" d="M268.26,133.33h.77v2.68h-1.13c-.51,0-.88,.12-1.11,.36-.23,.24-.35,.63-.35,1.16v4.32h-2.92v-8.48h1.95l.46,.94c.56-.66,1.34-.99,2.34-.99Z"/>
    <path class="cls-4" d="M270.14,141.85v-8.48h2.92v8.48h-2.92Zm.02-9.54v-2.46h2.87v2.46h-2.87Z"/>
    <path class="cls-4" d="M280.02,133.12c.98,0,1.77,.32,2.36,.97,.59,.65,.89,1.51,.89,2.59v5.17h-2.92v-4.77c0-.98-.37-1.48-1.1-1.48-.3,0-.56,.07-.78,.2-.21,.14-.38,.33-.49,.59-.11,.26-.17,.57-.17,.93v4.52h-2.92v-8.48h2.04l.41,.88c.67-.75,1.56-1.13,2.67-1.13Z"/>
    <path class="cls-4" d="M290.02,133.11c1.3,0,2.36,.42,3.19,1.26,.83,.84,1.25,1.92,1.25,3.24s-.42,2.4-1.25,3.25-1.9,1.27-3.19,1.27c-.98,0-1.84-.3-2.56-.91l-.28,.63h-2.15v-11.54h2.87v3.38c.64-.39,1.34-.58,2.12-.58Zm-.39,6.44c.54,0,1-.18,1.36-.55,.36-.37,.54-.83,.54-1.38s-.18-1.01-.54-1.38c-.36-.37-.81-.55-1.36-.55s-1,.18-1.36,.55c-.36,.37-.54,.83-.54,1.38,0,.37,.08,.7,.24,.99s.39,.52,.68,.69c.29,.17,.61,.25,.98,.25Z"/>
    <path class="cls-4" d="M299.88,142.13c-1.26,0-2.27-.36-3.03-1.08s-1.15-1.67-1.15-2.85v-4.83h2.92v4.71c0,.45,.11,.8,.33,1.05s.53,.38,.92,.38,.7-.13,.93-.38c.22-.26,.34-.6,.34-1.04v-4.71h2.92v4.83c0,.78-.17,1.47-.52,2.06-.35,.59-.83,1.05-1.47,1.37s-1.36,.49-2.19,.49Z"/>
    <path class="cls-4" d="M310.52,133.33h.77v2.68h-1.13c-.51,0-.88,.12-1.11,.36-.23,.24-.35,.63-.35,1.16v4.32h-2.92v-8.48h1.95l.46,.94c.56-.66,1.34-.99,2.34-.99Z"/>
    <path class="cls-4" d="M319.07,133.37h1.98v7.54c0,1.33-.41,2.38-1.22,3.16-.82,.77-1.92,1.16-3.31,1.16-.81,0-1.52-.13-2.15-.38s-1.14-.63-1.54-1.11-.67-1.06-.8-1.72h2.83c.09,.27,.29,.48,.6,.64,.31,.15,.65,.23,1.03,.23,.5,0,.92-.15,1.26-.45,.33-.3,.5-.69,.5-1.19v-.25c-.67,.43-1.41,.64-2.21,.64-1.21,0-2.22-.41-3.03-1.22-.81-.81-1.21-1.83-1.21-3.05s.41-2.21,1.22-3.03c.81-.82,1.82-1.22,3.02-1.22,1.01,0,1.91,.32,2.68,.97l.36-.71Zm-2.56,5.86c.52,0,.96-.18,1.3-.53,.34-.35,.51-.8,.51-1.34s-.17-.97-.51-1.32c-.34-.34-.77-.52-1.3-.52s-.96,.17-1.29,.52c-.34,.35-.51,.79-.51,1.32s.17,.99,.51,1.34,.77,.53,1.29,.53Z"/>
    <path class="cls-4" d="M322.9,144.6v-1.44c.41-.04,.72-.18,.93-.42,.21-.24,.32-.53,.32-.89h-1.37v-2.72h2.84v2.48c0,.85-.25,1.54-.75,2.07-.5,.53-1.16,.84-1.99,.91Z"/>
    <path class="cls-4" d="M336.83,141.85l-1.79-3.36h-1.08v3.36h-3.03v-10.99h4.76c.78,0,1.49,.16,2.1,.49,.62,.32,1.1,.79,1.45,1.38s.53,1.27,.53,2.02c0,.44-.07,.86-.2,1.25s-.33,.75-.6,1.06c-.26,.31-.58,.58-.94,.79l2.18,4h-3.38Zm-2.87-8.3v2.39h1.38c.41,0,.73-.11,.97-.33,.24-.22,.36-.51,.36-.86,0-.23-.05-.43-.16-.61-.11-.18-.26-.32-.46-.42-.2-.1-.44-.16-.71-.16h-1.38Z"/>
    <path class="cls-4" d="M345.37,142.13c-1.26,0-2.27-.36-3.03-1.08s-1.15-1.67-1.15-2.85v-4.83h2.92v4.71c0,.45,.11,.8,.33,1.05s.53,.38,.92,.38,.7-.13,.93-.38c.22-.26,.34-.6,.34-1.04v-4.71h2.92v4.83c0,.78-.17,1.47-.52,2.06-.35,.59-.83,1.05-1.47,1.37s-1.36,.49-2.19,.49Z"/>
    <path class="cls-4" d="M354.53,142.13c-1.15,0-2.06-.28-2.72-.83-.67-.55-1-1.3-1.01-2.23h2.81c0,.29,.09,.52,.27,.67,.18,.16,.41,.24,.71,.24,.15,0,.28-.02,.41-.07s.23-.12,.31-.23c.08-.1,.12-.23,.12-.36,0-.16-.07-.29-.21-.39s-.3-.18-.48-.23c-.18-.05-.43-.1-.76-.15-.33-.05-.61-.1-.83-.16-.22-.05-.49-.14-.79-.28-.3-.13-.55-.29-.74-.46s-.35-.42-.49-.72c-.14-.3-.2-.65-.2-1.05,0-.85,.33-1.53,.99-2.03,.66-.51,1.53-.76,2.62-.76s1.94,.26,2.6,.79,.99,1.22,1,2.09h-2.73c0-.18-.04-.33-.12-.45-.08-.12-.18-.21-.31-.27s-.29-.09-.46-.09c-.24,0-.43,.06-.57,.17s-.21,.27-.21,.46c0,.08,.02,.16,.05,.22,.03,.06,.09,.12,.17,.17s.15,.09,.21,.12c.06,.03,.17,.06,.31,.09,.14,.03,.25,.05,.34,.07s.21,.04,.39,.07c.22,.04,.37,.07,.46,.09s.24,.05,.46,.1c.22,.05,.38,.1,.49,.13,.1,.04,.25,.1,.43,.18,.18,.08,.32,.17,.42,.25,.09,.08,.21,.19,.34,.32s.23,.27,.29,.42c.06,.15,.12,.32,.16,.53,.05,.2,.07,.42,.07,.65,0,.89-.34,1.6-1.03,2.14-.69,.53-1.59,.8-2.72,.8Z"/>
    <path class="cls-4" d="M362.92,142.13c-1.15,0-2.06-.28-2.72-.83-.67-.55-1-1.3-1.01-2.23h2.81c0,.29,.09,.52,.27,.67,.18,.16,.41,.24,.71,.24,.15,0,.28-.02,.41-.07s.23-.12,.31-.23c.08-.1,.12-.23,.12-.36,0-.16-.07-.29-.21-.39s-.3-.18-.48-.23c-.18-.05-.43-.1-.76-.15-.33-.05-.61-.1-.83-.16-.22-.05-.49-.14-.79-.28-.3-.13-.55-.29-.74-.46s-.35-.42-.49-.72c-.14-.3-.2-.65-.2-1.05,0-.85,.33-1.53,.99-2.03,.66-.51,1.53-.76,2.62-.76s1.94,.26,2.6,.79,.99,1.22,1,2.09h-2.73c0-.18-.04-.33-.12-.45-.08-.12-.18-.21-.31-.27s-.29-.09-.46-.09c-.24,0-.43,.06-.57,.17s-.21,.27-.21,.46c0,.08,.02,.16,.05,.22,.03,.06,.09,.12,.17,.17s.15,.09,.21,.12c.06,.03,.17,.06,.31,.09,.14,.03,.25,.05,.34,.07s.21,.04,.39,.07c.22,.04,.37,.07,.46,.09s.24,.05,.46,.1c.22,.05,.38,.1,.49,.13,.1,.04,.25,.1,.43,.18,.18,.08,.32,.17,.42,.25,.09,.08,.21,.19,.34,.32s.23,.27,.29,.42c.06,.15,.12,.32,.16,.53,.05,.2,.07,.42,.07,.65,0,.89-.34,1.6-1.03,2.14-.69,.53-1.59,.8-2.72,.8Z"/>
    <path class="cls-4" d="M368.03,141.85v-8.48h2.92v8.48h-2.92Zm.02-9.54v-2.46h2.87v2.46h-2.87Z"/>
    <path class="cls-4" d="M379.63,133.36h2.17v8.48h-2.25l-.25-.6c-.73,.6-1.58,.89-2.56,.89-.86,0-1.62-.19-2.3-.58-.67-.39-1.2-.93-1.58-1.62-.38-.69-.57-1.47-.57-2.34,0-1.31,.42-2.38,1.26-3.23,.84-.84,1.9-1.26,3.2-1.26,.98,0,1.85,.3,2.59,.91l.3-.66Zm-3.86,5.63c.36,.37,.81,.55,1.36,.55s1-.18,1.36-.55c.36-.37,.53-.83,.53-1.38s-.18-1.01-.53-1.38c-.36-.37-.81-.55-1.35-.55s-1.01,.18-1.37,.55c-.36,.37-.53,.83-.53,1.38s.18,1.01,.53,1.38Z"/>
  </g>
</svg>