<?xml version="1.0" encoding="UTF-8"?>
<svg id="_Слой_4" data-name="Слой 4" xmlns="http://www.w3.org/2000/svg" xmlns:xlink="http://www.w3.org/1999/xlink" viewBox="0 0 198.43 198.43">
  <defs>
    <style>
      .cls-1 {
        fill: #fff;
      }

      .cls-2 {
        fill: url(#_Безымянный_градиент_10-2);
      }

      .cls-3 {
        fill: #273575;
      }

      .cls-4 {
        fill: url(#_Безымянный_градиент_12-2);
      }

      .cls-5 {
        fill: url(#_Безымянный_градиент_12-3);
      }

      .cls-6 {
        fill: url(#_Безымянный_градиент_10);
      }

      .cls-7 {
        fill: url(#_Безымянный_градиент_10-3);
      }

      .cls-8 {
        fill: none;
        stroke: #6b6b6a;
        stroke-linecap: round;
        stroke-linejoin: round;
        stroke-width: 2px;
      }

      .cls-9 {
        fill: url(#_Безымянный_градиент_12);
      }

      .cls-10 {
        fill: #ae1917;
      }

      .cls-11 {
        fill: #f3e84c;
      }

      .cls-12 {
        fill: #e73232;
      }
    </style>
    <linearGradient id="_Безымянный_градиент_12" data-name="Безымянный градиент 12" x1="-981.18" y1="44.81" x2="-981.18" y2="128.67" gradientTransform="translate(-903.16) rotate(-180) scale(1 -1)" gradientUnits="userSpaceOnUse">
      <stop offset="0" stop-color="#cb2327"/>
      <stop offset="1" stop-color="#312783"/>
    </linearGradient>
    <linearGradient id="_Безымянный_градиент_12-2" data-name="Безымянный градиент 12" x1="-1063.2" y1="50.77" x2="-1063.2" y2="114.09" xlink:href="#_Безымянный_градиент_12"/>
    <linearGradient id="_Безымянный_градиент_12-3" data-name="Безымянный градиент 12" x1="-1041.15" y1="44.81" x2="-1041.15" y2="128.67" xlink:href="#_Безымянный_градиент_12"/>
    <linearGradient id="_Безымянный_градиент_10" data-name="Безымянный градиент 10" x1="124.88" y1="93.43" x2="114.8" y2="39.82" gradientUnits="userSpaceOnUse">
      <stop offset="0" stop-color="#cb2327"/>
      <stop offset=".53" stop-color="#fcea10"/>
      <stop offset="1" stop-color="#57b148"/>
    </linearGradient>
    <linearGradient id="_Безымянный_градиент_10-2" data-name="Безымянный градиент 10" x1="129.49" y1="132.79" x2="109.34" y2="67.32" xlink:href="#_Безымянный_градиент_10"/>
    <linearGradient id="_Безымянный_градиент_10-3" data-name="Безымянный градиент 10" x1="104.65" y1="105.76" x2="96.58" y2="65.8" xlink:href="#_Безымянный_градиент_10"/>
  </defs>
  <g id="_Цвет" data-name="Цвет">
    <path class="cls-12" d="M66.96,36s.03,0,.07,0c.03,0,.08,0,.13,0,.02,0,.04,0,.06,0,.03,0,.06,0,.09,0,.11,0,.24,.02,.39,.03,.07,0,.13,0,.2,.02,.08,0,.16,.01,.25,.02,.06,0,.13,0,.19,.01,.02,0,.04,0,.06,0,.05,0,.09,0,.14,.01,.07,0,.15,0,.22,.02,.07,0,.14,0,.22,.02,.1,0,.21,.02,.32,.02,.22,.02,.45,.03,.69,.05,.24,.02,.49,.04,.76,.06,.13,0,.26,.02,.4,.03,.55,.04,1.13,.08,1.74,.12,0,0,0,0,.02,0,.15,.01,.3,.02,.44,.03,.16,.01,.31,.02,.47,.03,.16,.01,.32,.02,.48,.03,.36,.02,.73,.05,1.11,.08,.12,0,.25,.02,.37,.02,.35,.02,.71,.05,1.07,.08,.15,0,.3,.02,.45,.03,.51,.04,1.02,.07,1.53,.11,.09,0,.19,.01,.28,.02,.33,.02,.66,.05,.99,.07,.25,.02,.5,.04,.74,.05,1,.07,1.96,.14,2.86,.21,.12,0,.23,.02,.35,.02,.03,0,.06,0,.09,0,.22,.02,.44,.03,.64,.04,.14,.01,.28,.02,.41,.03,.14,0,.27,.02,.4,.03,.13,0,.26,.02,.38,.03,.15,0,.3,.02,.44,.03,.13,0,.26,.02,.39,.03,.37,.03,.71,.05,1,.07,.05,0,.11,0,.16,0,.74,.05,1.2,.09,1.28,.09,.88,.06,1.75,.12,2.62,.19,.89,.06,1.78,.13,2.65,.19,.58,.04,1.15,.08,1.73,.12,.51,.04,1.02,.07,1.52,.11,.28,.02,.55,.04,.82,.06,.24,.02,.49,.03,.73,.05,.48,.03,.96,.07,1.43,.1,.24,.02,.47,.03,.7,.05,.48,.03,.95,.07,1.42,.1s.93,.07,1.38,.1c.45,.03,.9,.07,1.34,.1,.69,.05,1.37,.1,2.02,.14,.3,.02,.61,.05,.9,.07,.4,.03,.8,.06,1.18,.09,.25,.02,.51,.03,.76,.05,.37,.03,.73,.05,1.08,.08,.01,0,.03-.01,.06-.03,0,0,0,0,0,0,.01,0,.03-.01,.04-.02,0,0,.02,0,.03-.01,0,0,0,0,0,0l8.57-3.99-.87,.43,12.09,6.32,12.82,6,12.52,5.86,6.44-2.99-12.57-5.84-12.87-5.98h0l-12.86-5.98-12.87-5.98-12.87-5.98-32.26,14.99Z"/>
    <g>
      <line class="cls-8" x1="73.59" y1="128.16" x2="73.59" y2="128.17"/>
      <path class="cls-12" d="M35.17,50.77v40.82s.05-.04,.07-.06c.02-.02,.04-.03,.06-.05,.98-.81,16.8-14.39,20.68-20.53,8.27-13.12,10.95-34.86,10.96-34.89,0,0,0-.02,0-.03,0-.02,0-.02,0-.03l-31.78,14.77Z"/>
    </g>
    <path class="cls-9" d="M35.17,91.59l25.62,19.39,12.81,9.69,.36,.27,12.45,9.43,12.81,9.7c-.33-.66-.65-1.32-.96-1.99-.1-.21-.19-.42-.28-.63-2.62-5.93-4.16-12.36-4.16-18.87,0-6.14,1.47-7.39,2.57-10.68h0c-.06-.11-.11-.22-.17-.33-.06-.12-1.03-2.15-1.09-2.28-.06-.12-.13-.25-.19-.37-.06-.12-.13-.25-.19-.37-2.48-4.78-4.82-9.82-6.54-15.02-.07-.22-.15-.44-.22-.66-.2-.6-.39-1.21-.58-1.82,0,0,0-.02,0-.02-1.31-4.35-2.13-8.76-1.93-12.68,0,0,0-.01,0-.02,.15-5.03,2.57-10.21,7.66-11.8,6.61-2.39,13.72,4.81,19.02,12.84,.03,.04,.05,.08,.08,.12,3.48,5.31,7.38,14.9,8.65,18.51-2.62-7.63-5.63-20.2-6.97-27.43-.8-4.33-1.34-8.36-1.7-11.9-.02-.19-.04-.37-.06-.56-.03-.35-.07-.7-.1-1.04-.03-.33-.06-.66-.09-.98-.04-.52-.08-1.03-.12-1.53-.02-.32-.04-.64-.07-.95,0-.11-.02-.22-.02-.33-.02-.3-.04-.59-.05-.87h0c0-.15-.02-.29-.02-.42-.02-.42-.04-.83-.06-1.22,0-.2-.02-.39-.02-.58,0-.06,0-.12,0-.18-.02-.37-.03-.74-.04-1.08,0-.11,0-.22,0-.32,0-.21-.01-.42-.02-.62,0-.1,0-.2,0-.3,0-.13,0-.26,0-.38-.02-1.48-.01-2.59,0-3.28,0-.06,0-.12,0-.17,0-.11,0-.2,0-.28,0-.24,.01-.36,.01-.36-.35-.02-.71-.05-1.08-.08-.25-.02-.5-.03-.76-.05-.39-.03-.78-.06-1.18-.09-.29-.02-.59-.04-.9-.07-.65-.05-1.33-.09-2.02-.14-.44-.03-.89-.07-1.34-.1-.46-.03-.92-.07-1.38-.1s-.94-.07-1.42-.1c-.23-.02-.47-.03-.7-.05-.47-.03-.95-.07-1.43-.1-.24-.02-.49-.03-.73-.05-.27-.02-.55-.04-.82-.06-.5-.04-1.01-.07-1.52-.11-.57-.04-1.15-.08-1.73-.12-.88-.06-1.76-.13-2.65-.19-.87-.07-1.74-.13-2.62-.19-.08,0-.54-.04-1.28-.09-.05,0-.1,0-.16,0-.3-.02-.63-.05-1-.07-.13,0-.26-.02-.39-.03-.14,0-.29-.02-.44-.03-.12,0-.25-.02-.38-.03-.13,0-.26-.02-.4-.03-.13,0-.27-.02-.41-.03-.21-.01-.42-.03-.64-.04-.03,0-.06,0-.09,0-.12,0-.23-.02-.35-.02-.9-.07-1.86-.13-2.86-.21-.25-.02-.49-.03-.74-.05-.33-.02-.66-.05-.99-.07-.09,0-.19-.01-.28-.02-.51-.04-1.02-.07-1.53-.11-.15,0-.3-.02-.45-.03-.36-.02-.72-.05-1.07-.08-.12,0-.25-.02-.37-.02-.38-.03-.75-.06-1.11-.08-.16-.01-.32-.02-.48-.03-.16-.01-.32-.02-.47-.03-.15,0-.3-.02-.44-.03,0,0-.01,0-.02,0-.61-.04-1.19-.08-1.74-.12-.14,0-.27-.02-.4-.03-.26-.02-.52-.04-.76-.06-.24-.02-.47-.03-.69-.05-.11,0-.21-.02-.32-.02-.07,0-.15,0-.22-.02-.08,0-.15-.01-.22-.02-.07,0-.14,0-.2-.02-.07,0-.13,0-.19-.01-.08,0-.17-.01-.25-.02-.07,0-.14,0-.2-.02-.15,0-.29-.02-.39-.03-.03,0-.07,0-.09,0-.02,0-.04,0-.06,0-.05,0-.1,0-.13,0-.03,0-.06,0-.07,0,0,.01,0,.02,0,.03,0,0,0,.02,0,.03,0,.03-2.69,21.77-10.96,34.89-3.87,6.15-19.7,19.72-20.68,20.53-.02,.01-.04,.03-.06,.05-.02,.02-.05,.04-.07,.06Z"/>
    <polygon class="cls-4" points="156.82 53.76 156.82 113.29 163.26 110.3 163.26 50.77 156.82 53.76"/>
    <path class="cls-5" d="M120.09,50.99c1.48,11.22,5.7,28.12,11.39,40.59,5.95,13.04,12.82,16.32,25.33,21.72h0V53.76s-12.52-5.86-12.52-5.86l-12.82-6-12.09-6.32c-.45,2.35-.27,8.08,.7,15.41Z"/>
    <g>
      <path class="cls-6" d="M111.51,43.29c0,.12,0,.25,0,.38,0,.1,0,.2,0,.3,0,.2,0,.4,.02,.62,0,.11,0,.21,0,.32,0,.35,.02,.71,.04,1.08,0,.06,0,.12,0,.18,0,.19,.02,.39,.02,.58,.02,.39,.04,.8,.06,1.22,0,.13,.02,.27,.02,.41h0c.02,.3,.03,.59,.05,.88,0,.11,.02,.22,.02,.33,.02,.31,.04,.63,.07,.95,.04,.49,.08,1,.12,1.53,.03,.32,.06,.65,.09,.98,.03,.34,.06,.69,.1,1.04,.02,.19,.04,.37,.06,.56l7.89-3.67c-.97-7.33-1.15-13.05-.7-15.41l-7.7,3.56s0,0,0,0c0,0-.02,0-.03,.01-.02,0-.03,.01-.04,.02,0,0,0,0,0,0-.03,.02-.05,.02-.06,.03,0,0,0,.12-.01,.36,0,.08,0,.17,0,.28,0,.05,0,.11,0,.17-.02,.69-.03,1.8,0,3.28Z"/>
      <path class="cls-2" d="M93.81,118.58c0,6.51,1.54,12.94,4.16,18.87,.09,.21,.19,.42,.28,.63,.3,.67,.63,1.33,.96,1.99,5.28-2.46,53.9-25.05,57.6-26.77-12.51-5.4-19.39-8.68-25.33-21.72l-35.1,16.32h0c-1.1,3.28-2.57,4.54-2.57,10.68Z"/>
      <path class="cls-11" d="M87.42,87.01c.18,.62,.36,1.24,.56,1.86,.07,.22,.14,.44,.22,.66,.12,.37,.25,.73,.38,1.1,.03,.08,.06,.16,.09,.24,.1,.27,.2,.54,.3,.81,.39,1.05,.8,2.08,1.22,3.09,.14,.34,.28,.67,.42,1,.21,.51,.43,1,.65,1.5,.33,.74,.65,1.46,.98,2.16,.15,.31,.3,.63,.44,.93,.15,.31,.29,.61,.44,.9,.03,.06,.06,.12,.09,.19,.06,.12,.11,.24,.17,.35,.05,.11,.11,.22,.16,.34,.07,.14,.14,.28,.21,.42,.08,.16,.16,.32,.23,.47,.13,.25,.25,.51,.38,.75,.13,.26,.26,.52,.39,.77,.06,.12,.13,.25,.19,.37,.07,.13,.13,.25,.19,.37,.07,.13,1.03,2.16,1.09,2.28,.06,.11,.11,.22,.17,.32l35.1-16.32c-5.69-12.47-9.91-29.37-11.39-40.59l-7.89,3.67c.36,3.55,.9,7.57,1.7,11.9,1.34,7.24,4.35,19.81,6.97,27.43-1.27-3.6-5.17-13.2-8.65-18.51l-.08,.04-24.72,11.49Z"/>
      <path class="cls-7" d="M85.49,75.8c.18,3.79,.88,7.54,1.93,11.21l24.72-11.49v-.16c-5.3-8.04-12.41-15.23-19.02-12.84-5.1,1.6-7.51,6.77-7.66,11.8,0,0,0,.01,0,.02-.01,.49,0,.98,.02,1.46Z"/>
    </g>
    <path class="cls-3" d="M35.17,91.59v18.71s12.81,5.95,12.81,5.95h0s25.62,11.91,25.62,11.91l12.81,5.96,12.81,5.95-12.81-9.7-12.45-9.43c-.12-.09-.24-.18-.36-.27h0s-12.81-9.7-12.81-9.7l-25.62-19.39Z"/>
    <g>
      <path class="cls-1" d="M57.49,80.46l-4.16-7.8h-2.52v7.8h-7.03v-25.52h11.04c1.82,0,3.45,.38,4.88,1.13,1.43,.75,2.56,1.82,3.37,3.21,.81,1.39,1.22,2.95,1.22,4.7,0,1.02-.16,1.99-.47,2.9s-.78,1.73-1.38,2.46c-.61,.73-1.34,1.34-2.19,1.82l5.07,9.29h-7.84Zm-6.67-19.28v5.54h3.21c.95,0,1.7-.26,2.26-.77,.56-.51,.84-1.18,.84-2,0-.53-.12-1.01-.36-1.42s-.6-.74-1.07-.98c-.47-.24-1.03-.36-1.66-.36h-3.21Z"/>
      <path class="cls-1" d="M80.42,81.11c-3.86,0-7.09-1.28-9.68-3.83-2.59-2.55-3.88-5.73-3.88-9.55s1.29-7.04,3.88-9.6,5.81-3.85,9.68-3.85c3.35,0,6.21,1.01,8.58,3.03,2.37,2.02,3.81,4.64,4.32,7.87h-7.11c-.29-.88-.72-1.63-1.28-2.28-.56-.64-1.23-1.15-2.01-1.51-.78-.36-1.6-.55-2.48-.55-1.82,0-3.32,.65-4.5,1.95-1.18,1.3-1.77,2.95-1.77,4.94,0,1.29,.27,2.45,.8,3.48,.53,1.03,1.28,1.84,2.24,2.42,.96,.58,2.04,.88,3.23,.88,.92,0,1.78-.19,2.57-.58,.79-.39,1.46-.94,2.01-1.64,.55-.7,.94-1.52,1.18-2.44h7.18c-.49,3.35-1.92,6.07-4.3,8.15-2.38,2.08-5.27,3.12-8.68,3.12Z"/>
      <path class="cls-1" d="M57.8,110.45c-3.86,0-7.09-1.28-9.68-3.83-2.59-2.55-3.88-5.73-3.88-9.55s1.29-7.04,3.88-9.6c2.59-2.56,5.81-3.85,9.68-3.85,3.35,0,6.21,1.01,8.58,3.03,2.37,2.02,3.81,4.64,4.32,7.87h-7.11c-.29-.88-.72-1.63-1.28-2.28-.56-.64-1.23-1.15-2.01-1.51-.78-.36-1.6-.55-2.48-.55-1.82,0-3.32,.65-4.5,1.95-1.18,1.3-1.77,2.95-1.77,4.94,0,1.29,.27,2.45,.8,3.48,.53,1.03,1.28,1.84,2.24,2.42,.96,.58,2.04,.88,3.23,.88,.92,0,1.78-.19,2.57-.58,.79-.39,1.46-.94,2.01-1.64,.55-.7,.94-1.52,1.18-2.44h7.18c-.49,3.35-1.92,6.07-4.3,8.15-2.38,2.08-5.27,3.12-8.68,3.12Z"/>
      <path class="cls-1" d="M92.83,84.28v6.34h-6.96v19.17h-7.03v-19.17h-6.93v-6.34h20.92Z"/>
    </g>
  </g>
  <g>
    <path class="cls-10" d="M42.96,152.64h2.96v1.87h-5.1v-7.84h5.02v1.87h-2.87v1.15h2.58v1.77h-2.58v1.18Z"/>
    <path class="cls-10" d="M53.19,154.51h-2.45l-1.51-2.55v2.55h-2.08v-8.23h2.08v4.56l1.43-2.37h2.34l-1.88,2.88,2.07,3.17Z"/>
    <path class="cls-10" d="M58.34,148.46h1.54v6.04h-1.6l-.18-.43c-.52,.43-1.13,.64-1.82,.64-.61,0-1.16-.14-1.64-.41-.48-.28-.86-.66-1.13-1.15-.27-.49-.41-1.05-.41-1.67,0-.93,.3-1.7,.9-2.3,.6-.6,1.36-.9,2.28-.9,.7,0,1.32,.22,1.85,.65l.21-.47Zm-2.75,4.02c.25,.26,.58,.39,.97,.39s.71-.13,.97-.39c.25-.26,.38-.59,.38-.99s-.13-.72-.38-.99c-.25-.26-.57-.39-.96-.39s-.72,.13-.97,.39c-.25,.26-.38,.59-.38,.99s.13,.72,.38,.99Z"/>
    <path class="cls-10" d="M64.47,152.69h.81v1.82h-1.43c-.67,0-1.2-.19-1.58-.58-.38-.38-.57-.91-.57-1.58v-2.28h-1.11v-.48l2.71-2.89h.42v1.77h1.52v1.6h-1.47v1.93c0,.22,.06,.39,.18,.51,.12,.12,.29,.19,.51,.19Z"/>
    <path class="cls-10" d="M72.42,151.43c0,.17-.02,.35-.04,.55h-4.49c.07,.34,.21,.6,.42,.78,.21,.18,.48,.27,.81,.27,.16,0,.32-.02,.46-.07s.27-.11,.38-.2c.11-.09,.2-.19,.26-.31h2.07c-.21,.69-.6,1.24-1.17,1.65-.57,.4-1.24,.6-2,.6-.94,0-1.72-.31-2.34-.92-.62-.62-.94-1.38-.94-2.3,0-.61,.14-1.16,.43-1.66,.28-.49,.68-.88,1.18-1.15s1.06-.41,1.68-.41,1.21,.14,1.72,.42c.5,.28,.89,.66,1.17,1.14,.28,.48,.42,1.02,.42,1.61Zm-3.3-1.53c-.3,0-.55,.08-.76,.24s-.35,.39-.44,.69h2.45c-.19-.62-.6-.93-1.25-.93Z"/>
    <path class="cls-10" d="M76.75,148.43h.55v1.91h-.81c-.37,0-.63,.09-.79,.26-.17,.17-.25,.45-.25,.83v3.08h-2.08v-6.04h1.39l.32,.67c.4-.47,.96-.71,1.67-.71Z"/>
    <path class="cls-10" d="M78.09,154.51v-6.04h2.08v6.04h-2.08Zm.01-6.81v-1.76h2.05v1.76h-2.05Z"/>
    <path class="cls-10" d="M85.14,148.29c.7,0,1.26,.23,1.68,.69,.42,.46,.63,1.08,.63,1.85v3.68h-2.08v-3.4c0-.7-.26-1.05-.78-1.05-.22,0-.4,.05-.55,.15s-.27,.24-.35,.42c-.08,.18-.12,.4-.12,.67v3.22h-2.08v-6.04h1.46l.29,.63c.48-.54,1.11-.81,1.9-.81Z"/>
    <path class="cls-10" d="M92.27,148.28c.93,0,1.69,.3,2.28,.9,.59,.6,.89,1.37,.89,2.31s-.3,1.71-.89,2.32c-.59,.6-1.35,.91-2.28,.91-.7,0-1.31-.22-1.82-.65l-.2,.45h-1.53v-8.23h2.05v2.41c.46-.28,.96-.41,1.51-.41Zm-.28,4.59c.39,0,.71-.13,.97-.39,.26-.26,.39-.59,.39-.99s-.13-.72-.39-.99c-.26-.26-.58-.39-.97-.39s-.71,.13-.97,.39c-.26,.26-.39,.59-.39,.99,0,.26,.06,.5,.17,.71,.12,.21,.28,.37,.48,.49,.21,.12,.44,.18,.7,.18Z"/>
    <path class="cls-10" d="M99.3,154.71c-.9,0-1.62-.25-2.16-.77-.54-.51-.82-1.19-.82-2.03v-3.45h2.08v3.36c0,.32,.08,.57,.24,.75,.16,.18,.38,.27,.65,.27s.5-.09,.66-.27c.16-.18,.24-.43,.24-.74v-3.36h2.08v3.45c0,.56-.12,1.05-.37,1.47s-.6,.75-1.05,.98-.97,.35-1.56,.35Z"/>
    <path class="cls-10" d="M106.89,148.43h.55v1.91h-.81c-.37,0-.63,.09-.79,.26-.17,.17-.25,.45-.25,.83v3.08h-2.08v-6.04h1.39l.32,.67c.4-.47,.96-.71,1.67-.71Z"/>
    <path class="cls-10" d="M112.99,148.47h1.41v5.37c0,.95-.29,1.7-.87,2.25-.58,.55-1.37,.83-2.36,.83-.58,0-1.09-.09-1.53-.27-.45-.18-.81-.45-1.1-.79-.28-.35-.47-.76-.57-1.23h2.02c.07,.19,.21,.34,.43,.45s.46,.16,.73,.16c.36,0,.66-.11,.9-.32,.24-.21,.36-.49,.36-.84v-.18c-.48,.31-1,.46-1.58,.46-.87,0-1.59-.29-2.16-.87s-.86-1.3-.86-2.18,.29-1.58,.87-2.16,1.3-.87,2.15-.87c.72,0,1.36,.23,1.92,.69l.26-.5Zm-1.82,4.18c.37,0,.68-.12,.92-.38,.24-.25,.36-.57,.36-.96s-.12-.69-.36-.94c-.24-.25-.55-.37-.92-.37s-.68,.12-.92,.37-.36,.56-.36,.94,.12,.71,.36,.96,.55,.38,.92,.38Z"/>
    <path class="cls-10" d="M115.72,156.47v-1.03c.29-.03,.51-.13,.67-.3,.15-.17,.23-.38,.23-.63h-.97v-1.94h2.03v1.77c0,.6-.18,1.1-.53,1.48s-.83,.6-1.42,.65Z"/>
    <path class="cls-10" d="M125.65,154.51l-1.28-2.4h-.77v2.4h-2.16v-7.84h3.39c.56,0,1.06,.12,1.5,.35,.44,.23,.79,.56,1.04,.99,.25,.43,.38,.91,.38,1.44,0,.31-.05,.61-.15,.89-.1,.28-.24,.53-.43,.76s-.41,.41-.67,.56l1.56,2.85h-2.41Zm-2.05-5.92v1.7h.98c.29,0,.52-.08,.69-.24,.17-.16,.26-.36,.26-.62,0-.16-.04-.31-.11-.44s-.18-.23-.33-.3-.32-.11-.51-.11h-.98Z"/>
    <path class="cls-10" d="M131.74,154.71c-.9,0-1.62-.25-2.16-.77-.54-.51-.82-1.19-.82-2.03v-3.45h2.08v3.36c0,.32,.08,.57,.24,.75,.16,.18,.38,.27,.65,.27s.5-.09,.66-.27c.16-.18,.24-.43,.24-.74v-3.36h2.08v3.45c0,.56-.12,1.05-.37,1.47s-.6,.75-1.05,.98-.97,.35-1.56,.35Z"/>
    <path class="cls-10" d="M138.27,154.71c-.82,0-1.47-.2-1.94-.59-.47-.4-.71-.93-.72-1.59h2c0,.21,.06,.37,.19,.48s.29,.17,.5,.17c.1,0,.2-.02,.29-.05,.09-.03,.16-.09,.22-.16,.06-.07,.08-.16,.08-.26,0-.11-.05-.21-.15-.28s-.21-.13-.34-.16c-.13-.03-.31-.07-.54-.11s-.43-.07-.59-.11c-.16-.04-.35-.1-.57-.2-.22-.09-.39-.2-.53-.33-.13-.13-.25-.3-.35-.51-.1-.22-.15-.47-.15-.75,0-.6,.23-1.09,.71-1.45,.47-.36,1.09-.54,1.87-.54s1.39,.19,1.85,.56,.7,.87,.71,1.49h-1.95c0-.13-.03-.23-.08-.32-.06-.09-.13-.15-.22-.19-.09-.04-.2-.06-.33-.06-.17,0-.31,.04-.41,.12s-.15,.19-.15,.32c0,.06,.01,.11,.03,.16s.06,.08,.12,.12c.06,.03,.11,.06,.15,.08,.04,.02,.12,.04,.22,.07s.18,.04,.24,.05c.06,.01,.15,.03,.28,.05,.16,.03,.27,.05,.33,.06,.06,.01,.17,.04,.33,.07,.16,.04,.27,.07,.35,.09,.07,.03,.18,.07,.31,.13s.23,.12,.3,.18c.07,.06,.15,.14,.24,.23,.09,.09,.16,.19,.21,.3s.08,.23,.12,.38c.03,.15,.05,.3,.05,.46,0,.63-.24,1.14-.73,1.52-.49,.38-1.14,.57-1.94,.57Z"/>
    <path class="cls-10" d="M144.25,154.71c-.82,0-1.47-.2-1.94-.59-.47-.4-.71-.93-.72-1.59h2c0,.21,.06,.37,.19,.48s.29,.17,.5,.17c.1,0,.2-.02,.29-.05,.09-.03,.16-.09,.22-.16,.06-.07,.08-.16,.08-.26,0-.11-.05-.21-.15-.28s-.21-.13-.34-.16c-.13-.03-.31-.07-.54-.11s-.43-.07-.59-.11c-.16-.04-.35-.1-.57-.2-.22-.09-.39-.2-.53-.33-.13-.13-.25-.3-.35-.51-.1-.22-.15-.47-.15-.75,0-.6,.23-1.09,.71-1.45,.47-.36,1.09-.54,1.87-.54s1.39,.19,1.85,.56,.7,.87,.71,1.49h-1.95c0-.13-.03-.23-.08-.32-.06-.09-.13-.15-.22-.19-.09-.04-.2-.06-.33-.06-.17,0-.31,.04-.41,.12s-.15,.19-.15,.32c0,.06,.01,.11,.03,.16s.06,.08,.12,.12c.06,.03,.11,.06,.15,.08,.04,.02,.12,.04,.22,.07s.18,.04,.24,.05c.06,.01,.15,.03,.28,.05,.16,.03,.27,.05,.33,.06,.06,.01,.17,.04,.33,.07,.16,.04,.27,.07,.35,.09,.07,.03,.18,.07,.31,.13s.23,.12,.3,.18c.07,.06,.15,.14,.24,.23,.09,.09,.16,.19,.21,.3s.08,.23,.12,.38c.03,.15,.05,.3,.05,.46,0,.63-.24,1.14-.73,1.52-.49,.38-1.14,.57-1.94,.57Z"/>
    <path class="cls-10" d="M147.9,154.51v-6.04h2.08v6.04h-2.08Zm.01-6.81v-1.76h2.05v1.76h-2.05Z"/>
    <path class="cls-10" d="M156.17,148.46h1.54v6.04h-1.6l-.18-.43c-.52,.43-1.13,.64-1.82,.64-.61,0-1.16-.14-1.64-.41-.48-.28-.86-.66-1.13-1.15-.27-.49-.41-1.05-.41-1.67,0-.93,.3-1.7,.9-2.3,.6-.6,1.36-.9,2.28-.9,.7,0,1.32,.22,1.85,.65l.21-.47Zm-2.75,4.02c.25,.26,.58,.39,.97,.39s.71-.13,.97-.39c.25-.26,.38-.59,.38-.99s-.13-.72-.38-.99c-.25-.26-.57-.39-.96-.39s-.72,.13-.97,.39c-.25,.26-.38,.59-.38,.99s.13,.72,.38,.99Z"/>
    <path class="cls-10" d="M72.38,165.05c-.64,0-1.17-.19-1.58-.58s-.61-.88-.61-1.49v-.22h1.55v.14c0,.21,.06,.38,.17,.51,.12,.13,.27,.19,.46,.19s.34-.06,.45-.19c.11-.13,.17-.3,.17-.51v-3.6h1.55v3.68c0,.61-.2,1.1-.6,1.49-.4,.38-.92,.58-1.58,.58Z"/>
    <path class="cls-10" d="M77.53,165.05c-.64,0-1.15-.18-1.54-.55-.39-.37-.58-.85-.58-1.45v-2.46h1.49v2.4c0,.23,.06,.41,.17,.54,.11,.13,.27,.19,.47,.19s.36-.07,.47-.2c.11-.13,.17-.31,.17-.53v-2.4h1.49v2.46c0,.4-.09,.75-.26,1.05-.18,.3-.42,.53-.75,.7-.32,.17-.69,.25-1.12,.25Z"/>
    <path class="cls-10" d="M80.53,164.91v-5.88h1.49v5.88h-1.49Z"/>
    <path class="cls-10" d="M85.86,160.59h1.6l-1.81,4.12c-.3,.67-.61,1.14-.93,1.4-.32,.26-.75,.4-1.3,.4h-.51v-1.28h.41c.28,0,.48-.05,.61-.14,.12-.09,.23-.28,.34-.55l-1.78-3.96h1.62l.91,2.37,.86-2.37Z"/>
    <path class="cls-10" d="M91.7,161.32c.35,0,.66,.07,.93,.22s.49,.35,.64,.62c.15,.27,.23,.57,.23,.9,0,.38-.09,.72-.26,1.02-.18,.3-.42,.53-.74,.7s-.68,.25-1.1,.25c-.63,0-1.14-.18-1.53-.54-.39-.36-.59-.83-.59-1.42,0-.54,.2-1.15,.61-1.83l.98-1.65h1.54c-.12,.21-.3,.52-.54,.91s-.41,.68-.51,.85c.11-.02,.23-.03,.35-.03Zm-.31,2.49c.22,0,.4-.07,.54-.21,.14-.14,.21-.32,.21-.54s-.07-.41-.21-.54-.32-.21-.54-.21-.39,.07-.53,.21c-.14,.14-.21,.32-.21,.54,0,.15,.03,.28,.1,.39,.06,.11,.15,.2,.27,.26,.12,.06,.24,.1,.38,.1Z"/>
    <path class="cls-10" d="M94.09,163.37v-1.35h2.93v1.35h-2.93Z"/>
    <path class="cls-10" d="M97.44,159.59h2.21v5.32h-1.43v-4.11h-.78v-1.21Z"/>
    <path class="cls-10" d="M102.86,165.05c-.47,0-.88-.11-1.23-.34-.35-.23-.62-.55-.81-.98-.19-.42-.28-.91-.28-1.48,0-.85,.21-1.52,.63-2.03,.42-.51,.99-.76,1.7-.76s1.27,.25,1.7,.76c.42,.51,.63,1.18,.63,2.03s-.21,1.53-.64,2.04c-.42,.51-.99,.76-1.69,.76Zm-.65-1.67c.15,.26,.36,.4,.64,.4s.5-.13,.65-.39c.15-.26,.23-.64,.23-1.13s-.08-.87-.23-1.14-.37-.4-.64-.4-.5,.13-.65,.4c-.15,.26-.22,.64-.22,1.13s.08,.87,.22,1.13Z"/>
    <path class="cls-10" d="M105.84,166.31v-.74c.21-.02,.37-.09,.48-.21,.11-.12,.16-.27,.16-.45h-.7v-1.38h1.45v1.26c0,.43-.13,.78-.38,1.06-.25,.27-.59,.43-1.01,.46Z"/>
    <path class="cls-10" d="M112.07,163.64h1.48v1.26h-3.96v-.32c.75-.89,1.29-1.53,1.6-1.93,.32-.4,.53-.7,.65-.91s.18-.39,.18-.55c0-.14-.04-.26-.13-.35s-.19-.13-.33-.13c-.06,0-.12,0-.17,.02-.05,.01-.09,.04-.13,.07-.04,.03-.07,.07-.1,.11s-.05,.09-.06,.14c-.02,.06-.02,.12-.02,.18v.1h-1.4v-.1c0-.54,.17-.97,.5-1.3,.33-.32,.79-.49,1.36-.49s1.02,.16,1.38,.47,.53,.72,.53,1.22c0,.34-.09,.68-.28,1.02-.18,.34-.55,.83-1.11,1.47Z"/>
    <path class="cls-10" d="M116.54,165.05c-.47,0-.88-.11-1.23-.34-.35-.23-.62-.55-.81-.98-.19-.42-.28-.91-.28-1.48,0-.85,.21-1.52,.63-2.03,.42-.51,.99-.76,1.7-.76s1.27,.25,1.7,.76c.42,.51,.63,1.18,.63,2.03s-.21,1.53-.64,2.04c-.42,.51-.99,.76-1.69,.76Zm-.65-1.67c.15,.26,.36,.4,.64,.4s.5-.13,.65-.39c.15-.26,.23-.64,.23-1.13s-.08-.87-.23-1.14-.37-.4-.64-.4-.5,.13-.65,.4c-.15,.26-.22,.64-.22,1.13s.08,.87,.22,1.13Z"/>
    <path class="cls-10" d="M121.87,163.64h1.48v1.26h-3.96v-.32c.75-.89,1.29-1.53,1.6-1.93,.32-.4,.53-.7,.65-.91s.18-.39,.18-.55c0-.14-.04-.26-.13-.35s-.19-.13-.33-.13c-.06,0-.12,0-.17,.02-.05,.01-.09,.04-.13,.07-.04,.03-.07,.07-.1,.11s-.05,.09-.06,.14c-.02,.06-.02,.12-.02,.18v.1h-1.4v-.1c0-.54,.17-.97,.5-1.3,.33-.32,.79-.49,1.36-.49s1.02,.16,1.38,.47,.53,.72,.53,1.22c0,.34-.09,.68-.28,1.02-.18,.34-.55,.83-1.11,1.47Z"/>
    <path class="cls-10" d="M126.39,161.32c.35,0,.66,.07,.93,.22s.49,.35,.64,.62c.15,.27,.23,.57,.23,.9,0,.38-.09,.72-.26,1.02-.18,.3-.42,.53-.74,.7s-.68,.25-1.1,.25c-.63,0-1.14-.18-1.53-.54-.39-.36-.59-.83-.59-1.42,0-.54,.2-1.15,.61-1.83l.98-1.65h1.54c-.12,.21-.3,.52-.54,.91s-.41,.68-.51,.85c.11-.02,.23-.03,.35-.03Zm-.31,2.49c.22,0,.4-.07,.54-.21,.14-.14,.21-.32,.21-.54s-.07-.41-.21-.54-.32-.21-.54-.21-.39,.07-.53,.21c-.14,.14-.21,.32-.21,.54,0,.15,.03,.28,.1,.39,.06,.11,.15,.2,.27,.26,.12,.06,.24,.1,.38,.1Z"/>
  </g>
  <g>
    <path class="cls-1" d="M131.52,62.1h2.07v1.77h-5.54v-.45c1.05-1.25,1.8-2.15,2.25-2.7,.44-.56,.75-.98,.91-1.27s.25-.55,.25-.77c0-.2-.06-.36-.18-.49-.12-.12-.27-.18-.46-.18-.09,0-.17,0-.24,.03-.07,.02-.13,.05-.18,.1-.05,.04-.1,.09-.13,.15-.04,.06-.07,.12-.09,.2-.02,.08-.03,.16-.03,.25v.15h-1.96v-.15c0-.75,.23-1.36,.7-1.81,.47-.46,1.1-.68,1.91-.68s1.43,.22,1.93,.66c.5,.44,.74,1.01,.74,1.71,0,.48-.13,.96-.39,1.43-.26,.48-.77,1.16-1.55,2.06Z"/>
    <path class="cls-1" d="M137.76,64.06c-.66,0-1.23-.16-1.72-.48-.49-.32-.87-.78-1.14-1.37s-.4-1.28-.4-2.07c0-1.19,.29-2.13,.88-2.84,.59-.71,1.38-1.06,2.37-1.06s1.78,.35,2.37,1.06c.59,.71,.88,1.66,.88,2.84s-.3,2.15-.89,2.85c-.59,.71-1.38,1.06-2.37,1.06Zm-.91-2.33c.21,.37,.51,.55,.9,.55s.69-.18,.91-.55c.21-.37,.32-.89,.32-1.58s-.11-1.22-.32-1.59c-.21-.37-.51-.56-.9-.56s-.7,.18-.91,.55c-.21,.37-.31,.9-.31,1.58s.1,1.21,.31,1.58Z"/>
    <path class="cls-1" d="M145.23,62.1h2.07v1.77h-5.54v-.45c1.05-1.25,1.8-2.15,2.25-2.7,.44-.56,.75-.98,.91-1.27s.25-.55,.25-.77c0-.2-.06-.36-.18-.49-.12-.12-.27-.18-.46-.18-.09,0-.17,0-.24,.03-.07,.02-.13,.05-.18,.1-.05,.04-.1,.09-.13,.15-.04,.06-.07,.12-.09,.2-.02,.08-.03,.16-.03,.25v.15h-1.96v-.15c0-.75,.23-1.36,.7-1.81,.47-.46,1.1-.68,1.91-.68s1.43,.22,1.93,.66c.5,.44,.74,1.01,.74,1.71,0,.48-.13,.96-.39,1.43-.26,.48-.77,1.16-1.55,2.06Z"/>
    <path class="cls-1" d="M151.56,58.84c.49,0,.92,.1,1.3,.31,.38,.21,.68,.5,.9,.87s.32,.79,.32,1.26c0,.54-.12,1.01-.37,1.43s-.59,.74-1.04,.97c-.45,.23-.96,.35-1.53,.35-.88,0-1.6-.25-2.14-.76-.55-.51-.82-1.17-.82-1.98,0-.76,.28-1.62,.85-2.56l1.37-2.31h2.15c-.17,.3-.42,.72-.76,1.28-.33,.55-.57,.95-.71,1.19,.16-.03,.32-.04,.49-.04Zm-.44,3.49c.31,0,.56-.1,.75-.29s.29-.45,.29-.76-.1-.57-.29-.76c-.19-.19-.44-.29-.75-.29s-.55,.1-.74,.29c-.2,.19-.3,.45-.3,.76,0,.21,.04,.39,.13,.55,.09,.16,.21,.28,.38,.37,.16,.09,.34,.13,.53,.13Z"/>
  </g>
</svg>