<?xml version="1.0" encoding="UTF-8" standalone="no"?>
<svg
   id="_Вектор"
   data-name="Вектор"
   viewBox="0 0 128.09 119.06"
   version="1.1"
   width="128.09"
   height="119.06"
   xmlns="http://www.w3.org/2000/svg"
   xmlns:svg="http://www.w3.org/2000/svg">
  <defs
     id="defs1">
    <style
       id="style1">
      .cls-1 {
        fill: #3c3c3b;
      }
    </style>
  </defs>
  <g
     id="g38"
     transform="translate(-35.17,-21.01)">
    <path
       class="cls-1"
       d="m 150.69,44.93 -12.86,-5.98 h -0.01 L 124.96,32.97 112.09,26.99 99.22,21.01 66.96,36 c 0,0 -0.01,0.02 -0.01,0.03 V 36 L 35.17,50.77 v 59.53 l 12.81,5.95 v 0 c 0,0 24.72,11.49 24.72,11.49 l 0.9,0.42 0.9,0.42 11.91,5.54 12.8,5.95 c 5.29,-2.46 53.9,-25.05 57.61,-26.77 v 0 c 0,0 6.44,-3 6.44,-3 V 50.77 Z M 112.27,40.01 V 39.7 l 6.22,-2.87 c -0.23,2.94 0.05,7.95 0.79,13.71 l -6.43,2.99 c -0.02,-0.18 -0.04,-0.36 -0.05,-0.55 -0.03,-0.28 -0.05,-0.57 -0.08,-0.85 v -0.12 c -0.05,-0.52 -0.09,-1.03 -0.13,-1.52 l -0.06,-0.93 -0.02,-0.19 v -0.15 c 0,0 -0.01,-0.1 -0.01,-0.1 -0.02,-0.26 -0.03,-0.52 -0.05,-0.77 v -0.23 c 0,0 -0.02,-0.19 -0.02,-0.19 -0.02,-0.38 -0.04,-0.74 -0.06,-1.09 v -0.11 c -0.01,-0.2 -0.02,-0.39 -0.03,-0.6 v -0.18 c -0.02,-0.36 -0.03,-0.72 -0.04,-1.07 V 44.6 c 0,0 -0.01,-0.08 -0.01,-0.08 -0.01,-0.2 -0.01,-0.38 -0.02,-0.59 v -0.3 c 0,-0.12 -0.01,-0.23 -0.01,-0.36 -0.02,-1.48 -0.01,-2.58 0.01,-3.26 z m -0.12,35.35 c 0,0 0.05,0.08 0.08,0.12 l -0.08,0.04 z M 95.78,62.8 c 4.53,0 9.96,4.39 15.34,12.37 l -16.79,7.81 v -0.2 h -7.18 c -0.11,-0.52 -0.21,-1.03 -0.29,-1.53 1.16,-0.55 2.23,-1.25 3.22,-2.12 2.65,-2.32 4.26,-5.36 4.8,-9.07 l 0.25,-1.71 h -7.49 c 0.28,-0.59 0.61,-1.15 1,-1.67 h 6.44 L 94.8,64.95 C 94.69,64.26 94.55,63.6 94.36,62.96 94.83,62.85 95.3,62.8 95.78,62.8 Z M 70.74,58.13 c 2.59,-2.56 5.81,-3.85 9.68,-3.85 3.35,0 6.21,1.01 8.58,3.03 1.72,1.47 2.95,3.25 3.69,5.36 0.08,0.23 0.16,0.47 0.23,0.71 0.17,0.58 0.3,1.18 0.4,1.8 h -7.11 c -0.29,-0.87 -0.72,-1.63 -1.27,-2.27 -0.56,-0.65 -1.23,-1.15 -2.01,-1.52 -0.78,-0.36 -1.6,-0.54 -2.48,-0.54 -1.82,0 -3.32,0.65 -4.5,1.95 -1.18,1.3 -1.77,2.94 -1.77,4.94 0,1.28 0.27,2.44 0.81,3.48 0.53,1.03 1.28,1.84 2.24,2.42 0.96,0.58 2.03,0.87 3.22,0.87 0.93,0 1.78,-0.19 2.57,-0.58 0.79,-0.39 1.46,-0.93 2.01,-1.64 0.54,-0.7 0.94,-1.52 1.18,-2.44 h 7.18 c -0.48,3.35 -1.92,6.07 -4.3,8.15 -0.77,0.67 -1.6,1.23 -2.48,1.69 -0.23,0.12 -0.47,0.23 -0.71,0.33 -0.03,0.02 -0.06,0.03 -0.1,0.04 -1.62,0.7 -3.42,1.05 -5.38,1.05 -3.87,0 -7.09,-1.27 -9.68,-3.83 -2.59,-2.55 -3.88,-5.73 -3.88,-9.54 0,-3.81 1.29,-7.05 3.88,-9.61 z M 43.78,54.94 h 11.05 c 1.82,0 3.45,0.38 4.88,1.13 0.86,0.45 1.61,1.01 2.24,1.69 0.43,0.45 0.8,0.96 1.13,1.52 0.82,1.38 1.23,2.95 1.23,4.7 0,1.02 -0.16,1.99 -0.48,2.9 -0.31,0.91 -0.78,1.73 -1.38,2.46 -0.61,0.73 -1.34,1.34 -2.19,1.82 l 5.07,9.3 h -7.84 l -3.6,-6.74 -0.56,-1.06 h -2.51 v 7.8 h -7.04 z m 22.69,52.39 c -1.87,1.64 -4.06,2.63 -6.57,2.97 -0.68,0.1 -1.38,0.15 -2.1,0.15 -3.86,0 -7.09,-1.28 -9.68,-3.83 -2.26,-2.22 -3.53,-4.93 -3.82,-8.12 -0.04,-0.46 -0.06,-0.94 -0.06,-1.43 0,-3.84 1.29,-7.04 3.88,-9.6 2.59,-2.57 5.82,-3.85 9.68,-3.85 3.35,0 6.21,1.01 8.58,3.03 2.37,2.02 3.81,4.64 4.32,7.87 h -7.11 c -0.29,-0.87 -0.71,-1.63 -1.27,-2.28 -0.56,-0.64 -1.23,-1.15 -2.01,-1.51 -0.77,-0.36 -1.6,-0.55 -2.47,-0.55 -1.83,0 -3.33,0.65 -4.51,1.95 -1.17,1.3 -1.76,2.95 -1.76,4.94 0,1.29 0.26,2.45 0.8,3.48 0.53,1.04 1.28,1.84 2.24,2.43 0.96,0.58 2.03,0.87 3.23,0.87 0.92,0 1.78,-0.19 2.56,-0.58 0.79,-0.39 1.46,-0.94 2.01,-1.64 0.55,-0.71 0.94,-1.52 1.18,-2.44 h 7.19 c -0.49,3.35 -1.92,6.07 -4.31,8.14 z m 19.4,-16.71 v 19.17 H 78.83 V 90.62 h -6.92 v -6.34 h 20.92 v 6.34 z m 8.46,11.43 -0.13,-0.26 c -0.05,-0.1 -0.11,-0.21 -0.17,-0.34 -0.05,-0.1 -0.1,-0.21 -0.16,-0.34 l -0.04,-0.08 -0.05,-0.1 -0.04,-0.07 c -0.13,-0.27 -0.26,-0.55 -0.39,-0.82 -0.15,-0.31 -0.29,-0.63 -0.44,-0.94 -0.32,-0.69 -0.65,-1.41 -0.97,-2.14 -0.22,-0.49 -0.43,-0.98 -0.65,-1.48 l -0.1,-0.26 c -0.11,-0.24 -0.21,-0.49 -0.31,-0.74 -0.35,-0.83 -0.66,-1.61 -0.94,-2.36 h 4.39 v -7.49 l 17.62,-8.19 c 3.33,5.31 7.01,14.36 8.22,17.8 l 0.71,-0.25 0.71,-0.25 c -2.52,-7.33 -5.57,-19.89 -6.94,-27.32 -0.7,-3.73 -1.25,-7.54 -1.65,-11.31 l 6.49,-3.02 c 1.5,10.52 5.48,26.75 11.01,39.12 l -33.77,15.7 c -0.1,-0.21 -0.24,-0.5 -0.38,-0.79 -0.26,-0.55 -0.52,-1.1 -0.56,-1.17 l -0.09,-0.18 -0.1,-0.19 -0.06,-0.12 -0.13,-0.25 -0.18,-0.35 -0.21,-0.43 -0.38,-0.74 -0.23,-0.46 z m 53.3,14.69 c -14.58,6.78 -42.18,19.6 -48.07,22.34 -0.22,-0.44 -0.43,-0.88 -0.62,-1.31 -0.1,-0.21 -0.19,-0.42 -0.28,-0.63 -2.72,-6.14 -4.1,-12.39 -4.1,-18.56 0,-4.4 0.75,-6.13 1.62,-8.13 0.27,-0.62 0.54,-1.26 0.81,-2.01 l 34.13,-15.87 c 5.66,12.01 12.26,15.69 23.87,20.75 z"
       id="path37" />
    <path
       class="cls-1"
       d="m 56.29,65.95 c 0.56,-0.51 0.83,-1.18 0.83,-2.01 0,-0.53 -0.12,-1 -0.36,-1.42 -0.24,-0.41 -0.6,-0.74 -1.07,-0.98 -0.48,-0.24 -1.03,-0.37 -1.66,-0.37 h -3.21 v 5.54 h 3.21 c 0.94,0 1.7,-0.25 2.26,-0.76 z"
       id="path38" />
  </g>
</svg>
