<?xml version="1.0" encoding="UTF-8"?>
<svg id="_Вектор" data-name="Вектор" xmlns="http://www.w3.org/2000/svg" viewBox="0 0 841.89 198.43">
  <defs>
    <style>
      .cls-1 {
        fill: #3c3c3b;
      }
    </style>
  </defs>
  <g>
    <path class="cls-1" d="M218.69,64.65v-19.6h5.46v19.6h-5.46Z"/>
    <path class="cls-1" d="M240.2,45.05h5.24v19.6h-4.45l-7.78-10.64v10.64h-5.24v-19.6h4.7l7.53,10.28v-10.28Z"/>
    <path class="cls-1" d="M263.94,45.05v4.87h-5.35v14.73h-5.4v-14.73h-5.32v-4.87h16.07Z"/>
    <path class="cls-1" d="M271.73,59.98h7.39v4.68h-12.77v-19.6h12.54v4.68h-7.17v2.88h6.44v4.42h-6.44v2.94Z"/>
    <path class="cls-1" d="M292.75,64.65l-3.19-5.99h-1.93v5.99h-5.4v-19.6h8.48c1.4,0,2.65,.29,3.75,.87,1.1,.58,1.96,1.4,2.59,2.46,.62,1.06,.94,2.27,.94,3.61,0,.78-.12,1.53-.36,2.23-.24,.7-.6,1.33-1.06,1.89-.47,.56-1.03,1.03-1.68,1.4l3.89,7.14h-6.02Zm-5.12-14.81v4.26h2.46c.73,0,1.31-.2,1.74-.59,.43-.39,.64-.91,.64-1.54,0-.41-.09-.77-.28-1.09-.19-.32-.46-.57-.83-.76-.36-.19-.79-.28-1.27-.28h-2.46Z"/>
    <path class="cls-1" d="M313.39,45.05h5.24v19.6h-4.45l-7.78-10.64v10.64h-5.24v-19.6h4.7l7.53,10.28v-10.28Z"/>
    <path class="cls-1" d="M335.43,64.65l-1.09-3.19h-6.94l-1.09,3.19h-5.77l7.7-19.6h5.26l7.87,19.6h-5.94Zm-2.41-7.42l-2.16-6.08-2.16,6.08h4.31Z"/>
    <path class="cls-1" d="M355.98,45.05v4.87h-5.35v14.73h-5.4v-14.73h-5.32v-4.87h16.07Z"/>
    <path class="cls-1" d="M358.38,64.65v-19.6h5.46v19.6h-5.46Z"/>
    <path class="cls-1" d="M377.42,65.16c-3.15,0-5.74-.97-7.77-2.9-2.03-1.93-3.04-4.4-3.04-7.41s1.01-5.47,3.04-7.41,4.62-2.9,7.77-2.9,5.71,.97,7.73,2.9c2.02,1.93,3.02,4.4,3.02,7.41s-1.01,5.47-3.02,7.41c-2.02,1.93-4.59,2.9-7.73,2.9Zm-3.71-6.52c.98,.99,2.22,1.48,3.71,1.48s2.72-.49,3.68-1.48c.96-.99,1.44-2.25,1.44-3.78s-.48-2.79-1.44-3.78c-.96-.99-2.19-1.48-3.68-1.48s-2.73,.5-3.71,1.48c-.98,.99-1.47,2.25-1.47,3.78s.49,2.79,1.47,3.78Z"/>
    <path class="cls-1" d="M403.18,45.05h5.24v19.6h-4.45l-7.78-10.64v10.64h-5.24v-19.6h4.7l7.53,10.28v-10.28Z"/>
    <path class="cls-1" d="M425.22,64.65l-1.09-3.19h-6.94l-1.09,3.19h-5.77l7.7-19.6h5.26l7.87,19.6h-5.94Zm-2.41-7.42l-2.16-6.08-2.16,6.08h4.31Z"/>
    <path class="cls-1" d="M438.52,59.7h6.97v4.96h-12.43v-19.6h5.46v14.64Z"/>
    <path class="cls-1" d="M462.63,65.16c-2.97,0-5.45-.98-7.43-2.94-1.99-1.96-2.98-4.41-2.98-7.34s.99-5.41,2.98-7.38c1.99-1.97,4.47-2.95,7.43-2.95,2.58,0,4.77,.77,6.59,2.32,1.82,1.55,2.93,3.57,3.32,6.05h-5.46c-.22-.67-.55-1.25-.98-1.75-.43-.49-.94-.88-1.54-1.16-.6-.28-1.23-.42-1.9-.42-1.4,0-2.55,.5-3.46,1.5-.91,1-1.36,2.26-1.36,3.79,0,.99,.21,1.88,.62,2.67,.41,.79,.98,1.41,1.72,1.86,.74,.45,1.56,.67,2.48,.67,.71,0,1.37-.15,1.97-.45,.61-.3,1.12-.72,1.54-1.26,.42-.54,.72-1.17,.91-1.88h5.52c-.37,2.58-1.47,4.66-3.3,6.26-1.83,1.6-4.05,2.39-6.66,2.39Z"/>
    <path class="cls-1" d="M484.97,65.16c-3.15,0-5.74-.97-7.77-2.9-2.03-1.93-3.04-4.4-3.04-7.41s1.01-5.47,3.04-7.41,4.62-2.9,7.77-2.9,5.71,.97,7.73,2.9c2.02,1.93,3.02,4.4,3.02,7.41s-1.01,5.47-3.02,7.41c-2.02,1.93-4.59,2.9-7.73,2.9Zm-3.71-6.52c.98,.99,2.22,1.48,3.71,1.48s2.72-.49,3.68-1.48c.96-.99,1.44-2.25,1.44-3.78s-.48-2.79-1.44-3.78c-.96-.99-2.19-1.48-3.68-1.48s-2.73,.5-3.71,1.48c-.98,.99-1.47,2.25-1.47,3.78s.49,2.79,1.47,3.78Z"/>
    <path class="cls-1" d="M510.73,45.05h5.24v19.6h-4.45l-7.78-10.64v10.64h-5.24v-19.6h4.7l7.53,10.28v-10.28Z"/>
    <path class="cls-1" d="M532.24,49.93h-7.03v3.14h6.3v4.73h-6.3v6.86h-5.43v-19.6h12.46v4.87Z"/>
    <path class="cls-1" d="M540.5,59.98h7.39v4.68h-12.77v-19.6h12.54v4.68h-7.17v2.88h6.44v4.42h-6.44v2.94Z"/>
    <path class="cls-1" d="M561.52,64.65l-3.19-5.99h-1.93v5.99h-5.4v-19.6h8.48c1.4,0,2.65,.29,3.75,.87,1.1,.58,1.96,1.4,2.59,2.46,.62,1.06,.94,2.27,.94,3.61,0,.78-.12,1.53-.36,2.23-.24,.7-.6,1.33-1.06,1.89-.47,.56-1.03,1.03-1.68,1.4l3.89,7.14h-6.02Zm-5.12-14.81v4.26h2.46c.73,0,1.31-.2,1.74-.59,.43-.39,.64-.91,.64-1.54,0-.41-.09-.77-.28-1.09-.19-.32-.46-.57-.83-.76-.36-.19-.79-.28-1.27-.28h-2.46Z"/>
    <path class="cls-1" d="M575.3,59.98h7.39v4.68h-12.77v-19.6h12.54v4.68h-7.17v2.88h6.44v4.42h-6.44v2.94Z"/>
    <path class="cls-1" d="M598.04,45.05h5.24v19.6h-4.45l-7.78-10.64v10.64h-5.24v-19.6h4.7l7.53,10.28v-10.28Z"/>
    <path class="cls-1" d="M616.46,65.16c-2.97,0-5.45-.98-7.43-2.94-1.99-1.96-2.98-4.41-2.98-7.34s.99-5.41,2.98-7.38c1.99-1.97,4.47-2.95,7.43-2.95,2.58,0,4.77,.77,6.59,2.32,1.82,1.55,2.93,3.57,3.32,6.05h-5.46c-.22-.67-.55-1.25-.98-1.75-.43-.49-.94-.88-1.54-1.16-.6-.28-1.23-.42-1.9-.42-1.4,0-2.55,.5-3.46,1.5-.91,1-1.36,2.26-1.36,3.79,0,.99,.21,1.88,.62,2.67,.41,.79,.98,1.41,1.72,1.86,.74,.45,1.56,.67,2.48,.67,.71,0,1.37-.15,1.97-.45,.61-.3,1.12-.72,1.54-1.26,.42-.54,.72-1.17,.91-1.88h5.52c-.37,2.58-1.47,4.66-3.3,6.26-1.83,1.6-4.05,2.39-6.66,2.39Z"/>
    <path class="cls-1" d="M634.41,59.98h7.39v4.68h-12.77v-19.6h12.54v4.68h-7.17v2.88h6.44v4.42h-6.44v2.94Z"/>
    <path class="cls-1" d="M228.47,90.16c-3.15,0-5.74-.97-7.77-2.9-2.03-1.93-3.04-4.4-3.04-7.41s1.01-5.47,3.04-7.41,4.62-2.9,7.77-2.9,5.71,.97,7.73,2.9c2.02,1.93,3.02,4.4,3.02,7.41s-1.01,5.47-3.02,7.41c-2.02,1.93-4.59,2.9-7.73,2.9Zm-3.71-6.52c.98,.99,2.22,1.48,3.71,1.48s2.72-.49,3.68-1.48c.96-.99,1.44-2.25,1.44-3.78s-.48-2.79-1.44-3.78c-.96-.99-2.19-1.48-3.68-1.48s-2.73,.5-3.71,1.48c-.98,.99-1.47,2.25-1.47,3.78s.49,2.79,1.47,3.78Z"/>
    <path class="cls-1" d="M254.23,70.05h5.24v19.6h-4.45l-7.78-10.64v10.64h-5.24v-19.6h4.7l7.53,10.28v-10.28Z"/>
    <path class="cls-1" d="M278.73,90.16c-2.97,0-5.45-.98-7.43-2.94-1.99-1.96-2.98-4.41-2.98-7.34s.99-5.41,2.98-7.38c1.99-1.97,4.47-2.95,7.43-2.95,2.58,0,4.77,.77,6.59,2.32,1.82,1.55,2.93,3.57,3.32,6.05h-5.46c-.22-.67-.55-1.25-.98-1.75-.43-.49-.94-.88-1.54-1.16-.6-.28-1.23-.42-1.9-.42-1.4,0-2.55,.5-3.46,1.5-.91,1-1.36,2.26-1.36,3.79,0,.99,.21,1.88,.62,2.67,.41,.79,.98,1.41,1.72,1.86,.74,.45,1.56,.67,2.48,.67,.71,0,1.37-.15,1.97-.45,.61-.3,1.12-.72,1.54-1.26,.42-.54,.72-1.17,.91-1.88h5.52c-.37,2.58-1.47,4.66-3.3,6.26-1.83,1.6-4.05,2.39-6.66,2.39Z"/>
    <path class="cls-1" d="M302.61,70.05h5.46v19.6h-5.46v-7.53h-5.88v7.53h-5.43v-19.6h5.43v7.08h5.88v-7.08Z"/>
    <path class="cls-1" d="M317.23,84.98h7.39v4.68h-12.77v-19.6h12.54v4.68h-7.17v2.88h6.44v4.42h-6.44v2.94Z"/>
    <path class="cls-1" d="M352.53,89.65h-5.43l-1.54-11.28-5.18,11.31h-1.6l-5.21-11.31-1.51,11.28h-5.46l2.97-19.6h5.38l4.62,10.67,4.65-10.67h5.4l2.91,19.6Z"/>
    <path class="cls-1" d="M355.22,89.65v-19.6h5.46v19.6h-5.46Z"/>
    <path class="cls-1" d="M373.87,90.16c-2.97,0-5.45-.98-7.43-2.94-1.99-1.96-2.98-4.41-2.98-7.34s.99-5.41,2.98-7.38c1.99-1.97,4.47-2.95,7.43-2.95,2.58,0,4.77,.77,6.59,2.32,1.82,1.55,2.93,3.57,3.32,6.05h-5.46c-.22-.67-.55-1.25-.98-1.75-.43-.49-.94-.88-1.54-1.16-.6-.28-1.23-.42-1.9-.42-1.4,0-2.55,.5-3.46,1.5-.91,1-1.36,2.26-1.36,3.79,0,.99,.21,1.88,.62,2.67,.41,.79,.98,1.41,1.72,1.86,.74,.45,1.56,.67,2.48,.67,.71,0,1.37-.15,1.97-.45,.61-.3,1.12-.72,1.54-1.26,.42-.54,.72-1.17,.91-1.88h5.52c-.37,2.58-1.47,4.66-3.3,6.26-1.83,1.6-4.05,2.39-6.66,2.39Z"/>
    <path class="cls-1" d="M398.65,89.65l-1.09-3.19h-6.94l-1.09,3.19h-5.77l7.7-19.6h5.26l7.87,19.6h-5.94Zm-2.41-7.42l-2.16-6.08-2.16,6.08h4.31Z"/>
    <path class="cls-1" d="M411.95,84.7h6.97v4.96h-12.43v-19.6h5.46v14.64Z"/>
    <path class="cls-1" d="M440.62,70.05v4.87h-5.35v14.73h-5.4v-14.73h-5.32v-4.87h16.07Z"/>
    <path class="cls-1" d="M454.34,70.05h5.46v19.6h-5.46v-7.53h-5.88v7.53h-5.43v-19.6h5.43v7.08h5.88v-7.08Z"/>
    <path class="cls-1" d="M468.96,84.98h7.39v4.68h-12.77v-19.6h12.54v4.68h-7.17v2.88h6.44v4.42h-6.44v2.94Z"/>
    <path class="cls-1" d="M489.98,89.65l-3.19-5.99h-1.93v5.99h-5.4v-19.6h8.48c1.4,0,2.65,.29,3.75,.87,1.1,.58,1.96,1.4,2.59,2.46,.62,1.06,.94,2.27,.94,3.61,0,.78-.12,1.53-.36,2.23-.24,.7-.6,1.33-1.06,1.89-.47,.56-1.03,1.03-1.68,1.4l3.89,7.14h-6.02Zm-5.12-14.81v4.26h2.46c.73,0,1.31-.2,1.74-.59,.43-.39,.64-.91,.64-1.54,0-.41-.09-.77-.28-1.09-.19-.32-.46-.57-.83-.76-.36-.19-.79-.28-1.27-.28h-2.46Z"/>
    <path class="cls-1" d="M523.19,89.65h-5.43l-1.54-11.28-5.18,11.31h-1.6l-5.21-11.31-1.51,11.28h-5.46l2.97-19.6h5.38l4.62,10.67,4.65-10.67h5.4l2.91,19.6Z"/>
    <path class="cls-1" d="M535.46,90.16c-3.15,0-5.74-.97-7.77-2.9-2.03-1.93-3.04-4.4-3.04-7.41s1.01-5.47,3.04-7.41,4.62-2.9,7.77-2.9,5.71,.97,7.73,2.9c2.02,1.93,3.02,4.4,3.02,7.41s-1.01,5.47-3.02,7.41c-2.02,1.93-4.59,2.9-7.73,2.9Zm-3.71-6.52c.98,.99,2.22,1.48,3.71,1.48s2.72-.49,3.68-1.48c.96-.99,1.44-2.25,1.44-3.78s-.48-2.79-1.44-3.78c-.96-.99-2.19-1.48-3.68-1.48s-2.73,.5-3.71,1.48c-.98,.99-1.47,2.25-1.47,3.78s.49,2.79,1.47,3.78Z"/>
    <path class="cls-1" d="M556.91,70.05c2.97,0,5.39,.91,7.28,2.74,1.88,1.83,2.83,4.18,2.83,7.04s-.95,5.22-2.84,7.06-4.32,2.76-7.27,2.76h-7.92v-19.6h7.92Zm-.25,14.64c1.44,0,2.6-.45,3.5-1.34,.9-.9,1.34-2.07,1.34-3.53s-.44-2.6-1.33-3.49c-.89-.89-2.06-1.33-3.51-1.33h-2.27v9.69h2.27Z"/>
    <path class="cls-1" d="M585.6,70.05l-6.86,11.93v7.67h-5.49v-7.67l-6.8-11.93h5.99l3.58,7.08,3.58-7.08h5.99Z"/>
    <path class="cls-1" d="M599.94,70.05h5.24v19.6h-4.45l-7.78-10.64v10.64h-5.24v-19.6h4.7l7.53,10.28v-10.28Z"/>
    <path class="cls-1" d="M621.98,89.65l-1.09-3.19h-6.94l-1.09,3.19h-5.77l7.7-19.6h5.26l7.87,19.6h-5.94Zm-2.41-7.42l-2.16-6.08-2.16,6.08h4.31Z"/>
    <path class="cls-1" d="M654.62,89.65h-5.43l-1.54-11.28-5.18,11.31h-1.6l-5.21-11.31-1.51,11.28h-5.46l2.97-19.6h5.38l4.62,10.67,4.65-10.67h5.4l2.91,19.6Z"/>
    <path class="cls-1" d="M657.31,89.65v-19.6h5.46v19.6h-5.46Z"/>
    <path class="cls-1" d="M675.96,90.16c-2.97,0-5.45-.98-7.43-2.94-1.99-1.96-2.98-4.41-2.98-7.34s.99-5.41,2.98-7.38c1.99-1.97,4.47-2.95,7.43-2.95,2.58,0,4.77,.77,6.59,2.32,1.82,1.55,2.93,3.57,3.32,6.05h-5.46c-.22-.67-.55-1.25-.98-1.75-.43-.49-.94-.88-1.54-1.16-.6-.28-1.23-.42-1.9-.42-1.4,0-2.55,.5-3.46,1.5-.91,1-1.36,2.26-1.36,3.79,0,.99,.21,1.88,.62,2.67,.41,.79,.98,1.41,1.72,1.86,.74,.45,1.56,.67,2.48,.67,.71,0,1.37-.15,1.97-.45,.61-.3,1.12-.72,1.54-1.26,.42-.54,.72-1.17,.91-1.88h5.52c-.37,2.58-1.47,4.66-3.3,6.26-1.83,1.6-4.05,2.39-6.66,2.39Z"/>
    <path class="cls-1" d="M695.48,90.13c-2.43,0-4.35-.6-5.77-1.81-1.42-1.2-2.13-2.87-2.13-5h5.57c0,.67,.22,1.19,.66,1.54s.98,.53,1.64,.53c.6,0,1.12-.15,1.55-.45,.44-.3,.66-.7,.66-1.2,0-.17-.02-.31-.06-.43-.04-.12-.11-.24-.21-.35-.1-.11-.2-.21-.29-.29s-.24-.17-.43-.25-.36-.15-.49-.2-.33-.11-.6-.18c-.27-.07-.48-.13-.62-.17-.14-.04-.37-.09-.69-.17-.56-.15-.98-.26-1.26-.34-.28-.07-.69-.21-1.23-.39-.54-.19-.96-.37-1.26-.55-.3-.18-.64-.42-1.04-.74-.39-.32-.69-.65-.9-1.01-.21-.35-.38-.79-.53-1.32s-.22-1.09-.22-1.71c0-1.9,.66-3.39,1.97-4.47,1.32-1.07,3.14-1.61,5.47-1.61s4.15,.57,5.45,1.71c1.3,1.14,1.95,2.71,1.95,4.7h-5.4c0-.6-.2-1.05-.59-1.36-.39-.31-.88-.46-1.46-.46-.52,0-.97,.11-1.34,.34-.37,.22-.56,.56-.56,1.01,0,.17,.04,.33,.11,.48s.2,.29,.36,.41,.33,.22,.49,.31c.16,.08,.39,.18,.7,.28,.31,.1,.56,.18,.76,.24,.2,.06,.5,.13,.91,.22,.56,.15,.99,.27,1.29,.35,.3,.08,.72,.22,1.27,.42,.55,.2,.98,.39,1.29,.57,.31,.19,.67,.44,1.08,.76,.41,.32,.72,.66,.94,1.04,.21,.37,.4,.82,.56,1.34,.16,.52,.24,1.09,.24,1.71,0,2.07-.72,3.67-2.16,4.8-1.44,1.13-3.33,1.69-5.68,1.69Z"/>
    <path class="cls-1" d="M218.69,114.65v-19.6h5.46v19.6h-5.46Z"/>
    <path class="cls-1" d="M240.2,95.05h5.24v19.6h-4.45l-7.78-10.64v10.64h-5.24v-19.6h4.7l7.53,10.28v-10.28Z"/>
    <path class="cls-1" d="M265.85,114.65l-3.19-5.99h-1.93v5.99h-5.4v-19.6h8.48c1.4,0,2.65,.29,3.75,.87,1.1,.58,1.96,1.4,2.59,2.46,.62,1.06,.94,2.27,.94,3.61,0,.78-.12,1.53-.36,2.23-.24,.7-.6,1.33-1.06,1.89-.47,.56-1.03,1.03-1.68,1.4l3.89,7.14h-6.02Zm-5.12-14.81v4.26h2.46c.73,0,1.31-.2,1.74-.59,.43-.39,.64-.91,.64-1.54,0-.41-.09-.77-.28-1.09-.19-.32-.46-.57-.83-.76-.36-.19-.79-.28-1.27-.28h-2.46Z"/>
    <path class="cls-1" d="M288.73,112.92c-1.6,1.49-3.65,2.24-6.16,2.24s-4.56-.75-6.16-2.24c-1.6-1.49-2.39-3.44-2.39-5.85v-12.01h5.52v11.93c0,.95,.28,1.71,.84,2.28,.56,.57,1.29,.85,2.2,.85s1.64-.28,2.2-.85c.56-.57,.84-1.33,.84-2.28v-11.93h5.52v12.01c0,2.41-.8,4.36-2.39,5.85Z"/>
    <path class="cls-1" d="M301.69,115.13c-2.43,0-4.35-.6-5.77-1.81-1.42-1.2-2.13-2.87-2.13-5h5.57c0,.67,.22,1.19,.66,1.54s.98,.53,1.64,.53c.6,0,1.12-.15,1.55-.45,.44-.3,.66-.7,.66-1.2,0-.17-.02-.31-.06-.43-.04-.12-.11-.24-.21-.35-.1-.11-.2-.21-.29-.29s-.24-.17-.43-.25-.36-.15-.49-.2-.33-.11-.6-.18c-.27-.07-.48-.13-.62-.17-.14-.04-.37-.09-.69-.17-.56-.15-.98-.26-1.26-.34-.28-.07-.69-.21-1.23-.39-.54-.19-.96-.37-1.26-.55-.3-.18-.64-.42-1.04-.74-.39-.32-.69-.65-.9-1.01-.21-.35-.38-.79-.53-1.32s-.22-1.09-.22-1.71c0-1.9,.66-3.39,1.97-4.47,1.32-1.07,3.14-1.61,5.47-1.61s4.15,.57,5.45,1.71c1.3,1.14,1.95,2.71,1.95,4.7h-5.4c0-.6-.2-1.05-.59-1.36-.39-.31-.88-.46-1.46-.46-.52,0-.97,.11-1.34,.34-.37,.22-.56,.56-.56,1.01,0,.17,.04,.33,.11,.48s.2,.29,.36,.41,.33,.22,.49,.31c.16,.08,.39,.18,.7,.28,.31,.1,.56,.18,.76,.24,.2,.06,.5,.13,.91,.22,.56,.15,.99,.27,1.29,.35,.3,.08,.72,.22,1.27,.42,.55,.2,.98,.39,1.29,.57,.31,.19,.67,.44,1.08,.76,.41,.32,.72,.66,.94,1.04,.21,.37,.4,.82,.56,1.34,.16,.52,.24,1.09,.24,1.71,0,2.07-.72,3.67-2.16,4.8-1.44,1.13-3.33,1.69-5.68,1.69Z"/>
    <path class="cls-1" d="M319.3,115.13c-2.43,0-4.35-.6-5.77-1.81-1.42-1.2-2.13-2.87-2.13-5h5.57c0,.67,.22,1.19,.66,1.54s.98,.53,1.64,.53c.6,0,1.12-.15,1.55-.45,.44-.3,.66-.7,.66-1.2,0-.17-.02-.31-.06-.43-.04-.12-.11-.24-.21-.35-.1-.11-.2-.21-.29-.29s-.24-.17-.43-.25-.36-.15-.49-.2-.33-.11-.6-.18c-.27-.07-.48-.13-.62-.17-.14-.04-.37-.09-.69-.17-.56-.15-.98-.26-1.26-.34-.28-.07-.69-.21-1.23-.39-.54-.19-.96-.37-1.26-.55-.3-.18-.64-.42-1.04-.74-.39-.32-.69-.65-.9-1.01-.21-.35-.38-.79-.53-1.32s-.22-1.09-.22-1.71c0-1.9,.66-3.39,1.97-4.47,1.32-1.07,3.14-1.61,5.47-1.61s4.15,.57,5.45,1.71c1.3,1.14,1.95,2.71,1.95,4.7h-5.4c0-.6-.2-1.05-.59-1.36-.39-.31-.88-.46-1.46-.46-.52,0-.97,.11-1.34,.34-.37,.22-.56,.56-.56,1.01,0,.17,.04,.33,.11,.48s.2,.29,.36,.41,.33,.22,.49,.31c.16,.08,.39,.18,.7,.28,.31,.1,.56,.18,.76,.24,.2,.06,.5,.13,.91,.22,.56,.15,.99,.27,1.29,.35,.3,.08,.72,.22,1.27,.42,.55,.2,.98,.39,1.29,.57,.31,.19,.67,.44,1.08,.76,.41,.32,.72,.66,.94,1.04,.21,.37,.4,.82,.56,1.34,.16,.52,.24,1.09,.24,1.71,0,2.07-.72,3.67-2.16,4.8-1.44,1.13-3.33,1.69-5.68,1.69Z"/>
    <path class="cls-1" d="M329.97,114.65v-19.6h5.46v19.6h-5.46Z"/>
    <path class="cls-1" d="M352.23,114.65l-1.09-3.19h-6.94l-1.09,3.19h-5.77l7.7-19.6h5.26l7.87,19.6h-5.94Zm-2.41-7.42l-2.16-6.08-2.16,6.08h4.31Z"/>
    <path class="cls-1" d="M221.33,138.94c-1.27,0-2.3-.38-3.09-1.13-.8-.75-1.19-1.73-1.19-2.92v-.44h3.05v.28c0,.42,.11,.75,.34,1,.23,.25,.53,.38,.9,.38s.66-.13,.89-.38c.22-.25,.34-.59,.34-1v-7.06h3.05v7.22c0,1.19-.39,2.17-1.18,2.92s-1.82,1.13-3.09,1.13Z"/>
    <path class="cls-1" d="M231.42,138.94c-1.26,0-2.27-.36-3.03-1.08s-1.15-1.67-1.15-2.85v-4.83h2.92v4.71c0,.45,.11,.8,.33,1.05s.53,.38,.92,.38,.7-.13,.93-.38c.22-.26,.34-.6,.34-1.04v-4.71h2.92v4.83c0,.78-.17,1.47-.52,2.06-.35,.59-.83,1.05-1.47,1.37s-1.36,.49-2.19,.49Z"/>
    <path class="cls-1" d="M242.44,129.93c.98,0,1.77,.32,2.36,.97,.59,.65,.89,1.51,.89,2.59v5.17h-2.92v-4.77c0-.98-.37-1.48-1.1-1.48-.3,0-.56,.07-.78,.2-.21,.14-.38,.33-.49,.59-.11,.26-.17,.57-.17,.93v4.52h-2.92v-8.48h2.04l.41,.88c.67-.75,1.56-1.13,2.67-1.13Z"/>
    <path class="cls-1" d="M256.17,134.34c0,.24-.02,.5-.06,.77h-6.29c.09,.48,.29,.85,.59,1.1,.3,.25,.68,.38,1.14,.38,.23,0,.44-.03,.64-.09,.2-.06,.37-.15,.53-.28,.15-.12,.28-.26,.37-.43h2.9c-.29,.97-.84,1.74-1.64,2.31-.8,.57-1.73,.85-2.8,.85-1.32,0-2.42-.43-3.29-1.29s-1.31-1.94-1.31-3.23c0-.86,.2-1.63,.6-2.32,.4-.69,.95-1.23,1.65-1.62,.7-.39,1.49-.58,2.35-.58s1.7,.2,2.41,.59c.71,.39,1.25,.93,1.64,1.6,.39,.67,.58,1.43,.58,2.25Zm-4.63-2.15c-.42,0-.77,.11-1.06,.34-.29,.22-.5,.55-.62,.96h3.44c-.26-.87-.85-1.3-1.76-1.3Z"/>
    <path class="cls-1" d="M265.28,136.17h2.9v2.48h-7.77v-.63c1.48-1.75,2.52-3.01,3.15-3.79,.62-.78,1.05-1.37,1.28-1.78s.35-.77,.35-1.08c0-.28-.08-.51-.25-.68-.17-.17-.38-.26-.64-.26-.12,0-.24,.01-.34,.04-.1,.03-.19,.07-.26,.13-.07,.06-.14,.13-.19,.21-.05,.08-.09,.17-.13,.28-.03,.11-.05,.23-.05,.35v.2h-2.75v-.2c0-1.06,.33-1.9,.98-2.54,.65-.64,1.55-.96,2.68-.96s2.01,.31,2.71,.93c.7,.62,1.04,1.42,1.04,2.4,0,.67-.18,1.34-.54,2.01-.36,.67-1.08,1.63-2.17,2.89Z"/>
    <path class="cls-1" d="M273.32,127.95c1.22,0,2.22,.36,2.99,1.08,.77,.72,1.15,1.64,1.15,2.77,0,1.06-.4,2.26-1.19,3.6l-1.92,3.26h-3.03c.24-.4,.59-.99,1.06-1.77,.46-.78,.81-1.35,1.03-1.7-.22,.03-.45,.05-.69,.05-1.05,0-1.9-.32-2.56-.95-.66-.63-.99-1.46-.99-2.47,0-.75,.17-1.42,.52-2.01s.83-1.04,1.47-1.37c.63-.33,1.35-.49,2.16-.49Zm0,5.37c.45,0,.82-.14,1.11-.42,.29-.28,.43-.64,.43-1.09,0-.28-.07-.54-.2-.77-.13-.23-.31-.41-.55-.53-.24-.12-.5-.18-.79-.18-.45,0-.82,.14-1.1,.41-.28,.27-.42,.63-.42,1.07s.14,.81,.42,1.09,.65,.42,1.1,.42Z"/>
    <path class="cls-1" d="M282.26,135.64v-2.65h5.76v2.65h-5.76Z"/>
    <path class="cls-1" d="M296.41,138.94c-1.27,0-2.3-.38-3.09-1.13-.8-.75-1.19-1.73-1.19-2.92v-.44h3.05v.28c0,.42,.11,.75,.34,1,.23,.25,.53,.38,.9,.38s.66-.13,.89-.38c.22-.25,.34-.59,.34-1v-7.06h3.05v7.22c0,1.19-.39,2.17-1.18,2.92s-1.82,1.13-3.09,1.13Z"/>
    <path class="cls-1" d="M306.5,138.94c-1.26,0-2.27-.36-3.03-1.08s-1.15-1.67-1.15-2.85v-4.83h2.92v4.71c0,.45,.11,.8,.33,1.05s.53,.38,.92,.38,.7-.13,.93-.38c.22-.26,.34-.6,.34-1.04v-4.71h2.92v4.83c0,.78-.17,1.47-.52,2.06-.35,.59-.83,1.05-1.47,1.37s-1.36,.49-2.19,.49Z"/>
    <path class="cls-1" d="M312.4,138.65v-11.54h2.92v11.54h-2.92Z"/>
    <path class="cls-1" d="M322.87,130.18h3.14l-3.55,8.1c-.59,1.32-1.19,2.24-1.82,2.75-.63,.52-1.48,.78-2.56,.78h-1v-2.51h.8c.55,0,.95-.09,1.19-.27,.24-.18,.46-.54,.66-1.08l-3.5-7.77h3.17l1.79,4.66,1.68-4.66Z"/>
    <path class="cls-1" d="M334.88,132.05c.75,.19,1.35,.57,1.8,1.15,.45,.58,.67,1.26,.67,2.06,0,1.07-.37,1.94-1.11,2.62-.74,.68-1.68,1.02-2.83,1.02s-2.03-.33-2.74-1c-.71-.66-1.08-1.54-1.11-2.63h2.67c.02,.38,.14,.67,.35,.89,.21,.22,.49,.33,.82,.33,.37,0,.66-.12,.89-.35,.22-.24,.34-.54,.34-.93s-.12-.68-.36-.9c-.24-.22-.57-.33-.97-.33h-1.68v-.58l1.71-2.79h-3.52v-2.39h7.17v.49l-2.1,3.34Z"/>
    <path class="cls-1" d="M338.85,141.4v-1.44c.41-.04,.72-.18,.93-.42,.21-.24,.32-.53,.32-.89h-1.37v-2.72h2.84v2.48c0,.85-.25,1.54-.75,2.07-.5,.53-1.16,.84-1.99,.91Z"/>
    <path class="cls-1" d="M351.1,136.17h2.9v2.48h-7.77v-.63c1.48-1.75,2.52-3.01,3.15-3.79,.62-.78,1.05-1.37,1.28-1.78s.35-.77,.35-1.08c0-.28-.08-.51-.25-.68-.17-.17-.38-.26-.64-.26-.12,0-.24,.01-.34,.04-.1,.03-.19,.07-.26,.13-.07,.06-.14,.13-.19,.21-.05,.08-.09,.17-.13,.28-.03,.11-.05,.23-.05,.35v.2h-2.75v-.2c0-1.06,.33-1.9,.98-2.54,.65-.64,1.55-.96,2.68-.96s2.01,.31,2.71,.93c.7,.62,1.04,1.42,1.04,2.4,0,.67-.18,1.34-.54,2.01-.36,.67-1.08,1.63-2.17,2.89Z"/>
    <path class="cls-1" d="M359.86,138.94c-.92,0-1.73-.22-2.42-.67-.69-.45-1.22-1.09-1.59-1.92-.37-.83-.56-1.79-.56-2.9,0-1.66,.41-2.99,1.24-3.99,.83-.99,1.94-1.49,3.33-1.49s2.5,.5,3.33,1.49c.83,1,1.24,2.32,1.24,3.99s-.42,3.01-1.25,4-1.94,1.49-3.32,1.49Zm-1.27-3.27c.29,.52,.71,.78,1.26,.78s.97-.26,1.27-.77c.3-.51,.45-1.25,.45-2.21s-.15-1.71-.45-2.23c-.3-.52-.72-.79-1.26-.79s-.98,.26-1.27,.78c-.29,.52-.44,1.26-.44,2.22s.15,1.7,.44,2.22Z"/>
    <path class="cls-1" d="M370.33,136.17h2.9v2.48h-7.77v-.63c1.48-1.75,2.52-3.01,3.15-3.79,.62-.78,1.05-1.37,1.28-1.78s.35-.77,.35-1.08c0-.28-.08-.51-.25-.68-.17-.17-.38-.26-.64-.26-.12,0-.24,.01-.34,.04-.1,.03-.19,.07-.26,.13-.07,.06-.14,.13-.19,.21-.05,.08-.09,.17-.13,.28-.03,.11-.05,.23-.05,.35v.2h-2.75v-.2c0-1.06,.33-1.9,.98-2.54,.65-.64,1.55-.96,2.68-.96s2.01,.31,2.71,.93c.7,.62,1.04,1.42,1.04,2.4,0,.67-.18,1.34-.54,2.01-.36,.67-1.08,1.63-2.17,2.89Z"/>
    <path class="cls-1" d="M379.21,131.61c.68,0,1.29,.14,1.83,.43,.54,.29,.96,.69,1.26,1.22,.3,.52,.45,1.12,.45,1.77,0,.75-.17,1.42-.52,2.01-.34,.59-.83,1.04-1.46,1.37s-1.35,.49-2.15,.49c-1.23,0-2.24-.36-3.01-1.07s-1.15-1.64-1.15-2.78c0-1.07,.4-2.27,1.19-3.59l1.92-3.23h3.01c-.24,.42-.59,1.02-1.06,1.79-.47,.77-.8,1.33-1,1.66,.22-.04,.45-.06,.69-.06Zm-.61,4.9c.43,0,.78-.14,1.05-.41s.41-.63,.41-1.07-.14-.79-.41-1.07-.62-.41-1.05-.41-.77,.14-1.04,.41-.42,.63-.42,1.07c0,.29,.06,.55,.19,.77,.13,.22,.3,.39,.53,.52,.22,.12,.47,.19,.75,.19Z"/>
    <path class="cls-1" d="M220.87,151.73h4.14v2.62h-7.16v-10.99h7.03v2.62h-4.02v1.62h3.61v2.48h-3.61v1.65Z"/>
    <path class="cls-1" d="M235.22,154.35h-3.44l-2.12-3.58v3.58h-2.92v-11.54h2.92v6.39l2.01-3.33h3.28l-2.64,4.03,2.9,4.44Z"/>
    <path class="cls-1" d="M242.44,145.86h2.17v8.48h-2.25l-.25-.6c-.73,.6-1.58,.89-2.56,.89-.86,0-1.62-.19-2.3-.58-.67-.39-1.2-.93-1.58-1.62-.38-.69-.57-1.47-.57-2.34,0-1.31,.42-2.38,1.26-3.23,.84-.84,1.9-1.26,3.2-1.26,.98,0,1.85,.3,2.59,.91l.3-.66Zm-3.86,5.63c.36,.37,.81,.55,1.36,.55s1-.18,1.36-.55c.36-.37,.53-.83,.53-1.38s-.18-1.01-.53-1.38c-.36-.37-.81-.55-1.35-.55s-1.01,.18-1.37,.55c-.36,.37-.53,.83-.53,1.38s.18,1.01,.53,1.38Z"/>
    <path class="cls-1" d="M251.04,151.79h1.13v2.56h-2.01c-.94,0-1.68-.27-2.21-.81-.53-.54-.8-1.28-.8-2.22v-3.2h-1.55v-.67l3.8-4.05h.6v2.48h2.13v2.24h-2.06v2.7c0,.3,.09,.54,.26,.71,.17,.17,.41,.26,.71,.26Z"/>
    <path class="cls-1" d="M262.19,150.03c0,.24-.02,.5-.06,.77h-6.29c.09,.48,.29,.85,.59,1.1,.3,.25,.68,.38,1.14,.38,.23,0,.44-.03,.64-.09,.2-.06,.37-.15,.53-.28,.15-.12,.28-.26,.37-.43h2.9c-.29,.97-.84,1.74-1.64,2.31-.8,.57-1.73,.85-2.8,.85-1.32,0-2.42-.43-3.29-1.29s-1.31-1.94-1.31-3.23c0-.86,.2-1.63,.6-2.32,.4-.69,.95-1.23,1.65-1.62,.7-.39,1.49-.58,2.35-.58s1.7,.2,2.41,.59c.71,.39,1.25,.93,1.64,1.6,.39,.67,.58,1.43,.58,2.25Zm-4.63-2.15c-.42,0-.77,.11-1.06,.34-.29,.22-.5,.55-.62,.96h3.44c-.26-.87-.85-1.3-1.76-1.3Z"/>
    <path class="cls-1" d="M268.26,145.83h.77v2.68h-1.13c-.51,0-.88,.12-1.11,.36-.23,.24-.35,.63-.35,1.16v4.32h-2.92v-8.48h1.95l.46,.94c.56-.66,1.34-.99,2.34-.99Z"/>
    <path class="cls-1" d="M270.14,154.35v-8.48h2.92v8.48h-2.92Zm.02-9.54v-2.46h2.87v2.46h-2.87Z"/>
    <path class="cls-1" d="M280.02,145.62c.98,0,1.77,.32,2.36,.97,.59,.65,.89,1.51,.89,2.59v5.17h-2.92v-4.77c0-.98-.37-1.48-1.1-1.48-.3,0-.56,.07-.78,.2-.21,.14-.38,.33-.49,.59-.11,.26-.17,.57-.17,.93v4.52h-2.92v-8.48h2.04l.41,.88c.67-.75,1.56-1.13,2.67-1.13Z"/>
    <path class="cls-1" d="M290.02,145.61c1.3,0,2.36,.42,3.19,1.26,.83,.84,1.25,1.92,1.25,3.24s-.42,2.4-1.25,3.25-1.9,1.27-3.19,1.27c-.98,0-1.84-.3-2.56-.91l-.28,.63h-2.15v-11.54h2.87v3.38c.64-.39,1.34-.58,2.12-.58Zm-.39,6.44c.54,0,1-.18,1.36-.55,.36-.37,.54-.83,.54-1.38s-.18-1.01-.54-1.38c-.36-.37-.81-.55-1.36-.55s-1,.18-1.36,.55c-.36,.37-.54,.83-.54,1.38,0,.37,.08,.7,.24,.99s.39,.52,.68,.69c.29,.17,.61,.25,.98,.25Z"/>
    <path class="cls-1" d="M299.88,154.63c-1.26,0-2.27-.36-3.03-1.08s-1.15-1.67-1.15-2.85v-4.83h2.92v4.71c0,.45,.11,.8,.33,1.05s.53,.38,.92,.38,.7-.13,.93-.38c.22-.26,.34-.6,.34-1.04v-4.71h2.92v4.83c0,.78-.17,1.47-.52,2.06-.35,.59-.83,1.05-1.47,1.37s-1.36,.49-2.19,.49Z"/>
    <path class="cls-1" d="M310.52,145.83h.77v2.68h-1.13c-.51,0-.88,.12-1.11,.36-.23,.24-.35,.63-.35,1.16v4.32h-2.92v-8.48h1.95l.46,.94c.56-.66,1.34-.99,2.34-.99Z"/>
    <path class="cls-1" d="M319.07,145.87h1.98v7.54c0,1.33-.41,2.38-1.22,3.16-.82,.77-1.92,1.16-3.31,1.16-.81,0-1.52-.13-2.15-.38s-1.14-.63-1.54-1.11-.67-1.06-.8-1.72h2.83c.09,.27,.29,.48,.6,.64,.31,.15,.65,.23,1.03,.23,.5,0,.92-.15,1.26-.45,.33-.3,.5-.69,.5-1.19v-.25c-.67,.43-1.41,.64-2.21,.64-1.21,0-2.22-.41-3.03-1.22-.81-.81-1.21-1.83-1.21-3.05s.41-2.21,1.22-3.03c.81-.82,1.82-1.22,3.02-1.22,1.01,0,1.91,.32,2.68,.97l.36-.71Zm-2.56,5.86c.52,0,.96-.18,1.3-.53,.34-.35,.51-.8,.51-1.34s-.17-.97-.51-1.32c-.34-.34-.77-.52-1.3-.52s-.96,.17-1.29,.52c-.34,.35-.51,.79-.51,1.32s.17,.99,.51,1.34,.77,.53,1.29,.53Z"/>
    <path class="cls-1" d="M322.9,157.1v-1.44c.41-.04,.72-.18,.93-.42,.21-.24,.32-.53,.32-.89h-1.37v-2.72h2.84v2.48c0,.85-.25,1.54-.75,2.07-.5,.53-1.16,.84-1.99,.91Z"/>
    <path class="cls-1" d="M336.83,154.35l-1.79-3.36h-1.08v3.36h-3.03v-10.99h4.76c.78,0,1.49,.16,2.1,.49,.62,.32,1.1,.79,1.45,1.38s.53,1.27,.53,2.02c0,.44-.07,.86-.2,1.25s-.33,.75-.6,1.06c-.26,.31-.58,.58-.94,.79l2.18,4h-3.38Zm-2.87-8.3v2.39h1.38c.41,0,.73-.11,.97-.33,.24-.22,.36-.51,.36-.86,0-.23-.05-.43-.16-.61-.11-.18-.26-.32-.46-.42-.2-.1-.44-.16-.71-.16h-1.38Z"/>
    <path class="cls-1" d="M345.37,154.63c-1.26,0-2.27-.36-3.03-1.08s-1.15-1.67-1.15-2.85v-4.83h2.92v4.71c0,.45,.11,.8,.33,1.05s.53,.38,.92,.38,.7-.13,.93-.38c.22-.26,.34-.6,.34-1.04v-4.71h2.92v4.83c0,.78-.17,1.47-.52,2.06-.35,.59-.83,1.05-1.47,1.37s-1.36,.49-2.19,.49Z"/>
    <path class="cls-1" d="M354.53,154.63c-1.15,0-2.06-.28-2.72-.83-.67-.55-1-1.3-1.01-2.23h2.81c0,.29,.09,.52,.27,.67,.18,.16,.41,.24,.71,.24,.15,0,.28-.02,.41-.07s.23-.12,.31-.23c.08-.1,.12-.23,.12-.36,0-.16-.07-.29-.21-.39s-.3-.18-.48-.23c-.18-.05-.43-.1-.76-.15-.33-.05-.61-.1-.83-.16-.22-.05-.49-.14-.79-.28-.3-.13-.55-.29-.74-.46s-.35-.42-.49-.72c-.14-.3-.2-.65-.2-1.05,0-.85,.33-1.53,.99-2.03,.66-.51,1.53-.76,2.62-.76s1.94,.26,2.6,.79,.99,1.22,1,2.09h-2.73c0-.18-.04-.33-.12-.45-.08-.12-.18-.21-.31-.27s-.29-.09-.46-.09c-.24,0-.43,.06-.57,.17s-.21,.27-.21,.46c0,.08,.02,.16,.05,.22,.03,.06,.09,.12,.17,.17s.15,.09,.21,.12c.06,.03,.17,.06,.31,.09,.14,.03,.25,.05,.34,.07s.21,.04,.39,.07c.22,.04,.37,.07,.46,.09s.24,.05,.46,.1c.22,.05,.38,.1,.49,.13,.1,.04,.25,.1,.43,.18,.18,.08,.32,.17,.42,.25,.09,.08,.21,.19,.34,.32s.23,.27,.29,.42c.06,.15,.12,.32,.16,.53,.05,.2,.07,.42,.07,.65,0,.89-.34,1.6-1.03,2.14-.69,.53-1.59,.8-2.72,.8Z"/>
    <path class="cls-1" d="M362.92,154.63c-1.15,0-2.06-.28-2.72-.83-.67-.55-1-1.3-1.01-2.23h2.81c0,.29,.09,.52,.27,.67,.18,.16,.41,.24,.71,.24,.15,0,.28-.02,.41-.07s.23-.12,.31-.23c.08-.1,.12-.23,.12-.36,0-.16-.07-.29-.21-.39s-.3-.18-.48-.23c-.18-.05-.43-.1-.76-.15-.33-.05-.61-.1-.83-.16-.22-.05-.49-.14-.79-.28-.3-.13-.55-.29-.74-.46s-.35-.42-.49-.72c-.14-.3-.2-.65-.2-1.05,0-.85,.33-1.53,.99-2.03,.66-.51,1.53-.76,2.62-.76s1.94,.26,2.6,.79,.99,1.22,1,2.09h-2.73c0-.18-.04-.33-.12-.45-.08-.12-.18-.21-.31-.27s-.29-.09-.46-.09c-.24,0-.43,.06-.57,.17s-.21,.27-.21,.46c0,.08,.02,.16,.05,.22,.03,.06,.09,.12,.17,.17s.15,.09,.21,.12c.06,.03,.17,.06,.31,.09,.14,.03,.25,.05,.34,.07s.21,.04,.39,.07c.22,.04,.37,.07,.46,.09s.24,.05,.46,.1c.22,.05,.38,.1,.49,.13,.1,.04,.25,.1,.43,.18,.18,.08,.32,.17,.42,.25,.09,.08,.21,.19,.34,.32s.23,.27,.29,.42c.06,.15,.12,.32,.16,.53,.05,.2,.07,.42,.07,.65,0,.89-.34,1.6-1.03,2.14-.69,.53-1.59,.8-2.72,.8Z"/>
    <path class="cls-1" d="M368.03,154.35v-8.48h2.92v8.48h-2.92Zm.02-9.54v-2.46h2.87v2.46h-2.87Z"/>
    <path class="cls-1" d="M379.63,145.86h2.17v8.48h-2.25l-.25-.6c-.73,.6-1.58,.89-2.56,.89-.86,0-1.62-.19-2.3-.58-.67-.39-1.2-.93-1.58-1.62-.38-.69-.57-1.47-.57-2.34,0-1.31,.42-2.38,1.26-3.23,.84-.84,1.9-1.26,3.2-1.26,.98,0,1.85,.3,2.59,.91l.3-.66Zm-3.86,5.63c.36,.37,.81,.55,1.36,.55s1-.18,1.36-.55c.36-.37,.53-.83,.53-1.38s-.18-1.01-.53-1.38c-.36-.37-.81-.55-1.35-.55s-1.01,.18-1.37,.55c-.36,.37-.53,.83-.53,1.38s.18,1.01,.53,1.38Z"/>
  </g>
  <g>
    <path class="cls-1" d="M195.11,61.72c-.08-.28-.28-.51-.54-.64-.05-.02-31.81-14.79-31.86-14.8l-48.24-22.42c-.27-.12-.58-.12-.84,0l-40.34,18.75s0,0,0,0c0,0,0,0,0,0l-39.75,18.48c-.35,.16-.58,.51-.58,.9,0,15.92,0,59.16,0,74.45,0,.39,.23,.75,.58,.91l15.94,7.41s.05,.03,.08,.04c.02,0,32.07,14.9,32.09,14.91l31.89,14.82s.11,.06,.16,.07c0,0,.02,0,.03,0,.03,.01,.06,.02,.1,.03,0,0,.02,0,.03,.01,.14,.02,.28,.03,.42,0,.03-.02,.09-.01,.12-.04,.03-.01,.06-.02,.09-.03,0,0,.01,0,.02,0,6.66-3.1,67.16-31.21,72-33.46,.02,0,8.05-3.76,8.09-3.76,.35-.16,.58-.52,.58-.91-.09-.44,.11-74.35-.04-74.72Zm-86.46,17.97c-.13-.84-.31-1.65-.54-2.44,.08-.02,.16-.03,.24-.04,.18-.04,.37-.06,.56-.08,.08-.01,.17-.01,.25-.02,1.13-.07,2.25,.06,3.36,.38,.46,.13,.93,.29,1.37,.48,.65,.25,1.29,.57,1.9,.93,.08,.04,.15,.08,.22,.13,.43,.25,.83,.5,1.24,.79,.44,.29,.89,.62,1.31,.96,3.94,3.08,7.54,7.64,10.29,11.69l-21.42,9.95c-.35-.33-.83-.53-1.37-.53h-7.06c-.12-.57-.23-1.14-.33-1.7,5.52-2.65,9.21-7.78,10.08-14.06,.08-.58-.09-1.16-.47-1.6s-.93-.69-1.51-.69h-7.06c.17-.36,.37-.72,.58-1.05,.09-.16,.19-.32,.29-.47,.08-.11,.15-.21,.22-.31h5.88c1.2,.03,2.19-1.14,1.97-2.32Zm-8.97,32.13h-2.32v23.98h-8.8v-23.98h-8.66v-7.93h26.16v7.93h-6.37c-.04-.11-.08-.23-.12-.34,.04,.11,.08,.23,.11,.34Zm2.89-31.81h-4.78c-3.17-8.91-15.3-6.16-15.05,3.19-.29,7.25,8.27,11.51,13.3,6.01,.1-.1,.19-.2,.27-.31,.68-.89,1.17-1.9,1.48-3.06h8.98c-.75,5.44-3.77,9.8-8.42,12.28-.32,.15-.62,.31-.95,.45-.04,.02-.08,.04-.13,.06-.27,.12-.54,.22-.82,.33-.04,.01-.08,.02-.13,.04-10.98,3.78-22.98-3.85-22.74-15.8,0-4.8,1.62-8.81,4.86-12.01,8.44-8.55,24.52-5.4,27.76,6.62,.2,.7,.36,1.44,.48,2.2h-4.11Zm-24.18,36.69h-8.89c-3.15-8.91-15.31-6.16-15.04,3.19-.28,9.41,12.51,11.95,15.04,2.64h8.98c-.96,7.8-7.37,13.76-15.07,14.05h-.01c-8.52,.74-16.52-5.17-17.84-13.51-.17-.87-.24-1.78-.26-2.69h0c-.58-20.58,29.54-24.05,33.09-3.68Zm-33.67-49.5h13.82c3.13,.02,5.86,.85,8.11,2.78,.01-.01,.01,0,.01,0,.28,.23,.54,.48,.78,.75,.28,.28,.53,.59,.76,.91,3.69,4.73,2.7,12.91-2.87,15.84l6.34,11.63h-9.8c-.91-1.72-4.35-8.16-5.2-9.76h-3.15v9.76h-8.8v-31.91Zm37.68,90.65l-31.93-14.84s-.05-.03-.08-.04l-15.44-7.17v-20.76l8.4,6.36c.56,11.22,11.42,19.01,22.37,16.93l15.62,11.83s.05,.04,.07,.05l24.57,18.59-23.58-10.95Zm25.22-32.51c-.07-.13-.13-.27-.21-.43-1.31-2.72-2.58-5.48-3.73-8.29-.41-.99-.78-1.92-1.12-2.8h3.5c1.11,0,2-.9,2-2v-7.48l21.89-10.18c.26,.42,.52,.85,.78,1.3,.97,1.66,1.89,3.39,2.75,5.14,.26,.52,.52,1.05,.77,1.58,.03,.06,.06,.13,.09,.2,.72,1.48,1.41,3.04,2.07,4.54,.06,.13,.11,.25,.16,.37,.12,.27,.23,.53,.34,.8,.23,.53,.45,1.04,.66,1.54,.1,.26,.21,.51,.31,.75,.04,.09,.07,.18,.11,.27,.64,1.58,1.23,3.03,1.78,4.54,.34,.86,.53,2.13,1.7,1.79,.52-.19,.8-.75,.62-1.27-3.61-10.74-7.48-26.79-9.29-37.68-.02-.09-.03-.19-.05-.29-.15-.89-.28-1.79-.41-2.69-.35-2.22-.63-4.45-.87-6.69-.04-.31-.07-.62-.1-.92l7.99-3.71c1.73,11.69,4.58,23.25,8.24,34.49,.14,.41,.27,.81,.41,1.22,1.52,4.42,3.17,8.81,5.08,13.09-1.96,.91-41.31,19.21-42.12,19.58-.25-.52-1.05-2.21-1.15-2.39-.32-.62-1.65-3.27-1.99-3.95-.06-.14-.13-.27-.21-.43Zm30.38-78.14c0,4.83,.49,9.65,1.08,14.45l-7.93,3.68c-.02-.19-.04-.39-.05-.58-.24-2.56-.41-5.26-.54-7.82-.05-1.12-.09-2.36-.11-3.49-.01-.13,0-.24-.01-.38-.03-1.6-.03-3.23,0-4.52,0,0,0-.08,0-.14,0-.06,0-.08,0-.12v-.11s7.64-3.53,7.64-3.53c-.06,.85-.09,1.69-.09,2.56Zm-23.49,125.14c-3.89-7.93-6.23-16.79-6.22-25.56-.12-5.52,1.19-8.18,3.02-12.63,7.45-3.47,35.71-16.6,42.61-19.81h0c6.46,14.26,15.82,20.01,29.73,25.86-11.22,5.21-60.04,27.9-69.14,32.13Zm71.59-107.72l-31.23-14.62-13.6-7.1c.44-.8-.48-1.78-1.32-1.35,0,0-10.53,4.9-10.53,4.9l-.13,.06c-.37-.03-3.11-.23-3.54-.26-.36-.02-.73-.04-1.12-.08-4.75-.34-21.6-1.55-26.03-1.87,0,0-.1,0-.1-.01-.81-.05-2.44-.17-3.25-.22h0s0,0,0,0l-.07,.97c0-.24-.03-.75-.03-.99-3.22-.22-7.12-.51-10.36-.74-.24-.01-2.72-.2-3.03-.22-.18-.01-.36-.02-.53-.04h-.03s-.02,0-.04,0l-3.53-.25,36.42-16.93,47.86,22.25s.03,.02,.05,.02l29.81,13.85-5.68,2.64Zm7.05,71.18l-6.05,2.81V66.37l6.05-2.81v72.25Z"/>
    <path class="cls-1" d="M60.36,80.97c1.65-1.43,1.33-4.58-.75-5.51-1.21-.76-4.68-.37-6.09-.46v6.93h4.01c1.19,0,2.13-.32,2.83-.96Z"/>
  </g>
</svg>