<?xml version="1.0" encoding="UTF-8"?>
<svg id="_Вектор" data-name="Вектор" xmlns="http://www.w3.org/2000/svg" viewBox="0 0 935.67 198.43">
  <defs>
    <style>
      .cls-1 {
        fill: #3c3c3b;
      }
    </style>
  </defs>
  <g>
    <path class="cls-1" d="M243.5,64.65h-5.43l-1.54-11.28-5.18,11.31h-1.6l-5.21-11.31-1.51,11.28h-5.46l2.97-19.6h5.38l4.62,10.67,4.65-10.67h5.4l2.91,19.6Z"/>
    <path class="cls-1" d="M251.57,59.98h7.39v4.68h-12.77v-19.6h12.54v4.68h-7.17v2.88h6.44v4.42h-6.44v2.94Z"/>
    <path class="cls-1" d="M288.83,64.65h-6.3l-5.52-8.82v8.82h-5.32v-8.82l-5.52,8.82h-6.3l6.78-10.11-6.13-9.49h6.22l4.96,8.4v-8.4h5.32v8.4l4.96-8.4h6.22l-6.13,9.49,6.78,10.11Z"/>
    <path class="cls-1" d="M307.54,59.7h1.99v8.48h-4.96v-3.53h-10.39v3.53h-4.96v-8.48h1.79c.58-.62,.98-1.7,1.2-3.26s.53-4.9,.92-10.01c.04-.6,.07-1.05,.08-1.37h14.31v14.64Zm-9.49-9.74c-.09,1.81-.21,3.34-.35,4.59-.14,1.25-.32,2.29-.53,3.11-.21,.82-.48,1.5-.8,2.04h5.88v-9.74h-4.2Z"/>
    <path class="cls-1" d="M323.08,45.05h5.82l-5.43,13.16c-.99,2.39-2.13,4.08-3.43,5.07-1.3,.99-3.03,1.48-5.19,1.48h-1.74v-4.93h1.4c.49,0,.91-.04,1.26-.11s.67-.2,.94-.38c.27-.18,.51-.42,.71-.71l-7.11-13.58h6.19l3.72,8.09,2.86-8.09Z"/>
    <path class="cls-1" d="M342.06,45.05h5.46v19.6h-5.46v-7.53h-5.88v7.53h-5.43v-19.6h5.43v7.08h5.88v-7.08Z"/>
    <path class="cls-1" d="M364.29,64.65l-1.09-3.19h-6.94l-1.09,3.19h-5.77l7.7-19.6h5.26l7.87,19.6h-5.94Zm-2.41-7.42l-2.16-6.08-2.16,6.08h4.31Z"/>
    <path class="cls-1" d="M380.48,45.05c2.09,0,3.82,.67,5.19,2,1.37,1.33,2.06,3.03,2.06,5.08s-.69,3.75-2.07,5.1-3.11,2.02-5.18,2.02h-2.94v5.4h-5.4v-19.6h8.34Zm-.64,9.46c.69,0,1.26-.22,1.69-.66s.66-1.01,.66-1.72c0-.45-.1-.85-.29-1.22-.2-.36-.47-.65-.83-.85s-.77-.31-1.23-.31h-2.3v4.76h2.3Z"/>
    <path class="cls-1" d="M399.96,65.16c-3.15,0-5.74-.97-7.77-2.9-2.03-1.93-3.04-4.4-3.04-7.41s1.01-5.47,3.04-7.41,4.62-2.9,7.77-2.9,5.71,.97,7.73,2.9c2.02,1.93,3.02,4.4,3.02,7.41s-1.01,5.47-3.02,7.41c-2.02,1.93-4.59,2.9-7.73,2.9Zm-3.71-6.52c.98,.99,2.22,1.48,3.71,1.48s2.72-.49,3.68-1.48c.96-.99,1.44-2.25,1.44-3.78s-.48-2.79-1.44-3.78c-.96-.99-2.19-1.48-3.68-1.48s-2.73,.5-3.71,1.48c-.98,.99-1.47,2.25-1.47,3.78s.49,2.79,1.47,3.78Z"/>
    <path class="cls-1" d="M430.04,59.7h1.99v8.48h-4.96v-3.53h-10.39v3.53h-4.96v-8.48h1.79c.58-.62,.98-1.7,1.2-3.26s.53-4.9,.92-10.01c.04-.6,.07-1.05,.08-1.37h14.31v14.64Zm-9.49-9.74c-.09,1.81-.21,3.34-.35,4.59-.14,1.25-.32,2.29-.53,3.11-.21,.82-.48,1.5-.8,2.04h5.88v-9.74h-4.2Z"/>
    <path class="cls-1" d="M446.28,45.05h5.46v19.6h-5.46v-7.53h-5.88v7.53h-5.43v-19.6h5.43v7.08h5.88v-7.08Z"/>
    <path class="cls-1" d="M468.51,64.65l-1.09-3.19h-6.94l-1.09,3.19h-5.77l7.7-19.6h5.26l7.87,19.6h-5.94Zm-2.41-7.42l-2.16-6.08-2.16,6.08h4.31Z"/>
    <path class="cls-1" d="M482.54,45.05h8.74v19.6h-5.35v-6.13h-1.82l-3.19,6.13h-6.05l3.89-7.08c-1.08-.54-1.93-1.3-2.53-2.27s-.91-2.08-.91-3.33c0-1.33,.31-2.52,.92-3.57,.62-1.05,1.47-1.88,2.58-2.46s2.34-.88,3.72-.88Zm.78,9.13h2.6v-4.37h-2.6c-.71,0-1.28,.2-1.72,.59s-.66,.92-.66,1.57,.22,1.19,.66,1.6c.44,.41,1.01,.62,1.72,.62Z"/>
    <path class="cls-1" d="M518.54,64.65h-6.41l-5.6-8.65v8.65h-5.4v-19.6h5.4v8.26l5.18-8.26h6.24l-6.27,9.49,6.86,10.11Z"/>
    <path class="cls-1" d="M528.68,65.16c-3.15,0-5.74-.97-7.77-2.9-2.03-1.93-3.04-4.4-3.04-7.41s1.01-5.47,3.04-7.41,4.62-2.9,7.77-2.9,5.71,.97,7.73,2.9c2.02,1.93,3.02,4.4,3.02,7.41s-1.01,5.47-3.02,7.41c-2.02,1.93-4.59,2.9-7.73,2.9Zm-3.71-6.52c.98,.99,2.22,1.48,3.71,1.48s2.72-.49,3.68-1.48c.96-.99,1.44-2.25,1.44-3.78s-.48-2.79-1.44-3.78c-.96-.99-2.19-1.48-3.68-1.48s-2.73,.5-3.71,1.48c-.98,.99-1.47,2.25-1.47,3.78s.49,2.79,1.47,3.78Z"/>
    <path class="cls-1" d="M553.52,45.05h5.46v19.6h-5.46v-7.53h-5.88v7.53h-5.43v-19.6h5.43v7.08h5.88v-7.08Z"/>
    <path class="cls-1" d="M584.79,50.05c.73,1.46,1.09,3.06,1.09,4.79s-.36,3.32-1.09,4.79c-.73,1.47-1.82,2.68-3.26,3.65s-3.13,1.54-5.05,1.71v2.86h-5.32v-2.86c-1.92-.17-3.61-.74-5.05-1.71-1.45-.97-2.54-2.18-3.28-3.64s-1.11-3.04-1.11-4.76,.37-3.31,1.11-4.79,1.83-2.7,3.28-3.67c1.45-.97,3.13-1.54,5.05-1.71v-2.44h5.32v2.44c1.92,.17,3.61,.73,5.05,1.69,1.45,.96,2.53,2.17,3.26,3.64Zm-17.67,4.8c0,1.33,.38,2.5,1.15,3.51,.77,1.02,1.8,1.63,3.11,1.83v-10.67c-.88,.13-1.64,.46-2.3,.99-.65,.53-1.14,1.17-1.47,1.92-.33,.75-.49,1.55-.49,2.41Zm9.13,5.35c1.31-.21,2.34-.82,3.11-1.83,.77-1.02,1.15-2.18,1.15-3.5s-.38-2.48-1.15-3.5c-.77-1.02-1.8-1.63-3.11-1.83v10.67Z"/>
    <path class="cls-1" d="M594.03,59.98h7.39v4.68h-12.77v-19.6h12.54v4.68h-7.17v2.88h6.44v4.42h-6.44v2.94Z"/>
    <path class="cls-1" d="M612.87,45.05c2.09,0,3.82,.67,5.19,2,1.37,1.33,2.06,3.03,2.06,5.08s-.69,3.75-2.07,5.1-3.11,2.02-5.18,2.02h-2.94v5.4h-5.4v-19.6h8.34Zm-.64,9.46c.69,0,1.26-.22,1.69-.66s.66-1.01,.66-1.72c0-.45-.1-.85-.29-1.22-.2-.36-.47-.65-.83-.85s-.77-.31-1.23-.31h-2.3v4.76h2.3Z"/>
    <path class="cls-1" d="M627.97,59.98h7.39v4.68h-12.77v-19.6h12.54v4.68h-7.17v2.88h6.44v4.42h-6.44v2.94Z"/>
    <path class="cls-1" d="M649.78,45.05h5.46v19.6h-5.46v-7.53h-5.88v7.53h-5.43v-19.6h5.43v7.08h5.88v-7.08Z"/>
    <path class="cls-1" d="M675.06,59.7h1.93v8.48h-4.93v-3.53h-13.05v-19.6h5.43v14.64h5.18v-14.64h5.43v14.64Z"/>
    <path class="cls-1" d="M693.04,45.05h4.23v19.6h-5.29v-10.44l-7.81,10.44h-4.17v-19.6h5.29v10.5l7.76-10.5Z"/>
    <path class="cls-1" d="M707.49,45.05h8.74v19.6h-5.35v-6.13h-1.82l-3.19,6.13h-6.05l3.89-7.08c-1.08-.54-1.93-1.3-2.53-2.27s-.91-2.08-.91-3.33c0-1.33,.31-2.52,.92-3.57,.62-1.05,1.47-1.88,2.58-2.46s2.34-.88,3.72-.88Zm.78,9.13h2.6v-4.37h-2.6c-.71,0-1.28,.2-1.72,.59s-.66,.92-.66,1.57,.22,1.19,.66,1.6c.44,.41,1.01,.62,1.72,.62Z"/>
    <path class="cls-1" d="M218.69,70.05h16.41v19.6h-5.49v-14.67h-5.46v14.67h-5.46v-19.6Z"/>
    <path class="cls-1" d="M248.65,90.16c-3.15,0-5.74-.97-7.77-2.9-2.03-1.93-3.04-4.4-3.04-7.41s1.01-5.47,3.04-7.41,4.62-2.9,7.77-2.9,5.71,.97,7.73,2.9c2.02,1.93,3.02,4.4,3.02,7.41s-1.01,5.47-3.02,7.41c-2.02,1.93-4.59,2.9-7.73,2.9Zm-3.71-6.52c.98,.99,2.22,1.48,3.71,1.48s2.72-.49,3.68-1.48c.96-.99,1.44-2.25,1.44-3.78s-.48-2.79-1.44-3.78c-.96-.99-2.19-1.48-3.68-1.48s-2.73,.5-3.71,1.48c-.98,.99-1.47,2.25-1.47,3.78s.49,2.79,1.47,3.78Z"/>
    <path class="cls-1" d="M285.03,89.65h-6.13l-3.22-6.02-3.25,6.02h-6.13l5.88-10.19-5.54-9.41h6.08l2.94,5.54,2.97-5.54h6.02l-5.52,9.49,5.91,10.11Z"/>
    <path class="cls-1" d="M299.89,70.05h4.23v19.6h-5.29v-10.44l-7.81,10.44h-4.17v-19.6h5.29v10.5l7.76-10.5Z"/>
    <path class="cls-1" d="M332.74,89.65h-5.43l-1.54-11.28-5.18,11.31h-1.6l-5.21-11.31-1.51,11.28h-5.46l2.97-19.6h5.38l4.62,10.67,4.65-10.67h5.4l2.91,19.6Z"/>
    <path class="cls-1" d="M348.47,70.05h4.23v19.6h-5.29v-10.44l-7.81,10.44h-4.17v-19.6h5.29v10.5l7.76-10.5Z"/>
    <path class="cls-1" d="M366.11,70.05h5.46v19.6h-5.46v-6.13c-1.01,.28-1.99,.42-2.94,.42-1.44,0-2.71-.29-3.82-.88-1.11-.59-2-1.48-2.67-2.69s-1.01-2.63-1.01-4.27v-6.05h5.49v5.94c0,.65,.11,1.21,.32,1.67,.21,.46,.52,.8,.92,1.04s.88,.35,1.44,.35c.65,0,1.41-.16,2.27-.48v-8.51Z"/>
    <path class="cls-1" d="M380.76,84.98h7.39v4.68h-12.77v-19.6h12.54v4.68h-7.17v2.88h6.44v4.42h-6.44v2.94Z"/>
    <path class="cls-1" d="M400.36,90.16c-2.97,0-5.45-.98-7.43-2.94-1.99-1.96-2.98-4.41-2.98-7.34s.99-5.41,2.98-7.38c1.99-1.97,4.47-2.95,7.43-2.95,2.58,0,4.77,.77,6.59,2.32,1.82,1.55,2.93,3.57,3.32,6.05h-5.46c-.22-.67-.55-1.25-.98-1.75-.43-.49-.94-.88-1.54-1.16-.6-.28-1.23-.42-1.9-.42-1.4,0-2.55,.5-3.46,1.5-.91,1-1.36,2.26-1.36,3.79,0,.99,.21,1.88,.62,2.67,.41,.79,.98,1.41,1.72,1.86,.74,.45,1.56,.67,2.48,.67,.71,0,1.37-.15,1.97-.45,.61-.3,1.12-.72,1.54-1.26,.42-.54,.72-1.17,.91-1.88h5.52c-.37,2.58-1.47,4.66-3.3,6.26-1.83,1.6-4.05,2.39-6.66,2.39Z"/>
    <path class="cls-1" d="M430.35,89.65h-6.41l-5.6-8.65v8.65h-5.4v-19.6h5.4v8.26l5.18-8.26h6.24l-6.27,9.49,6.86,10.11Z"/>
    <path class="cls-1" d="M440.48,90.16c-3.15,0-5.74-.97-7.77-2.9-2.03-1.93-3.04-4.4-3.04-7.41s1.01-5.47,3.04-7.41,4.62-2.9,7.77-2.9,5.71,.97,7.73,2.9c2.02,1.93,3.02,4.4,3.02,7.41s-1.01,5.47-3.02,7.41c-2.02,1.93-4.59,2.9-7.73,2.9Zm-3.71-6.52c.98,.99,2.22,1.48,3.71,1.48s2.72-.49,3.68-1.48c.96-.99,1.44-2.25,1.44-3.78s-.48-2.79-1.44-3.78c-.96-.99-2.19-1.48-3.68-1.48s-2.73,.5-3.71,1.48c-.98,.99-1.47,2.25-1.47,3.78s.49,2.79,1.47,3.78Z"/>
    <path class="cls-1" d="M467.05,70.05h4.23v19.6h-5.29v-10.44l-7.81,10.44h-4.17v-19.6h5.29v10.5l7.76-10.5Zm-8.82-1.9v-3.64h8.99v3.64h-8.99Z"/>
    <path class="cls-1" d="M495.87,70.05v4.87h-5.35v14.73h-5.4v-14.73h-5.32v-4.87h16.07Z"/>
    <path class="cls-1" d="M503.65,84.98h7.39v4.68h-12.77v-19.6h12.54v4.68h-7.17v2.88h6.44v4.42h-6.44v2.94Z"/>
    <path class="cls-1" d="M522.49,70.05c2.09,0,3.82,.67,5.19,2,1.37,1.33,2.06,3.03,2.06,5.08s-.69,3.75-2.07,5.1-3.11,2.02-5.18,2.02h-2.94v5.4h-5.4v-19.6h8.34Zm-.64,9.46c.69,0,1.26-.22,1.69-.66s.66-1.01,.66-1.72c0-.45-.1-.85-.29-1.22-.2-.36-.47-.65-.83-.85s-.77-.31-1.23-.31h-2.3v4.76h2.3Z"/>
    <path class="cls-1" d="M556.65,89.65h-5.43l-1.54-11.28-5.18,11.31h-1.6l-5.21-11.31-1.51,11.28h-5.46l2.97-19.6h5.38l4.62,10.67,4.65-10.67h5.4l2.91,19.6Z"/>
    <path class="cls-1" d="M568.92,90.16c-3.15,0-5.74-.97-7.77-2.9-2.03-1.93-3.04-4.4-3.04-7.41s1.01-5.47,3.04-7.41,4.62-2.9,7.77-2.9,5.71,.97,7.73,2.9c2.02,1.93,3.02,4.4,3.02,7.41s-1.01,5.47-3.02,7.41c-2.02,1.93-4.59,2.9-7.73,2.9Zm-3.71-6.52c.98,.99,2.22,1.48,3.71,1.48s2.72-.49,3.68-1.48c.96-.99,1.44-2.25,1.44-3.78s-.48-2.79-1.44-3.78c-.96-.99-2.19-1.48-3.68-1.48s-2.73,.5-3.71,1.48c-.98,.99-1.47,2.25-1.47,3.78s.49,2.79,1.47,3.78Z"/>
    <path class="cls-1" d="M598.99,84.7h1.99v8.48h-4.96v-3.53h-10.39v3.53h-4.96v-8.48h1.79c.58-.62,.98-1.7,1.2-3.26s.53-4.9,.92-10.01c.04-.6,.07-1.05,.08-1.37h14.31v14.64Zm-9.49-9.74c-.09,1.81-.21,3.34-.35,4.59-.14,1.25-.32,2.29-.53,3.11-.21,.82-.48,1.5-.8,2.04h5.88v-9.74h-4.2Z"/>
    <path class="cls-1" d="M616.97,70.05h4.23v19.6h-5.29v-10.44l-7.81,10.44h-4.17v-19.6h5.29v10.5l7.76-10.5Z"/>
    <path class="cls-1" d="M636.31,70.05h5.46v19.6h-5.46v-7.53h-5.88v7.53h-5.43v-19.6h5.43v7.08h5.88v-7.08Z"/>
    <path class="cls-1" d="M658.55,89.65l-1.09-3.19h-6.94l-1.09,3.19h-5.77l7.7-19.6h5.26l7.87,19.6h-5.94Zm-2.41-7.42l-2.16-6.08-2.16,6.08h4.31Z"/>
    <path class="cls-1" d="M691.19,89.65h-5.43l-1.54-11.28-5.18,11.31h-1.6l-5.21-11.31-1.51,11.28h-5.46l2.97-19.6h5.38l4.62,10.67,4.65-10.67h5.4l2.91,19.6Z"/>
    <path class="cls-1" d="M706.93,70.05h4.23v19.6h-5.29v-10.44l-7.81,10.44h-4.17v-19.6h5.29v10.5l7.76-10.5Z"/>
    <path class="cls-1" d="M732.38,89.65h-6.41l-5.6-8.65v8.65h-5.4v-19.6h5.4v8.26l5.18-8.26h6.24l-6.27,9.49,6.86,10.11Z"/>
    <path class="cls-1" d="M739.3,84.98h7.39v4.68h-12.77v-19.6h12.54v4.68h-7.17v2.88h6.44v4.42h-6.44v2.94Z"/>
    <path class="cls-1" d="M231.07,104.29c.93,.45,1.67,1.09,2.2,1.93,.53,.84,.8,1.79,.8,2.86,0,1.59-.61,2.91-1.82,3.98-1.21,1.06-2.73,1.6-4.54,1.6h-9.02v-19.6h8.85c1.14,0,2.17,.21,3.08,.64,.91,.43,1.63,1.03,2.16,1.79,.52,.77,.78,1.62,.78,2.58,0,.86-.22,1.67-.67,2.42-.45,.76-1.05,1.36-1.82,1.81Zm-2.63-3.33c0-.5-.17-.91-.5-1.23-.34-.32-.78-.48-1.34-.48h-2.72v3.42h2.72c.37,0,.7-.07,.98-.21,.28-.14,.49-.34,.64-.6s.22-.56,.22-.9Zm-1.62,9.27c.58,0,1.04-.17,1.4-.5s.53-.77,.53-1.29-.18-.95-.53-1.29-.82-.5-1.4-.5h-2.94v3.58h2.94Z"/>
    <path class="cls-1" d="M251.34,95.05c2.09,0,3.82,.67,5.19,2,1.37,1.33,2.06,3.03,2.06,5.08s-.69,3.75-2.07,5.1-3.11,2.02-5.18,2.02h-2.94v5.4h-5.4v-19.6h8.34Zm-.64,9.46c.69,0,1.26-.22,1.69-.66s.66-1.01,.66-1.72c0-.45-.1-.85-.29-1.22-.2-.36-.47-.65-.83-.85s-.77-.31-1.23-.31h-2.3v4.76h2.3Z"/>
    <path class="cls-1" d="M270.83,115.16c-3.15,0-5.74-.97-7.77-2.9-2.03-1.93-3.04-4.4-3.04-7.41s1.01-5.47,3.04-7.41,4.62-2.9,7.77-2.9,5.71,.97,7.73,2.9c2.02,1.93,3.02,4.4,3.02,7.41s-1.01,5.47-3.02,7.41c-2.02,1.93-4.59,2.9-7.73,2.9Zm-3.71-6.52c.98,.99,2.22,1.48,3.71,1.48s2.72-.49,3.68-1.48c.96-.99,1.44-2.25,1.44-3.78s-.48-2.79-1.44-3.78c-.96-.99-2.19-1.48-3.68-1.48s-2.73,.5-3.71,1.48c-.98,.99-1.47,2.25-1.47,3.78s.49,2.79,1.47,3.78Z"/>
    <path class="cls-1" d="M293.73,115.16c-2.97,0-5.45-.98-7.43-2.94-1.99-1.96-2.98-4.41-2.98-7.34s.99-5.41,2.98-7.38c1.99-1.97,4.47-2.95,7.43-2.95,2.58,0,4.77,.77,6.59,2.32,1.82,1.55,2.93,3.57,3.32,6.05h-5.46c-.22-.67-.55-1.25-.98-1.75-.43-.49-.94-.88-1.54-1.16-.6-.28-1.23-.42-1.9-.42-1.4,0-2.55,.5-3.46,1.5-.91,1-1.36,2.26-1.36,3.79,0,.99,.21,1.88,.62,2.67,.41,.79,.98,1.41,1.72,1.86,.74,.45,1.56,.67,2.48,.67,.71,0,1.37-.15,1.97-.45,.61-.3,1.12-.72,1.54-1.26,.42-.54,.72-1.17,.91-1.88h5.52c-.37,2.58-1.47,4.66-3.3,6.26-1.83,1.6-4.05,2.39-6.66,2.39Z"/>
    <path class="cls-1" d="M315.69,115.16c-2.97,0-5.45-.98-7.43-2.94-1.99-1.96-2.98-4.41-2.98-7.34s.99-5.41,2.98-7.38c1.99-1.97,4.47-2.95,7.43-2.95,2.58,0,4.77,.77,6.59,2.32,1.82,1.55,2.93,3.57,3.32,6.05h-5.46c-.22-.67-.55-1.25-.98-1.75-.43-.49-.94-.88-1.54-1.16-.6-.28-1.23-.42-1.9-.42-1.4,0-2.55,.5-3.46,1.5-.91,1-1.36,2.26-1.36,3.79,0,.99,.21,1.88,.62,2.67,.41,.79,.98,1.41,1.72,1.86,.74,.45,1.56,.67,2.48,.67,.71,0,1.37-.15,1.97-.45,.61-.3,1.12-.72,1.54-1.26,.42-.54,.72-1.17,.91-1.88h5.52c-.37,2.58-1.47,4.66-3.3,6.26-1.83,1.6-4.05,2.39-6.66,2.39Z"/>
    <path class="cls-1" d="M341.31,95.05h4.23v19.6h-5.29v-10.44l-7.81,10.44h-4.17v-19.6h5.29v10.5l7.76-10.5Z"/>
    <path class="cls-1" d="M362.39,95.05h4.23v19.6h-5.29v-10.44l-7.81,10.44h-4.17v-19.6h5.29v10.5l7.76-10.5Z"/>
    <path class="cls-1" d="M222.08,136.17h2.9v2.48h-7.77v-.63c1.48-1.75,2.52-3.01,3.15-3.79,.62-.78,1.05-1.37,1.28-1.78s.35-.77,.35-1.08c0-.28-.08-.51-.25-.68-.17-.17-.38-.26-.64-.26-.12,0-.24,.01-.34,.04-.1,.03-.19,.07-.26,.13-.07,.06-.14,.13-.19,.21-.05,.08-.09,.17-.13,.28-.03,.11-.05,.23-.05,.35v.2h-2.75v-.2c0-1.06,.33-1.9,.98-2.54,.65-.64,1.55-.96,2.68-.96s2.01,.31,2.71,.93c.7,.62,1.04,1.42,1.04,2.4,0,.67-.18,1.34-.54,2.01-.36,.67-1.08,1.63-2.17,2.89Z"/>
    <path class="cls-1" d="M230.12,127.95c1.22,0,2.22,.36,2.99,1.08,.77,.72,1.15,1.64,1.15,2.77,0,1.06-.4,2.26-1.19,3.6l-1.92,3.26h-3.03c.24-.4,.59-.99,1.06-1.77,.46-.78,.81-1.35,1.03-1.7-.22,.03-.45,.05-.69,.05-1.05,0-1.9-.32-2.56-.95-.66-.63-.99-1.46-.99-2.47,0-.75,.17-1.42,.52-2.01s.83-1.04,1.47-1.37c.63-.33,1.35-.49,2.16-.49Zm0,5.37c.45,0,.82-.14,1.11-.42,.29-.28,.43-.64,.43-1.09,0-.28-.07-.54-.2-.77-.13-.23-.31-.41-.55-.53-.24-.12-.5-.18-.79-.18-.45,0-.82,.14-1.1,.41-.28,.27-.42,.63-.42,1.07s.14,.81,.42,1.09,.65,.42,1.1,.42Z"/>
    <path class="cls-1" d="M245.39,130.18h1.68v8.48h-2.81v-3.8l-3.41,3.8h-1.71v-8.48h2.81v3.77l3.44-3.77Z"/>
    <path class="cls-1" d="M256.98,129.91c1.39,0,2.52,.42,3.4,1.26,.87,.84,1.31,1.92,1.31,3.24s-.44,2.43-1.31,3.26c-.87,.84-2.01,1.26-3.4,1.26-1.1,0-2.04-.29-2.81-.89-.77-.59-1.28-1.38-1.52-2.38h-.83v2.98h-2.89v-8.48h2.89v3h.83c.16-.65,.44-1.22,.84-1.71,.4-.49,.91-.87,1.51-1.15,.6-.27,1.26-.41,1.99-.41Zm0,6.42c.34,0,.66-.08,.93-.25,.28-.17,.49-.4,.65-.68,.16-.29,.24-.62,.24-.98,0-.54-.17-1-.52-1.36-.35-.36-.78-.54-1.3-.54-.26,0-.51,.05-.73,.15s-.42,.23-.58,.4c-.16,.17-.29,.37-.38,.6-.09,.24-.13,.48-.13,.75,0,.55,.17,1.01,.52,1.37,.35,.36,.78,.54,1.3,.54Z"/>
    <path class="cls-1" d="M268.26,130.18h2.9v8.48h-2.9v-2.98h-2.32v2.98h-2.9v-8.48h2.9v2.92h2.32v-2.92Z"/>
    <path class="cls-1" d="M275.72,130.18h4.68v8.48h-2.68v-2.73h-.94l-1.35,2.73h-3.11l1.85-3.23c-.45-.24-.8-.57-1.05-.98s-.38-.88-.38-1.39c0-.84,.28-1.52,.84-2.06s1.27-.81,2.14-.81Zm.79,3.78h1.21v-1.74h-1.21c-.19,0-.35,.04-.49,.11-.14,.07-.25,.18-.31,.31-.07,.13-.1,.29-.1,.46,0,.26,.08,.47,.24,.63,.16,.16,.38,.24,.67,.24Z"/>
    <path class="cls-1" d="M285.58,135.64v-2.65h5.76v2.65h-5.76Z"/>
    <path class="cls-1" d="M301.45,132.05c.75,.19,1.35,.57,1.8,1.15,.45,.58,.67,1.26,.67,2.06,0,1.07-.37,1.94-1.11,2.62-.74,.68-1.68,1.02-2.83,1.02s-2.03-.33-2.74-1c-.71-.66-1.08-1.54-1.11-2.63h2.67c.02,.38,.14,.67,.35,.89,.21,.22,.49,.33,.82,.33,.37,0,.66-.12,.89-.35,.22-.24,.34-.54,.34-.93s-.12-.68-.36-.9c-.24-.22-.57-.33-.97-.33h-1.68v-.58l1.71-2.79h-3.52v-2.39h7.17v.49l-2.1,3.34Z"/>
    <path class="cls-1" d="M315.07,130.18h1.68v8.48h-2.81v-3.8l-3.41,3.8h-1.71v-8.48h2.81v3.77l3.44-3.77Z"/>
    <path class="cls-1" d="M326.66,129.91c1.39,0,2.52,.42,3.4,1.26,.87,.84,1.31,1.92,1.31,3.24s-.44,2.43-1.31,3.26c-.87,.84-2.01,1.26-3.4,1.26-1.1,0-2.04-.29-2.81-.89-.77-.59-1.28-1.38-1.52-2.38h-.83v2.98h-2.89v-8.48h2.89v3h.83c.16-.65,.44-1.22,.84-1.71,.4-.49,.91-.87,1.51-1.15,.6-.27,1.26-.41,1.99-.41Zm0,6.42c.34,0,.66-.08,.93-.25,.28-.17,.49-.4,.65-.68,.16-.29,.24-.62,.24-.98,0-.54-.17-1-.52-1.36-.35-.36-.78-.54-1.3-.54-.26,0-.51,.05-.73,.15s-.42,.23-.58,.4c-.16,.17-.29,.37-.38,.6-.09,.24-.13,.48-.13,.75,0,.55,.17,1.01,.52,1.37,.35,.36,.78,.54,1.3,.54Z"/>
    <path class="cls-1" d="M334.13,130.18h6.61v8.48h-2.87v-6.03h-1.32l-.24,2.4c-.14,1.28-.5,2.21-1.09,2.79-.59,.58-1.44,.87-2.54,.87h-.77v-2.4h.38c.4,0,.7-.1,.9-.31,.2-.21,.33-.55,.38-1.02l.55-4.77Z"/>
    <path class="cls-1" d="M345.29,130.18h4.68v8.48h-2.68v-2.73h-.94l-1.35,2.73h-3.11l1.85-3.23c-.45-.24-.8-.57-1.05-.98s-.38-.88-.38-1.39c0-.84,.28-1.52,.84-2.06s1.27-.81,2.14-.81Zm.79,3.78h1.21v-1.74h-1.21c-.19,0-.35,.04-.49,.11-.14,.07-.25,.18-.31,.31-.07,.13-.1,.29-.1,.46,0,.26,.08,.47,.24,.63,.16,.16,.38,.24,.67,.24Z"/>
    <path class="cls-1" d="M351.82,141.4v-1.44c.41-.04,.72-.18,.93-.42,.21-.24,.32-.53,.32-.89h-1.37v-2.72h2.84v2.48c0,.85-.25,1.54-.75,2.07-.5,.53-1.16,.84-1.99,.91Z"/>
    <path class="cls-1" d="M364.06,136.17h2.9v2.48h-7.77v-.63c1.48-1.75,2.52-3.01,3.15-3.79,.62-.78,1.05-1.37,1.28-1.78s.35-.77,.35-1.08c0-.28-.08-.51-.25-.68-.17-.17-.38-.26-.64-.26-.12,0-.24,.01-.34,.04-.1,.03-.19,.07-.26,.13-.07,.06-.14,.13-.19,.21-.05,.08-.09,.17-.13,.28-.03,.11-.05,.23-.05,.35v.2h-2.75v-.2c0-1.06,.33-1.9,.98-2.54,.65-.64,1.55-.96,2.68-.96s2.01,.31,2.71,.93c.7,.62,1.04,1.42,1.04,2.4,0,.67-.18,1.34-.54,2.01-.36,.67-1.08,1.63-2.17,2.89Z"/>
    <path class="cls-1" d="M372.82,138.94c-.92,0-1.73-.22-2.42-.67-.69-.45-1.22-1.09-1.59-1.92-.37-.83-.56-1.79-.56-2.9,0-1.66,.41-2.99,1.24-3.99,.83-.99,1.94-1.49,3.33-1.49s2.5,.5,3.33,1.49c.83,1,1.24,2.32,1.24,3.99s-.42,3.01-1.25,4-1.94,1.49-3.32,1.49Zm-1.27-3.27c.29,.52,.71,.78,1.26,.78s.97-.26,1.27-.77c.3-.51,.45-1.25,.45-2.21s-.15-1.71-.45-2.23c-.3-.52-.72-.79-1.26-.79s-.98,.26-1.27,.78c-.29,.52-.44,1.26-.44,2.22s.15,1.7,.44,2.22Z"/>
    <path class="cls-1" d="M383.29,136.17h2.9v2.48h-7.77v-.63c1.48-1.75,2.52-3.01,3.15-3.79,.62-.78,1.05-1.37,1.28-1.78s.35-.77,.35-1.08c0-.28-.08-.51-.25-.68-.17-.17-.38-.26-.64-.26-.12,0-.24,.01-.34,.04-.1,.03-.19,.07-.26,.13-.07,.06-.14,.13-.19,.21-.05,.08-.09,.17-.13,.28-.03,.11-.05,.23-.05,.35v.2h-2.75v-.2c0-1.06,.33-1.9,.98-2.54,.65-.64,1.55-.96,2.68-.96s2.01,.31,2.71,.93c.7,.62,1.04,1.42,1.04,2.4,0,.67-.18,1.34-.54,2.01-.36,.67-1.08,1.63-2.17,2.89Z"/>
    <path class="cls-1" d="M392.18,131.61c.68,0,1.29,.14,1.83,.43,.54,.29,.96,.69,1.26,1.22,.3,.52,.45,1.12,.45,1.77,0,.75-.17,1.42-.52,2.01-.34,.59-.83,1.04-1.46,1.37s-1.35,.49-2.15,.49c-1.23,0-2.24-.36-3.01-1.07s-1.15-1.64-1.15-2.78c0-1.07,.4-2.27,1.19-3.59l1.92-3.23h3.01c-.24,.42-.59,1.02-1.06,1.79-.47,.77-.8,1.33-1,1.66,.22-.04,.45-.06,.69-.06Zm-.61,4.9c.43,0,.78-.14,1.05-.41s.41-.63,.41-1.07-.14-.79-.41-1.07-.62-.41-1.05-.41-.77,.14-1.04,.41-.42,.63-.42,1.07c0,.29,.06,.55,.19,.77,.13,.22,.3,.39,.53,.52,.22,.12,.47,.19,.75,.19Z"/>
    <path class="cls-1" d="M220.87,151.73h4.14v2.62h-7.16v-10.99h7.03v2.62h-4.02v1.62h3.61v2.48h-3.61v1.65Z"/>
    <path class="cls-1" d="M235.05,154.35h-3.44l-2.12-3.59v3.59h-2.92v-8.48h2.92v3.33l2.03-3.33h3.26l-2.65,4.05,2.92,4.43Z"/>
    <path class="cls-1" d="M242.27,145.86h2.17v8.48h-2.25l-.25-.6c-.73,.6-1.58,.89-2.56,.89-.86,0-1.62-.19-2.3-.58-.67-.39-1.2-.93-1.58-1.62-.38-.69-.57-1.47-.57-2.34,0-1.31,.42-2.38,1.26-3.23,.84-.84,1.9-1.26,3.2-1.26,.98,0,1.85,.3,2.59,.91l.3-.66Zm-3.86,5.63c.36,.37,.81,.55,1.36,.55s1-.18,1.36-.55c.36-.37,.53-.83,.53-1.38s-.18-1.01-.53-1.38c-.36-.37-.81-.55-1.35-.55s-1.01,.18-1.37,.55c-.36,.37-.53,.83-.53,1.38s.18,1.01,.53,1.38Z"/>
    <path class="cls-1" d="M253.8,145.87v2.53h-2.67v5.95h-2.86v-5.95h-2.68v-2.53h8.21Z"/>
    <path class="cls-1" d="M263.54,150.03c0,.24-.02,.5-.06,.77h-6.29c.09,.48,.29,.85,.59,1.1,.3,.25,.68,.38,1.14,.38,.23,0,.44-.03,.64-.09,.2-.06,.37-.15,.53-.28,.15-.12,.28-.26,.37-.43h2.9c-.29,.97-.84,1.74-1.64,2.31-.8,.57-1.73,.85-2.8,.85-1.32,0-2.42-.43-3.29-1.29s-1.31-1.94-1.31-3.23c0-.86,.2-1.63,.6-2.32,.4-.69,.95-1.23,1.65-1.62,.7-.39,1.49-.58,2.35-.58s1.7,.2,2.41,.59c.71,.39,1.25,.93,1.64,1.6,.39,.67,.58,1.43,.58,2.25Zm-4.63-2.15c-.42,0-.77,.11-1.06,.34-.29,.22-.5,.55-.62,.96h3.44c-.26-.87-.85-1.3-1.76-1.3Z"/>
    <path class="cls-1" d="M269.82,145.59c1.3,0,2.36,.42,3.19,1.27s1.25,1.93,1.25,3.25-.42,2.4-1.25,3.25-1.9,1.27-3.19,1.27c-.75,0-1.44-.19-2.07-.56v3.34h-2.87v-11.54h1.98l.36,.67c.73-.64,1.6-.96,2.61-.96Zm-.39,6.47c.54,0,1-.19,1.36-.56,.36-.37,.54-.83,.54-1.39s-.18-1.02-.54-1.39c-.36-.37-.81-.56-1.36-.56s-1,.19-1.36,.56c-.36,.37-.54,.83-.54,1.39,0,.37,.08,.7,.24,1,.16,.3,.39,.53,.68,.7s.62,.25,.97,.25Z"/>
    <path class="cls-1" d="M281.86,145.87h1.68v8.48h-2.81v-3.8l-3.41,3.8h-1.71v-8.48h2.81v3.77l3.44-3.77Z"/>
    <path class="cls-1" d="M290.62,145.87h2.9v8.48h-2.9v-2.98h-2.32v2.98h-2.9v-8.48h2.9v2.92h2.32v-2.92Z"/>
    <path class="cls-1" d="M300.22,146.23c1.24,0,2.24,.38,3.01,1.14s1.16,1.75,1.16,2.96c0,1.3-.42,2.34-1.27,3.12-.85,.78-1.97,1.18-3.36,1.18-1.49,0-2.65-.47-3.49-1.4-.84-.94-1.26-2.23-1.26-3.87,0-1.21,.18-2.27,.53-3.16,.36-.89,.89-1.62,1.62-2.19,.72-.57,1.63-.99,2.73-1.25l3.14-.77v2.72l-3.14,.77c-1.18,.28-1.89,.82-2.13,1.6,.74-.57,1.56-.85,2.46-.85Zm-.46,5.87c.51,0,.94-.17,1.28-.52s.51-.78,.51-1.3-.17-.96-.51-1.3c-.34-.35-.77-.52-1.28-.52s-.94,.17-1.28,.52c-.34,.34-.51,.78-.51,1.3s.17,.96,.51,1.3,.77,.52,1.28,.52Z"/>
    <path class="cls-1" d="M310.98,145.87h3.14l-3.55,8.1c-.59,1.32-1.19,2.24-1.82,2.75-.63,.52-1.48,.78-2.56,.78h-1v-2.51h.8c.55,0,.95-.09,1.19-.27,.24-.18,.46-.54,.66-1.08l-3.5-7.77h3.17l1.79,4.66,1.68-4.66Z"/>
    <path class="cls-1" d="M319.94,145.59c1.3,0,2.36,.42,3.19,1.27s1.25,1.93,1.25,3.25-.42,2.4-1.25,3.25-1.9,1.27-3.19,1.27c-.75,0-1.44-.19-2.07-.56v3.34h-2.87v-11.54h1.98l.36,.67c.73-.64,1.6-.96,2.61-.96Zm-.39,6.47c.54,0,1-.19,1.36-.56,.36-.37,.54-.83,.54-1.39s-.18-1.02-.54-1.39c-.36-.37-.81-.56-1.36-.56s-1,.19-1.36,.56c-.36,.37-.54,.83-.54,1.39,0,.37,.08,.7,.24,1,.16,.3,.39,.53,.68,.7s.62,.25,.97,.25Z"/>
    <path class="cls-1" d="M331.66,145.87v2.51h-3.08v5.96h-2.86v-8.48h5.93Z"/>
    <path class="cls-1" d="M331.77,157.1v-1.44c.41-.04,.72-.18,.93-.42,.21-.24,.32-.53,.32-.89h-1.37v-2.72h2.84v2.48c0,.85-.25,1.54-.75,2.07-.5,.53-1.16,.84-1.99,.91Z"/>
    <path class="cls-1" d="M344.47,143.36c1.17,0,2.14,.37,2.91,1.12s1.15,1.7,1.15,2.85-.39,2.1-1.16,2.86c-.77,.75-1.74,1.13-2.9,1.13h-1.65v3.03h-3.03v-10.99h4.68Zm-.36,5.31c.39,0,.7-.12,.95-.37,.25-.25,.37-.57,.37-.96,0-.25-.05-.48-.17-.68-.11-.2-.26-.36-.46-.48-.2-.12-.43-.17-.69-.17h-1.29v2.67h1.29Z"/>
    <path class="cls-1" d="M353.99,154.63c-1.38,0-2.52-.43-3.42-1.28-.89-.85-1.34-1.93-1.34-3.24s.45-2.4,1.34-3.25c.9-.85,2.03-1.27,3.42-1.27s2.52,.43,3.41,1.28c.89,.85,1.34,1.93,1.34,3.24s-.45,2.39-1.35,3.24c-.9,.85-2.04,1.28-3.41,1.28Zm-1.32-3.16c.35,.36,.79,.53,1.32,.53s.97-.18,1.31-.53c.34-.36,.51-.81,.51-1.37s-.17-1.01-.51-1.37c-.34-.36-.78-.53-1.31-.53-.36,0-.67,.08-.95,.24s-.49,.39-.65,.67c-.16,.29-.24,.62-.24,.98,0,.55,.17,1.01,.52,1.37Z"/>
    <path class="cls-1" d="M364.28,154.63c-.9,0-1.71-.19-2.42-.58-.71-.39-1.27-.93-1.67-1.62-.4-.69-.6-1.47-.6-2.33s.2-1.64,.6-2.32c.4-.69,.96-1.22,1.67-1.6,.71-.38,1.52-.57,2.42-.57,.79,0,1.5,.16,2.14,.47,.64,.31,1.17,.75,1.58,1.32s.66,1.22,.77,1.96h-2.84c-.12-.34-.34-.62-.64-.82s-.64-.31-1.01-.31c-.51,0-.93,.18-1.26,.53-.33,.35-.49,.8-.49,1.36s.17,1.01,.49,1.37c.33,.36,.75,.53,1.26,.53,.39,0,.73-.11,1.03-.34,.3-.22,.5-.53,.62-.9h2.87c-.17,1.15-.67,2.08-1.49,2.79-.83,.71-1.84,1.07-3.03,1.07Z"/>
    <path class="cls-1" d="M374.27,154.63c-.9,0-1.71-.19-2.42-.58-.71-.39-1.27-.93-1.67-1.62-.4-.69-.6-1.47-.6-2.33s.2-1.64,.6-2.32c.4-.69,.96-1.22,1.67-1.6,.71-.38,1.52-.57,2.42-.57,.79,0,1.5,.16,2.14,.47,.64,.31,1.17,.75,1.58,1.32s.66,1.22,.77,1.96h-2.84c-.12-.34-.34-.62-.64-.82s-.64-.31-1.01-.31c-.51,0-.93,.18-1.26,.53-.33,.35-.49,.8-.49,1.36s.17,1.01,.49,1.37c.33,.36,.75,.53,1.26,.53,.39,0,.73-.11,1.03-.34,.3-.22,.5-.53,.62-.9h2.87c-.17,1.15-.67,2.08-1.49,2.79-.83,.71-1.84,1.07-3.03,1.07Z"/>
    <path class="cls-1" d="M386.31,145.87h1.68v8.48h-2.81v-3.8l-3.41,3.8h-1.71v-8.48h2.81v3.77l3.44-3.77Z"/>
    <path class="cls-1" d="M392.54,145.87h4.68v8.48h-2.68v-2.73h-.94l-1.35,2.73h-3.11l1.85-3.23c-.45-.24-.8-.57-1.05-.98s-.38-.88-.38-1.39c0-.84,.28-1.52,.84-2.06s1.27-.81,2.14-.81Zm.79,3.78h1.21v-1.74h-1.21c-.19,0-.35,.04-.49,.11-.14,.07-.25,.18-.31,.31-.07,.13-.1,.29-.1,.46,0,.26,.08,.47,.24,.63,.16,.16,.38,.24,.67,.24Z"/>
  </g>
  <g>
    <path class="cls-1" d="M195.11,61.72c-.08-.28-.28-.51-.54-.64-.05-.02-31.81-14.79-31.86-14.8l-48.24-22.42c-.27-.12-.58-.12-.84,0l-40.34,18.75s0,0,0,0c0,0,0,0,0,0l-39.75,18.48c-.35,.16-.58,.51-.58,.9,0,15.92,0,59.16,0,74.45,0,.39,.23,.75,.58,.91l15.94,7.41s.05,.03,.08,.04c.02,0,32.07,14.9,32.09,14.91l31.89,14.82s.11,.06,.16,.07c0,0,.02,0,.03,0,.03,.01,.06,.02,.1,.03,0,0,.02,0,.03,.01,.14,.02,.28,.03,.42,0,.03-.02,.09-.01,.12-.04,.03-.01,.06-.02,.09-.03,0,0,.01,0,.02,0,6.66-3.1,67.16-31.21,72-33.46,.02,0,8.05-3.76,8.09-3.76,.35-.16,.58-.52,.58-.91-.09-.44,.11-74.35-.04-74.72Zm-86.46,17.97c-.13-.84-.31-1.65-.54-2.44,.08-.02,.16-.03,.24-.04,.18-.04,.37-.06,.56-.08,.08-.01,.17-.01,.25-.02,1.13-.07,2.25,.06,3.36,.38,.46,.13,.93,.29,1.37,.48,.65,.25,1.29,.57,1.9,.93,.08,.04,.15,.08,.22,.13,.43,.25,.83,.5,1.24,.79,.44,.29,.89,.62,1.31,.96,3.94,3.08,7.54,7.64,10.29,11.69l-21.42,9.95c-.35-.33-.83-.53-1.37-.53h-7.06c-.12-.57-.23-1.14-.33-1.7,5.52-2.65,9.21-7.78,10.08-14.06,.08-.58-.09-1.16-.47-1.6s-.93-.69-1.51-.69h-7.06c.17-.36,.37-.72,.58-1.05,.09-.16,.19-.32,.29-.47,.08-.11,.15-.21,.22-.31h5.88c1.2,.03,2.19-1.14,1.97-2.32Zm-8.97,32.13h-2.32v23.98h-8.8v-23.98h-8.66v-7.93h26.16v7.93h-6.37c-.04-.11-.08-.23-.12-.34,.04,.11,.08,.23,.11,.34Zm2.89-31.81h-4.78c-3.17-8.91-15.3-6.16-15.05,3.19-.29,7.25,8.27,11.51,13.3,6.01,.1-.1,.19-.2,.27-.31,.68-.89,1.17-1.9,1.48-3.06h8.98c-.75,5.44-3.77,9.8-8.42,12.28-.32,.15-.62,.31-.95,.45-.04,.02-.08,.04-.13,.06-.27,.12-.54,.22-.82,.33-.04,.01-.08,.02-.13,.04-10.98,3.78-22.98-3.85-22.74-15.8,0-4.8,1.62-8.81,4.86-12.01,8.44-8.55,24.52-5.4,27.76,6.62,.2,.7,.36,1.44,.48,2.2h-4.11Zm-24.18,36.69h-8.89c-3.15-8.91-15.31-6.16-15.04,3.19-.28,9.41,12.51,11.95,15.04,2.64h8.98c-.96,7.8-7.37,13.76-15.07,14.05h-.01c-8.52,.74-16.52-5.17-17.84-13.51-.17-.87-.24-1.78-.26-2.69h0c-.58-20.58,29.54-24.05,33.09-3.68Zm-33.67-49.5h13.82c3.13,.02,5.86,.85,8.11,2.78,.01-.01,.01,0,.01,0,.28,.23,.54,.48,.78,.75,.28,.28,.53,.59,.76,.91,3.69,4.73,2.7,12.91-2.87,15.84l6.34,11.63h-9.8c-.91-1.72-4.35-8.16-5.2-9.76h-3.15v9.76h-8.8v-31.91Zm37.68,90.65l-31.93-14.84s-.05-.03-.08-.04l-15.44-7.17v-20.76l8.4,6.36c.56,11.22,11.42,19.01,22.37,16.93l15.62,11.83s.05,.04,.07,.05l24.57,18.59-23.58-10.95Zm25.22-32.51c-.07-.13-.13-.27-.21-.43-1.31-2.72-2.58-5.48-3.73-8.29-.41-.99-.78-1.92-1.12-2.8h3.5c1.11,0,2-.9,2-2v-7.48l21.89-10.18c.26,.42,.52,.85,.78,1.3,.97,1.66,1.89,3.39,2.75,5.14,.26,.52,.52,1.05,.77,1.58,.03,.06,.06,.13,.09,.2,.72,1.48,1.41,3.04,2.07,4.54,.06,.13,.11,.25,.16,.37,.12,.27,.23,.53,.34,.8,.23,.53,.45,1.04,.66,1.54,.1,.26,.21,.51,.31,.75,.04,.09,.07,.18,.11,.27,.64,1.58,1.23,3.03,1.78,4.54,.34,.86,.53,2.13,1.7,1.79,.52-.19,.8-.75,.62-1.27-3.61-10.74-7.48-26.79-9.29-37.68-.02-.09-.03-.19-.05-.29-.15-.89-.28-1.79-.41-2.69-.35-2.22-.63-4.45-.87-6.69-.04-.31-.07-.62-.1-.92l7.99-3.71c1.73,11.69,4.58,23.25,8.24,34.49,.14,.41,.27,.81,.41,1.22,1.52,4.42,3.17,8.81,5.08,13.09-1.96,.91-41.31,19.21-42.12,19.58-.25-.52-1.05-2.21-1.15-2.39-.32-.62-1.65-3.27-1.99-3.95-.06-.14-.13-.27-.21-.43Zm30.38-78.14c0,4.83,.49,9.65,1.08,14.45l-7.93,3.68c-.02-.19-.04-.39-.05-.58-.24-2.56-.41-5.26-.54-7.82-.05-1.12-.09-2.36-.11-3.49-.01-.13,0-.24-.01-.38-.03-1.6-.03-3.23,0-4.52,0,0,0-.08,0-.14,0-.06,0-.08,0-.12v-.11s7.64-3.53,7.64-3.53c-.06,.85-.09,1.69-.09,2.56Zm-23.49,125.14c-3.89-7.93-6.23-16.79-6.22-25.56-.12-5.52,1.19-8.18,3.02-12.63,7.45-3.47,35.71-16.6,42.61-19.81h0c6.46,14.26,15.82,20.01,29.73,25.86-11.22,5.21-60.04,27.9-69.14,32.13Zm71.59-107.72l-31.23-14.62-13.6-7.1c.44-.8-.48-1.78-1.32-1.35,0,0-10.53,4.9-10.53,4.9l-.13,.06c-.37-.03-3.11-.23-3.54-.26-.36-.02-.73-.04-1.12-.08-4.75-.34-21.6-1.55-26.03-1.87,0,0-.1,0-.1-.01-.81-.05-2.44-.17-3.25-.22h0s0,0,0,0l-.07,.97c0-.24-.03-.75-.03-.99-3.22-.22-7.12-.51-10.36-.74-.24-.01-2.72-.2-3.03-.22-.18-.01-.36-.02-.53-.04h-.03s-.02,0-.04,0l-3.53-.25,36.42-16.93,47.86,22.25s.03,.02,.05,.02l29.81,13.85-5.68,2.64Zm7.05,71.18l-6.05,2.81V66.37l6.05-2.81v72.25Z"/>
    <path class="cls-1" d="M60.36,80.97c1.65-1.43,1.33-4.58-.75-5.51-1.21-.76-4.68-.37-6.09-.46v6.93h4.01c1.19,0,2.13-.32,2.83-.96Z"/>
  </g>
</svg>