<?xml version="1.0" encoding="UTF-8" standalone="no"?>
<svg
   id="_Вектор"
   data-name="Вектор"
   viewBox="0 0 670.35997 150.88894"
   version="1.1"
   sodipodi:docname="RCCT-logo-large-en.svg"
   width="670.35999"
   height="150.88893"
   inkscape:version="1.4.3 (0d15f75, 2025-12-25)"
   xmlns:inkscape="http://www.inkscape.org/namespaces/inkscape"
   xmlns:sodipodi="http://sodipodi.sourceforge.net/DTD/sodipodi-0.dtd"
   xmlns="http://www.w3.org/2000/svg"
   xmlns:svg="http://www.w3.org/2000/svg">
  <sodipodi:namedview
     id="namedview93"
     pagecolor="#ffffff"
     bordercolor="#000000"
     borderopacity="0.25"
     inkscape:showpageshadow="2"
     inkscape:pageopacity="0.0"
     inkscape:pagecheckerboard="0"
     inkscape:deskcolor="#d1d1d1"
     inkscape:zoom="1.4916695"
     inkscape:cx="390.50206"
     inkscape:cy="151.84329"
     inkscape:window-width="1920"
     inkscape:window-height="1017"
     inkscape:window-x="-8"
     inkscape:window-y="-8"
     inkscape:window-maximized="1"
     inkscape:current-layer="_Вектор" />
  <defs
     id="defs1">
    <style
       id="style1">
      .cls-1 {
        fill: #3c3c3b;
      }
    </style>
  </defs>
  <g
     id="g94"
     transform="translate(-32.96,-23.77)">
    <g
       id="g91">
      <path
         class="cls-1"
         d="m 218.69,64.65 v -19.6 h 5.46 v 19.6 z"
         id="path1" />
      <path
         class="cls-1"
         d="m 240.2,45.05 h 5.24 v 19.6 h -4.45 l -7.78,-10.64 v 10.64 h -5.24 v -19.6 h 4.7 l 7.53,10.28 z"
         id="path2" />
      <path
         class="cls-1"
         d="m 263.94,45.05 v 4.87 h -5.35 v 14.73 h -5.4 V 49.92 h -5.32 v -4.87 z"
         id="path3" />
      <path
         class="cls-1"
         d="m 271.73,59.98 h 7.39 v 4.68 h -12.77 v -19.6 h 12.54 v 4.68 h -7.17 v 2.88 h 6.44 v 4.42 h -6.44 v 2.94 z"
         id="path4" />
      <path
         class="cls-1"
         d="m 292.75,64.65 -3.19,-5.99 h -1.93 v 5.99 h -5.4 v -19.6 h 8.48 c 1.4,0 2.65,0.29 3.75,0.87 1.1,0.58 1.96,1.4 2.59,2.46 0.62,1.06 0.94,2.27 0.94,3.61 0,0.78 -0.12,1.53 -0.36,2.23 -0.24,0.7 -0.6,1.33 -1.06,1.89 -0.47,0.56 -1.03,1.03 -1.68,1.4 l 3.89,7.14 h -6.02 z m -5.12,-14.81 v 4.26 h 2.46 c 0.73,0 1.31,-0.2 1.74,-0.59 0.43,-0.39 0.64,-0.91 0.64,-1.54 0,-0.41 -0.09,-0.77 -0.28,-1.09 -0.19,-0.32 -0.46,-0.57 -0.83,-0.76 -0.36,-0.19 -0.79,-0.28 -1.27,-0.28 z"
         id="path5" />
      <path
         class="cls-1"
         d="m 313.39,45.05 h 5.24 v 19.6 h -4.45 L 306.4,54.01 v 10.64 h -5.24 v -19.6 h 4.7 l 7.53,10.28 z"
         id="path6" />
      <path
         class="cls-1"
         d="m 335.43,64.65 -1.09,-3.19 h -6.94 l -1.09,3.19 h -5.77 l 7.7,-19.6 h 5.26 l 7.87,19.6 z m -2.41,-7.42 -2.16,-6.08 -2.16,6.08 h 4.31 z"
         id="path7" />
      <path
         class="cls-1"
         d="m 355.98,45.05 v 4.87 h -5.35 v 14.73 h -5.4 V 49.92 h -5.32 v -4.87 z"
         id="path8" />
      <path
         class="cls-1"
         d="m 358.38,64.65 v -19.6 h 5.46 v 19.6 z"
         id="path9" />
      <path
         class="cls-1"
         d="m 377.42,65.16 c -3.15,0 -5.74,-0.97 -7.77,-2.9 -2.03,-1.93 -3.04,-4.4 -3.04,-7.41 0,-3.01 1.01,-5.47 3.04,-7.41 2.03,-1.94 4.62,-2.9 7.77,-2.9 3.15,0 5.71,0.97 7.73,2.9 2.02,1.93 3.02,4.4 3.02,7.41 0,3.01 -1.01,5.47 -3.02,7.41 -2.02,1.93 -4.59,2.9 -7.73,2.9 z m -3.71,-6.52 c 0.98,0.99 2.22,1.48 3.71,1.48 1.49,0 2.72,-0.49 3.68,-1.48 0.96,-0.99 1.44,-2.25 1.44,-3.78 0,-1.53 -0.48,-2.79 -1.44,-3.78 -0.96,-0.99 -2.19,-1.48 -3.68,-1.48 -1.49,0 -2.73,0.5 -3.71,1.48 -0.98,0.99 -1.47,2.25 -1.47,3.78 0,1.53 0.49,2.79 1.47,3.78 z"
         id="path10" />
      <path
         class="cls-1"
         d="m 403.18,45.05 h 5.24 v 19.6 h -4.45 l -7.78,-10.64 v 10.64 h -5.24 v -19.6 h 4.7 l 7.53,10.28 z"
         id="path11" />
      <path
         class="cls-1"
         d="m 425.22,64.65 -1.09,-3.19 h -6.94 l -1.09,3.19 h -5.77 l 7.7,-19.6 h 5.26 l 7.87,19.6 z m -2.41,-7.42 -2.16,-6.08 -2.16,6.08 h 4.31 z"
         id="path12" />
      <path
         class="cls-1"
         d="m 438.52,59.7 h 6.97 v 4.96 h -12.43 v -19.6 h 5.46 z"
         id="path13" />
      <path
         class="cls-1"
         d="m 462.63,65.16 c -2.97,0 -5.45,-0.98 -7.43,-2.94 -1.99,-1.96 -2.98,-4.41 -2.98,-7.34 0,-2.93 0.99,-5.41 2.98,-7.38 1.99,-1.97 4.47,-2.95 7.43,-2.95 2.58,0 4.77,0.77 6.59,2.32 1.82,1.55 2.93,3.57 3.32,6.05 h -5.46 c -0.22,-0.67 -0.55,-1.25 -0.98,-1.75 -0.43,-0.49 -0.94,-0.88 -1.54,-1.16 -0.6,-0.28 -1.23,-0.42 -1.9,-0.42 -1.4,0 -2.55,0.5 -3.46,1.5 -0.91,1 -1.36,2.26 -1.36,3.79 0,0.99 0.21,1.88 0.62,2.67 0.41,0.79 0.98,1.41 1.72,1.86 0.74,0.45 1.56,0.67 2.48,0.67 0.71,0 1.37,-0.15 1.97,-0.45 0.61,-0.3 1.12,-0.72 1.54,-1.26 0.42,-0.54 0.72,-1.17 0.91,-1.88 h 5.52 c -0.37,2.58 -1.47,4.66 -3.3,6.26 -1.83,1.6 -4.05,2.39 -6.66,2.39 z"
         id="path14" />
      <path
         class="cls-1"
         d="m 484.97,65.16 c -3.15,0 -5.74,-0.97 -7.77,-2.9 -2.03,-1.93 -3.04,-4.4 -3.04,-7.41 0,-3.01 1.01,-5.47 3.04,-7.41 2.03,-1.94 4.62,-2.9 7.77,-2.9 3.15,0 5.71,0.97 7.73,2.9 2.02,1.93 3.02,4.4 3.02,7.41 0,3.01 -1.01,5.47 -3.02,7.41 -2.02,1.93 -4.59,2.9 -7.73,2.9 z m -3.71,-6.52 c 0.98,0.99 2.22,1.48 3.71,1.48 1.49,0 2.72,-0.49 3.68,-1.48 0.96,-0.99 1.44,-2.25 1.44,-3.78 0,-1.53 -0.48,-2.79 -1.44,-3.78 -0.96,-0.99 -2.19,-1.48 -3.68,-1.48 -1.49,0 -2.73,0.5 -3.71,1.48 -0.98,0.99 -1.47,2.25 -1.47,3.78 0,1.53 0.49,2.79 1.47,3.78 z"
         id="path15" />
      <path
         class="cls-1"
         d="m 510.73,45.05 h 5.24 v 19.6 h -4.45 l -7.78,-10.64 v 10.64 h -5.24 v -19.6 h 4.7 l 7.53,10.28 z"
         id="path16" />
      <path
         class="cls-1"
         d="m 532.24,49.93 h -7.03 v 3.14 h 6.3 v 4.73 h -6.3 v 6.86 h -5.43 v -19.6 h 12.46 z"
         id="path17" />
      <path
         class="cls-1"
         d="m 540.5,59.98 h 7.39 v 4.68 h -12.77 v -19.6 h 12.54 v 4.68 h -7.17 v 2.88 h 6.44 v 4.42 h -6.44 v 2.94 z"
         id="path18" />
      <path
         class="cls-1"
         d="m 561.52,64.65 -3.19,-5.99 h -1.93 v 5.99 H 551 v -19.6 h 8.48 c 1.4,0 2.65,0.29 3.75,0.87 1.1,0.58 1.96,1.4 2.59,2.46 0.62,1.06 0.94,2.27 0.94,3.61 0,0.78 -0.12,1.53 -0.36,2.23 -0.24,0.7 -0.6,1.33 -1.06,1.89 -0.47,0.56 -1.03,1.03 -1.68,1.4 l 3.89,7.14 h -6.02 z M 556.4,49.84 v 4.26 h 2.46 c 0.73,0 1.31,-0.2 1.74,-0.59 0.43,-0.39 0.64,-0.91 0.64,-1.54 0,-0.41 -0.09,-0.77 -0.28,-1.09 -0.19,-0.32 -0.46,-0.57 -0.83,-0.76 -0.36,-0.19 -0.79,-0.28 -1.27,-0.28 z"
         id="path19" />
      <path
         class="cls-1"
         d="m 575.3,59.98 h 7.39 v 4.68 h -12.77 v -19.6 h 12.54 v 4.68 h -7.17 v 2.88 h 6.44 v 4.42 h -6.44 v 2.94 z"
         id="path20" />
      <path
         class="cls-1"
         d="m 598.04,45.05 h 5.24 v 19.6 h -4.45 l -7.78,-10.64 v 10.64 h -5.24 v -19.6 h 4.7 l 7.53,10.28 z"
         id="path21" />
      <path
         class="cls-1"
         d="m 616.46,65.16 c -2.97,0 -5.45,-0.98 -7.43,-2.94 -1.99,-1.96 -2.98,-4.41 -2.98,-7.34 0,-2.93 0.99,-5.41 2.98,-7.38 1.99,-1.97 4.47,-2.95 7.43,-2.95 2.58,0 4.77,0.77 6.59,2.32 1.82,1.55 2.93,3.57 3.32,6.05 h -5.46 c -0.22,-0.67 -0.55,-1.25 -0.98,-1.75 -0.43,-0.49 -0.94,-0.88 -1.54,-1.16 -0.6,-0.28 -1.23,-0.42 -1.9,-0.42 -1.4,0 -2.55,0.5 -3.46,1.5 -0.91,1 -1.36,2.26 -1.36,3.79 0,0.99 0.21,1.88 0.62,2.67 0.41,0.79 0.98,1.41 1.72,1.86 0.74,0.45 1.56,0.67 2.48,0.67 0.71,0 1.37,-0.15 1.97,-0.45 0.61,-0.3 1.12,-0.72 1.54,-1.26 0.42,-0.54 0.72,-1.17 0.91,-1.88 h 5.52 c -0.37,2.58 -1.47,4.66 -3.3,6.26 -1.83,1.6 -4.05,2.39 -6.66,2.39 z"
         id="path22" />
      <path
         class="cls-1"
         d="m 634.41,59.98 h 7.39 v 4.68 h -12.77 v -19.6 h 12.54 v 4.68 h -7.17 v 2.88 h 6.44 v 4.42 h -6.44 v 2.94 z"
         id="path23" />
      <path
         class="cls-1"
         d="m 228.47,90.16 c -3.15,0 -5.74,-0.97 -7.77,-2.9 -2.03,-1.93 -3.04,-4.4 -3.04,-7.41 0,-3.01 1.01,-5.47 3.04,-7.41 2.03,-1.94 4.62,-2.9 7.77,-2.9 3.15,0 5.71,0.97 7.73,2.9 2.02,1.93 3.02,4.4 3.02,7.41 0,3.01 -1.01,5.47 -3.02,7.41 -2.02,1.93 -4.59,2.9 -7.73,2.9 z m -3.71,-6.52 c 0.98,0.99 2.22,1.48 3.71,1.48 1.49,0 2.72,-0.49 3.68,-1.48 0.96,-0.99 1.44,-2.25 1.44,-3.78 0,-1.53 -0.48,-2.79 -1.44,-3.78 -0.96,-0.99 -2.19,-1.48 -3.68,-1.48 -1.49,0 -2.73,0.5 -3.71,1.48 -0.98,0.99 -1.47,2.25 -1.47,3.78 0,1.53 0.49,2.79 1.47,3.78 z"
         id="path24" />
      <path
         class="cls-1"
         d="m 254.23,70.05 h 5.24 v 19.6 h -4.45 L 247.24,79.01 V 89.65 H 242 v -19.6 h 4.7 l 7.53,10.28 z"
         id="path25" />
      <path
         class="cls-1"
         d="m 278.73,90.16 c -2.97,0 -5.45,-0.98 -7.43,-2.94 -1.99,-1.96 -2.98,-4.41 -2.98,-7.34 0,-2.93 0.99,-5.41 2.98,-7.38 1.99,-1.97 4.47,-2.95 7.43,-2.95 2.58,0 4.77,0.77 6.59,2.32 1.82,1.55 2.93,3.57 3.32,6.05 h -5.46 c -0.22,-0.67 -0.55,-1.25 -0.98,-1.75 -0.43,-0.49 -0.94,-0.88 -1.54,-1.16 -0.6,-0.28 -1.23,-0.42 -1.9,-0.42 -1.4,0 -2.55,0.5 -3.46,1.5 -0.91,1 -1.36,2.26 -1.36,3.79 0,0.99 0.21,1.88 0.62,2.67 0.41,0.79 0.98,1.41 1.72,1.86 0.74,0.45 1.56,0.67 2.48,0.67 0.71,0 1.37,-0.15 1.97,-0.45 0.61,-0.3 1.12,-0.72 1.54,-1.26 0.42,-0.54 0.72,-1.17 0.91,-1.88 h 5.52 c -0.37,2.58 -1.47,4.66 -3.3,6.26 -1.83,1.6 -4.05,2.39 -6.66,2.39 z"
         id="path26" />
      <path
         class="cls-1"
         d="m 302.61,70.05 h 5.46 v 19.6 h -5.46 v -7.53 h -5.88 v 7.53 h -5.43 v -19.6 h 5.43 v 7.08 h 5.88 z"
         id="path27" />
      <path
         class="cls-1"
         d="m 317.23,84.98 h 7.39 v 4.68 h -12.77 v -19.6 h 12.54 v 4.68 h -7.17 v 2.88 h 6.44 v 4.42 h -6.44 v 2.94 z"
         id="path28" />
      <path
         class="cls-1"
         d="m 352.53,89.65 h -5.43 l -1.54,-11.28 -5.18,11.31 h -1.6 l -5.21,-11.31 -1.51,11.28 h -5.46 l 2.97,-19.6 h 5.38 l 4.62,10.67 4.65,-10.67 h 5.4 z"
         id="path29" />
      <path
         class="cls-1"
         d="m 355.22,89.65 v -19.6 h 5.46 v 19.6 z"
         id="path30" />
      <path
         class="cls-1"
         d="m 373.87,90.16 c -2.97,0 -5.45,-0.98 -7.43,-2.94 -1.99,-1.96 -2.98,-4.41 -2.98,-7.34 0,-2.93 0.99,-5.41 2.98,-7.38 1.99,-1.97 4.47,-2.95 7.43,-2.95 2.58,0 4.77,0.77 6.59,2.32 1.82,1.55 2.93,3.57 3.32,6.05 h -5.46 c -0.22,-0.67 -0.55,-1.25 -0.98,-1.75 -0.43,-0.49 -0.94,-0.88 -1.54,-1.16 -0.6,-0.28 -1.23,-0.42 -1.9,-0.42 -1.4,0 -2.55,0.5 -3.46,1.5 -0.91,1 -1.36,2.26 -1.36,3.79 0,0.99 0.21,1.88 0.62,2.67 0.41,0.79 0.98,1.41 1.72,1.86 0.74,0.45 1.56,0.67 2.48,0.67 0.71,0 1.37,-0.15 1.97,-0.45 0.61,-0.3 1.12,-0.72 1.54,-1.26 0.42,-0.54 0.72,-1.17 0.91,-1.88 h 5.52 c -0.37,2.58 -1.47,4.66 -3.3,6.26 -1.83,1.6 -4.05,2.39 -6.66,2.39 z"
         id="path31" />
      <path
         class="cls-1"
         d="m 398.65,89.65 -1.09,-3.19 h -6.94 l -1.09,3.19 h -5.77 l 7.7,-19.6 h 5.26 l 7.87,19.6 z m -2.41,-7.42 -2.16,-6.08 -2.16,6.08 h 4.31 z"
         id="path32" />
      <path
         class="cls-1"
         d="m 411.95,84.7 h 6.97 v 4.96 h -12.43 v -19.6 h 5.46 z"
         id="path33" />
      <path
         class="cls-1"
         d="m 440.62,70.05 v 4.87 h -5.35 v 14.73 h -5.4 V 74.92 h -5.32 v -4.87 z"
         id="path34" />
      <path
         class="cls-1"
         d="m 454.34,70.05 h 5.46 v 19.6 h -5.46 v -7.53 h -5.88 v 7.53 h -5.43 v -19.6 h 5.43 v 7.08 h 5.88 z"
         id="path35" />
      <path
         class="cls-1"
         d="m 468.96,84.98 h 7.39 v 4.68 h -12.77 v -19.6 h 12.54 v 4.68 h -7.17 v 2.88 h 6.44 v 4.42 h -6.44 v 2.94 z"
         id="path36" />
      <path
         class="cls-1"
         d="m 489.98,89.65 -3.19,-5.99 h -1.93 v 5.99 h -5.4 v -19.6 h 8.48 c 1.4,0 2.65,0.29 3.75,0.87 1.1,0.58 1.96,1.4 2.59,2.46 0.62,1.06 0.94,2.27 0.94,3.61 0,0.78 -0.12,1.53 -0.36,2.23 -0.24,0.7 -0.6,1.33 -1.06,1.89 -0.47,0.56 -1.03,1.03 -1.68,1.4 l 3.89,7.14 h -6.02 z m -5.12,-14.81 v 4.26 h 2.46 c 0.73,0 1.31,-0.2 1.74,-0.59 0.43,-0.39 0.64,-0.91 0.64,-1.54 0,-0.41 -0.09,-0.77 -0.28,-1.09 -0.19,-0.32 -0.46,-0.57 -0.83,-0.76 -0.36,-0.19 -0.79,-0.28 -1.27,-0.28 z"
         id="path37" />
      <path
         class="cls-1"
         d="m 523.19,89.65 h -5.43 l -1.54,-11.28 -5.18,11.31 h -1.6 l -5.21,-11.31 -1.51,11.28 h -5.46 l 2.97,-19.6 h 5.38 l 4.62,10.67 4.65,-10.67 h 5.4 z"
         id="path38" />
      <path
         class="cls-1"
         d="m 535.46,90.16 c -3.15,0 -5.74,-0.97 -7.77,-2.9 -2.03,-1.93 -3.04,-4.4 -3.04,-7.41 0,-3.01 1.01,-5.47 3.04,-7.41 2.03,-1.94 4.62,-2.9 7.77,-2.9 3.15,0 5.71,0.97 7.73,2.9 2.02,1.93 3.02,4.4 3.02,7.41 0,3.01 -1.01,5.47 -3.02,7.41 -2.02,1.93 -4.59,2.9 -7.73,2.9 z m -3.71,-6.52 c 0.98,0.99 2.22,1.48 3.71,1.48 1.49,0 2.72,-0.49 3.68,-1.48 0.96,-0.99 1.44,-2.25 1.44,-3.78 0,-1.53 -0.48,-2.79 -1.44,-3.78 -0.96,-0.99 -2.19,-1.48 -3.68,-1.48 -1.49,0 -2.73,0.5 -3.71,1.48 -0.98,0.99 -1.47,2.25 -1.47,3.78 0,1.53 0.49,2.79 1.47,3.78 z"
         id="path39" />
      <path
         class="cls-1"
         d="m 556.91,70.05 c 2.97,0 5.39,0.91 7.28,2.74 1.88,1.83 2.83,4.18 2.83,7.04 0,2.86 -0.95,5.22 -2.84,7.06 -1.89,1.84 -4.32,2.76 -7.27,2.76 h -7.92 v -19.6 z m -0.25,14.64 c 1.44,0 2.6,-0.45 3.5,-1.34 0.9,-0.9 1.34,-2.07 1.34,-3.53 0,-1.46 -0.44,-2.6 -1.33,-3.49 C 559.28,75.44 558.11,75 556.66,75 h -2.27 v 9.69 z"
         id="path40" />
      <path
         class="cls-1"
         d="m 585.6,70.05 -6.86,11.93 v 7.67 h -5.49 v -7.67 l -6.8,-11.93 h 5.99 l 3.58,7.08 3.58,-7.08 h 5.99 z"
         id="path41" />
      <path
         class="cls-1"
         d="m 599.94,70.05 h 5.24 v 19.6 h -4.45 l -7.78,-10.64 v 10.64 h -5.24 v -19.6 h 4.7 l 7.53,10.28 z"
         id="path42" />
      <path
         class="cls-1"
         d="m 621.98,89.65 -1.09,-3.19 h -6.94 l -1.09,3.19 h -5.77 l 7.7,-19.6 h 5.26 l 7.87,19.6 z m -2.41,-7.42 -2.16,-6.08 -2.16,6.08 h 4.31 z"
         id="path43" />
      <path
         class="cls-1"
         d="m 654.62,89.65 h -5.43 l -1.54,-11.28 -5.18,11.31 h -1.6 l -5.21,-11.31 -1.51,11.28 h -5.46 l 2.97,-19.6 h 5.38 l 4.62,10.67 4.65,-10.67 h 5.4 z"
         id="path44" />
      <path
         class="cls-1"
         d="m 657.31,89.65 v -19.6 h 5.46 v 19.6 z"
         id="path45" />
      <path
         class="cls-1"
         d="m 675.96,90.16 c -2.97,0 -5.45,-0.98 -7.43,-2.94 -1.99,-1.96 -2.98,-4.41 -2.98,-7.34 0,-2.93 0.99,-5.41 2.98,-7.38 1.99,-1.97 4.47,-2.95 7.43,-2.95 2.58,0 4.77,0.77 6.59,2.32 1.82,1.55 2.93,3.57 3.32,6.05 h -5.46 c -0.22,-0.67 -0.55,-1.25 -0.98,-1.75 -0.43,-0.49 -0.94,-0.88 -1.54,-1.16 -0.6,-0.28 -1.23,-0.42 -1.9,-0.42 -1.4,0 -2.55,0.5 -3.46,1.5 -0.91,1 -1.36,2.26 -1.36,3.79 0,0.99 0.21,1.88 0.62,2.67 0.41,0.79 0.98,1.41 1.72,1.86 0.74,0.45 1.56,0.67 2.48,0.67 0.71,0 1.37,-0.15 1.97,-0.45 0.61,-0.3 1.12,-0.72 1.54,-1.26 0.42,-0.54 0.72,-1.17 0.91,-1.88 h 5.52 c -0.37,2.58 -1.47,4.66 -3.3,6.26 -1.83,1.6 -4.05,2.39 -6.66,2.39 z"
         id="path46" />
      <path
         class="cls-1"
         d="m 695.48,90.13 c -2.43,0 -4.35,-0.6 -5.77,-1.81 -1.42,-1.2 -2.13,-2.87 -2.13,-5 h 5.57 c 0,0.67 0.22,1.19 0.66,1.54 0.44,0.35 0.98,0.53 1.64,0.53 0.6,0 1.12,-0.15 1.55,-0.45 0.44,-0.3 0.66,-0.7 0.66,-1.2 0,-0.17 -0.02,-0.31 -0.06,-0.43 -0.04,-0.12 -0.11,-0.24 -0.21,-0.35 -0.1,-0.11 -0.2,-0.21 -0.29,-0.29 -0.09,-0.08 -0.24,-0.17 -0.43,-0.25 -0.19,-0.08 -0.36,-0.15 -0.49,-0.2 -0.13,-0.05 -0.33,-0.11 -0.6,-0.18 -0.27,-0.07 -0.48,-0.13 -0.62,-0.17 -0.14,-0.04 -0.37,-0.09 -0.69,-0.17 -0.56,-0.15 -0.98,-0.26 -1.26,-0.34 -0.28,-0.07 -0.69,-0.21 -1.23,-0.39 -0.54,-0.19 -0.96,-0.37 -1.26,-0.55 -0.3,-0.18 -0.64,-0.42 -1.04,-0.74 -0.39,-0.32 -0.69,-0.65 -0.9,-1.01 -0.21,-0.35 -0.38,-0.79 -0.53,-1.32 -0.15,-0.53 -0.22,-1.09 -0.22,-1.71 0,-1.9 0.66,-3.39 1.97,-4.47 1.32,-1.07 3.14,-1.61 5.47,-1.61 2.33,0 4.15,0.57 5.45,1.71 1.3,1.14 1.95,2.71 1.95,4.7 h -5.4 c 0,-0.6 -0.2,-1.05 -0.59,-1.36 -0.39,-0.31 -0.88,-0.46 -1.46,-0.46 -0.52,0 -0.97,0.11 -1.34,0.34 -0.37,0.22 -0.56,0.56 -0.56,1.01 0,0.17 0.04,0.33 0.11,0.48 0.07,0.15 0.2,0.29 0.36,0.41 0.16,0.12 0.33,0.22 0.49,0.31 0.16,0.08 0.39,0.18 0.7,0.28 0.31,0.1 0.56,0.18 0.76,0.24 0.2,0.06 0.5,0.13 0.91,0.22 0.56,0.15 0.99,0.27 1.29,0.35 0.3,0.08 0.72,0.22 1.27,0.42 0.55,0.2 0.98,0.39 1.29,0.57 0.31,0.19 0.67,0.44 1.08,0.76 0.41,0.32 0.72,0.66 0.94,1.04 0.21,0.37 0.4,0.82 0.56,1.34 0.16,0.52 0.24,1.09 0.24,1.71 0,2.07 -0.72,3.67 -2.16,4.8 -1.44,1.13 -3.33,1.69 -5.68,1.69 z"
         id="path47" />
      <path
         class="cls-1"
         d="m 218.69,114.65 v -19.6 h 5.46 v 19.6 z"
         id="path48" />
      <path
         class="cls-1"
         d="m 240.2,95.05 h 5.24 v 19.6 h -4.45 l -7.78,-10.64 v 10.64 h -5.24 v -19.6 h 4.7 l 7.53,10.28 z"
         id="path49" />
      <path
         class="cls-1"
         d="m 265.85,114.65 -3.19,-5.99 h -1.93 v 5.99 h -5.4 v -19.6 h 8.48 c 1.4,0 2.65,0.29 3.75,0.87 1.1,0.58 1.96,1.4 2.59,2.46 0.62,1.06 0.94,2.27 0.94,3.61 0,0.78 -0.12,1.53 -0.36,2.23 -0.24,0.7 -0.6,1.33 -1.06,1.89 -0.47,0.56 -1.03,1.03 -1.68,1.4 l 3.89,7.14 h -6.02 z m -5.12,-14.81 v 4.26 h 2.46 c 0.73,0 1.31,-0.2 1.74,-0.59 0.43,-0.39 0.64,-0.91 0.64,-1.54 0,-0.41 -0.09,-0.77 -0.28,-1.09 -0.19,-0.32 -0.46,-0.57 -0.83,-0.76 -0.36,-0.19 -0.79,-0.28 -1.27,-0.28 z"
         id="path50" />
      <path
         class="cls-1"
         d="m 288.73,112.92 c -1.6,1.49 -3.65,2.24 -6.16,2.24 -2.51,0 -4.56,-0.75 -6.16,-2.24 -1.6,-1.49 -2.39,-3.44 -2.39,-5.85 V 95.06 h 5.52 v 11.93 c 0,0.95 0.28,1.71 0.84,2.28 0.56,0.57 1.29,0.85 2.2,0.85 0.91,0 1.64,-0.28 2.2,-0.85 0.56,-0.57 0.84,-1.33 0.84,-2.28 V 95.06 h 5.52 v 12.01 c 0,2.41 -0.8,4.36 -2.39,5.85 z"
         id="path51" />
      <path
         class="cls-1"
         d="m 301.69,115.13 c -2.43,0 -4.35,-0.6 -5.77,-1.81 -1.42,-1.2 -2.13,-2.87 -2.13,-5 h 5.57 c 0,0.67 0.22,1.19 0.66,1.54 0.44,0.35 0.98,0.53 1.64,0.53 0.6,0 1.12,-0.15 1.55,-0.45 0.44,-0.3 0.66,-0.7 0.66,-1.2 0,-0.17 -0.02,-0.31 -0.06,-0.43 -0.04,-0.12 -0.11,-0.24 -0.21,-0.35 -0.1,-0.11 -0.2,-0.21 -0.29,-0.29 -0.09,-0.08 -0.24,-0.17 -0.43,-0.25 -0.19,-0.08 -0.36,-0.15 -0.49,-0.2 -0.13,-0.05 -0.33,-0.11 -0.6,-0.18 -0.27,-0.07 -0.48,-0.13 -0.62,-0.17 -0.14,-0.04 -0.37,-0.09 -0.69,-0.17 -0.56,-0.15 -0.98,-0.26 -1.26,-0.34 -0.28,-0.07 -0.69,-0.21 -1.23,-0.39 -0.54,-0.19 -0.96,-0.37 -1.26,-0.55 -0.3,-0.18 -0.64,-0.42 -1.04,-0.74 -0.39,-0.32 -0.69,-0.65 -0.9,-1.01 -0.21,-0.35 -0.38,-0.79 -0.53,-1.32 -0.15,-0.53 -0.22,-1.09 -0.22,-1.71 0,-1.9 0.66,-3.39 1.97,-4.47 1.32,-1.07 3.14,-1.61 5.47,-1.61 2.33,0 4.15,0.57 5.45,1.71 1.3,1.14 1.95,2.71 1.95,4.7 h -5.4 c 0,-0.6 -0.2,-1.05 -0.59,-1.36 -0.39,-0.31 -0.88,-0.46 -1.46,-0.46 -0.52,0 -0.97,0.11 -1.34,0.34 -0.37,0.22 -0.56,0.56 -0.56,1.01 0,0.17 0.04,0.33 0.11,0.48 0.07,0.15 0.2,0.29 0.36,0.41 0.16,0.12 0.33,0.22 0.49,0.31 0.16,0.08 0.39,0.18 0.7,0.28 0.31,0.1 0.56,0.18 0.76,0.24 0.2,0.06 0.5,0.13 0.91,0.22 0.56,0.15 0.99,0.27 1.29,0.35 0.3,0.08 0.72,0.22 1.27,0.42 0.55,0.2 0.98,0.39 1.29,0.57 0.31,0.19 0.67,0.44 1.08,0.76 0.41,0.32 0.72,0.66 0.94,1.04 0.21,0.37 0.4,0.82 0.56,1.34 0.16,0.52 0.24,1.09 0.24,1.71 0,2.07 -0.72,3.67 -2.16,4.8 -1.44,1.13 -3.33,1.69 -5.68,1.69 z"
         id="path52" />
      <path
         class="cls-1"
         d="m 319.3,115.13 c -2.43,0 -4.35,-0.6 -5.77,-1.81 -1.42,-1.2 -2.13,-2.87 -2.13,-5 h 5.57 c 0,0.67 0.22,1.19 0.66,1.54 0.44,0.35 0.98,0.53 1.64,0.53 0.6,0 1.12,-0.15 1.55,-0.45 0.44,-0.3 0.66,-0.7 0.66,-1.2 0,-0.17 -0.02,-0.31 -0.06,-0.43 -0.04,-0.12 -0.11,-0.24 -0.21,-0.35 -0.1,-0.11 -0.2,-0.21 -0.29,-0.29 -0.09,-0.08 -0.24,-0.17 -0.43,-0.25 -0.19,-0.08 -0.36,-0.15 -0.49,-0.2 -0.13,-0.05 -0.33,-0.11 -0.6,-0.18 -0.27,-0.07 -0.48,-0.13 -0.62,-0.17 -0.14,-0.04 -0.37,-0.09 -0.69,-0.17 -0.56,-0.15 -0.98,-0.26 -1.26,-0.34 -0.28,-0.07 -0.69,-0.21 -1.23,-0.39 -0.54,-0.19 -0.96,-0.37 -1.26,-0.55 -0.3,-0.18 -0.64,-0.42 -1.04,-0.74 -0.39,-0.32 -0.69,-0.65 -0.9,-1.01 -0.21,-0.35 -0.38,-0.79 -0.53,-1.32 -0.15,-0.53 -0.22,-1.09 -0.22,-1.71 0,-1.9 0.66,-3.39 1.97,-4.47 1.32,-1.07 3.14,-1.61 5.47,-1.61 2.33,0 4.15,0.57 5.45,1.71 1.3,1.14 1.95,2.71 1.95,4.7 h -5.4 c 0,-0.6 -0.2,-1.05 -0.59,-1.36 -0.39,-0.31 -0.88,-0.46 -1.46,-0.46 -0.52,0 -0.97,0.11 -1.34,0.34 -0.37,0.22 -0.56,0.56 -0.56,1.01 0,0.17 0.04,0.33 0.11,0.48 0.07,0.15 0.2,0.29 0.36,0.41 0.16,0.12 0.33,0.22 0.49,0.31 0.16,0.08 0.39,0.18 0.7,0.28 0.31,0.1 0.56,0.18 0.76,0.24 0.2,0.06 0.5,0.13 0.91,0.22 0.56,0.15 0.99,0.27 1.29,0.35 0.3,0.08 0.72,0.22 1.27,0.42 0.55,0.2 0.98,0.39 1.29,0.57 0.31,0.19 0.67,0.44 1.08,0.76 0.41,0.32 0.72,0.66 0.94,1.04 0.21,0.37 0.4,0.82 0.56,1.34 0.16,0.52 0.24,1.09 0.24,1.71 0,2.07 -0.72,3.67 -2.16,4.8 -1.44,1.13 -3.33,1.69 -5.68,1.69 z"
         id="path53" />
      <path
         class="cls-1"
         d="m 329.97,114.65 v -19.6 h 5.46 v 19.6 z"
         id="path54" />
      <path
         class="cls-1"
         d="m 352.23,114.65 -1.09,-3.19 h -6.94 l -1.09,3.19 h -5.77 l 7.7,-19.6 h 5.26 l 7.87,19.6 z m -2.41,-7.42 -2.16,-6.08 -2.16,6.08 h 4.31 z"
         id="path55" />
      <path
         class="cls-1"
         d="m 221.33,138.94 c -1.27,0 -2.3,-0.38 -3.09,-1.13 -0.8,-0.75 -1.19,-1.73 -1.19,-2.92 v -0.44 h 3.05 v 0.28 c 0,0.42 0.11,0.75 0.34,1 0.23,0.25 0.53,0.38 0.9,0.38 0.37,0 0.66,-0.13 0.89,-0.38 0.22,-0.25 0.34,-0.59 0.34,-1 v -7.06 h 3.05 v 7.22 c 0,1.19 -0.39,2.17 -1.18,2.92 -0.79,0.75 -1.82,1.13 -3.09,1.13 z"
         id="path56" />
      <path
         class="cls-1"
         d="m 231.42,138.94 c -1.26,0 -2.27,-0.36 -3.03,-1.08 -0.76,-0.72 -1.15,-1.67 -1.15,-2.85 v -4.83 h 2.92 v 4.71 c 0,0.45 0.11,0.8 0.33,1.05 0.22,0.25 0.53,0.38 0.92,0.38 0.39,0 0.7,-0.13 0.93,-0.38 0.22,-0.26 0.34,-0.6 0.34,-1.04 v -4.71 h 2.92 v 4.83 c 0,0.78 -0.17,1.47 -0.52,2.06 -0.35,0.59 -0.83,1.05 -1.47,1.37 -0.64,0.32 -1.36,0.49 -2.19,0.49 z"
         id="path57" />
      <path
         class="cls-1"
         d="m 242.44,129.93 c 0.98,0 1.77,0.32 2.36,0.97 0.59,0.65 0.89,1.51 0.89,2.59 v 5.17 h -2.92 v -4.77 c 0,-0.98 -0.37,-1.48 -1.1,-1.48 -0.3,0 -0.56,0.07 -0.78,0.2 -0.21,0.14 -0.38,0.33 -0.49,0.59 -0.11,0.26 -0.17,0.57 -0.17,0.93 v 4.52 h -2.92 v -8.48 h 2.04 l 0.41,0.88 c 0.67,-0.75 1.56,-1.13 2.67,-1.13 z"
         id="path58" />
      <path
         class="cls-1"
         d="m 256.17,134.34 c 0,0.24 -0.02,0.5 -0.06,0.77 h -6.29 c 0.09,0.48 0.29,0.85 0.59,1.1 0.3,0.25 0.68,0.38 1.14,0.38 0.23,0 0.44,-0.03 0.64,-0.09 0.2,-0.06 0.37,-0.15 0.53,-0.28 0.15,-0.12 0.28,-0.26 0.37,-0.43 h 2.9 c -0.29,0.97 -0.84,1.74 -1.64,2.31 -0.8,0.57 -1.73,0.85 -2.8,0.85 -1.32,0 -2.42,-0.43 -3.29,-1.29 -0.87,-0.86 -1.31,-1.94 -1.31,-3.23 0,-0.86 0.2,-1.63 0.6,-2.32 0.4,-0.69 0.95,-1.23 1.65,-1.62 0.7,-0.39 1.49,-0.58 2.35,-0.58 0.86,0 1.7,0.2 2.41,0.59 0.71,0.39 1.25,0.93 1.64,1.6 0.39,0.67 0.58,1.43 0.58,2.25 z m -4.63,-2.15 c -0.42,0 -0.77,0.11 -1.06,0.34 -0.29,0.22 -0.5,0.55 -0.62,0.96 h 3.44 c -0.26,-0.87 -0.85,-1.3 -1.76,-1.3 z"
         id="path59" />
      <path
         class="cls-1"
         d="m 265.28,136.17 h 2.9 v 2.48 h -7.77 v -0.63 c 1.48,-1.75 2.52,-3.01 3.15,-3.79 0.62,-0.78 1.05,-1.37 1.28,-1.78 0.23,-0.41 0.35,-0.77 0.35,-1.08 0,-0.28 -0.08,-0.51 -0.25,-0.68 -0.17,-0.17 -0.38,-0.26 -0.64,-0.26 -0.12,0 -0.24,0.01 -0.34,0.04 -0.1,0.03 -0.19,0.07 -0.26,0.13 -0.07,0.06 -0.14,0.13 -0.19,0.21 -0.05,0.08 -0.09,0.17 -0.13,0.28 -0.03,0.11 -0.05,0.23 -0.05,0.35 v 0.2 h -2.75 v -0.2 c 0,-1.06 0.33,-1.9 0.98,-2.54 0.65,-0.64 1.55,-0.96 2.68,-0.96 1.13,0 2.01,0.31 2.71,0.93 0.7,0.62 1.04,1.42 1.04,2.4 0,0.67 -0.18,1.34 -0.54,2.01 -0.36,0.67 -1.08,1.63 -2.17,2.89 z"
         id="path60" />
      <path
         class="cls-1"
         d="m 273.32,127.95 c 1.22,0 2.22,0.36 2.99,1.08 0.77,0.72 1.15,1.64 1.15,2.77 0,1.06 -0.4,2.26 -1.19,3.6 l -1.92,3.26 h -3.03 c 0.24,-0.4 0.59,-0.99 1.06,-1.77 0.46,-0.78 0.81,-1.35 1.03,-1.7 -0.22,0.03 -0.45,0.05 -0.69,0.05 -1.05,0 -1.9,-0.32 -2.56,-0.95 -0.66,-0.63 -0.99,-1.46 -0.99,-2.47 0,-0.75 0.17,-1.42 0.52,-2.01 0.35,-0.59 0.83,-1.04 1.47,-1.37 0.63,-0.33 1.35,-0.49 2.16,-0.49 z m 0,5.37 c 0.45,0 0.82,-0.14 1.11,-0.42 0.29,-0.28 0.43,-0.64 0.43,-1.09 0,-0.28 -0.07,-0.54 -0.2,-0.77 -0.13,-0.23 -0.31,-0.41 -0.55,-0.53 -0.24,-0.12 -0.5,-0.18 -0.79,-0.18 -0.45,0 -0.82,0.14 -1.1,0.41 -0.28,0.27 -0.42,0.63 -0.42,1.07 0,0.44 0.14,0.81 0.42,1.09 0.28,0.28 0.65,0.42 1.1,0.42 z"
         id="path61" />
      <path
         class="cls-1"
         d="m 282.26,135.64 v -2.65 h 5.76 v 2.65 z"
         id="path62" />
      <path
         class="cls-1"
         d="m 296.41,138.94 c -1.27,0 -2.3,-0.38 -3.09,-1.13 -0.8,-0.75 -1.19,-1.73 -1.19,-2.92 v -0.44 h 3.05 v 0.28 c 0,0.42 0.11,0.75 0.34,1 0.23,0.25 0.53,0.38 0.9,0.38 0.37,0 0.66,-0.13 0.89,-0.38 0.22,-0.25 0.34,-0.59 0.34,-1 v -7.06 h 3.05 v 7.22 c 0,1.19 -0.39,2.17 -1.18,2.92 -0.79,0.75 -1.82,1.13 -3.09,1.13 z"
         id="path63" />
      <path
         class="cls-1"
         d="m 306.5,138.94 c -1.26,0 -2.27,-0.36 -3.03,-1.08 -0.76,-0.72 -1.15,-1.67 -1.15,-2.85 v -4.83 h 2.92 v 4.71 c 0,0.45 0.11,0.8 0.33,1.05 0.22,0.25 0.53,0.38 0.92,0.38 0.39,0 0.7,-0.13 0.93,-0.38 0.22,-0.26 0.34,-0.6 0.34,-1.04 v -4.71 h 2.92 v 4.83 c 0,0.78 -0.17,1.47 -0.52,2.06 -0.35,0.59 -0.83,1.05 -1.47,1.37 -0.64,0.32 -1.36,0.49 -2.19,0.49 z"
         id="path64" />
      <path
         class="cls-1"
         d="m 312.4,138.65 v -11.54 h 2.92 v 11.54 z"
         id="path65" />
      <path
         class="cls-1"
         d="m 322.87,130.18 h 3.14 l -3.55,8.1 c -0.59,1.32 -1.19,2.24 -1.82,2.75 -0.63,0.52 -1.48,0.78 -2.56,0.78 h -1 v -2.51 h 0.8 c 0.55,0 0.95,-0.09 1.19,-0.27 0.24,-0.18 0.46,-0.54 0.66,-1.08 l -3.5,-7.77 h 3.17 l 1.79,4.66 z"
         id="path66" />
      <path
         class="cls-1"
         d="m 334.88,132.05 c 0.75,0.19 1.35,0.57 1.8,1.15 0.45,0.58 0.67,1.26 0.67,2.06 0,1.07 -0.37,1.94 -1.11,2.62 -0.74,0.68 -1.68,1.02 -2.83,1.02 -1.15,0 -2.03,-0.33 -2.74,-1 -0.71,-0.66 -1.08,-1.54 -1.11,-2.63 h 2.67 c 0.02,0.38 0.14,0.67 0.35,0.89 0.21,0.22 0.49,0.33 0.82,0.33 0.37,0 0.66,-0.12 0.89,-0.35 0.22,-0.24 0.34,-0.54 0.34,-0.93 0,-0.39 -0.12,-0.68 -0.36,-0.9 -0.24,-0.22 -0.57,-0.33 -0.97,-0.33 h -1.68 v -0.58 l 1.71,-2.79 h -3.52 v -2.39 h 7.17 v 0.49 z"
         id="path67" />
      <path
         class="cls-1"
         d="m 338.85,141.4 v -1.44 c 0.41,-0.04 0.72,-0.18 0.93,-0.42 0.21,-0.24 0.32,-0.53 0.32,-0.89 h -1.37 v -2.72 h 2.84 v 2.48 c 0,0.85 -0.25,1.54 -0.75,2.07 -0.5,0.53 -1.16,0.84 -1.99,0.91 z"
         id="path68" />
      <path
         class="cls-1"
         d="m 351.1,136.17 h 2.9 v 2.48 h -7.77 v -0.63 c 1.48,-1.75 2.52,-3.01 3.15,-3.79 0.62,-0.78 1.05,-1.37 1.28,-1.78 0.23,-0.41 0.35,-0.77 0.35,-1.08 0,-0.28 -0.08,-0.51 -0.25,-0.68 -0.17,-0.17 -0.38,-0.26 -0.64,-0.26 -0.12,0 -0.24,0.01 -0.34,0.04 -0.1,0.03 -0.19,0.07 -0.26,0.13 -0.07,0.06 -0.14,0.13 -0.19,0.21 -0.05,0.08 -0.09,0.17 -0.13,0.28 -0.03,0.11 -0.05,0.23 -0.05,0.35 v 0.2 h -2.75 v -0.2 c 0,-1.06 0.33,-1.9 0.98,-2.54 0.65,-0.64 1.55,-0.96 2.68,-0.96 1.13,0 2.01,0.31 2.71,0.93 0.7,0.62 1.04,1.42 1.04,2.4 0,0.67 -0.18,1.34 -0.54,2.01 -0.36,0.67 -1.08,1.63 -2.17,2.89 z"
         id="path69" />
      <path
         class="cls-1"
         d="m 359.86,138.94 c -0.92,0 -1.73,-0.22 -2.42,-0.67 -0.69,-0.45 -1.22,-1.09 -1.59,-1.92 -0.37,-0.83 -0.56,-1.79 -0.56,-2.9 0,-1.66 0.41,-2.99 1.24,-3.99 0.83,-0.99 1.94,-1.49 3.33,-1.49 1.39,0 2.5,0.5 3.33,1.49 0.83,1 1.24,2.32 1.24,3.99 0,1.67 -0.42,3.01 -1.25,4 -0.83,0.99 -1.94,1.49 -3.32,1.49 z m -1.27,-3.27 c 0.29,0.52 0.71,0.78 1.26,0.78 0.55,0 0.97,-0.26 1.27,-0.77 0.3,-0.51 0.45,-1.25 0.45,-2.21 0,-0.96 -0.15,-1.71 -0.45,-2.23 -0.3,-0.52 -0.72,-0.79 -1.26,-0.79 -0.54,0 -0.98,0.26 -1.27,0.78 -0.29,0.52 -0.44,1.26 -0.44,2.22 0,0.96 0.15,1.7 0.44,2.22 z"
         id="path70" />
      <path
         class="cls-1"
         d="m 370.33,136.17 h 2.9 v 2.48 h -7.77 v -0.63 c 1.48,-1.75 2.52,-3.01 3.15,-3.79 0.62,-0.78 1.05,-1.37 1.28,-1.78 0.23,-0.41 0.35,-0.77 0.35,-1.08 0,-0.28 -0.08,-0.51 -0.25,-0.68 -0.17,-0.17 -0.38,-0.26 -0.64,-0.26 -0.12,0 -0.24,0.01 -0.34,0.04 -0.1,0.03 -0.19,0.07 -0.26,0.13 -0.07,0.06 -0.14,0.13 -0.19,0.21 -0.05,0.08 -0.09,0.17 -0.13,0.28 -0.03,0.11 -0.05,0.23 -0.05,0.35 v 0.2 h -2.75 v -0.2 c 0,-1.06 0.33,-1.9 0.98,-2.54 0.65,-0.64 1.55,-0.96 2.68,-0.96 1.13,0 2.01,0.31 2.71,0.93 0.7,0.62 1.04,1.42 1.04,2.4 0,0.67 -0.18,1.34 -0.54,2.01 -0.36,0.67 -1.08,1.63 -2.17,2.89 z"
         id="path71" />
      <path
         class="cls-1"
         d="m 379.21,131.61 c 0.68,0 1.29,0.14 1.83,0.43 0.54,0.29 0.96,0.69 1.26,1.22 0.3,0.52 0.45,1.12 0.45,1.77 0,0.75 -0.17,1.42 -0.52,2.01 -0.34,0.59 -0.83,1.04 -1.46,1.37 -0.63,0.33 -1.35,0.49 -2.15,0.49 -1.23,0 -2.24,-0.36 -3.01,-1.07 -0.77,-0.71 -1.15,-1.64 -1.15,-2.78 0,-1.07 0.4,-2.27 1.19,-3.59 l 1.92,-3.23 h 3.01 c -0.24,0.42 -0.59,1.02 -1.06,1.79 -0.47,0.77 -0.8,1.33 -1,1.66 0.22,-0.04 0.45,-0.06 0.69,-0.06 z m -0.61,4.9 c 0.43,0 0.78,-0.14 1.05,-0.41 0.27,-0.27 0.41,-0.63 0.41,-1.07 0,-0.44 -0.14,-0.79 -0.41,-1.07 -0.27,-0.28 -0.62,-0.41 -1.05,-0.41 -0.43,0 -0.77,0.14 -1.04,0.41 -0.27,0.27 -0.42,0.63 -0.42,1.07 0,0.29 0.06,0.55 0.19,0.77 0.13,0.22 0.3,0.39 0.53,0.52 0.22,0.12 0.47,0.19 0.75,0.19 z"
         id="path72" />
      <path
         class="cls-1"
         d="m 220.87,151.73 h 4.14 v 2.62 h -7.16 v -10.99 h 7.03 v 2.62 h -4.02 v 1.62 h 3.61 v 2.48 h -3.61 v 1.65 z"
         id="path73" />
      <path
         class="cls-1"
         d="m 235.22,154.35 h -3.44 l -2.12,-3.58 v 3.58 h -2.92 v -11.54 h 2.92 v 6.39 l 2.01,-3.33 h 3.28 l -2.64,4.03 2.9,4.44 z"
         id="path74" />
      <path
         class="cls-1"
         d="m 242.44,145.86 h 2.17 v 8.48 h -2.25 l -0.25,-0.6 c -0.73,0.6 -1.58,0.89 -2.56,0.89 -0.86,0 -1.62,-0.19 -2.3,-0.58 -0.67,-0.39 -1.2,-0.93 -1.58,-1.62 -0.38,-0.69 -0.57,-1.47 -0.57,-2.34 0,-1.31 0.42,-2.38 1.26,-3.23 0.84,-0.84 1.9,-1.26 3.2,-1.26 0.98,0 1.85,0.3 2.59,0.91 l 0.3,-0.66 z m -3.86,5.63 c 0.36,0.37 0.81,0.55 1.36,0.55 0.55,0 1,-0.18 1.36,-0.55 0.36,-0.37 0.53,-0.83 0.53,-1.38 0,-0.55 -0.18,-1.01 -0.53,-1.38 -0.36,-0.37 -0.81,-0.55 -1.35,-0.55 -0.54,0 -1.01,0.18 -1.37,0.55 -0.36,0.37 -0.53,0.83 -0.53,1.38 0,0.55 0.18,1.01 0.53,1.38 z"
         id="path75" />
      <path
         class="cls-1"
         d="m 251.04,151.79 h 1.13 v 2.56 h -2.01 c -0.94,0 -1.68,-0.27 -2.21,-0.81 -0.53,-0.54 -0.8,-1.28 -0.8,-2.22 v -3.2 h -1.55 v -0.67 l 3.8,-4.05 h 0.6 v 2.48 h 2.13 v 2.24 h -2.06 v 2.7 c 0,0.3 0.09,0.54 0.26,0.71 0.17,0.17 0.41,0.26 0.71,0.26 z"
         id="path76" />
      <path
         class="cls-1"
         d="m 262.19,150.03 c 0,0.24 -0.02,0.5 -0.06,0.77 h -6.29 c 0.09,0.48 0.29,0.85 0.59,1.1 0.3,0.25 0.68,0.38 1.14,0.38 0.23,0 0.44,-0.03 0.64,-0.09 0.2,-0.06 0.37,-0.15 0.53,-0.28 0.15,-0.12 0.28,-0.26 0.37,-0.43 h 2.9 c -0.29,0.97 -0.84,1.74 -1.64,2.31 -0.8,0.57 -1.73,0.85 -2.8,0.85 -1.32,0 -2.42,-0.43 -3.29,-1.29 -0.87,-0.86 -1.31,-1.94 -1.31,-3.23 0,-0.86 0.2,-1.63 0.6,-2.32 0.4,-0.69 0.95,-1.23 1.65,-1.62 0.7,-0.39 1.49,-0.58 2.35,-0.58 0.86,0 1.7,0.2 2.41,0.59 0.71,0.39 1.25,0.93 1.64,1.6 0.39,0.67 0.58,1.43 0.58,2.25 z m -4.63,-2.15 c -0.42,0 -0.77,0.11 -1.06,0.34 -0.29,0.22 -0.5,0.55 -0.62,0.96 h 3.44 c -0.26,-0.87 -0.85,-1.3 -1.76,-1.3 z"
         id="path77" />
      <path
         class="cls-1"
         d="m 268.26,145.83 h 0.77 v 2.68 h -1.13 c -0.51,0 -0.88,0.12 -1.11,0.36 -0.23,0.24 -0.35,0.63 -0.35,1.16 v 4.32 h -2.92 v -8.48 h 1.95 l 0.46,0.94 c 0.56,-0.66 1.34,-0.99 2.34,-0.99 z"
         id="path78" />
      <path
         class="cls-1"
         d="m 270.14,154.35 v -8.48 h 2.92 v 8.48 z m 0.02,-9.54 v -2.46 h 2.87 v 2.46 z"
         id="path79" />
      <path
         class="cls-1"
         d="m 280.02,145.62 c 0.98,0 1.77,0.32 2.36,0.97 0.59,0.65 0.89,1.51 0.89,2.59 v 5.17 h -2.92 v -4.77 c 0,-0.98 -0.37,-1.48 -1.1,-1.48 -0.3,0 -0.56,0.07 -0.78,0.2 -0.21,0.14 -0.38,0.33 -0.49,0.59 -0.11,0.26 -0.17,0.57 -0.17,0.93 v 4.52 h -2.92 v -8.48 h 2.04 l 0.41,0.88 c 0.67,-0.75 1.56,-1.13 2.67,-1.13 z"
         id="path80" />
      <path
         class="cls-1"
         d="m 290.02,145.61 c 1.3,0 2.36,0.42 3.19,1.26 0.83,0.84 1.25,1.92 1.25,3.24 0,1.32 -0.42,2.4 -1.25,3.25 -0.83,0.85 -1.9,1.27 -3.19,1.27 -0.98,0 -1.84,-0.3 -2.56,-0.91 l -0.28,0.63 h -2.15 v -11.54 h 2.87 v 3.38 c 0.64,-0.39 1.34,-0.58 2.12,-0.58 z m -0.39,6.44 c 0.54,0 1,-0.18 1.36,-0.55 0.36,-0.37 0.54,-0.83 0.54,-1.38 0,-0.55 -0.18,-1.01 -0.54,-1.38 -0.36,-0.37 -0.81,-0.55 -1.36,-0.55 -0.55,0 -1,0.18 -1.36,0.55 -0.36,0.37 -0.54,0.83 -0.54,1.38 0,0.37 0.08,0.7 0.24,0.99 0.16,0.29 0.39,0.52 0.68,0.69 0.29,0.17 0.61,0.25 0.98,0.25 z"
         id="path81" />
      <path
         class="cls-1"
         d="m 299.88,154.63 c -1.26,0 -2.27,-0.36 -3.03,-1.08 -0.76,-0.72 -1.15,-1.67 -1.15,-2.85 v -4.83 h 2.92 v 4.71 c 0,0.45 0.11,0.8 0.33,1.05 0.22,0.25 0.53,0.38 0.92,0.38 0.39,0 0.7,-0.13 0.93,-0.38 0.22,-0.26 0.34,-0.6 0.34,-1.04 v -4.71 h 2.92 v 4.83 c 0,0.78 -0.17,1.47 -0.52,2.06 -0.35,0.59 -0.83,1.05 -1.47,1.37 -0.64,0.32 -1.36,0.49 -2.19,0.49 z"
         id="path82" />
      <path
         class="cls-1"
         d="m 310.52,145.83 h 0.77 v 2.68 h -1.13 c -0.51,0 -0.88,0.12 -1.11,0.36 -0.23,0.24 -0.35,0.63 -0.35,1.16 v 4.32 h -2.92 v -8.48 h 1.95 l 0.46,0.94 c 0.56,-0.66 1.34,-0.99 2.34,-0.99 z"
         id="path83" />
      <path
         class="cls-1"
         d="m 319.07,145.87 h 1.98 v 7.54 c 0,1.33 -0.41,2.38 -1.22,3.16 -0.82,0.77 -1.92,1.16 -3.31,1.16 -0.81,0 -1.52,-0.13 -2.15,-0.38 -0.63,-0.25 -1.14,-0.63 -1.54,-1.11 -0.4,-0.48 -0.67,-1.06 -0.8,-1.72 h 2.83 c 0.09,0.27 0.29,0.48 0.6,0.64 0.31,0.15 0.65,0.23 1.03,0.23 0.5,0 0.92,-0.15 1.26,-0.45 0.33,-0.3 0.5,-0.69 0.5,-1.19 v -0.25 c -0.67,0.43 -1.41,0.64 -2.21,0.64 -1.21,0 -2.22,-0.41 -3.03,-1.22 -0.81,-0.81 -1.21,-1.83 -1.21,-3.05 0,-1.22 0.41,-2.21 1.22,-3.03 0.81,-0.82 1.82,-1.22 3.02,-1.22 1.01,0 1.91,0.32 2.68,0.97 l 0.36,-0.71 z m -2.56,5.86 c 0.52,0 0.96,-0.18 1.3,-0.53 0.34,-0.35 0.51,-0.8 0.51,-1.34 0,-0.54 -0.17,-0.97 -0.51,-1.32 -0.34,-0.34 -0.77,-0.52 -1.3,-0.52 -0.53,0 -0.96,0.17 -1.29,0.52 -0.34,0.35 -0.51,0.79 -0.51,1.32 0,0.53 0.17,0.99 0.51,1.34 0.34,0.35 0.77,0.53 1.29,0.53 z"
         id="path84" />
      <path
         class="cls-1"
         d="m 322.9,157.1 v -1.44 c 0.41,-0.04 0.72,-0.18 0.93,-0.42 0.21,-0.24 0.32,-0.53 0.32,-0.89 h -1.37 v -2.72 h 2.84 v 2.48 c 0,0.85 -0.25,1.54 -0.75,2.07 -0.5,0.53 -1.16,0.84 -1.99,0.91 z"
         id="path85" />
      <path
         class="cls-1"
         d="m 336.83,154.35 -1.79,-3.36 h -1.08 v 3.36 h -3.03 v -10.99 h 4.76 c 0.78,0 1.49,0.16 2.1,0.49 0.62,0.32 1.1,0.79 1.45,1.38 0.35,0.59 0.53,1.27 0.53,2.02 0,0.44 -0.07,0.86 -0.2,1.25 -0.13,0.39 -0.33,0.75 -0.6,1.06 -0.26,0.31 -0.58,0.58 -0.94,0.79 l 2.18,4 z m -2.87,-8.3 v 2.39 h 1.38 c 0.41,0 0.73,-0.11 0.97,-0.33 0.24,-0.22 0.36,-0.51 0.36,-0.86 0,-0.23 -0.05,-0.43 -0.16,-0.61 -0.11,-0.18 -0.26,-0.32 -0.46,-0.42 -0.2,-0.1 -0.44,-0.16 -0.71,-0.16 h -1.38 z"
         id="path86" />
      <path
         class="cls-1"
         d="m 345.37,154.63 c -1.26,0 -2.27,-0.36 -3.03,-1.08 -0.76,-0.72 -1.15,-1.67 -1.15,-2.85 v -4.83 h 2.92 v 4.71 c 0,0.45 0.11,0.8 0.33,1.05 0.22,0.25 0.53,0.38 0.92,0.38 0.39,0 0.7,-0.13 0.93,-0.38 0.22,-0.26 0.34,-0.6 0.34,-1.04 v -4.71 h 2.92 v 4.83 c 0,0.78 -0.17,1.47 -0.52,2.06 -0.35,0.59 -0.83,1.05 -1.47,1.37 -0.64,0.32 -1.36,0.49 -2.19,0.49 z"
         id="path87" />
      <path
         class="cls-1"
         d="m 354.53,154.63 c -1.15,0 -2.06,-0.28 -2.72,-0.83 -0.67,-0.55 -1,-1.3 -1.01,-2.23 h 2.81 c 0,0.29 0.09,0.52 0.27,0.67 0.18,0.16 0.41,0.24 0.71,0.24 0.15,0 0.28,-0.02 0.41,-0.07 0.13,-0.05 0.23,-0.12 0.31,-0.23 0.08,-0.1 0.12,-0.23 0.12,-0.36 0,-0.16 -0.07,-0.29 -0.21,-0.39 -0.14,-0.1 -0.3,-0.18 -0.48,-0.23 -0.18,-0.05 -0.43,-0.1 -0.76,-0.15 -0.33,-0.05 -0.61,-0.1 -0.83,-0.16 -0.22,-0.05 -0.49,-0.14 -0.79,-0.28 -0.3,-0.13 -0.55,-0.29 -0.74,-0.46 -0.19,-0.17 -0.35,-0.42 -0.49,-0.72 -0.14,-0.3 -0.2,-0.65 -0.2,-1.05 0,-0.85 0.33,-1.53 0.99,-2.03 0.66,-0.51 1.53,-0.76 2.62,-0.76 1.09,0 1.94,0.26 2.6,0.79 0.66,0.53 0.99,1.22 1,2.09 h -2.73 c 0,-0.18 -0.04,-0.33 -0.12,-0.45 -0.08,-0.12 -0.18,-0.21 -0.31,-0.27 -0.13,-0.06 -0.29,-0.09 -0.46,-0.09 -0.24,0 -0.43,0.06 -0.57,0.17 -0.14,0.11 -0.21,0.27 -0.21,0.46 0,0.08 0.02,0.16 0.05,0.22 0.03,0.06 0.09,0.12 0.17,0.17 0.08,0.05 0.15,0.09 0.21,0.12 0.06,0.03 0.17,0.06 0.31,0.09 0.14,0.03 0.25,0.05 0.34,0.07 0.09,0.02 0.21,0.04 0.39,0.07 0.22,0.04 0.37,0.07 0.46,0.09 0.09,0.02 0.24,0.05 0.46,0.1 0.22,0.05 0.38,0.1 0.49,0.13 0.1,0.04 0.25,0.1 0.43,0.18 0.18,0.08 0.32,0.17 0.42,0.25 0.09,0.08 0.21,0.19 0.34,0.32 0.13,0.13 0.23,0.27 0.29,0.42 0.06,0.15 0.12,0.32 0.16,0.53 0.05,0.2 0.07,0.42 0.07,0.65 0,0.89 -0.34,1.6 -1.03,2.14 -0.69,0.53 -1.59,0.8 -2.72,0.8 z"
         id="path88" />
      <path
         class="cls-1"
         d="m 362.92,154.63 c -1.15,0 -2.06,-0.28 -2.72,-0.83 -0.67,-0.55 -1,-1.3 -1.01,-2.23 H 362 c 0,0.29 0.09,0.52 0.27,0.67 0.18,0.16 0.41,0.24 0.71,0.24 0.15,0 0.28,-0.02 0.41,-0.07 0.13,-0.05 0.23,-0.12 0.31,-0.23 0.08,-0.1 0.12,-0.23 0.12,-0.36 0,-0.16 -0.07,-0.29 -0.21,-0.39 -0.14,-0.1 -0.3,-0.18 -0.48,-0.23 -0.18,-0.05 -0.43,-0.1 -0.76,-0.15 -0.33,-0.05 -0.61,-0.1 -0.83,-0.16 -0.22,-0.05 -0.49,-0.14 -0.79,-0.28 -0.3,-0.13 -0.55,-0.29 -0.74,-0.46 -0.19,-0.17 -0.35,-0.42 -0.49,-0.72 -0.14,-0.3 -0.2,-0.65 -0.2,-1.05 0,-0.85 0.33,-1.53 0.99,-2.03 0.66,-0.51 1.53,-0.76 2.62,-0.76 1.09,0 1.94,0.26 2.6,0.79 0.66,0.53 0.99,1.22 1,2.09 h -2.73 c 0,-0.18 -0.04,-0.33 -0.12,-0.45 -0.08,-0.12 -0.18,-0.21 -0.31,-0.27 -0.13,-0.06 -0.29,-0.09 -0.46,-0.09 -0.24,0 -0.43,0.06 -0.57,0.17 -0.14,0.11 -0.21,0.27 -0.21,0.46 0,0.08 0.02,0.16 0.05,0.22 0.03,0.06 0.09,0.12 0.17,0.17 0.08,0.05 0.15,0.09 0.21,0.12 0.06,0.03 0.17,0.06 0.31,0.09 0.14,0.03 0.25,0.05 0.34,0.07 0.09,0.02 0.21,0.04 0.39,0.07 0.22,0.04 0.37,0.07 0.46,0.09 0.09,0.02 0.24,0.05 0.46,0.1 0.22,0.05 0.38,0.1 0.49,0.13 0.1,0.04 0.25,0.1 0.43,0.18 0.18,0.08 0.32,0.17 0.42,0.25 0.09,0.08 0.21,0.19 0.34,0.32 0.13,0.13 0.23,0.27 0.29,0.42 0.06,0.15 0.12,0.32 0.16,0.53 0.05,0.2 0.07,0.42 0.07,0.65 0,0.89 -0.34,1.6 -1.03,2.14 -0.69,0.53 -1.59,0.8 -2.72,0.8 z"
         id="path89" />
      <path
         class="cls-1"
         d="m 368.03,154.35 v -8.48 h 2.92 v 8.48 z m 0.02,-9.54 v -2.46 h 2.87 v 2.46 z"
         id="path90" />
      <path
         class="cls-1"
         d="m 379.63,145.86 h 2.17 v 8.48 h -2.25 l -0.25,-0.6 c -0.73,0.6 -1.58,0.89 -2.56,0.89 -0.86,0 -1.62,-0.19 -2.3,-0.58 -0.67,-0.39 -1.2,-0.93 -1.58,-1.62 -0.38,-0.69 -0.57,-1.47 -0.57,-2.34 0,-1.31 0.42,-2.38 1.26,-3.23 0.84,-0.84 1.9,-1.26 3.2,-1.26 0.98,0 1.85,0.3 2.59,0.91 l 0.3,-0.66 z m -3.86,5.63 c 0.36,0.37 0.81,0.55 1.36,0.55 0.55,0 1,-0.18 1.36,-0.55 0.36,-0.37 0.53,-0.83 0.53,-1.38 0,-0.55 -0.18,-1.01 -0.53,-1.38 -0.36,-0.37 -0.81,-0.55 -1.35,-0.55 -0.54,0 -1.01,0.18 -1.37,0.55 -0.36,0.37 -0.53,0.83 -0.53,1.38 0,0.55 0.18,1.01 0.53,1.38 z"
         id="path91" />
    </g>
    <g
       id="g93">
      <path
         class="cls-1"
         d="m 195.11,61.72 c -0.08,-0.28 -0.28,-0.51 -0.54,-0.64 -0.05,-0.02 -31.81,-14.79 -31.86,-14.8 L 114.47,23.86 c -0.27,-0.12 -0.58,-0.12 -0.84,0 L 73.29,42.61 c 0,0 0,0 0,0 0,0 0,0 0,0 L 33.54,61.09 c -0.35,0.16 -0.58,0.51 -0.58,0.9 0,15.92 0,59.16 0,74.45 0,0.39 0.23,0.75 0.58,0.91 l 15.94,7.41 c 0,0 0.05,0.03 0.08,0.04 0.02,0 32.07,14.9 32.09,14.91 l 31.89,14.82 c 0,0 0.11,0.06 0.16,0.07 0,0 0.02,0 0.03,0 0.03,0.01 0.06,0.02 0.1,0.03 0,0 0.02,0 0.03,0.01 0.14,0.02 0.28,0.03 0.42,0 0.03,-0.02 0.09,-0.01 0.12,-0.04 0.03,-0.01 0.06,-0.02 0.09,-0.03 0,0 0.01,0 0.02,0 6.66,-3.1 67.16,-31.21 72,-33.46 0.02,0 8.05,-3.76 8.09,-3.76 0.35,-0.16 0.58,-0.52 0.58,-0.91 -0.09,-0.44 0.11,-74.35 -0.04,-74.72 z m -86.46,17.97 c -0.13,-0.84 -0.31,-1.65 -0.54,-2.44 0.08,-0.02 0.16,-0.03 0.24,-0.04 0.18,-0.04 0.37,-0.06 0.56,-0.08 0.08,-0.01 0.17,-0.01 0.25,-0.02 1.13,-0.07 2.25,0.06 3.36,0.38 0.46,0.13 0.93,0.29 1.37,0.48 0.65,0.25 1.29,0.57 1.9,0.93 0.08,0.04 0.15,0.08 0.22,0.13 0.43,0.25 0.83,0.5 1.24,0.79 0.44,0.29 0.89,0.62 1.31,0.96 3.94,3.08 7.54,7.64 10.29,11.69 l -21.42,9.95 c -0.35,-0.33 -0.83,-0.53 -1.37,-0.53 H 99 c -0.12,-0.57 -0.23,-1.14 -0.33,-1.7 5.52,-2.65 9.21,-7.78 10.08,-14.06 0.08,-0.58 -0.09,-1.16 -0.47,-1.6 -0.38,-0.44 -0.93,-0.69 -1.51,-0.69 h -7.06 c 0.17,-0.36 0.37,-0.72 0.58,-1.05 0.09,-0.16 0.19,-0.32 0.29,-0.47 0.08,-0.11 0.15,-0.21 0.22,-0.31 h 5.88 c 1.2,0.03 2.19,-1.14 1.97,-2.32 z m -8.97,32.13 h -2.32 v 23.98 h -8.8 V 111.82 H 79.9 v -7.93 h 26.16 v 7.93 h -6.37 c -0.04,-0.11 -0.08,-0.23 -0.12,-0.34 0.04,0.11 0.08,0.23 0.11,0.34 z m 2.89,-31.81 h -4.78 c -3.17,-8.91 -15.3,-6.16 -15.05,3.19 -0.29,7.25 8.27,11.51 13.3,6.01 0.1,-0.1 0.19,-0.2 0.27,-0.31 0.68,-0.89 1.17,-1.9 1.48,-3.06 h 8.98 c -0.75,5.44 -3.77,9.8 -8.42,12.28 -0.32,0.15 -0.62,0.31 -0.95,0.45 -0.04,0.02 -0.08,0.04 -0.13,0.06 -0.27,0.12 -0.54,0.22 -0.82,0.33 -0.04,0.01 -0.08,0.02 -0.13,0.04 -10.98,3.78 -22.98,-3.85 -22.74,-15.8 0,-4.8 1.62,-8.81 4.86,-12.01 8.44,-8.55 24.52,-5.4 27.76,6.62 0.2,0.7 0.36,1.44 0.48,2.2 z M 78.39,116.7 H 69.5 c -3.15,-8.91 -15.31,-6.16 -15.04,3.19 -0.28,9.41 12.51,11.95 15.04,2.64 h 8.98 c -0.96,7.8 -7.37,13.76 -15.07,14.05 H 63.4 c -8.52,0.74 -16.52,-5.17 -17.84,-13.51 -0.17,-0.87 -0.24,-1.78 -0.26,-2.69 v 0 C 44.72,99.8 74.84,96.33 78.39,116.7 Z M 44.72,67.2 h 13.82 c 3.13,0.02 5.86,0.85 8.11,2.78 0.01,-0.01 0.01,0 0.01,0 0.28,0.23 0.54,0.48 0.78,0.75 0.28,0.28 0.53,0.59 0.76,0.91 3.69,4.73 2.7,12.91 -2.87,15.84 l 6.34,11.63 h -9.8 c -0.91,-1.72 -4.35,-8.16 -5.2,-9.76 h -3.15 v 9.76 h -8.8 z M 82.4,157.85 50.47,143.01 c 0,0 -0.05,-0.03 -0.08,-0.04 L 34.95,135.8 v -20.76 l 8.4,6.36 c 0.56,11.22 11.42,19.01 22.37,16.93 l 15.62,11.83 c 0,0 0.05,0.04 0.07,0.05 l 24.57,18.59 z m 25.22,-32.51 c -0.07,-0.13 -0.13,-0.27 -0.21,-0.43 -1.31,-2.72 -2.58,-5.48 -3.73,-8.29 -0.41,-0.99 -0.78,-1.92 -1.12,-2.8 h 3.5 c 1.11,0 2,-0.9 2,-2 v -7.48 l 21.89,-10.18 c 0.26,0.42 0.52,0.85 0.78,1.3 0.97,1.66 1.89,3.39 2.75,5.14 0.26,0.52 0.52,1.05 0.77,1.58 0.03,0.06 0.06,0.13 0.09,0.2 0.72,1.48 1.41,3.04 2.07,4.54 0.06,0.13 0.11,0.25 0.16,0.37 0.12,0.27 0.23,0.53 0.34,0.8 0.23,0.53 0.45,1.04 0.66,1.54 0.1,0.26 0.21,0.51 0.31,0.75 0.04,0.09 0.07,0.18 0.11,0.27 0.64,1.58 1.23,3.03 1.78,4.54 0.34,0.86 0.53,2.13 1.7,1.79 0.52,-0.19 0.8,-0.75 0.62,-1.27 -3.61,-10.74 -7.48,-26.79 -9.29,-37.68 -0.02,-0.09 -0.03,-0.19 -0.05,-0.29 -0.15,-0.89 -0.28,-1.79 -0.41,-2.69 -0.35,-2.22 -0.63,-4.45 -0.87,-6.69 -0.04,-0.31 -0.07,-0.62 -0.1,-0.92 l 7.99,-3.71 c 1.73,11.69 4.58,23.25 8.24,34.49 0.14,0.41 0.27,0.81 0.41,1.22 1.52,4.42 3.17,8.81 5.08,13.09 -1.96,0.91 -41.31,19.21 -42.12,19.58 -0.25,-0.52 -1.05,-2.21 -1.15,-2.39 -0.32,-0.62 -1.65,-3.27 -1.99,-3.95 -0.06,-0.14 -0.13,-0.27 -0.21,-0.43 z M 138,47.2 c 0,4.83 0.49,9.65 1.08,14.45 l -7.93,3.68 c -0.02,-0.19 -0.04,-0.39 -0.05,-0.58 -0.24,-2.56 -0.41,-5.26 -0.54,-7.82 -0.05,-1.12 -0.09,-2.36 -0.11,-3.49 -0.01,-0.13 0,-0.24 -0.01,-0.38 -0.03,-1.6 -0.03,-3.23 0,-4.52 0,0 0,-0.08 0,-0.14 0,-0.06 0,-0.08 0,-0.12 v -0.11 c 0,0 7.64,-3.53 7.64,-3.53 -0.06,0.85 -0.09,1.69 -0.09,2.56 z m -23.49,125.14 c -3.89,-7.93 -6.23,-16.79 -6.22,-25.56 -0.12,-5.52 1.19,-8.18 3.02,-12.63 7.45,-3.47 35.71,-16.6 42.61,-19.81 v 0 c 6.46,14.26 15.82,20.01 29.73,25.86 -11.22,5.21 -60.04,27.9 -69.14,32.13 z M 186.1,64.62 154.87,50 141.27,42.9 c 0.44,-0.8 -0.48,-1.78 -1.32,-1.35 0,0 -10.53,4.9 -10.53,4.9 l -0.13,0.06 c -0.37,-0.03 -3.11,-0.23 -3.54,-0.26 -0.36,-0.02 -0.73,-0.04 -1.12,-0.08 -4.75,-0.34 -21.6,-1.55 -26.03,-1.87 0,0 -0.1,0 -0.1,-0.01 -0.81,-0.05 -2.44,-0.17 -3.25,-0.22 v 0 c 0,0 0,0 0,0 l -0.07,0.97 c 0,-0.24 -0.03,-0.75 -0.03,-0.99 C 91.93,43.83 88.03,43.54 84.79,43.31 84.55,43.3 82.07,43.11 81.76,43.09 81.58,43.08 81.4,43.07 81.23,43.05 H 81.2 c 0,0 -0.02,0 -0.04,0 l -3.53,-0.25 36.42,-16.93 47.86,22.25 c 0,0 0.03,0.02 0.05,0.02 l 29.81,13.85 -5.68,2.64 z m 7.05,71.18 -6.05,2.81 V 66.37 l 6.05,-2.81 v 72.25 z"
         id="path92" />
      <path
         class="cls-1"
         d="M 60.36,80.97 C 62.01,79.54 61.69,76.39 59.61,75.46 58.4,74.7 54.93,75.09 53.52,75 v 6.93 h 4.01 c 1.19,0 2.13,-0.32 2.83,-0.96 z"
         id="path93" />
    </g>
  </g>
</svg>
