<?xml version="1.0" encoding="UTF-8" standalone="no"?>
<svg
   id="_Вектор"
   data-name="Вектор"
   viewBox="0 0 713.72999 150.88894"
   version="1.1"
   sodipodi:docname="RCCT-logo-large-ru.svg"
   width="713.72998"
   height="150.88893"
   inkscape:version="1.4.3 (0d15f75, 2025-12-25)"
   xmlns:inkscape="http://www.inkscape.org/namespaces/inkscape"
   xmlns:sodipodi="http://sodipodi.sourceforge.net/DTD/sodipodi-0.dtd"
   xmlns="http://www.w3.org/2000/svg"
   xmlns:svg="http://www.w3.org/2000/svg">
  <sodipodi:namedview
     id="namedview94"
     pagecolor="#ffffff"
     bordercolor="#000000"
     borderopacity="0.25"
     inkscape:showpageshadow="2"
     inkscape:pageopacity="0.0"
     inkscape:pagecheckerboard="0"
     inkscape:deskcolor="#d1d1d1"
     inkscape:zoom="0.67108151"
     inkscape:cx="701.10709"
     inkscape:cy="412.02149"
     inkscape:window-width="1920"
     inkscape:window-height="1017"
     inkscape:window-x="-8"
     inkscape:window-y="-8"
     inkscape:window-maximized="1"
     inkscape:current-layer="_Вектор" />
  <defs
     id="defs1">
    <style
       id="style1">
      .cls-1 {
        fill: #3c3c3b;
      }
    </style>
  </defs>
  <g
     id="g95"
     transform="translate(-32.96,-23.77)">
    <g
       id="g92">
      <path
         class="cls-1"
         d="m 243.5,64.65 h -5.43 l -1.54,-11.28 -5.18,11.31 h -1.6 l -5.21,-11.31 -1.51,11.28 h -5.46 l 2.97,-19.6 h 5.38 l 4.62,10.67 4.65,-10.67 h 5.4 z"
         id="path1" />
      <path
         class="cls-1"
         d="m 251.57,59.98 h 7.39 v 4.68 h -12.77 v -19.6 h 12.54 v 4.68 h -7.17 v 2.88 H 258 v 4.42 h -6.44 v 2.94 z"
         id="path2" />
      <path
         class="cls-1"
         d="m 288.83,64.65 h -6.3 l -5.52,-8.82 v 8.82 h -5.32 v -8.82 l -5.52,8.82 h -6.3 l 6.78,-10.11 -6.13,-9.49 h 6.22 l 4.96,8.4 v -8.4 h 5.32 v 8.4 l 4.96,-8.4 h 6.22 l -6.13,9.49 6.78,10.11 z"
         id="path3" />
      <path
         class="cls-1"
         d="m 307.54,59.7 h 1.99 v 8.48 h -4.96 v -3.53 h -10.39 v 3.53 h -4.96 V 59.7 h 1.79 c 0.58,-0.62 0.98,-1.7 1.2,-3.26 0.22,-1.56 0.53,-4.9 0.92,-10.01 0.04,-0.6 0.07,-1.05 0.08,-1.37 h 14.31 V 59.7 Z m -9.49,-9.74 c -0.09,1.81 -0.21,3.34 -0.35,4.59 -0.14,1.25 -0.32,2.29 -0.53,3.11 -0.21,0.82 -0.48,1.5 -0.8,2.04 h 5.88 v -9.74 z"
         id="path4" />
      <path
         class="cls-1"
         d="m 323.08,45.05 h 5.82 l -5.43,13.16 c -0.99,2.39 -2.13,4.08 -3.43,5.07 -1.3,0.99 -3.03,1.48 -5.19,1.48 h -1.74 v -4.93 h 1.4 c 0.49,0 0.91,-0.04 1.26,-0.11 0.35,-0.07 0.67,-0.2 0.94,-0.38 0.27,-0.18 0.51,-0.42 0.71,-0.71 l -7.11,-13.58 h 6.19 l 3.72,8.09 z"
         id="path5" />
      <path
         class="cls-1"
         d="m 342.06,45.05 h 5.46 v 19.6 h -5.46 v -7.53 h -5.88 v 7.53 h -5.43 v -19.6 h 5.43 v 7.08 h 5.88 z"
         id="path6" />
      <path
         class="cls-1"
         d="m 364.29,64.65 -1.09,-3.19 h -6.94 l -1.09,3.19 h -5.77 l 7.7,-19.6 h 5.26 l 7.87,19.6 z m -2.41,-7.42 -2.16,-6.08 -2.16,6.08 h 4.31 z"
         id="path7" />
      <path
         class="cls-1"
         d="m 380.48,45.05 c 2.09,0 3.82,0.67 5.19,2 1.37,1.33 2.06,3.03 2.06,5.08 0,2.05 -0.69,3.75 -2.07,5.1 -1.38,1.35 -3.11,2.02 -5.18,2.02 h -2.94 v 5.4 h -5.4 v -19.6 z m -0.64,9.46 c 0.69,0 1.26,-0.22 1.69,-0.66 0.43,-0.44 0.66,-1.01 0.66,-1.72 0,-0.45 -0.1,-0.85 -0.29,-1.22 -0.2,-0.36 -0.47,-0.65 -0.83,-0.85 -0.36,-0.2 -0.77,-0.31 -1.23,-0.31 h -2.3 v 4.76 z"
         id="path8" />
      <path
         class="cls-1"
         d="m 399.96,65.16 c -3.15,0 -5.74,-0.97 -7.77,-2.9 -2.03,-1.93 -3.04,-4.4 -3.04,-7.41 0,-3.01 1.01,-5.47 3.04,-7.41 2.03,-1.94 4.62,-2.9 7.77,-2.9 3.15,0 5.71,0.97 7.73,2.9 2.02,1.93 3.02,4.4 3.02,7.41 0,3.01 -1.01,5.47 -3.02,7.41 -2.02,1.93 -4.59,2.9 -7.73,2.9 z m -3.71,-6.52 c 0.98,0.99 2.22,1.48 3.71,1.48 1.49,0 2.72,-0.49 3.68,-1.48 0.96,-0.99 1.44,-2.25 1.44,-3.78 0,-1.53 -0.48,-2.79 -1.44,-3.78 -0.96,-0.99 -2.19,-1.48 -3.68,-1.48 -1.49,0 -2.73,0.5 -3.71,1.48 -0.98,0.99 -1.47,2.25 -1.47,3.78 0,1.53 0.49,2.79 1.47,3.78 z"
         id="path9" />
      <path
         class="cls-1"
         d="m 430.04,59.7 h 1.99 v 8.48 h -4.96 v -3.53 h -10.39 v 3.53 h -4.96 V 59.7 h 1.79 c 0.58,-0.62 0.98,-1.7 1.2,-3.26 0.22,-1.56 0.53,-4.9 0.92,-10.01 0.04,-0.6 0.07,-1.05 0.08,-1.37 h 14.31 V 59.7 Z m -9.49,-9.74 c -0.09,1.81 -0.21,3.34 -0.35,4.59 -0.14,1.25 -0.32,2.29 -0.53,3.11 -0.21,0.82 -0.48,1.5 -0.8,2.04 h 5.88 v -9.74 z"
         id="path10" />
      <path
         class="cls-1"
         d="m 446.28,45.05 h 5.46 v 19.6 h -5.46 v -7.53 h -5.88 v 7.53 h -5.43 v -19.6 h 5.43 v 7.08 h 5.88 z"
         id="path11" />
      <path
         class="cls-1"
         d="m 468.51,64.65 -1.09,-3.19 h -6.94 l -1.09,3.19 h -5.77 l 7.7,-19.6 h 5.26 l 7.87,19.6 z m -2.41,-7.42 -2.16,-6.08 -2.16,6.08 h 4.31 z"
         id="path12" />
      <path
         class="cls-1"
         d="m 482.54,45.05 h 8.74 v 19.6 h -5.35 v -6.13 h -1.82 l -3.19,6.13 h -6.05 l 3.89,-7.08 c -1.08,-0.54 -1.93,-1.3 -2.53,-2.27 -0.6,-0.97 -0.91,-2.08 -0.91,-3.33 0,-1.33 0.31,-2.52 0.92,-3.57 0.62,-1.05 1.47,-1.88 2.58,-2.46 1.11,-0.58 2.34,-0.88 3.72,-0.88 z m 0.78,9.13 h 2.6 v -4.37 h -2.6 c -0.71,0 -1.28,0.2 -1.72,0.59 -0.44,0.39 -0.66,0.92 -0.66,1.57 0,0.65 0.22,1.19 0.66,1.6 0.44,0.41 1.01,0.62 1.72,0.62 z"
         id="path13" />
      <path
         class="cls-1"
         d="m 518.54,64.65 h -6.41 L 506.53,56 v 8.65 h -5.4 v -19.6 h 5.4 v 8.26 l 5.18,-8.26 h 6.24 l -6.27,9.49 z"
         id="path14" />
      <path
         class="cls-1"
         d="m 528.68,65.16 c -3.15,0 -5.74,-0.97 -7.77,-2.9 -2.03,-1.93 -3.04,-4.4 -3.04,-7.41 0,-3.01 1.01,-5.47 3.04,-7.41 2.03,-1.94 4.62,-2.9 7.77,-2.9 3.15,0 5.71,0.97 7.73,2.9 2.02,1.93 3.02,4.4 3.02,7.41 0,3.01 -1.01,5.47 -3.02,7.41 -2.02,1.93 -4.59,2.9 -7.73,2.9 z m -3.71,-6.52 c 0.98,0.99 2.22,1.48 3.71,1.48 1.49,0 2.72,-0.49 3.68,-1.48 0.96,-0.99 1.44,-2.25 1.44,-3.78 0,-1.53 -0.48,-2.79 -1.44,-3.78 -0.96,-0.99 -2.19,-1.48 -3.68,-1.48 -1.49,0 -2.73,0.5 -3.71,1.48 -0.98,0.99 -1.47,2.25 -1.47,3.78 0,1.53 0.49,2.79 1.47,3.78 z"
         id="path15" />
      <path
         class="cls-1"
         d="m 553.52,45.05 h 5.46 v 19.6 h -5.46 v -7.53 h -5.88 v 7.53 h -5.43 v -19.6 h 5.43 v 7.08 h 5.88 z"
         id="path16" />
      <path
         class="cls-1"
         d="m 584.79,50.05 c 0.73,1.46 1.09,3.06 1.09,4.79 0,1.73 -0.36,3.32 -1.09,4.79 -0.73,1.47 -1.82,2.68 -3.26,3.65 -1.44,0.97 -3.13,1.54 -5.05,1.71 v 2.86 h -5.32 v -2.86 c -1.92,-0.17 -3.61,-0.74 -5.05,-1.71 -1.45,-0.97 -2.54,-2.18 -3.28,-3.64 -0.74,-1.46 -1.11,-3.04 -1.11,-4.76 0,-1.72 0.37,-3.31 1.11,-4.79 0.74,-1.48 1.83,-2.7 3.28,-3.67 1.45,-0.97 3.13,-1.54 5.05,-1.71 v -2.44 h 5.32 v 2.44 c 1.92,0.17 3.61,0.73 5.05,1.69 1.45,0.96 2.53,2.17 3.26,3.64 z m -17.67,4.8 c 0,1.33 0.38,2.5 1.15,3.51 0.77,1.02 1.8,1.63 3.11,1.83 V 49.52 c -0.88,0.13 -1.64,0.46 -2.3,0.99 -0.65,0.53 -1.14,1.17 -1.47,1.92 -0.33,0.75 -0.49,1.55 -0.49,2.41 z m 9.13,5.35 c 1.31,-0.21 2.34,-0.82 3.11,-1.83 0.77,-1.02 1.15,-2.18 1.15,-3.5 0,-1.32 -0.38,-2.48 -1.15,-3.5 -0.77,-1.02 -1.8,-1.63 -3.11,-1.83 v 10.67 z"
         id="path17" />
      <path
         class="cls-1"
         d="m 594.03,59.98 h 7.39 v 4.68 h -12.77 v -19.6 h 12.54 v 4.68 h -7.17 v 2.88 h 6.44 v 4.42 h -6.44 v 2.94 z"
         id="path18" />
      <path
         class="cls-1"
         d="m 612.87,45.05 c 2.09,0 3.82,0.67 5.19,2 1.37,1.33 2.06,3.03 2.06,5.08 0,2.05 -0.69,3.75 -2.07,5.1 -1.38,1.35 -3.11,2.02 -5.18,2.02 h -2.94 v 5.4 h -5.4 v -19.6 z m -0.64,9.46 c 0.69,0 1.26,-0.22 1.69,-0.66 0.43,-0.44 0.66,-1.01 0.66,-1.72 0,-0.45 -0.1,-0.85 -0.29,-1.22 -0.2,-0.36 -0.47,-0.65 -0.83,-0.85 -0.36,-0.2 -0.77,-0.31 -1.23,-0.31 h -2.3 v 4.76 z"
         id="path19" />
      <path
         class="cls-1"
         d="m 627.97,59.98 h 7.39 v 4.68 h -12.77 v -19.6 h 12.54 v 4.68 h -7.17 v 2.88 h 6.44 v 4.42 h -6.44 v 2.94 z"
         id="path20" />
      <path
         class="cls-1"
         d="m 649.78,45.05 h 5.46 v 19.6 h -5.46 v -7.53 h -5.88 v 7.53 h -5.43 v -19.6 h 5.43 v 7.08 h 5.88 z"
         id="path21" />
      <path
         class="cls-1"
         d="m 675.06,59.7 h 1.93 v 8.48 h -4.93 v -3.53 h -13.05 v -19.6 h 5.43 v 14.64 h 5.18 V 45.05 h 5.43 v 14.64 z"
         id="path22" />
      <path
         class="cls-1"
         d="m 693.04,45.05 h 4.23 v 19.6 h -5.29 V 54.21 l -7.81,10.44 H 680 v -19.6 h 5.29 v 10.5 l 7.76,-10.5 z"
         id="path23" />
      <path
         class="cls-1"
         d="m 707.49,45.05 h 8.74 v 19.6 h -5.35 v -6.13 h -1.82 l -3.19,6.13 h -6.05 l 3.89,-7.08 c -1.08,-0.54 -1.93,-1.3 -2.53,-2.27 -0.6,-0.97 -0.91,-2.08 -0.91,-3.33 0,-1.33 0.31,-2.52 0.92,-3.57 0.62,-1.05 1.47,-1.88 2.58,-2.46 1.11,-0.58 2.34,-0.88 3.72,-0.88 z m 0.78,9.13 h 2.6 v -4.37 h -2.6 c -0.71,0 -1.28,0.2 -1.72,0.59 -0.44,0.39 -0.66,0.92 -0.66,1.57 0,0.65 0.22,1.19 0.66,1.6 0.44,0.41 1.01,0.62 1.72,0.62 z"
         id="path24" />
      <path
         class="cls-1"
         d="m 218.69,70.05 h 16.41 v 19.6 h -5.49 V 74.98 h -5.46 v 14.67 h -5.46 z"
         id="path25" />
      <path
         class="cls-1"
         d="m 248.65,90.16 c -3.15,0 -5.74,-0.97 -7.77,-2.9 -2.03,-1.93 -3.04,-4.4 -3.04,-7.41 0,-3.01 1.01,-5.47 3.04,-7.41 2.03,-1.94 4.62,-2.9 7.77,-2.9 3.15,0 5.71,0.97 7.73,2.9 2.02,1.93 3.02,4.4 3.02,7.41 0,3.01 -1.01,5.47 -3.02,7.41 -2.02,1.93 -4.59,2.9 -7.73,2.9 z m -3.71,-6.52 c 0.98,0.99 2.22,1.48 3.71,1.48 1.49,0 2.72,-0.49 3.68,-1.48 0.96,-0.99 1.44,-2.25 1.44,-3.78 0,-1.53 -0.48,-2.79 -1.44,-3.78 -0.96,-0.99 -2.19,-1.48 -3.68,-1.48 -1.49,0 -2.73,0.5 -3.71,1.48 -0.98,0.99 -1.47,2.25 -1.47,3.78 0,1.53 0.49,2.79 1.47,3.78 z"
         id="path26" />
      <path
         class="cls-1"
         d="m 285.03,89.65 h -6.13 l -3.22,-6.02 -3.25,6.02 h -6.13 l 5.88,-10.19 -5.54,-9.41 h 6.08 l 2.94,5.54 2.97,-5.54 h 6.02 l -5.52,9.49 5.91,10.11 z"
         id="path27" />
      <path
         class="cls-1"
         d="m 299.89,70.05 h 4.23 v 19.6 h -5.29 V 79.21 l -7.81,10.44 h -4.17 v -19.6 h 5.29 v 10.5 l 7.76,-10.5 z"
         id="path28" />
      <path
         class="cls-1"
         d="m 332.74,89.65 h -5.43 l -1.54,-11.28 -5.18,11.31 h -1.6 l -5.21,-11.31 -1.51,11.28 h -5.46 l 2.97,-19.6 h 5.38 l 4.62,10.67 4.65,-10.67 h 5.4 z"
         id="path29" />
      <path
         class="cls-1"
         d="m 348.47,70.05 h 4.23 v 19.6 h -5.29 V 79.21 l -7.81,10.44 h -4.17 v -19.6 h 5.29 v 10.5 l 7.76,-10.5 z"
         id="path30" />
      <path
         class="cls-1"
         d="m 366.11,70.05 h 5.46 v 19.6 h -5.46 v -6.13 c -1.01,0.28 -1.99,0.42 -2.94,0.42 -1.44,0 -2.71,-0.29 -3.82,-0.88 -1.11,-0.59 -2,-1.48 -2.67,-2.69 -0.67,-1.21 -1.01,-2.63 -1.01,-4.27 v -6.05 h 5.49 v 5.94 c 0,0.65 0.11,1.21 0.32,1.67 0.21,0.46 0.52,0.8 0.92,1.04 0.4,0.24 0.88,0.35 1.44,0.35 0.65,0 1.41,-0.16 2.27,-0.48 v -8.51 z"
         id="path31" />
      <path
         class="cls-1"
         d="m 380.76,84.98 h 7.39 v 4.68 h -12.77 v -19.6 h 12.54 v 4.68 h -7.17 v 2.88 h 6.44 v 4.42 h -6.44 v 2.94 z"
         id="path32" />
      <path
         class="cls-1"
         d="m 400.36,90.16 c -2.97,0 -5.45,-0.98 -7.43,-2.94 -1.99,-1.96 -2.98,-4.41 -2.98,-7.34 0,-2.93 0.99,-5.41 2.98,-7.38 1.99,-1.97 4.47,-2.95 7.43,-2.95 2.58,0 4.77,0.77 6.59,2.32 1.82,1.55 2.93,3.57 3.32,6.05 h -5.46 c -0.22,-0.67 -0.55,-1.25 -0.98,-1.75 -0.43,-0.49 -0.94,-0.88 -1.54,-1.16 -0.6,-0.28 -1.23,-0.42 -1.9,-0.42 -1.4,0 -2.55,0.5 -3.46,1.5 -0.91,1 -1.36,2.26 -1.36,3.79 0,0.99 0.21,1.88 0.62,2.67 0.41,0.79 0.98,1.41 1.72,1.86 0.74,0.45 1.56,0.67 2.48,0.67 0.71,0 1.37,-0.15 1.97,-0.45 0.61,-0.3 1.12,-0.72 1.54,-1.26 0.42,-0.54 0.72,-1.17 0.91,-1.88 h 5.52 c -0.37,2.58 -1.47,4.66 -3.3,6.26 -1.83,1.6 -4.05,2.39 -6.66,2.39 z"
         id="path33" />
      <path
         class="cls-1"
         d="m 430.35,89.65 h -6.41 L 418.34,81 v 8.65 h -5.4 v -19.6 h 5.4 v 8.26 l 5.18,-8.26 h 6.24 l -6.27,9.49 z"
         id="path34" />
      <path
         class="cls-1"
         d="m 440.48,90.16 c -3.15,0 -5.74,-0.97 -7.77,-2.9 -2.03,-1.93 -3.04,-4.4 -3.04,-7.41 0,-3.01 1.01,-5.47 3.04,-7.41 2.03,-1.94 4.62,-2.9 7.77,-2.9 3.15,0 5.71,0.97 7.73,2.9 2.02,1.93 3.02,4.4 3.02,7.41 0,3.01 -1.01,5.47 -3.02,7.41 -2.02,1.93 -4.59,2.9 -7.73,2.9 z m -3.71,-6.52 c 0.98,0.99 2.22,1.48 3.71,1.48 1.49,0 2.72,-0.49 3.68,-1.48 0.96,-0.99 1.44,-2.25 1.44,-3.78 0,-1.53 -0.48,-2.79 -1.44,-3.78 -0.96,-0.99 -2.19,-1.48 -3.68,-1.48 -1.49,0 -2.73,0.5 -3.71,1.48 -0.98,0.99 -1.47,2.25 -1.47,3.78 0,1.53 0.49,2.79 1.47,3.78 z"
         id="path35" />
      <path
         class="cls-1"
         d="m 467.05,70.05 h 4.23 v 19.6 h -5.29 V 79.21 l -7.81,10.44 h -4.17 v -19.6 h 5.29 v 10.5 l 7.76,-10.5 z m -8.82,-1.9 v -3.64 h 8.99 v 3.64 z"
         id="path36" />
      <path
         class="cls-1"
         d="m 495.87,70.05 v 4.87 h -5.35 v 14.73 h -5.4 V 74.92 h -5.32 v -4.87 z"
         id="path37" />
      <path
         class="cls-1"
         d="m 503.65,84.98 h 7.39 v 4.68 h -12.77 v -19.6 h 12.54 v 4.68 h -7.17 v 2.88 h 6.44 v 4.42 h -6.44 v 2.94 z"
         id="path38" />
      <path
         class="cls-1"
         d="m 522.49,70.05 c 2.09,0 3.82,0.67 5.19,2 1.37,1.33 2.06,3.03 2.06,5.08 0,2.05 -0.69,3.75 -2.07,5.1 -1.38,1.35 -3.11,2.02 -5.18,2.02 h -2.94 v 5.4 h -5.4 v -19.6 z m -0.64,9.46 c 0.69,0 1.26,-0.22 1.69,-0.66 0.43,-0.44 0.66,-1.01 0.66,-1.72 0,-0.45 -0.1,-0.85 -0.29,-1.22 -0.2,-0.36 -0.47,-0.65 -0.83,-0.85 -0.36,-0.2 -0.77,-0.31 -1.23,-0.31 h -2.3 v 4.76 z"
         id="path39" />
      <path
         class="cls-1"
         d="m 556.65,89.65 h -5.43 l -1.54,-11.28 -5.18,11.31 h -1.6 l -5.21,-11.31 -1.51,11.28 h -5.46 l 2.97,-19.6 h 5.38 l 4.62,10.67 4.65,-10.67 h 5.4 z"
         id="path40" />
      <path
         class="cls-1"
         d="m 568.92,90.16 c -3.15,0 -5.74,-0.97 -7.77,-2.9 -2.03,-1.93 -3.04,-4.4 -3.04,-7.41 0,-3.01 1.01,-5.47 3.04,-7.41 2.03,-1.94 4.62,-2.9 7.77,-2.9 3.15,0 5.71,0.97 7.73,2.9 2.02,1.93 3.02,4.4 3.02,7.41 0,3.01 -1.01,5.47 -3.02,7.41 -2.02,1.93 -4.59,2.9 -7.73,2.9 z m -3.71,-6.52 c 0.98,0.99 2.22,1.48 3.71,1.48 1.49,0 2.72,-0.49 3.68,-1.48 0.96,-0.99 1.44,-2.25 1.44,-3.78 0,-1.53 -0.48,-2.79 -1.44,-3.78 -0.96,-0.99 -2.19,-1.48 -3.68,-1.48 -1.49,0 -2.73,0.5 -3.71,1.48 -0.98,0.99 -1.47,2.25 -1.47,3.78 0,1.53 0.49,2.79 1.47,3.78 z"
         id="path41" />
      <path
         class="cls-1"
         d="m 598.99,84.7 h 1.99 v 8.48 h -4.96 v -3.53 h -10.39 v 3.53 h -4.96 V 84.7 h 1.79 c 0.58,-0.62 0.98,-1.7 1.2,-3.26 0.22,-1.56 0.53,-4.9 0.92,-10.01 0.04,-0.6 0.07,-1.05 0.08,-1.37 h 14.31 V 84.7 Z m -9.49,-9.74 c -0.09,1.81 -0.21,3.34 -0.35,4.59 -0.14,1.25 -0.32,2.29 -0.53,3.11 -0.21,0.82 -0.48,1.5 -0.8,2.04 h 5.88 v -9.74 z"
         id="path42" />
      <path
         class="cls-1"
         d="m 616.97,70.05 h 4.23 v 19.6 h -5.29 V 79.21 l -7.81,10.44 h -4.17 v -19.6 h 5.29 v 10.5 l 7.76,-10.5 z"
         id="path43" />
      <path
         class="cls-1"
         d="m 636.31,70.05 h 5.46 v 19.6 h -5.46 v -7.53 h -5.88 v 7.53 H 625 v -19.6 h 5.43 v 7.08 h 5.88 z"
         id="path44" />
      <path
         class="cls-1"
         d="m 658.55,89.65 -1.09,-3.19 h -6.94 l -1.09,3.19 h -5.77 l 7.7,-19.6 h 5.26 l 7.87,19.6 z m -2.41,-7.42 -2.16,-6.08 -2.16,6.08 h 4.31 z"
         id="path45" />
      <path
         class="cls-1"
         d="m 691.19,89.65 h -5.43 l -1.54,-11.28 -5.18,11.31 h -1.6 l -5.21,-11.31 -1.51,11.28 h -5.46 l 2.97,-19.6 h 5.38 l 4.62,10.67 4.65,-10.67 h 5.4 z"
         id="path46" />
      <path
         class="cls-1"
         d="m 706.93,70.05 h 4.23 v 19.6 h -5.29 V 79.21 l -7.81,10.44 h -4.17 v -19.6 h 5.29 v 10.5 l 7.76,-10.5 z"
         id="path47" />
      <path
         class="cls-1"
         d="m 732.38,89.65 h -6.41 L 720.37,81 v 8.65 h -5.4 v -19.6 h 5.4 v 8.26 l 5.18,-8.26 h 6.24 l -6.27,9.49 z"
         id="path48" />
      <path
         class="cls-1"
         d="m 739.3,84.98 h 7.39 v 4.68 h -12.77 v -19.6 h 12.54 v 4.68 h -7.17 v 2.88 h 6.44 v 4.42 h -6.44 v 2.94 z"
         id="path49" />
      <path
         class="cls-1"
         d="m 231.07,104.29 c 0.93,0.45 1.67,1.09 2.2,1.93 0.53,0.84 0.8,1.79 0.8,2.86 0,1.59 -0.61,2.91 -1.82,3.98 -1.21,1.06 -2.73,1.6 -4.54,1.6 h -9.02 v -19.6 h 8.85 c 1.14,0 2.17,0.21 3.08,0.64 0.91,0.43 1.63,1.03 2.16,1.79 0.52,0.77 0.78,1.62 0.78,2.58 0,0.86 -0.22,1.67 -0.67,2.42 -0.45,0.76 -1.05,1.36 -1.82,1.81 z m -2.63,-3.33 c 0,-0.5 -0.17,-0.91 -0.5,-1.23 -0.34,-0.32 -0.78,-0.48 -1.34,-0.48 h -2.72 v 3.42 h 2.72 c 0.37,0 0.7,-0.07 0.98,-0.21 0.28,-0.14 0.49,-0.34 0.64,-0.6 0.15,-0.26 0.22,-0.56 0.22,-0.9 z m -1.62,9.27 c 0.58,0 1.04,-0.17 1.4,-0.5 0.36,-0.33 0.53,-0.77 0.53,-1.29 0,-0.52 -0.18,-0.95 -0.53,-1.29 -0.35,-0.34 -0.82,-0.5 -1.4,-0.5 h -2.94 v 3.58 z"
         id="path50" />
      <path
         class="cls-1"
         d="m 251.34,95.05 c 2.09,0 3.82,0.67 5.19,2 1.37,1.33 2.06,3.03 2.06,5.08 0,2.05 -0.69,3.75 -2.07,5.1 -1.38,1.35 -3.11,2.02 -5.18,2.02 h -2.94 v 5.4 H 243 v -19.6 z m -0.64,9.46 c 0.69,0 1.26,-0.22 1.69,-0.66 0.43,-0.44 0.66,-1.01 0.66,-1.72 0,-0.45 -0.1,-0.85 -0.29,-1.22 -0.2,-0.36 -0.47,-0.65 -0.83,-0.85 -0.36,-0.2 -0.77,-0.31 -1.23,-0.31 h -2.3 v 4.76 z"
         id="path51" />
      <path
         class="cls-1"
         d="m 270.83,115.16 c -3.15,0 -5.74,-0.97 -7.77,-2.9 -2.03,-1.93 -3.04,-4.4 -3.04,-7.41 0,-3.01 1.01,-5.47 3.04,-7.41 2.03,-1.94 4.62,-2.9 7.77,-2.9 3.15,0 5.71,0.97 7.73,2.9 2.02,1.93 3.02,4.4 3.02,7.41 0,3.01 -1.01,5.47 -3.02,7.41 -2.02,1.93 -4.59,2.9 -7.73,2.9 z m -3.71,-6.52 c 0.98,0.99 2.22,1.48 3.71,1.48 1.49,0 2.72,-0.49 3.68,-1.48 0.96,-0.99 1.44,-2.25 1.44,-3.78 0,-1.53 -0.48,-2.79 -1.44,-3.78 -0.96,-0.99 -2.19,-1.48 -3.68,-1.48 -1.49,0 -2.73,0.5 -3.71,1.48 -0.98,0.99 -1.47,2.25 -1.47,3.78 0,1.53 0.49,2.79 1.47,3.78 z"
         id="path52" />
      <path
         class="cls-1"
         d="m 293.73,115.16 c -2.97,0 -5.45,-0.98 -7.43,-2.94 -1.99,-1.96 -2.98,-4.41 -2.98,-7.34 0,-2.93 0.99,-5.41 2.98,-7.38 1.99,-1.97 4.47,-2.95 7.43,-2.95 2.58,0 4.77,0.77 6.59,2.32 1.82,1.55 2.93,3.57 3.32,6.05 h -5.46 c -0.22,-0.67 -0.55,-1.25 -0.98,-1.75 -0.43,-0.49 -0.94,-0.88 -1.54,-1.16 -0.6,-0.28 -1.23,-0.42 -1.9,-0.42 -1.4,0 -2.55,0.5 -3.46,1.5 -0.91,1 -1.36,2.26 -1.36,3.79 0,0.99 0.21,1.88 0.62,2.67 0.41,0.79 0.98,1.41 1.72,1.86 0.74,0.45 1.56,0.67 2.48,0.67 0.71,0 1.37,-0.15 1.97,-0.45 0.61,-0.3 1.12,-0.72 1.54,-1.26 0.42,-0.54 0.72,-1.17 0.91,-1.88 h 5.52 c -0.37,2.58 -1.47,4.66 -3.3,6.26 -1.83,1.6 -4.05,2.39 -6.66,2.39 z"
         id="path53" />
      <path
         class="cls-1"
         d="m 315.69,115.16 c -2.97,0 -5.45,-0.98 -7.43,-2.94 -1.99,-1.96 -2.98,-4.41 -2.98,-7.34 0,-2.93 0.99,-5.41 2.98,-7.38 1.99,-1.97 4.47,-2.95 7.43,-2.95 2.58,0 4.77,0.77 6.59,2.32 1.82,1.55 2.93,3.57 3.32,6.05 h -5.46 c -0.22,-0.67 -0.55,-1.25 -0.98,-1.75 -0.43,-0.49 -0.94,-0.88 -1.54,-1.16 -0.6,-0.28 -1.23,-0.42 -1.9,-0.42 -1.4,0 -2.55,0.5 -3.46,1.5 -0.91,1 -1.36,2.26 -1.36,3.79 0,0.99 0.21,1.88 0.62,2.67 0.41,0.79 0.98,1.41 1.72,1.86 0.74,0.45 1.56,0.67 2.48,0.67 0.71,0 1.37,-0.15 1.97,-0.45 0.61,-0.3 1.12,-0.72 1.54,-1.26 0.42,-0.54 0.72,-1.17 0.91,-1.88 h 5.52 c -0.37,2.58 -1.47,4.66 -3.3,6.26 -1.83,1.6 -4.05,2.39 -6.66,2.39 z"
         id="path54" />
      <path
         class="cls-1"
         d="m 341.31,95.05 h 4.23 v 19.6 h -5.29 v -10.44 l -7.81,10.44 h -4.17 v -19.6 h 5.29 v 10.5 l 7.76,-10.5 z"
         id="path55" />
      <path
         class="cls-1"
         d="m 362.39,95.05 h 4.23 v 19.6 h -5.29 v -10.44 l -7.81,10.44 h -4.17 v -19.6 h 5.29 v 10.5 l 7.76,-10.5 z"
         id="path56" />
      <path
         class="cls-1"
         d="m 222.08,136.17 h 2.9 v 2.48 h -7.77 v -0.63 c 1.48,-1.75 2.52,-3.01 3.15,-3.79 0.62,-0.78 1.05,-1.37 1.28,-1.78 0.23,-0.41 0.35,-0.77 0.35,-1.08 0,-0.28 -0.08,-0.51 -0.25,-0.68 -0.17,-0.17 -0.38,-0.26 -0.64,-0.26 -0.12,0 -0.24,0.01 -0.34,0.04 -0.1,0.03 -0.19,0.07 -0.26,0.13 -0.07,0.06 -0.14,0.13 -0.19,0.21 -0.05,0.08 -0.09,0.17 -0.13,0.28 -0.03,0.11 -0.05,0.23 -0.05,0.35 v 0.2 h -2.75 v -0.2 c 0,-1.06 0.33,-1.9 0.98,-2.54 0.65,-0.64 1.55,-0.96 2.68,-0.96 1.13,0 2.01,0.31 2.71,0.93 0.7,0.62 1.04,1.42 1.04,2.4 0,0.67 -0.18,1.34 -0.54,2.01 -0.36,0.67 -1.08,1.63 -2.17,2.89 z"
         id="path57" />
      <path
         class="cls-1"
         d="m 230.12,127.95 c 1.22,0 2.22,0.36 2.99,1.08 0.77,0.72 1.15,1.64 1.15,2.77 0,1.06 -0.4,2.26 -1.19,3.6 l -1.92,3.26 h -3.03 c 0.24,-0.4 0.59,-0.99 1.06,-1.77 0.46,-0.78 0.81,-1.35 1.03,-1.7 -0.22,0.03 -0.45,0.05 -0.69,0.05 -1.05,0 -1.9,-0.32 -2.56,-0.95 -0.66,-0.63 -0.99,-1.46 -0.99,-2.47 0,-0.75 0.17,-1.42 0.52,-2.01 0.35,-0.59 0.83,-1.04 1.47,-1.37 0.63,-0.33 1.35,-0.49 2.16,-0.49 z m 0,5.37 c 0.45,0 0.82,-0.14 1.11,-0.42 0.29,-0.28 0.43,-0.64 0.43,-1.09 0,-0.28 -0.07,-0.54 -0.2,-0.77 -0.13,-0.23 -0.31,-0.41 -0.55,-0.53 -0.24,-0.12 -0.5,-0.18 -0.79,-0.18 -0.45,0 -0.82,0.14 -1.1,0.41 -0.28,0.27 -0.42,0.63 -0.42,1.07 0,0.44 0.14,0.81 0.42,1.09 0.28,0.28 0.65,0.42 1.1,0.42 z"
         id="path58" />
      <path
         class="cls-1"
         d="m 245.39,130.18 h 1.68 v 8.48 h -2.81 v -3.8 l -3.41,3.8 h -1.71 v -8.48 h 2.81 v 3.77 z"
         id="path59" />
      <path
         class="cls-1"
         d="m 256.98,129.91 c 1.39,0 2.52,0.42 3.4,1.26 0.87,0.84 1.31,1.92 1.31,3.24 0,1.32 -0.44,2.43 -1.31,3.26 -0.87,0.84 -2.01,1.26 -3.4,1.26 -1.1,0 -2.04,-0.29 -2.81,-0.89 -0.77,-0.59 -1.28,-1.38 -1.52,-2.38 h -0.83 v 2.98 h -2.89 v -8.48 h 2.89 v 3 h 0.83 c 0.16,-0.65 0.44,-1.22 0.84,-1.71 0.4,-0.49 0.91,-0.87 1.51,-1.15 0.6,-0.27 1.26,-0.41 1.99,-0.41 z m 0,6.42 c 0.34,0 0.66,-0.08 0.93,-0.25 0.28,-0.17 0.49,-0.4 0.65,-0.68 0.16,-0.29 0.24,-0.62 0.24,-0.98 0,-0.54 -0.17,-1 -0.52,-1.36 -0.35,-0.36 -0.78,-0.54 -1.3,-0.54 -0.26,0 -0.51,0.05 -0.73,0.15 -0.22,0.1 -0.42,0.23 -0.58,0.4 -0.16,0.17 -0.29,0.37 -0.38,0.6 -0.09,0.24 -0.13,0.48 -0.13,0.75 0,0.55 0.17,1.01 0.52,1.37 0.35,0.36 0.78,0.54 1.3,0.54 z"
         id="path60" />
      <path
         class="cls-1"
         d="m 268.26,130.18 h 2.9 v 8.48 h -2.9 v -2.98 h -2.32 v 2.98 h -2.9 v -8.48 h 2.9 v 2.92 h 2.32 z"
         id="path61" />
      <path
         class="cls-1"
         d="m 275.72,130.18 h 4.68 v 8.48 h -2.68 v -2.73 h -0.94 l -1.35,2.73 h -3.11 l 1.85,-3.23 c -0.45,-0.24 -0.8,-0.57 -1.05,-0.98 -0.25,-0.41 -0.38,-0.88 -0.38,-1.39 0,-0.84 0.28,-1.52 0.84,-2.06 0.56,-0.54 1.27,-0.81 2.14,-0.81 z m 0.79,3.78 h 1.21 v -1.74 h -1.21 c -0.19,0 -0.35,0.04 -0.49,0.11 -0.14,0.07 -0.25,0.18 -0.31,0.31 -0.07,0.13 -0.1,0.29 -0.1,0.46 0,0.26 0.08,0.47 0.24,0.63 0.16,0.16 0.38,0.24 0.67,0.24 z"
         id="path62" />
      <path
         class="cls-1"
         d="m 285.58,135.64 v -2.65 h 5.76 v 2.65 z"
         id="path63" />
      <path
         class="cls-1"
         d="m 301.45,132.05 c 0.75,0.19 1.35,0.57 1.8,1.15 0.45,0.58 0.67,1.26 0.67,2.06 0,1.07 -0.37,1.94 -1.11,2.62 -0.74,0.68 -1.68,1.02 -2.83,1.02 -1.15,0 -2.03,-0.33 -2.74,-1 -0.71,-0.66 -1.08,-1.54 -1.11,-2.63 h 2.67 c 0.02,0.38 0.14,0.67 0.35,0.89 0.21,0.22 0.49,0.33 0.82,0.33 0.37,0 0.66,-0.12 0.89,-0.35 0.22,-0.24 0.34,-0.54 0.34,-0.93 0,-0.39 -0.12,-0.68 -0.36,-0.9 -0.24,-0.22 -0.57,-0.33 -0.97,-0.33 h -1.68 v -0.58 l 1.71,-2.79 h -3.52 v -2.39 h 7.17 v 0.49 z"
         id="path64" />
      <path
         class="cls-1"
         d="m 315.07,130.18 h 1.68 v 8.48 h -2.81 v -3.8 l -3.41,3.8 h -1.71 v -8.48 h 2.81 v 3.77 z"
         id="path65" />
      <path
         class="cls-1"
         d="m 326.66,129.91 c 1.39,0 2.52,0.42 3.4,1.26 0.87,0.84 1.31,1.92 1.31,3.24 0,1.32 -0.44,2.43 -1.31,3.26 -0.87,0.84 -2.01,1.26 -3.4,1.26 -1.1,0 -2.04,-0.29 -2.81,-0.89 -0.77,-0.59 -1.28,-1.38 -1.52,-2.38 h -0.83 v 2.98 h -2.89 v -8.48 h 2.89 v 3 h 0.83 c 0.16,-0.65 0.44,-1.22 0.84,-1.71 0.4,-0.49 0.91,-0.87 1.51,-1.15 0.6,-0.27 1.26,-0.41 1.99,-0.41 z m 0,6.42 c 0.34,0 0.66,-0.08 0.93,-0.25 0.28,-0.17 0.49,-0.4 0.65,-0.68 0.16,-0.29 0.24,-0.62 0.24,-0.98 0,-0.54 -0.17,-1 -0.52,-1.36 -0.35,-0.36 -0.78,-0.54 -1.3,-0.54 -0.26,0 -0.51,0.05 -0.73,0.15 -0.22,0.1 -0.42,0.23 -0.58,0.4 -0.16,0.17 -0.29,0.37 -0.38,0.6 -0.09,0.24 -0.13,0.48 -0.13,0.75 0,0.55 0.17,1.01 0.52,1.37 0.35,0.36 0.78,0.54 1.3,0.54 z"
         id="path66" />
      <path
         class="cls-1"
         d="m 334.13,130.18 h 6.61 v 8.48 h -2.87 v -6.03 h -1.32 l -0.24,2.4 c -0.14,1.28 -0.5,2.21 -1.09,2.79 -0.59,0.58 -1.44,0.87 -2.54,0.87 h -0.77 v -2.4 h 0.38 c 0.4,0 0.7,-0.1 0.9,-0.31 0.2,-0.21 0.33,-0.55 0.38,-1.02 l 0.55,-4.77 z"
         id="path67" />
      <path
         class="cls-1"
         d="m 345.29,130.18 h 4.68 v 8.48 h -2.68 v -2.73 h -0.94 l -1.35,2.73 h -3.11 l 1.85,-3.23 c -0.45,-0.24 -0.8,-0.57 -1.05,-0.98 -0.25,-0.41 -0.38,-0.88 -0.38,-1.39 0,-0.84 0.28,-1.52 0.84,-2.06 0.56,-0.54 1.27,-0.81 2.14,-0.81 z m 0.79,3.78 h 1.21 v -1.74 h -1.21 c -0.19,0 -0.35,0.04 -0.49,0.11 -0.14,0.07 -0.25,0.18 -0.31,0.31 -0.07,0.13 -0.1,0.29 -0.1,0.46 0,0.26 0.08,0.47 0.24,0.63 0.16,0.16 0.38,0.24 0.67,0.24 z"
         id="path68" />
      <path
         class="cls-1"
         d="m 351.82,141.4 v -1.44 c 0.41,-0.04 0.72,-0.18 0.93,-0.42 0.21,-0.24 0.32,-0.53 0.32,-0.89 h -1.37 v -2.72 h 2.84 v 2.48 c 0,0.85 -0.25,1.54 -0.75,2.07 -0.5,0.53 -1.16,0.84 -1.99,0.91 z"
         id="path69" />
      <path
         class="cls-1"
         d="m 364.06,136.17 h 2.9 v 2.48 h -7.77 v -0.63 c 1.48,-1.75 2.52,-3.01 3.15,-3.79 0.62,-0.78 1.05,-1.37 1.28,-1.78 0.23,-0.41 0.35,-0.77 0.35,-1.08 0,-0.28 -0.08,-0.51 -0.25,-0.68 -0.17,-0.17 -0.38,-0.26 -0.64,-0.26 -0.12,0 -0.24,0.01 -0.34,0.04 -0.1,0.03 -0.19,0.07 -0.26,0.13 -0.07,0.06 -0.14,0.13 -0.19,0.21 -0.05,0.08 -0.09,0.17 -0.13,0.28 -0.03,0.11 -0.05,0.23 -0.05,0.35 v 0.2 h -2.75 v -0.2 c 0,-1.06 0.33,-1.9 0.98,-2.54 0.65,-0.64 1.55,-0.96 2.68,-0.96 1.13,0 2.01,0.31 2.71,0.93 0.7,0.62 1.04,1.42 1.04,2.4 0,0.67 -0.18,1.34 -0.54,2.01 -0.36,0.67 -1.08,1.63 -2.17,2.89 z"
         id="path70" />
      <path
         class="cls-1"
         d="m 372.82,138.94 c -0.92,0 -1.73,-0.22 -2.42,-0.67 -0.69,-0.45 -1.22,-1.09 -1.59,-1.92 -0.37,-0.83 -0.56,-1.79 -0.56,-2.9 0,-1.66 0.41,-2.99 1.24,-3.99 0.83,-0.99 1.94,-1.49 3.33,-1.49 1.39,0 2.5,0.5 3.33,1.49 0.83,1 1.24,2.32 1.24,3.99 0,1.67 -0.42,3.01 -1.25,4 -0.83,0.99 -1.94,1.49 -3.32,1.49 z m -1.27,-3.27 c 0.29,0.52 0.71,0.78 1.26,0.78 0.55,0 0.97,-0.26 1.27,-0.77 0.3,-0.51 0.45,-1.25 0.45,-2.21 0,-0.96 -0.15,-1.71 -0.45,-2.23 -0.3,-0.52 -0.72,-0.79 -1.26,-0.79 -0.54,0 -0.98,0.26 -1.27,0.78 -0.29,0.52 -0.44,1.26 -0.44,2.22 0,0.96 0.15,1.7 0.44,2.22 z"
         id="path71" />
      <path
         class="cls-1"
         d="m 383.29,136.17 h 2.9 v 2.48 h -7.77 v -0.63 c 1.48,-1.75 2.52,-3.01 3.15,-3.79 0.62,-0.78 1.05,-1.37 1.28,-1.78 0.23,-0.41 0.35,-0.77 0.35,-1.08 0,-0.28 -0.08,-0.51 -0.25,-0.68 -0.17,-0.17 -0.38,-0.26 -0.64,-0.26 -0.12,0 -0.24,0.01 -0.34,0.04 -0.1,0.03 -0.19,0.07 -0.26,0.13 -0.07,0.06 -0.14,0.13 -0.19,0.21 -0.05,0.08 -0.09,0.17 -0.13,0.28 -0.03,0.11 -0.05,0.23 -0.05,0.35 v 0.2 h -2.75 v -0.2 c 0,-1.06 0.33,-1.9 0.98,-2.54 0.65,-0.64 1.55,-0.96 2.68,-0.96 1.13,0 2.01,0.31 2.71,0.93 0.7,0.62 1.04,1.42 1.04,2.4 0,0.67 -0.18,1.34 -0.54,2.01 -0.36,0.67 -1.08,1.63 -2.17,2.89 z"
         id="path72" />
      <path
         class="cls-1"
         d="m 392.18,131.61 c 0.68,0 1.29,0.14 1.83,0.43 0.54,0.29 0.96,0.69 1.26,1.22 0.3,0.52 0.45,1.12 0.45,1.77 0,0.75 -0.17,1.42 -0.52,2.01 -0.34,0.59 -0.83,1.04 -1.46,1.37 -0.63,0.33 -1.35,0.49 -2.15,0.49 -1.23,0 -2.24,-0.36 -3.01,-1.07 -0.77,-0.71 -1.15,-1.64 -1.15,-2.78 0,-1.07 0.4,-2.27 1.19,-3.59 l 1.92,-3.23 h 3.01 c -0.24,0.42 -0.59,1.02 -1.06,1.79 -0.47,0.77 -0.8,1.33 -1,1.66 0.22,-0.04 0.45,-0.06 0.69,-0.06 z m -0.61,4.9 c 0.43,0 0.78,-0.14 1.05,-0.41 0.27,-0.27 0.41,-0.63 0.41,-1.07 0,-0.44 -0.14,-0.79 -0.41,-1.07 -0.27,-0.28 -0.62,-0.41 -1.05,-0.41 -0.43,0 -0.77,0.14 -1.04,0.41 -0.27,0.27 -0.42,0.63 -0.42,1.07 0,0.29 0.06,0.55 0.19,0.77 0.13,0.22 0.3,0.39 0.53,0.52 0.22,0.12 0.47,0.19 0.75,0.19 z"
         id="path73" />
      <path
         class="cls-1"
         d="m 220.87,151.73 h 4.14 v 2.62 h -7.16 v -10.99 h 7.03 v 2.62 h -4.02 v 1.62 h 3.61 v 2.48 h -3.61 v 1.65 z"
         id="path74" />
      <path
         class="cls-1"
         d="m 235.05,154.35 h -3.44 l -2.12,-3.59 v 3.59 h -2.92 v -8.48 h 2.92 v 3.33 l 2.03,-3.33 h 3.26 l -2.65,4.05 z"
         id="path75" />
      <path
         class="cls-1"
         d="m 242.27,145.86 h 2.17 v 8.48 h -2.25 l -0.25,-0.6 c -0.73,0.6 -1.58,0.89 -2.56,0.89 -0.86,0 -1.62,-0.19 -2.3,-0.58 -0.67,-0.39 -1.2,-0.93 -1.58,-1.62 -0.38,-0.69 -0.57,-1.47 -0.57,-2.34 0,-1.31 0.42,-2.38 1.26,-3.23 0.84,-0.84 1.9,-1.26 3.2,-1.26 0.98,0 1.85,0.3 2.59,0.91 l 0.3,-0.66 z m -3.86,5.63 c 0.36,0.37 0.81,0.55 1.36,0.55 0.55,0 1,-0.18 1.36,-0.55 0.36,-0.37 0.53,-0.83 0.53,-1.38 0,-0.55 -0.18,-1.01 -0.53,-1.38 -0.36,-0.37 -0.81,-0.55 -1.35,-0.55 -0.54,0 -1.01,0.18 -1.37,0.55 -0.36,0.37 -0.53,0.83 -0.53,1.38 0,0.55 0.18,1.01 0.53,1.38 z"
         id="path76" />
      <path
         class="cls-1"
         d="m 253.8,145.87 v 2.53 h -2.67 v 5.95 h -2.86 v -5.95 h -2.68 v -2.53 z"
         id="path77" />
      <path
         class="cls-1"
         d="m 263.54,150.03 c 0,0.24 -0.02,0.5 -0.06,0.77 h -6.29 c 0.09,0.48 0.29,0.85 0.59,1.1 0.3,0.25 0.68,0.38 1.14,0.38 0.23,0 0.44,-0.03 0.64,-0.09 0.2,-0.06 0.37,-0.15 0.53,-0.28 0.15,-0.12 0.28,-0.26 0.37,-0.43 h 2.9 c -0.29,0.97 -0.84,1.74 -1.64,2.31 -0.8,0.57 -1.73,0.85 -2.8,0.85 -1.32,0 -2.42,-0.43 -3.29,-1.29 -0.87,-0.86 -1.31,-1.94 -1.31,-3.23 0,-0.86 0.2,-1.63 0.6,-2.32 0.4,-0.69 0.95,-1.23 1.65,-1.62 0.7,-0.39 1.49,-0.58 2.35,-0.58 0.86,0 1.7,0.2 2.41,0.59 0.71,0.39 1.25,0.93 1.64,1.6 0.39,0.67 0.58,1.43 0.58,2.25 z m -4.63,-2.15 c -0.42,0 -0.77,0.11 -1.06,0.34 -0.29,0.22 -0.5,0.55 -0.62,0.96 h 3.44 c -0.26,-0.87 -0.85,-1.3 -1.76,-1.3 z"
         id="path78" />
      <path
         class="cls-1"
         d="m 269.82,145.59 c 1.3,0 2.36,0.42 3.19,1.27 0.83,0.85 1.25,1.93 1.25,3.25 0,1.32 -0.42,2.4 -1.25,3.25 -0.83,0.85 -1.9,1.27 -3.19,1.27 -0.75,0 -1.44,-0.19 -2.07,-0.56 v 3.34 h -2.87 v -11.54 h 1.98 l 0.36,0.67 c 0.73,-0.64 1.6,-0.96 2.61,-0.96 z m -0.39,6.47 c 0.54,0 1,-0.19 1.36,-0.56 0.36,-0.37 0.54,-0.83 0.54,-1.39 0,-0.56 -0.18,-1.02 -0.54,-1.39 -0.36,-0.37 -0.81,-0.56 -1.36,-0.56 -0.55,0 -1,0.19 -1.36,0.56 -0.36,0.37 -0.54,0.83 -0.54,1.39 0,0.37 0.08,0.7 0.24,1 0.16,0.3 0.39,0.53 0.68,0.7 0.29,0.17 0.62,0.25 0.97,0.25 z"
         id="path79" />
      <path
         class="cls-1"
         d="m 281.86,145.87 h 1.68 v 8.48 h -2.81 v -3.8 l -3.41,3.8 h -1.71 v -8.48 h 2.81 v 3.77 z"
         id="path80" />
      <path
         class="cls-1"
         d="m 290.62,145.87 h 2.9 v 8.48 h -2.9 v -2.98 h -2.32 v 2.98 h -2.9 v -8.48 h 2.9 v 2.92 h 2.32 z"
         id="path81" />
      <path
         class="cls-1"
         d="m 300.22,146.23 c 1.24,0 2.24,0.38 3.01,1.14 0.77,0.76 1.16,1.75 1.16,2.96 0,1.3 -0.42,2.34 -1.27,3.12 -0.85,0.78 -1.97,1.18 -3.36,1.18 -1.49,0 -2.65,-0.47 -3.49,-1.4 -0.84,-0.94 -1.26,-2.23 -1.26,-3.87 0,-1.21 0.18,-2.27 0.53,-3.16 0.36,-0.89 0.89,-1.62 1.62,-2.19 0.72,-0.57 1.63,-0.99 2.73,-1.25 l 3.14,-0.77 v 2.72 l -3.14,0.77 c -1.18,0.28 -1.89,0.82 -2.13,1.6 0.74,-0.57 1.56,-0.85 2.46,-0.85 z m -0.46,5.87 c 0.51,0 0.94,-0.17 1.28,-0.52 0.34,-0.35 0.51,-0.78 0.51,-1.3 0,-0.52 -0.17,-0.96 -0.51,-1.3 -0.34,-0.35 -0.77,-0.52 -1.28,-0.52 -0.51,0 -0.94,0.17 -1.28,0.52 -0.34,0.34 -0.51,0.78 -0.51,1.3 0,0.52 0.17,0.96 0.51,1.3 0.34,0.34 0.77,0.52 1.28,0.52 z"
         id="path82" />
      <path
         class="cls-1"
         d="m 310.98,145.87 h 3.14 l -3.55,8.1 c -0.59,1.32 -1.19,2.24 -1.82,2.75 -0.63,0.52 -1.48,0.78 -2.56,0.78 h -1 v -2.51 h 0.8 c 0.55,0 0.95,-0.09 1.19,-0.27 0.24,-0.18 0.46,-0.54 0.66,-1.08 l -3.5,-7.77 h 3.17 l 1.79,4.66 z"
         id="path83" />
      <path
         class="cls-1"
         d="m 319.94,145.59 c 1.3,0 2.36,0.42 3.19,1.27 0.83,0.85 1.25,1.93 1.25,3.25 0,1.32 -0.42,2.4 -1.25,3.25 -0.83,0.85 -1.9,1.27 -3.19,1.27 -0.75,0 -1.44,-0.19 -2.07,-0.56 v 3.34 H 315 v -11.54 h 1.98 l 0.36,0.67 c 0.73,-0.64 1.6,-0.96 2.61,-0.96 z m -0.39,6.47 c 0.54,0 1,-0.19 1.36,-0.56 0.36,-0.37 0.54,-0.83 0.54,-1.39 0,-0.56 -0.18,-1.02 -0.54,-1.39 -0.36,-0.37 -0.81,-0.56 -1.36,-0.56 -0.55,0 -1,0.19 -1.36,0.56 -0.36,0.37 -0.54,0.83 -0.54,1.39 0,0.37 0.08,0.7 0.24,1 0.16,0.3 0.39,0.53 0.68,0.7 0.29,0.17 0.62,0.25 0.97,0.25 z"
         id="path84" />
      <path
         class="cls-1"
         d="m 331.66,145.87 v 2.51 h -3.08 v 5.96 h -2.86 v -8.48 h 5.93 z"
         id="path85" />
      <path
         class="cls-1"
         d="m 331.77,157.1 v -1.44 c 0.41,-0.04 0.72,-0.18 0.93,-0.42 0.21,-0.24 0.32,-0.53 0.32,-0.89 h -1.37 v -2.72 h 2.84 v 2.48 c 0,0.85 -0.25,1.54 -0.75,2.07 -0.5,0.53 -1.16,0.84 -1.99,0.91 z"
         id="path86" />
      <path
         class="cls-1"
         d="m 344.47,143.36 c 1.17,0 2.14,0.37 2.91,1.12 0.77,0.75 1.15,1.7 1.15,2.85 0,1.15 -0.39,2.1 -1.16,2.86 -0.77,0.75 -1.74,1.13 -2.9,1.13 h -1.65 v 3.03 h -3.03 v -10.99 z m -0.36,5.31 c 0.39,0 0.7,-0.12 0.95,-0.37 0.25,-0.25 0.37,-0.57 0.37,-0.96 0,-0.25 -0.05,-0.48 -0.17,-0.68 -0.11,-0.2 -0.26,-0.36 -0.46,-0.48 -0.2,-0.12 -0.43,-0.17 -0.69,-0.17 h -1.29 v 2.67 h 1.29 z"
         id="path87" />
      <path
         class="cls-1"
         d="m 353.99,154.63 c -1.38,0 -2.52,-0.43 -3.42,-1.28 -0.89,-0.85 -1.34,-1.93 -1.34,-3.24 0,-1.31 0.45,-2.4 1.34,-3.25 0.9,-0.85 2.03,-1.27 3.42,-1.27 1.39,0 2.52,0.43 3.41,1.28 0.89,0.85 1.34,1.93 1.34,3.24 0,1.31 -0.45,2.39 -1.35,3.24 -0.9,0.85 -2.04,1.28 -3.41,1.28 z m -1.32,-3.16 c 0.35,0.36 0.79,0.53 1.32,0.53 0.53,0 0.97,-0.18 1.31,-0.53 0.34,-0.36 0.51,-0.81 0.51,-1.37 0,-0.56 -0.17,-1.01 -0.51,-1.37 -0.34,-0.36 -0.78,-0.53 -1.31,-0.53 -0.36,0 -0.67,0.08 -0.95,0.24 -0.28,0.16 -0.49,0.39 -0.65,0.67 -0.16,0.29 -0.24,0.62 -0.24,0.98 0,0.55 0.17,1.01 0.52,1.37 z"
         id="path88" />
      <path
         class="cls-1"
         d="m 364.28,154.63 c -0.9,0 -1.71,-0.19 -2.42,-0.58 -0.71,-0.39 -1.27,-0.93 -1.67,-1.62 -0.4,-0.69 -0.6,-1.47 -0.6,-2.33 0,-0.86 0.2,-1.64 0.6,-2.32 0.4,-0.69 0.96,-1.22 1.67,-1.6 0.71,-0.38 1.52,-0.57 2.42,-0.57 0.79,0 1.5,0.16 2.14,0.47 0.64,0.31 1.17,0.75 1.58,1.32 0.41,0.57 0.66,1.22 0.77,1.96 h -2.84 c -0.12,-0.34 -0.34,-0.62 -0.64,-0.82 -0.3,-0.2 -0.64,-0.31 -1.01,-0.31 -0.51,0 -0.93,0.18 -1.26,0.53 -0.33,0.35 -0.49,0.8 -0.49,1.36 0,0.56 0.17,1.01 0.49,1.37 0.33,0.36 0.75,0.53 1.26,0.53 0.39,0 0.73,-0.11 1.03,-0.34 0.3,-0.22 0.5,-0.53 0.62,-0.9 h 2.87 c -0.17,1.15 -0.67,2.08 -1.49,2.79 -0.83,0.71 -1.84,1.07 -3.03,1.07 z"
         id="path89" />
      <path
         class="cls-1"
         d="m 374.27,154.63 c -0.9,0 -1.71,-0.19 -2.42,-0.58 -0.71,-0.39 -1.27,-0.93 -1.67,-1.62 -0.4,-0.69 -0.6,-1.47 -0.6,-2.33 0,-0.86 0.2,-1.64 0.6,-2.32 0.4,-0.69 0.96,-1.22 1.67,-1.6 0.71,-0.38 1.52,-0.57 2.42,-0.57 0.79,0 1.5,0.16 2.14,0.47 0.64,0.31 1.17,0.75 1.58,1.32 0.41,0.57 0.66,1.22 0.77,1.96 h -2.84 c -0.12,-0.34 -0.34,-0.62 -0.64,-0.82 -0.3,-0.2 -0.64,-0.31 -1.01,-0.31 -0.51,0 -0.93,0.18 -1.26,0.53 -0.33,0.35 -0.49,0.8 -0.49,1.36 0,0.56 0.17,1.01 0.49,1.37 0.33,0.36 0.75,0.53 1.26,0.53 0.39,0 0.73,-0.11 1.03,-0.34 0.3,-0.22 0.5,-0.53 0.62,-0.9 h 2.87 c -0.17,1.15 -0.67,2.08 -1.49,2.79 -0.83,0.71 -1.84,1.07 -3.03,1.07 z"
         id="path90" />
      <path
         class="cls-1"
         d="m 386.31,145.87 h 1.68 v 8.48 h -2.81 v -3.8 l -3.41,3.8 h -1.71 v -8.48 h 2.81 v 3.77 z"
         id="path91" />
      <path
         class="cls-1"
         d="m 392.54,145.87 h 4.68 v 8.48 h -2.68 v -2.73 h -0.94 l -1.35,2.73 h -3.11 l 1.85,-3.23 c -0.45,-0.24 -0.8,-0.57 -1.05,-0.98 -0.25,-0.41 -0.38,-0.88 -0.38,-1.39 0,-0.84 0.28,-1.52 0.84,-2.06 0.56,-0.54 1.27,-0.81 2.14,-0.81 z m 0.79,3.78 h 1.21 v -1.74 h -1.21 c -0.19,0 -0.35,0.04 -0.49,0.11 -0.14,0.07 -0.25,0.18 -0.31,0.31 -0.07,0.13 -0.1,0.29 -0.1,0.46 0,0.26 0.08,0.47 0.24,0.63 0.16,0.16 0.38,0.24 0.67,0.24 z"
         id="path92" />
    </g>
    <g
       id="g94">
      <path
         class="cls-1"
         d="m 195.11,61.72 c -0.08,-0.28 -0.28,-0.51 -0.54,-0.64 -0.05,-0.02 -31.81,-14.79 -31.86,-14.8 L 114.47,23.86 c -0.27,-0.12 -0.58,-0.12 -0.84,0 L 73.29,42.61 c 0,0 0,0 0,0 0,0 0,0 0,0 L 33.54,61.09 c -0.35,0.16 -0.58,0.51 -0.58,0.9 0,15.92 0,59.16 0,74.45 0,0.39 0.23,0.75 0.58,0.91 l 15.94,7.41 c 0,0 0.05,0.03 0.08,0.04 0.02,0 32.07,14.9 32.09,14.91 l 31.89,14.82 c 0,0 0.11,0.06 0.16,0.07 0,0 0.02,0 0.03,0 0.03,0.01 0.06,0.02 0.1,0.03 0,0 0.02,0 0.03,0.01 0.14,0.02 0.28,0.03 0.42,0 0.03,-0.02 0.09,-0.01 0.12,-0.04 0.03,-0.01 0.06,-0.02 0.09,-0.03 0,0 0.01,0 0.02,0 6.66,-3.1 67.16,-31.21 72,-33.46 0.02,0 8.05,-3.76 8.09,-3.76 0.35,-0.16 0.58,-0.52 0.58,-0.91 -0.09,-0.44 0.11,-74.35 -0.04,-74.72 z m -86.46,17.97 c -0.13,-0.84 -0.31,-1.65 -0.54,-2.44 0.08,-0.02 0.16,-0.03 0.24,-0.04 0.18,-0.04 0.37,-0.06 0.56,-0.08 0.08,-0.01 0.17,-0.01 0.25,-0.02 1.13,-0.07 2.25,0.06 3.36,0.38 0.46,0.13 0.93,0.29 1.37,0.48 0.65,0.25 1.29,0.57 1.9,0.93 0.08,0.04 0.15,0.08 0.22,0.13 0.43,0.25 0.83,0.5 1.24,0.79 0.44,0.29 0.89,0.62 1.31,0.96 3.94,3.08 7.54,7.64 10.29,11.69 l -21.42,9.95 c -0.35,-0.33 -0.83,-0.53 -1.37,-0.53 H 99 c -0.12,-0.57 -0.23,-1.14 -0.33,-1.7 5.52,-2.65 9.21,-7.78 10.08,-14.06 0.08,-0.58 -0.09,-1.16 -0.47,-1.6 -0.38,-0.44 -0.93,-0.69 -1.51,-0.69 h -7.06 c 0.17,-0.36 0.37,-0.72 0.58,-1.05 0.09,-0.16 0.19,-0.32 0.29,-0.47 0.08,-0.11 0.15,-0.21 0.22,-0.31 h 5.88 c 1.2,0.03 2.19,-1.14 1.97,-2.32 z m -8.97,32.13 h -2.32 v 23.98 h -8.8 V 111.82 H 79.9 v -7.93 h 26.16 v 7.93 h -6.37 c -0.04,-0.11 -0.08,-0.23 -0.12,-0.34 0.04,0.11 0.08,0.23 0.11,0.34 z m 2.89,-31.81 h -4.78 c -3.17,-8.91 -15.3,-6.16 -15.05,3.19 -0.29,7.25 8.27,11.51 13.3,6.01 0.1,-0.1 0.19,-0.2 0.27,-0.31 0.68,-0.89 1.17,-1.9 1.48,-3.06 h 8.98 c -0.75,5.44 -3.77,9.8 -8.42,12.28 -0.32,0.15 -0.62,0.31 -0.95,0.45 -0.04,0.02 -0.08,0.04 -0.13,0.06 -0.27,0.12 -0.54,0.22 -0.82,0.33 -0.04,0.01 -0.08,0.02 -0.13,0.04 -10.98,3.78 -22.98,-3.85 -22.74,-15.8 0,-4.8 1.62,-8.81 4.86,-12.01 8.44,-8.55 24.52,-5.4 27.76,6.62 0.2,0.7 0.36,1.44 0.48,2.2 z M 78.39,116.7 H 69.5 c -3.15,-8.91 -15.31,-6.16 -15.04,3.19 -0.28,9.41 12.51,11.95 15.04,2.64 h 8.98 c -0.96,7.8 -7.37,13.76 -15.07,14.05 H 63.4 c -8.52,0.74 -16.52,-5.17 -17.84,-13.51 -0.17,-0.87 -0.24,-1.78 -0.26,-2.69 v 0 C 44.72,99.8 74.84,96.33 78.39,116.7 Z M 44.72,67.2 h 13.82 c 3.13,0.02 5.86,0.85 8.11,2.78 0.01,-0.01 0.01,0 0.01,0 0.28,0.23 0.54,0.48 0.78,0.75 0.28,0.28 0.53,0.59 0.76,0.91 3.69,4.73 2.7,12.91 -2.87,15.84 l 6.34,11.63 h -9.8 c -0.91,-1.72 -4.35,-8.16 -5.2,-9.76 h -3.15 v 9.76 h -8.8 z M 82.4,157.85 50.47,143.01 c 0,0 -0.05,-0.03 -0.08,-0.04 L 34.95,135.8 v -20.76 l 8.4,6.36 c 0.56,11.22 11.42,19.01 22.37,16.93 l 15.62,11.83 c 0,0 0.05,0.04 0.07,0.05 l 24.57,18.59 z m 25.22,-32.51 c -0.07,-0.13 -0.13,-0.27 -0.21,-0.43 -1.31,-2.72 -2.58,-5.48 -3.73,-8.29 -0.41,-0.99 -0.78,-1.92 -1.12,-2.8 h 3.5 c 1.11,0 2,-0.9 2,-2 v -7.48 l 21.89,-10.18 c 0.26,0.42 0.52,0.85 0.78,1.3 0.97,1.66 1.89,3.39 2.75,5.14 0.26,0.52 0.52,1.05 0.77,1.58 0.03,0.06 0.06,0.13 0.09,0.2 0.72,1.48 1.41,3.04 2.07,4.54 0.06,0.13 0.11,0.25 0.16,0.37 0.12,0.27 0.23,0.53 0.34,0.8 0.23,0.53 0.45,1.04 0.66,1.54 0.1,0.26 0.21,0.51 0.31,0.75 0.04,0.09 0.07,0.18 0.11,0.27 0.64,1.58 1.23,3.03 1.78,4.54 0.34,0.86 0.53,2.13 1.7,1.79 0.52,-0.19 0.8,-0.75 0.62,-1.27 -3.61,-10.74 -7.48,-26.79 -9.29,-37.68 -0.02,-0.09 -0.03,-0.19 -0.05,-0.29 -0.15,-0.89 -0.28,-1.79 -0.41,-2.69 -0.35,-2.22 -0.63,-4.45 -0.87,-6.69 -0.04,-0.31 -0.07,-0.62 -0.1,-0.92 l 7.99,-3.71 c 1.73,11.69 4.58,23.25 8.24,34.49 0.14,0.41 0.27,0.81 0.41,1.22 1.52,4.42 3.17,8.81 5.08,13.09 -1.96,0.91 -41.31,19.21 -42.12,19.58 -0.25,-0.52 -1.05,-2.21 -1.15,-2.39 -0.32,-0.62 -1.65,-3.27 -1.99,-3.95 -0.06,-0.14 -0.13,-0.27 -0.21,-0.43 z M 138,47.2 c 0,4.83 0.49,9.65 1.08,14.45 l -7.93,3.68 c -0.02,-0.19 -0.04,-0.39 -0.05,-0.58 -0.24,-2.56 -0.41,-5.26 -0.54,-7.82 -0.05,-1.12 -0.09,-2.36 -0.11,-3.49 -0.01,-0.13 0,-0.24 -0.01,-0.38 -0.03,-1.6 -0.03,-3.23 0,-4.52 0,0 0,-0.08 0,-0.14 0,-0.06 0,-0.08 0,-0.12 v -0.11 c 0,0 7.64,-3.53 7.64,-3.53 -0.06,0.85 -0.09,1.69 -0.09,2.56 z m -23.49,125.14 c -3.89,-7.93 -6.23,-16.79 -6.22,-25.56 -0.12,-5.52 1.19,-8.18 3.02,-12.63 7.45,-3.47 35.71,-16.6 42.61,-19.81 v 0 c 6.46,14.26 15.82,20.01 29.73,25.86 -11.22,5.21 -60.04,27.9 -69.14,32.13 z M 186.1,64.62 154.87,50 141.27,42.9 c 0.44,-0.8 -0.48,-1.78 -1.32,-1.35 0,0 -10.53,4.9 -10.53,4.9 l -0.13,0.06 c -0.37,-0.03 -3.11,-0.23 -3.54,-0.26 -0.36,-0.02 -0.73,-0.04 -1.12,-0.08 -4.75,-0.34 -21.6,-1.55 -26.03,-1.87 0,0 -0.1,0 -0.1,-0.01 -0.81,-0.05 -2.44,-0.17 -3.25,-0.22 v 0 c 0,0 0,0 0,0 l -0.07,0.97 c 0,-0.24 -0.03,-0.75 -0.03,-0.99 C 91.93,43.83 88.03,43.54 84.79,43.31 84.55,43.3 82.07,43.11 81.76,43.09 81.58,43.08 81.4,43.07 81.23,43.05 H 81.2 c 0,0 -0.02,0 -0.04,0 l -3.53,-0.25 36.42,-16.93 47.86,22.25 c 0,0 0.03,0.02 0.05,0.02 l 29.81,13.85 -5.68,2.64 z m 7.05,71.18 -6.05,2.81 V 66.37 l 6.05,-2.81 v 72.25 z"
         id="path93" />
      <path
         class="cls-1"
         d="M 60.36,80.97 C 62.01,79.54 61.69,76.39 59.61,75.46 58.4,74.7 54.93,75.09 53.52,75 v 6.93 h 4.01 c 1.19,0 2.13,-0.32 2.83,-0.96 z"
         id="path94" />
    </g>
  </g>
</svg>
