<?xml version="1.0" encoding="UTF-8" standalone="no"?>
<svg
   version="1.1"
   width="4.7216129in"
   height="1.6176779in"
   viewBox="0 0 339.95681 116.47295"
   id="svg4"
   xmlns="http://www.w3.org/2000/svg"
   xmlns:svg="http://www.w3.org/2000/svg">
  <defs
     id="defs4" />
  <g
     id="Layer1000"
     transform="translate(-111.8188,-216.4545)">
    <path
       d="m 118.5247,287.8812 h 99.0804 c -0.4021,1.8887 -0.8887,3.7418 -1.4565,5.555 H 114.6562 c -1.8964,-6.0572 -2.8374,-12.3998 -2.8374,-18.7458 0,-6.4271 0.9676,-12.8486 2.9119,-18.9746 h 97.2684 v -2.0609 h -96.5752 c 0.6777,-1.902 1.4432,-3.7563 2.2942,-5.555 h 94.281 v -31.571 h 5.5549 v 44.7418 16.2594 h -5.5549 v -16.2594 h -93.4188 c -1.0244,4.2829 -1.571,8.7802 -1.571,13.4197 0,4.5573 0.5255,8.9768 1.5154,13.1908 z m 46.8772,-71.4267 c 7.0848,0 13.8485,1.4976 20.0389,4.2128 H 145.364 c 6.1905,-2.7152 12.9531,-4.2128 20.0379,-4.2128 z m 25.2995,6.8903 c 2.7564,1.6076 5.3683,3.4674 7.8103,5.555 h -66.2185 c 2.442,-2.0876 5.0539,-3.9474 7.8103,-5.555 z m 10.8955,8.4069 c 1.7387,1.732 3.3707,3.5885 4.8872,5.555 h -82.1633 c 1.5165,-1.9665 3.1485,-3.823 4.8872,-5.555 z m 6.7426,8.0936 c 1.2221,1.7753 2.3497,3.6318 3.3818,5.5549 h -92.6378 c 1.0322,-1.9231 2.1598,-3.7796 3.3819,-5.5549 z m 7.1214,55.6518 c -0.6688,1.902 -1.4265,3.7551 -2.2675,5.5549 h -95.5819 c -0.841,-1.7998 -1.5987,-3.6529 -2.2676,-5.5549 z m -3.614,8.2546 c -1.0221,1.9232 -2.142,3.7774 -3.353,5.555 H 122.311 c -1.211,-1.7776 -2.3309,-3.6318 -3.353,-5.555 z m -5.1839,8.0936 c -1.4998,1.9653 -3.1174,3.8207 -4.8395,5.555 h -72.8421 c -1.7221,-1.7343 -3.3397,-3.5897 -4.8395,-5.555 z m -7.8892,8.4069 c -2.4008,2.0809 -4.9683,3.9418 -7.6802,5.5549 h -51.3823 c -2.7119,-1.6131 -5.2794,-3.474 -7.6803,-5.5549 z m -12.8152,8.2324 c -6.3316,2.8608 -13.2731,4.4429 -20.5567,4.4429 -7.2837,0 -14.2252,-1.5821 -20.5556,-4.4429 z"
       style="fill:#fc1119;fill-rule:evenodd"
       id="path1" />
    <path
       d="m 352.695,287.8812 h 99.0805 c -0.4022,1.8887 -0.8888,3.7418 -1.4565,5.555 H 348.8266 c -1.8965,-6.0572 -2.8375,-12.3998 -2.8375,-18.7458 0,-6.4271 0.9677,-12.8486 2.9119,-18.9746 h 97.2684 v -2.0609 h -96.5751 c 0.6777,-1.902 1.4431,-3.7563 2.2942,-5.555 h 94.2809 v -31.571 h 5.555 v 44.7418 16.2594 h -5.555 v -16.2594 h -93.4188 c -1.0243,4.2829 -1.571,8.7802 -1.571,13.4197 0,4.5573 0.5255,8.9768 1.5154,13.1908 z m 46.8772,-71.4267 c 7.0848,0 13.8485,1.4976 20.039,4.2128 h -40.0768 c 6.1904,-2.7152 12.953,-4.2128 20.0378,-4.2128 z m 25.2995,6.8903 c 2.7564,1.6076 5.3683,3.4674 7.8103,5.555 h -66.2184 c 2.4419,-2.0876 5.0539,-3.9474 7.8102,-5.555 z m 10.8955,8.4069 c 1.7387,1.732 3.3708,3.5885 4.8873,5.555 h -82.1634 c 1.5165,-1.9665 3.1485,-3.823 4.8872,-5.555 z m 6.7426,8.0936 c 1.2221,1.7753 2.3498,3.6318 3.3819,5.5549 h -92.6378 c 1.0321,-1.9231 2.1597,-3.7796 3.3818,-5.5549 z m 7.1215,55.6518 c -0.6688,1.902 -1.4265,3.7551 -2.2676,5.5549 h -95.5819 c -0.841,-1.7998 -1.5987,-3.6529 -2.2675,-5.5549 z m -3.6141,8.2546 c -1.0221,1.9232 -2.142,3.7774 -3.353,5.555 h -86.1829 c -1.211,-1.7776 -2.3309,-3.6318 -3.353,-5.555 z m -5.1839,8.0936 c -1.4998,1.9653 -3.1174,3.8207 -4.8395,5.555 h -72.8421 c -1.722,-1.7343 -3.3396,-3.5897 -4.8395,-5.555 z m -7.8891,8.4069 c -2.4009,2.0809 -4.9684,3.9418 -7.6803,5.5549 h -51.3823 c -2.7119,-1.6131 -5.2794,-3.474 -7.6802,-5.5549 z m -12.8153,8.2324 c -6.3316,2.8608 -13.273,4.4429 -20.5567,4.4429 -7.2836,0 -14.2251,-1.5821 -20.5555,-4.4429 z"
       style="fill:#fc1119;fill-rule:evenodd"
       id="path2" />
    <g
       id="Layer1001">
      <path
         d="m 228.2384,287.8068 h 51.5167 v 45.024 h -51.5167 z"
         style="fill:#241c66;fill-rule:evenodd"
         id="path3" />
      <path
         d="m 284.1858,327.1659 h 51.3555 v 5.6649 h -51.3555 z m 0,-39.478 h 20.9999 l -8.9868,-10.0278 h -28.6036 l -9.0912,10.1467 h -7.427 l 23.2619,-25.9617 h -45.9506 v -44.3074 h 106.6285 v 44.3074 h -45.5617 l 23.1564,25.8428 h 22.9297 v 5.6649 h -51.3555 z m 7.0348,-15.5828 -9.1924,-10.26 h -0.2622 l -9.1923,10.26 z m -7.0348,23.2475 h 51.3555 v 5.665 h -51.3555 z m 0,7.9136 h 51.3555 v 5.665 h -51.3555 z m 0,7.9136 h 51.3555 v 5.665 h -51.3555 z m 0,7.6725 h 51.3555 v 5.665 h -51.3555 z"
         style="fill:#fc1119;fill-rule:evenodd"
         id="path4" />
    </g>
  </g>
</svg>
